<svg xmlns="http://www.w3.org/2000/svg" width="100" height="95" viewBox="0 0 100 95">
  <path fill="#56B3B4" d="M58.1974249,35.851216 C58.5693848,36.4663805 58.869814,37.0243205 58.869814,37.1101574 C58.869814,37.1959943 58.9556509,37.4391989 59.0701001,37.6537911 C59.2989986,38.0972818 59.7424893,39.5422031 59.6566524,39.5422031 C59.6137339,39.5422031 59.4277539,39.2131617 59.2131617,38.8125894 C58.3690987,37.1387697 56.8526466,35.4792561 55.2217454,34.434907 C52.2460658,32.546495 49.1416309,32.074392 45.0643777,32.9041488 C42.4606581,33.4191702 39.7281831,34.9356223 37.8969957,36.8526466 C37.1530758,37.639485 36.1230329,38.8984263 36.1230329,39.0128755 C36.1230329,39.055794 35.8941345,39.4706724 35.6223176,39.9284692 C34.9642346,41.0443491 34.3347639,42.7896996 34.0343348,44.3490701 C33.8483548,45.3361946 33.8197425,46.0944206 33.8769671,47.7682403 C33.9198856,48.9556509 33.9914163,50.0715308 34.0343348,50.2718169 C34.0629471,50.472103 34.1344778,50.9155937 34.1917024,51.2732475 C34.2346209,51.6309013 34.2918455,52.0171674 34.3204578,52.1316166 C34.3347639,52.2460658 34.4062947,52.6037196 34.4635193,52.9184549 C35.2074392,56.7381974 37.2818312,61.0729614 39.4992847,63.4334764 C39.8283262,63.7911302 40.2288984,64.2060086 40.3719599,64.3776824 C40.8011445,64.8497854 42.3748212,66.1230329 43.2474964,66.6809728 C46.7525036,68.9270386 50.9155937,70.0429185 55.9370529,70.0715308 C59.1416309,70.0858369 61.2875536,69.9141631 64.5207439,69.3705293 C65.3075823,69.241774 66.1516452,69.0987124 66.3805436,69.055794 C66.8240343,68.9842632 68.5264664,68.5693848 69.81402,68.2260372 C73.8626609,67.1244635 77.8683834,65.09299 80.0429185,63.0329041 C80.8297568,62.2889843 80.944206,62.2031474 80.9298999,62.4320458 C80.9285374,62.4838204 80.925488,62.5511664 80.9210607,62.6306975 L80.9039538,62.9024603 C80.8455228,63.7568408 80.7098576,65.2469514 80.6866953,65.2932761 C80.658083,65.3361946 80.6008584,65.6652361 80.5436338,66.0085837 C80.0715308,69.3991416 78.9127325,73.5908441 77.5822604,76.7095851 C74.3347639,84.3633763 69.1416309,89.7854077 62.5178827,92.4606581 C61.888412,92.7181688 61.2446352,92.9756795 61.0872675,93.0329041 C59.8712446,93.5336195 57.0958512,94.1630901 55.0643777,94.4062947 C54.5922747,94.4635193 54.0915594,94.5493562 53.9341917,94.5779685 C53.6051502,94.6494993 47.3247496,94.7639485 47.2532189,94.6924177 C47.2246066,94.6638054 46.7525036,94.6065808 46.2088698,94.5636624 C44.0629471,94.3776824 40.9585122,93.6909871 38.8268956,92.9041488 C36.4234621,92.0171674 33.2761087,90.2288984 31.4878398,88.7267525 C30.7868383,88.1402003 28.5979971,85.9656652 28.111588,85.379113 C24.148784,80.5579399 21.602289,74.6351931 20.3147353,67.2246066 C19.5994278,63.018598 19.5708155,59.4134478 20.2432046,55.6366237 C20.6294707,53.4620887 20.6437768,53.3762518 21.0300429,51.8168813 C22.0600858,47.7110157 24.1058655,43.0472103 26.2088698,40 C30.7153076,33.5193133 36.509299,30.0572246 43.9914163,29.3991416 C50.4864092,28.8412017 55.2932761,31.0300429 58.1974249,35.851216 Z M74.6781116,0.271816881 C74.9213162,0.314735336 75.3648069,0.371959943 75.6795422,0.429184549 C76.8240343,0.600858369 79.5708155,1.37339056 80.8297568,1.87410587 C82.074392,2.36051502 84.7639485,3.71959943 84.90701,3.91988555 C84.9499285,3.97711016 85.1359084,4.10586552 85.3361946,4.20600858 C86.1087268,4.60658083 88.3834049,6.42346209 89.5851216,7.61087268 C94.3919886,12.3319027 98.3690987,19.4706724 99.4134478,25.2360515 L99.483248,25.6063777 C99.5866586,26.1619314 99.681363,26.6939784 99.7281831,26.8812589 C99.7711016,27.1244635 99.8426323,28.4978541 99.8569385,29.9570815 C99.8998569,32.6609442 99.7281831,34.2632332 99.1559371,36.4663805 C97.739628,41.9456366 94.72103,46.9384835 89.9284692,51.7167382 C86.4520744,55.1788269 82.8469242,57.8683834 79.6852647,59.3562232 C75.6223176,61.2589413 70.9728183,62.5894134 65.7367668,63.3476395 C64.2918455,63.5622318 58.9699571,63.7625179 58.8268956,63.6194564 C58.7982833,63.6051502 58.3404864,63.5479256 57.7968526,63.5050072 C55.9799714,63.3619456 52.9899857,62.7467811 51.9313305,62.3032904 C51.7739628,62.2317597 51.2017167,62.0028612 50.6437768,61.7739628 C46.8240343,60.2575107 43.8769671,57.6824034 41.3733906,53.6623748 C40.2432046,51.8741059 39.5851216,50.1716738 39.0414878,47.6967096 C38.8984263,47.0386266 38.869814,43.8912732 39.0128755,43.0329041 C39.4134478,40.3433476 40.472103,37.7968526 42.0314735,35.7224607 C42.3462089,35.3075823 42.6180258,34.9642346 42.6466381,34.9642346 C42.6752504,34.9642346 42.4749642,35.3361946 42.2031474,35.7939914 C40.4864092,38.6695279 40.1287554,42.732475 41.3018598,45.7653791 C41.6738197,46.7381974 42.3891273,48.111588 42.7610873,48.583691 C42.9184549,48.7839771 43.2188841,49.1702432 43.4048641,49.4420601 C43.6051502,49.6995708 44.2203147,50.3719599 44.7782546,50.9155937 C49.3562232,55.4506438 56.5522175,56.6380544 62.3748212,53.8054363 C65.5078684,52.2889843 68.4263233,49.7281831 70.4577969,46.7238913 C71.4735336,45.2074392 72.8040057,42.2746781 73.0901288,40.8869814 C73.1330472,40.7439199 73.2474964,40.2002861 73.3619456,39.6852647 C73.490701,39.1702432 73.6337625,38.4692418 73.676681,38.111588 C73.8197425,37.1816881 73.8626609,33.3333333 73.7482117,32.6323319 C73.6909871,32.3032904 73.6051502,31.7167382 73.5479256,31.3447783 C73.3762518,29.8569385 72.3319027,26.2374821 71.5736767,24.5207439 C70.5722461,22.2746781 68.6123033,18.7267525 67.1244635,16.509299 C63.3190272,10.8440629 58.5979971,6.42346209 54.4635193,4.63519313 L53.5622318,4.24892704 L54.7067239,3.73390558 C56.4663805,2.91845494 59.0987124,1.91702432 60.2288984,1.63090129 C60.3809013,1.58619456 60.661436,1.5079578 60.9657211,1.42413269 L61.3355575,1.32264843 C61.3968616,1.3058834 61.4574392,1.28934192 61.5164521,1.2732475 C61.9885551,1.14449213 62.5035765,1.01573677 62.6609442,0.972818312 C62.8183119,0.944206009 63.1044349,0.886981402 63.304721,0.844062947 C64.2632332,0.629470672 66.037196,0.329041488 66.8097282,0.25751073 C67.2818312,0.214592275 67.8254649,0.143061516 68.0257511,0.114449213 C68.2260372,0.0858369099 69.3848355,0.0572246066 70.6008584,0.0429184549 C72.6323319,0.0429184549 73.4477825,0.0858369099 74.6781116,0.271816881 Z M33.7625179,0.357653791 C34.3919886,0.429184549 35.193133,0.557939914 35.5507868,0.629470672 L35.7083631,0.661586523 L35.7083631,0.661586523 L36.0320241,0.729321772 C36.2439053,0.773700038 36.4377682,0.813406908 36.5522175,0.829756795 C38.1258941,1.08726753 41.9313305,2.26037196 44.2775393,3.20457797 C49.0414878,5.10729614 52.3748212,7.35336195 56.4377682,11.3590844 C57.4821173,12.3891273 59.2703863,14.3633763 59.6137339,14.8640916 C59.6709585,14.9356223 59.8998569,15.2360515 60.1287554,15.5078684 C63.2188841,19.3276109 65.6795422,24.72103 66.2374821,28.9556509 C66.2947067,29.3848355 66.3662375,29.8712446 66.3948498,30.0286123 C66.4806867,30.4577969 66.4663805,34.0915594 66.3662375,34.6781116 C65.9942775,37.1530758 65.6652361,38.4406295 64.9213162,40.4005722 C62.7467811,46.1230329 59.055794,49.7997139 54.434907,50.8583691 C52.4749642,51.3018598 50.1573677,51.2732475 48.1402003,50.7868383 L47.3533619,50.5865522 L48.7124464,50.5722461 C50.1430615,50.5579399 50.5579399,50.5150215 51.9313305,50.18598 C53.7911302,49.7424893 56.2517883,48.2403433 57.5822604,46.7381974 C59.2274678,44.8783977 60.5722461,42.1459227 60.9585122,39.8998569 C61.1731044,38.683834 61.1015737,35.565093 60.8297568,34.4635193 C59.7997139,30.0715308 57.0958512,26.223176 53.2761087,23.676681 C51.230329,22.3032904 48.9556509,21.4735336 46.2088698,21.1158798 C45.1788269,20.9728183 40.9728183,21.0014306 40.2002861,21.1444921 C39.9713877,21.1874106 39.5422031,21.2732475 39.2703863,21.316166 C38.2403433,21.4878398 38.0257511,21.5450644 36.9527897,21.8168813 C30.7868383,23.3762518 25.5364807,26.8240343 22.5894134,31.2446352 C20.8154506,33.9198856 18.2260372,39.9427754 17.5822604,42.9041488 C17.5679542,42.9899857 17.4964235,43.304721 17.4105866,43.6194564 C17.0815451,44.8497854 16.7095851,46.8240343 16.5951359,48.0686695 C16.5379113,48.6123033 16.4663805,49.1845494 16.4377682,49.341917 C16.3662375,49.7281831 16.3662375,53.776824 16.4520744,54.4492132 C16.5522175,55.3361946 16.6809728,56.1802575 16.8097282,56.7811159 C16.8812589,57.0958512 16.9241774,57.3533619 16.9098712,57.3823734 C16.8955651,57.3962804 16.323319,57.0243205 15.6652361,56.5379113 C13.4191702,54.9356223 11.6595136,53.4477825 9.72818312,51.4878398 C4.44921316,46.1659514 1.44492132,40.7010014 0.185979971,34.1773963 C0.0754772828,33.5775245 0.00852245181,31.6363788 0.00193396129,29.8484014 L0.00232579816,29.1880084 C0.00835234299,28.0011533 0.0439050861,26.9749889 0.114449213,26.5951359 C0.17167382,26.2804006 0.25751073,25.7653791 0.300429185,25.4506438 L0.334070994,25.245887 C0.405266452,24.820279 0.438125894,24.7013591 0.701001431,23.6623748 C1.3304721,21.1158798 2.24606581,18.769671 3.64806867,16.1087268 C6.58082976,10.5293276 10.3862661,6.32331903 14.9213162,3.64806867 C15.6795422,3.20457797 16.5379113,2.73247496 16.8097282,2.6037196 C18.3261803,1.91702432 18.7410587,1.7453505 19.7567954,1.41630901 C24.1344778,-0.0286123033 28.1974249,-0.329041488 33.7625179,0.357653791 Z" transform="matrix(1 0 0 -1 0 95)"/>
</svg>
