<svg xmlns="http://www.w3.org/2000/svg" viewBox="0 0 100 94"><path fill="#56b3b4" fill-rule="evenodd" d="M0 23.095C2.193 9.275 38.074.02 50.593.04S94.12-1.55 98.479 13.69s1.797 77.236-41.126 79.365C14.43 95.185 2.22 46.558 0 23.095zm47.113-2.893c.028 3.48 4.592 4.28 6.217 4.33 1.082.035 3.433-.57 7.05-1.812-4.496-.88-6.744-2.215-6.744-4.006 0-2.687 3.456-3.856 3.442-5.581-.013-1.725-3.728-5.152-7.712-4.436 2.326 1.787 4.27 1.711 4.27 3.553s-6.55 4.472-6.523 7.952zM34.33 30.346c-1.135-.092-1.829-.012-2.08.238-.253.25-.348.952-.287 2.108 3.331 19.463 5.38 30.21 6.143 32.238.764 2.03 2.706 3.02 5.826 2.973h17.341c2.875 0 4.054.241 5.001-.743C67.722 65.655 68 62.615 68 61.887c0-.803-.121-1.248-.363-1.333-12.563 0-19.267-.034-20.112-.1-.846-.067-1.359-.378-1.54-.933-.355-2.134-.532-3.586-.532-4.357 0-.77.338-1.152 1.016-1.143 11.66-.207 17.753-.346 18.282-.417s.873-.36 1.032-.864c.28-2.012.443-3.38.491-4.108.049-.727-.46-1.237-1.523-1.53-12.248 0-18.68-.01-19.298-.031-.618-.02-.991-.483-1.12-1.389-.212-2.371-.345-3.9-.4-4.584-.057-.685.333-1.11 1.169-1.274 15.74-.208 24.254-.313 25.54-.314 1.287-.001 1.95-.48 1.99-1.434.404-2.41.758-4.272 1.063-5.584.306-1.312-.24-2.028-1.637-2.146z"/></svg>