<svg xmlns="http://www.w3.org/2000/svg" fill="#56B3B4" viewBox="0 0 256 256"><path d="M246.94 27.638L194.193 2.241a15.947 15.947 0 00-18.194 3.092L3.324 162.773c-4.645 4.235-4.64 11.547.011 15.775L17.44 191.37a10.667 10.667 0 0013.622.606l207.941-157.75c6.976-5.291 16.996-.316 16.996 8.44v-.612a16 16 0 00-9.059-14.416z"/><path d="M246.94 228.362l-52.747 25.397a15.95 15.95 0 01-18.194-3.092L3.324 93.227c-4.645-4.234-4.64-11.547.011-15.775L17.44 64.63a10.667 10.667 0 0113.622-.605l207.941 157.748c6.976 5.292 16.996.317 16.996-8.44v.613a16.001 16.001 0 01-9.059 14.416z"/><path d="M194.196 253.763A15.955 15.955 0 01176 250.667c5.904 5.904 16 1.722 16-6.628V11.961c0-8.35-10.096-12.532-16-6.628a15.955 15.955 0 0118.196-3.097L246.934 27.6A16 16 0 01256 42.017v171.965a16 16 0 01-9.066 14.419l-52.738 25.361z"/></svg>
