<svg xmlns="http://www.w3.org/2000/svg" viewBox="0 0 48 48"><path fill="#C695C8" d="M0 0h48v48H0V0zm32.244 37.5l-3.666 2.13c1.324 2.616 4.03 4.612 8.22 4.612 4.284 0 7.474-2.224 7.474-6.285 0-3.767-2.164-5.443-5.996-7.086l-1.128-.483c-1.935-.838-2.773-1.386-2.773-2.74 0-1.094.837-1.932 2.158-1.932 1.296 0 2.13.546 2.903 1.933l3.513-2.255c-1.486-2.614-3.548-3.612-6.416-3.612-4.028 0-6.605 2.575-6.605 5.958 0 3.673 2.162 5.41 5.417 6.796l1.127.484c2.058.9 3.284 1.448 3.284 2.994 0 1.291-1.194 2.225-3.063 2.225-2.224 0-3.482-1.16-4.45-2.739zm-15.934.391l-3.672 2.223c1.064 2.251 3.156 4.12 6.767 4.12 3.997 0 6.735-2.126 6.735-6.796V22.04h-4.51v15.337c0 2.254-.935 2.834-2.417 2.834-1.55 0-2.194-1.063-2.903-2.32z"/></svg>