<svg xmlns="http://www.w3.org/2000/svg" viewBox="0 0 685 250"><g fill-rule="evenodd" clip-rule="evenodd"><path fill="#c693c6" d="M385 140h30c2.8 0 5 2.2 5 5s-2.2 5-5 5h-30c-2.8 0-5-2.2-5-5s2.2-5 5-5zm-120 40h60c2.8 0 5 2.2 5 5s-2.2 5-5 5h-60c-2.8 0-5-2.2-5-5s2.2-5 5-5zm0-80h40c2.8 0 5 2.2 5 5s-2.2 5-5 5h-40c-2.8 0-5-2.2-5-5s2.2-5 5-5zm90-40h40c2.8 0 5 2.2 5 5s-2.2 5-5 5h-40c-2.8 0-5-2.2-5-5s2.2-5 5-5zm-90 100h10c2.8 0 5 2.2 5 5s-2.2 5-5 5h-10c-2.8 0-5-2.2-5-5s2.2-5 5-5z"/><path fill="#ea5e5e" d="M265 220h60c2.8 0 5 2.2 5 5s-2.2 5-5 5h-60c-2.8 0-5-2.2-5-5s2.2-5 5-5zm60-80h40c2.8 0 5 2.2 5 5s-2.2 5-5 5h-40c-2.8 0-5-2.2-5-5s2.2-5 5-5zM265 40h30c2.8 0 5 2.2 5 5s-2.2 5-5 5h-30c-2.8 0-5-2.2-5-5s2.2-5 5-5zm0 80h10c2.8 0 5 2.2 5 5s-2.2 5-5 5h-10c-2.8 0-5-2.2-5-5s2.2-5 5-5zm120-40h50c2.8 0 5 2.2 5 5s-2.2 5-5 5h-50c-2.8 0-5-2.2-5-5s2.2-5 5-5z"/><path fill="#fbbf47" d="M315 40h100c2.8 0 5 2.2 5 5s-2.2 5-5 5H315c-2.8 0-5-2.2-5-5s2.2-5 5-5zm-10 160h20c2.8 0 5 2.2 5 5s-2.2 5-5 5h-20c-2.8 0-5-2.2-5-5s2.2-5 5-5zm-10-80h30c2.8 0 5 2.2 5 5s-2.2 5-5 5h-30c-2.8 0-5-2.2-5-5s2.2-5 5-5zm0 40h90c2.8 0 5 2.2 5 5s-2.2 5-5 5h-90c-2.8 0-5-2.2-5-5s2.2-5 5-5zm90-60h50c2.8 0 5 2.2 5 5s-2.2 5-5 5h-50c-2.8 0-5-2.2-5-5s2.2-5 5-5zM265 80h40c2.8 0 5 2.2 5 5s-2.2 5-5 5h-40c-2.8 0-5-2.2-5-5s2.2-5 5-5z"/><path fill="#56b3b4" d="M265 140h40c2.8 0 5 2.2 5 5s-2.2 5-5 5h-40c-2.8 0-5-2.2-5-5s2.2-5 5-5zm0 60h20c2.8 0 5 2.2 5 5s-2.2 5-5 5h-20c-2.8 0-5-2.2-5-5s2.2-5 5-5zM415 60h10c2.8 0 5 2.2 5 5s-2.2 5-5 5h-10c-2.8 0-5-2.2-5-5s2.2-5 5-5zm-70 60h80c2.8 0 5 2.2 5 5s-2.2 5-5 5h-80c-2.8 0-5-2.2-5-5s2.2-5 5-5zm-80-60h70c2.8 0 5 2.2 5 5s-2.2 5-5 5h-70c-2.8 0-5-2.2-5-5s2.2-5 5-5zm0-40h120c2.8 0 5 2.2 5 5s-2.2 5-5 5H265c-2.8 0-5-2.2-5-5s2.2-5 5-5z"/><path fill="#c6cbd0" d="M483 20h20c2.8 0 5 2.2 5 5s-2.2 5-5 5h-20c-2.8 0-5-2.2-5-5s2.2-5 5-5zm-78 0h60c2.8 0 5 2.2 5 5s-2.2 5-5 5h-60c-2.8 0-5-2.2-5-5s2.2-5 5-5zm-300 0h60c2.8 0 5 2.2 5 5s-2.2 5-5 5h-60c-2.8 0-5-2.2-5-5s2.2-5 5-5zm80 0h60c2.8 0 5 2.2 5 5s-2.2 5-5 5h-60c-2.8 0-5-2.2-5-5s2.2-5 5-5zm15-20h135c2.8 0 5 2.2 5 5s-2.2 5-5 5H200c-2.8 0-5-2.2-5-5s2.2-5 5-5zm155 0h40c2.8 0 5 2.2 5 5s-2.2 5-5 5h-40c-2.8 0-5-2.2-5-5s2.2-5 5-5zM110 0h40c2.8 0 5 2.2 5 5s-2.2 5-5 5h-40c-2.8 0-5-2.2-5-5s2.2-5 5-5zm55 220h40c2.8 0 5 2.2 5 5s-2.2 5-5 5h-40c-2.8 0-5-2.2-5-5s2.2-5 5-5zm20-160h60c2.8 0 5 2.2 5 5s-2.2 5-5 5h-60c-2.8 0-5-2.2-5-5s2.2-5 5-5zM564 0h40c2.8 0 5 2.2 5 5s-2.2 5-5 5h-40c-2.8 0-5-2.2-5-5s2.2-5 5-5zM46 20h40c2.8 0 5 2.2 5 5s-2.2 5-5 5H46c-2.8 0-5-2.2-5-5s2.2-5 5-5zM415 0h129c2.8 0 5 2.2 5 5s-2.2 5-5 5H415c-2.8 0-5-2.2-5-5s2.2-5 5-5zm105 20h114c2.8 0 5 2.2 5 5s-2.2 5-5 5H520c-2.8 0-5-2.2-5-5s2.2-5 5-5zM180 240h100c2.8 0 5 2.2 5 5s-2.2 5-5 5H180c-2.8 0-5-2.2-5-5s2.2-5 5-5zm-80 0h60c2.8 0 5 2.2 5 5s-2.2 5-5 5h-60c-2.8 0-5-2.2-5-5s2.2-5 5-5zm305-80h60c2.8 0 5 2.2 5 5s-2.2 5-5 5h-60c-2.8 0-5-2.2-5-5s2.2-5 5-5zm80 0h80c2.8 0 5 2.2 5 5s-2.2 5-5 5h-80c-2.8 0-5-2.2-5-5s2.2-5 5-5zm-380-20h80c2.8 0 5 2.2 5 5s-2.2 5-5 5h-80c-2.8 0-5-2.2-5-5s2.2-5 5-5zm20-20h80c2.8 0 5 2.2 5 5s-2.2 5-5 5h-80c-2.8 0-5-2.2-5-5s2.2-5 5-5zm-100 0h80c2.8 0 5 2.2 5 5s-2.2 5-5 5H25c-2.8 0-5-2.2-5-5s2.2-5 5-5zm560 40h25c2.8 0 5 2.2 5 5s-2.2 5-5 5h-25c-2.8 0-5-2.2-5-5s2.2-5 5-5zm-150-20h60c2.8 0 5 2.2 5 5s-2.2 5-5 5h-60c-2.8 0-5-2.2-5-5s2.2-5 5-5zm160-20h60c2.8 0 5 2.2 5 5s-2.2 5-5 5h-60c-2.8 0-5-2.2-5-5s2.2-5 5-5zM435 40h50c2.8 0 5 2.2 5 5s-2.2 5-5 5h-50c-2.8 0-5-2.2-5-5s2.2-5 5-5zm-290 0h50c2.8 0 5 2.2 5 5s-2.2 5-5 5h-50c-2.8 0-5-2.2-5-5s2.2-5 5-5zm-70 0h50c2.8 0 5 2.2 5 5s-2.2 5-5 5H75c-2.8 0-5-2.2-5-5s2.2-5 5-5zm90 40h50c2.8 0 5 2.2 5 5s-2.2 5-5 5h-50c-2.8 0-5-2.2-5-5s2.2-5 5-5zm340-40h105c2.8 0 5 2.2 5 5s-2.2 5-5 5H505c-2.8 0-5-2.2-5-5s2.2-5 5-5zm-90 160h105c2.8 0 5 2.2 5 5s-2.2 5-5 5H415c-2.8 0-5-2.2-5-5s2.2-5 5-5zm-305 0h135c2.8 0 5 2.2 5 5s-2.2 5-5 5H110c-2.8 0-5-2.2-5-5s2.2-5 5-5zm30-40h105c2.8 0 5 2.2 5 5s-2.2 5-5 5H140c-2.8 0-5-2.2-5-5s2.2-5 5-5zm75-120h30c2.8 0 5 2.2 5 5s-2.2 5-5 5h-30c-2.8 0-5-2.2-5-5s2.2-5 5-5zM30 60h30c2.8 0 5 2.2 5 5s-2.2 5-5 5H30c-2.8 0-5-2.2-5-5s2.2-5 5-5zm85 20h30c2.8 0 5 2.2 5 5s-2.2 5-5 5h-30c-2.8 0-5-2.2-5-5s2.2-5 5-5zm120 0h10c2.8 0 5 2.2 5 5s-2.2 5-5 5h-10c-2.8 0-5-2.2-5-5s2.2-5 5-5zm210 40h100c2.8 0 5 2.2 5 5s-2.2 5-5 5H445c-2.8 0-5-2.2-5-5s2.2-5 5-5zm-300-20h100c2.8 0 5 2.2 5 5s-2.2 5-5 5H145c-2.8 0-5-2.2-5-5s2.2-5 5-5zm340-20h195c2.8 0 5 2.2 5 5s-2.2 5-5 5H485c-2.8 0-5-2.2-5-5s2.2-5 5-5zm-40-20h80c2.8 0 5 2.2 5 5s-2.2 5-5 5h-80c-2.8 0-5-2.2-5-5s2.2-5 5-5zm100 0h80c2.8 0 5 2.2 5 5s-2.2 5-5 5h-80c-2.8 0-5-2.2-5-5s2.2-5 5-5zM15 80h80c2.8 0 5 2.2 5 5s-2.2 5-5 5H15c-2.8 0-5-2.2-5-5s2.2-5 5-5zm60-20h90c2.8 0 5 2.2 5 5s-2.2 5-5 5H75c-2.8 0-5-2.2-5-5s2.2-5 5-5zm410 160h30c2.8 0 5 2.2 5 5s-2.2 5-5 5h-30c-2.8 0-5-2.2-5-5s2.2-5 5-5zM80 160h40c2.8 0 5 2.2 5 5s-2.2 5-5 5H80c-2.8 0-5-2.2-5-5s2.2-5 5-5zm145 60h20c2.8 0 5 2.2 5 5s-2.2 5-5 5h-20c-2.8 0-5-2.2-5-5s2.2-5 5-5zm0-100h20c2.8 0 5 2.2 5 5s-2.2 5-5 5h-20c-2.8 0-5-2.2-5-5s2.2-5 5-5zm340 0h10c2.8 0 5 2.2 5 5s-2.2 5-5 5h-10c-2.8 0-5-2.2-5-5s2.2-5 5-5zM455 80h10c2.8 0 5 2.2 5 5s-2.2 5-5 5h-10c-2.8 0-5-2.2-5-5s2.2-5 5-5zM170 0h10c2.8 0 5 2.2 5 5s-2.2 5-5 5h-10c-2.8 0-5-2.2-5-5s2.2-5 5-5zm-5 180h10c2.8 0 5 2.2 5 5s-2.2 5-5 5h-10c-2.8 0-5-2.2-5-5s2.2-5 5-5zM65 220h80c2.8 0 5 2.2 5 5s-2.2 5-5 5H65c-2.8 0-5-2.2-5-5s2.2-5 5-5zm390-120h135c2.8 0 5 2.2 5 5s-2.2 5-5 5H455c-2.8 0-5-2.2-5-5s2.2-5 5-5zm-110 80h80c2.8 0 5 2.2 5 5s-2.2 5-5 5h-80c-2.8 0-5-2.2-5-5s2.2-5 5-5zm100 0h145c2.8 0 5 2.2 5 5s-2.2 5-5 5H445c-2.8 0-5-2.2-5-5s2.2-5 5-5zm-100 20h50c2.8 0 5 2.2 5 5s-2.2 5-5 5h-50c-2.8 0-5-2.2-5-5s2.2-5 5-5zm55 40h50c2.8 0 5 2.2 5 5s-2.2 5-5 5h-50c-2.8 0-5-2.2-5-5s2.2-5 5-5zm-205-60h50c2.8 0 5 2.2 5 5s-2.2 5-5 5h-50c-2.8 0-5-2.2-5-5s2.2-5 5-5zm-125 0h75c2.8 0 5 2.2 5 5s-2.2 5-5 5H70c-2.8 0-5-2.2-5-5s2.2-5 5-5zm-35-40h50c2.8 0 5 2.2 5 5s-2.2 5-5 5H35c-2.8 0-5-2.2-5-5s2.2-5 5-5zm480 0h120c2.8 0 5 2.2 5 5s-2.2 5-5 5H515c-2.8 0-5-2.2-5-5s2.2-5 5-5zM5 100h120c2.8 0 5 2.2 5 5s-2.2 5-5 5H5c-2.8 0-5-2.2-5-5s2.2-5 5-5zm340 120h120c2.8 0 5 2.2 5 5s-2.2 5-5 5H345c-2.8 0-5-2.2-5-5s2.2-5 5-5zm-45 20h80c2.8 0 5 2.2 5 5s-2.2 5-5 5h-80c-2.8 0-5-2.2-5-5s2.2-5 5-5zm25-160h40c2.8 0 5 2.2 5 5s-2.2 5-5 5h-40c-2.8 0-5-2.2-5-5s2.2-5 5-5zm0 20h40c2.8 0 5 2.2 5 5s-2.2 5-5 5h-40c-2.8 0-5-2.2-5-5s2.2-5 5-5zm-120 40h40c2.8 0 5 2.2 5 5s-2.2 5-5 5h-40c-2.8 0-5-2.2-5-5s2.2-5 5-5z" opacity=".5"/></g></svg>