<svg xmlns="http://www.w3.org/2000/svg" viewBox="0 0 92 86"><g fill="#56B3B4" fill-rule="evenodd"><path d="M2.394.825H34.66l1.966 1.966v6.031l-1.56 1.898h-3.524v29.955L61.91 10.72h-5.016l-1.762-1.898v-6.37L56.758.96h32.673l1.627 1.626V8.55L17.171 84.32H8.766l-2.433-1.405V10.449H2.258L.767 8.958v-6.37z"/><path fill-rule="nonzero" stroke="#56B3B4" stroke-width="3" d="M45.308 51.385a.329.329 0 00-.15.076l-1.42 1.225a.331.331 0 00-.092.143l-1.42 3.995a.332.332 0 00.076.344l1.085 1.09a.326.326 0 00.234.093h4.385a.329.329 0 00.234-.092l1.144-1.158a.331.331 0 00.083-.143l1.22-4.205a.332.332 0 00-.084-.327l-.943-.949a.329.329 0 00-.234-.092h-4.05a.328.328 0 00-.068 0zm-8.034 11.263a.33.33 0 00-.25.244l-.543 2.165a.332.332 0 00.317.411h2.58l-6.397 18.355a.333.333 0 00.31.437h9.311a.33.33 0 00.318-.227l.61-1.972a.332.332 0 00-.318-.428h-2.105l6.331-18.548a.333.333 0 00-.309-.437h-9.788a.328.328 0 00-.067 0zm29.632.067a.33.33 0 00-.184.11l-1.938 2.198h-3.081l-2.055-2.14a.329.329 0 00-.234-.1h-7.358a.33.33 0 00-.309.218l-.676 2.03a.333.333 0 00.309.437h1.971l-6.13 18.154a.333.333 0 00.309.436h7.834a.33.33 0 00.309-.218l.601-1.77a.333.333 0 00-.309-.437h-1.37l3.909-12.363h7.074l-4.46 14.36a.332.332 0 00.317.428h7.559a.33.33 0 00.3-.201l.677-1.628a.333.333 0 00-.3-.454H68.3l3.975-12.572h6.731L74.481 83.63a.332.332 0 00.317.428H83.1a.33.33 0 00.309-.21l.676-1.77a.333.333 0 00-.309-.445h-1.645l5.003-16.324a.332.332 0 00-.05-.302l-1.554-2.099a.329.329 0 00-.267-.126h-5.938a.329.329 0 00-.242.101l-1.871 2.065h-3.274L72 62.816a.329.329 0 00-.242-.1h-4.785a.328.328 0 00-.067 0z"/></g></svg>