<?xml version="1.0" encoding="UTF-8"?>
<svg width="701px" height="200px" viewBox="0 0 701 200" version="1.1" xmlns="http://www.w3.org/2000/svg" xmlns:xlink="http://www.w3.org/1999/xlink">
    <!-- Generator: Sketch 53.2 (72643) - https://sketchapp.com -->
    <title>aircall</title>
    <desc>Created with Sketch.</desc>
    <defs>
        <path d="M150.780585,4.3015736 C139.501255,1.69842599 120.960528,0 100,0 C79.039472,0 60.4987448,1.69842599 49.2194149,4.3015736 C26.7305511,9.02072071 9.02072071,26.7305511 4.3015736,49.2194149 C1.69842599,60.4987448 -2.21039322e-15,79.039472 0,100 C2.21039322e-15,120.960528 1.69842599,139.501255 4.3015736,150.780585 C9.02072071,173.269449 26.7305511,190.979279 49.2194149,195.698426 C60.4987448,198.301574 79.039472,200 100,200 C120.960528,200 139.501255,198.301574 150.780585,195.698426 C173.269449,190.979279 190.979279,173.269449 195.698426,150.780585 C198.301574,139.501255 200,120.960528 200,100 C200,79.039472 198.301574,60.4987448 195.698426,49.2194149 C190.979279,26.7305511 173.269449,9.02072071 150.780585,4.3015736 Z" id="path-1"></path>
    </defs>
    <g id="Page-1" stroke="none" stroke-width="1" fill="none" fill-rule="evenodd">
        <g id="aircall">
            <g id="icon" style="mix-blend-mode: multiply;">
                <g id="bg" fill="#00B388" fill-rule="nonzero">
                    <path d="M150.780585,4.3015736 C139.501255,1.69842599 120.960528,0 100,0 C79.039472,0 60.4987448,1.69842599 49.2194149,4.3015736 C26.7305511,9.02072071 9.02072071,26.7305511 4.3015736,49.2194149 C1.69842599,60.4987448 -2.21039322e-15,79.039472 0,100 C2.21039322e-15,120.960528 1.69842599,139.501255 4.3015736,150.780585 C9.02072071,173.269449 26.7305511,190.979279 49.2194149,195.698426 C60.4987448,198.301574 79.039472,200 100,200 C120.960528,200 139.501255,198.301574 150.780585,195.698426 C173.269449,190.979279 190.979279,173.269449 195.698426,150.780585 C198.301574,139.501255 200,120.960528 200,100 C200,79.039472 198.301574,60.4987448 195.698426,49.2194149 C190.979279,26.7305511 173.269449,9.02072071 150.780585,4.3015736 Z" id="path-1"></path>
                </g>
                <g id="Path-Clipped">
                    <mask id="mask-2" fill="white">
                        <use xlink:href="#path-1"></use>
                    </mask>
                    <g id="path-1"></g>
                    <path d="M124.029712,153.525154 C122.131936,149.008087 118.103926,145.606699 113.202952,144.57826 C110.270326,143.901442 105.449737,143.459851 100,143.459851 C94.5502627,143.459851 89.7296736,143.901442 86.7970479,144.57826 C81.9310883,145.599351 77.925664,148.959606 76.0112893,153.42851 C76.0112893,153.42851 76.0112893,153.42851 76.0112893,153.42851 L76.0112893,153.42851 C75.3472244,154.978699 73.7598001,155.924312 72.0804306,155.770083 C71.6613181,155.73161 71.2995191,155.697206 70.9950319,155.666888 C63.1528259,154.886049 56.988881,153.796735 53.4076286,152.525484 C53.40182,152.522442 53.3947165,152.519343 53.3863179,152.516187 C50.9831056,151.613063 49.2730526,149.293641 49.2730526,146.574815 C49.2730526,146.507233 49.2741092,146.439898 49.2762067,146.372826 C49.2817159,146.2634 49.2881404,146.151651 49.2954743,146.037602 C49.2976062,146.012174 49.299888,145.986788 49.3023189,145.961446 C49.3091449,145.890284 49.3134222,145.821484 49.3151508,145.755045 C49.9256075,137.593085 54.8823755,118.484648 62.2858806,96.6746258 C70.7496094,71.7412848 79.600847,51.5557086 83.5921881,47.6185558 C83.5940016,47.6159347 83.5959383,47.6135533 83.5979984,47.6114116 C84.2292178,46.9551886 84.9643302,46.3996241 85.7768741,45.9711798 C86.0940335,45.7900482 86.4958967,45.616832 86.9730067,45.4534157 C86.9854742,45.4491222 86.9979547,45.4448567 87.0104483,45.4406193 C89.6328563,44.553828 94.4659202,43.9598508 99.9951815,43.9598508 L100,43.959851 C105.53408,43.9598508 110.367144,44.553828 112.98476,45.4390423 L112.989552,45.4406193 C113.002045,45.4448567 113.014526,45.4491222 113.026993,45.4534157 C113.504103,45.616832 113.905967,45.7900482 114.223126,45.9711798 C115.03567,46.3996241 115.770782,46.9551886 116.402002,47.6114116 C116.404062,47.6135533 116.405998,47.6159347 116.407812,47.6185558 C120.399153,51.5557086 129.250391,71.7412848 137.714119,96.6746258 C145.117624,118.484648 150.074392,137.593085 150.684849,145.755045 C150.686578,145.821484 150.690855,145.890284 150.697681,145.961446 C150.700112,145.986788 150.702394,146.012174 150.704526,146.037602 C150.71186,146.151651 150.718284,146.2634 150.723793,146.372826 C150.725891,146.439898 150.726947,146.507233 150.726947,146.574815 C150.726947,149.293641 149.016894,151.613063 146.613682,152.516187 C146.605283,152.519343 146.59818,152.522442 146.592371,152.525484 C143.014263,153.79562 136.857994,154.884136 129.025616,155.664831 C128.684271,155.698855 128.2712,155.73799 127.786401,155.782236 L127.786401,155.782237 C126.176045,155.929208 124.656057,155.015974 124.029712,153.525154 C124.029712,153.525154 124.029712,153.525154 124.029712,153.525154 Z" id="Path" fill="#FFFFFF" fill-rule="nonzero" mask="url(#mask-2)"></path>
                </g>
            </g>
            <path d="M319.352803,66.629595 L338.437604,66.629595 L338.437604,150.029603 L319.352803,150.029603 L319.352803,135.375203 C313.388803,145.769603 303.164802,151.733603 289.873602,151.733603 C267.721601,151.733603 250,132.308003 250,108.281602 C250,84.255201 267.721601,65 289.873602,65 C303.164802,65 313.388803,70.964 319.352803,81.358401 L319.352803,66.629595 Z M605.080814,66.629595 L624.165615,66.629595 L624.165615,150.029603 L605.080814,150.029603 L605.080814,135.375203 C599.116814,145.769603 588.892814,151.733603 575.601613,151.733603 C553.449612,151.733603 535.728012,132.308003 535.728012,108.281602 C535.728012,84.255201 553.449612,65 575.601613,65 C588.892814,65 599.116814,70.964 605.080814,81.358401 L605.080814,66.629595 Z M294.389601,133.608802 C308.873602,133.608802 319.779202,122.703202 319.779202,108.219201 C319.779202,93.9056 308.873602,83 294.389601,83 C280.2464,83 269,94.2464 269,108.219201 C269,122.362402 280.2464,133.608802 294.389601,133.608802 Z M579.117613,133.608802 C593.601613,133.608802 604.507214,122.703202 604.507214,108.219201 C604.507214,93.9056 593.601613,83 579.117613,83 C564.974412,83 553.728012,94.2464 553.728012,108.219201 C553.728012,122.362402 564.974412,133.608802 579.117613,133.608802 Z M367.012005,25 C373.657605,25 379.280805,30.6232002 379.280805,37.0984005 C379.280805,43.9144008 373.657605,49.367201 367.012005,49.367201 C360.366404,49.367201 354.913604,43.9144008 354.913604,37.0984005 C354.913604,30.6232002 360.366404,25 367.012005,25 Z M357.640004,66.400002 L376.554405,66.400002 L376.554405,149.800005 L357.640004,149.800005 L357.640004,66.400002 Z M435.968185,64.770402 C439.611881,64.770402 443.12031,65.31147 445.649843,66.273088 C447.138693,66.839085 448.452233,67.464417 449.471657,67.992594 L441.774853,84.105937 C439.349465,83.37078 436.721625,83.003202 434.093785,83.003202 C424.892184,83.003202 414.668184,90.671203 414.668184,105.325603 L414.668184,149.800005 L395.753783,149.800005 L395.753783,66.399996 L414.668184,66.399996 L414.668184,78.402402 C418.416984,70.393602 427.788984,64.770402 435.968185,64.770402 Z M530.962403,128.670404 C524.657603,142.472805 510.003202,151.504005 492.622402,151.504005 C467.914401,151.504005 449,132.930404 449,108.222403 C449,83.514402 467.744001,64.770402 492.452002,64.770402 C508.640002,64.770402 522.272003,72.779202 528.406403,85.048002 L512.388803,94.079203 C508.980802,87.433602 501.483202,83.003202 492.452002,83.003202 C478.138401,83.003202 467.744001,93.908803 467.744001,108.222403 C467.744001,122.365604 478.308801,133.271204 492.622402,133.271204 C502.335202,133.271204 510.344002,128.670404 514.092803,121.002404 L530.962403,128.670404 Z M662.279394,25 L662.279394,149.800005 L643.364993,149.800005 L643.364993,25 L662.279394,25 Z M700.393173,25 L700.393173,149.800005 L681.478772,149.800005 L681.478772,25 L700.393173,25 Z" id="woodmark" fill="#101820" fill-rule="nonzero"></path>
        </g>
    </g>
</svg>