<svg xmlns="http://www.w3.org/2000/svg" viewBox="0 0 2000 2000"><defs><style>.fdaefdd3-8433-4d5f-8d68-7ae39eca1706{fill:#a7d388}.ed9893ae-019b-459d-8dba-c4f77b7a213e{fill:#f8b79d}.a752c6a6-6a57-484e-b48a-479a8a65ca0b{fill:#40bd0f}.bbc44b7f-896d-441d-876d-d9287b5d03f6{fill:#f40010}.b51fde23-def6-41e2-95cd-70ea806e23f4{fill:#524538}.f1058528-cd47-41a9-93f8-dc3cfa7d2f47{fill:#d6c4b1}.b5e3741e-14af-4178-8c7e-e98612ab36b2{fill:#ef646a}.ac95715e-59d5-4822-871a-9a898a39f3ea{fill:#fff}</style></defs><title>chillicream_logo</title><g id="af2bcaa2-c4a1-4fba-a66f-c8c864fddebe" data-name="Layer 1"><path d="M951.24,215c-.48.2-.34,11.25-2.41,13.11a6,6,0,0,1-2.29,1.11,69.41,69.41,0,0,1-9.34,2.25c-2.46.41-5,.71-7.18,1.9s-4,3.53-3.65,6,2.31,4,4.17,5.48a24.34,24.34,0,0,0,13.14,5.89A160,160,0,0,0,975.87,254,89.18,89.18,0,0,0,993,252.8c4.57-.82,11-4.93,15.22-4.93,19.35-9.66,35.71-26.54,34-49.64-.24-3.17-.87-6.46-2.86-8.92s-5.69-3.79-8.47-2.25c-1.88,1-2.94,3.1-3.88,5-2.35,4.81-5,12.71-9.3,6.32-2-3-2.36-8.36-2.82-11.91-1.67-12.55,6.54-17,13.5-25.59l14.17-17.57c5.22-6.46,12.15-19.51,19.58-23.54,5.72-3.11,2.19-3.1,7.9-.64,3.8,1.64,8.54,8.37,11.06,11.14,7.59,8.31,14.82,16.79,20.47,26.56,10.35,17.89,16,39.31,12.35,59.93a82.87,82.87,0,0,1-15.28,34.81c-9,12.07-22.72,17.94-35.6,25.53-2.5,1.47-5,3-6.82,5.28s-2.59,5.56-1.24,8.12c1.5,2.85,5,3.89,8.21,4.4,15.11,2.42,30.57-1,44.11-7.86a83.46,83.46,0,0,0,19.56-13.15c1.74-1.63,12.25-17.85,12.52-17.79,35.19,6.71,84.32,21.89,84.24,59.6,0,19.31-2.38,36.92-19.73,47.65a176,176,0,0,1-47,20c-12.23,3.29-32.85,5.61-40.28,17.16a8,8,0,0,0-1.51,4.51c.18,4.88,6.42,6.72,11.29,7a154.62,154.62,0,0,0,57.27-7.78c10.2-3.42,20.17-7.94,30.85-9.24,18.52-2.24,40.89,10.37,55.83,20A146.48,146.48,0,0,1,1314,458.15a151.73,151.73,0,0,1,20.55,48.8,141.7,141.7,0,0,1,3.47,25.36c.19,4.08.21,8.18.1,12.26-.1,2-.19,4.08-.29,6.13-.31.87-.54,1.63-.72,2.32-1.26-.15-2.32-.25-2.77-.26q-7.06-.07-14.14-.31-14.15-.5-28.24-1.64a554.84,554.84,0,0,1-61.56-8.52c-36-7.07-67.53-19.36-73.6-59.72-.77-5.11-3.06-8.65-6.13-10.82-2.41-12.69-19.42-22.71-31.93-11-21.81,20.39-50.34,40.94-64.92,67.58-6.25,11.41-9.27,23.78-7.52,36.75.32,2.42,2.6,7.62,3.49,11.46-2.2-3.44-11.26-1.67-16.8-2.57-30.07-4.91-57.07-19.86-78.52-41.33A210.26,210.26,0,0,1,926.89,498c-7.45-11.54-19.42-26-13.57-40.07q3.73-9,7.46-18c2.06-5,4.16-10.1,4.08-15.47-.05-3.37-1.2-7-4.08-8.78-3.13-1.92-7.35-.95-10.28,1.25s-4.94,5.4-7.07,8.38c-10.54,14.77-25.59,21.61-39.31,32.56C808.57,502.17,741.91,537.47,669,535.5c1-15.75,8.88-30.6,16.78-44.2C696.12,473.53,707.13,456,719,439.18a309.08,309.08,0,0,1,37-43.32q10.22-9.94,21.28-18.95c6.07-4.94,10.37-11,19-9.21,3.86.81,7.41,2.66,11,4.25a92,92,0,0,0,28.93,7.48c4,.35,8.08.42,11.7-1.21s6.54-5.39,6-9.33c-.4-3-2.6-5.38-5-7.22-6.22-4.85-14.06-7.15-20.6-11.56-10.46-7.06-15.83-20.13-20.6-31.35a41.24,41.24,0,0,1,.11-32.33c8.7-21,30.08-36.47,50.56-44.7C888.61,229.62,921.24,227.5,951.24,215Z" class="fdaefdd3-8433-4d5f-8d68-7ae39eca1706"/><path d="M1017.61,1848.93c-7.46,12.37-13.87,29-29.26,32.36-.27.06-.52.15-.78.22-8.8-8.62,4.46-55.73,5.54-62.84,3.73-24.54,4.3-49.2,0-73.71-9-51-43-86.75-75.62-124.48l-1.81-2.12c-66.16-77.66-92.45-171.57-132.32-262.73-42.4-96.94-58.09-210.92-76.37-314.55-16.32-92.51-31.44-186.23-25.54-280.49a814.2,814.2,0,0,1,34.93-190.07c.07-.2.1-.39.15-.58,60.07-9.57,115.17-40,164-77.66C910.69,550.8,958.05,599.57,1026,610.46c14.33,2.3,33.26,5.94,46.75-.9a21.21,21.21,0,0,0,2.85-1.81c8.76-6.31,13.38-22.59,11.67-32.61-1.58-9.16-5.86-15.46-2.38-24.91,3-8,9.32-14.61,15.21-20.6,7.74-7.88,15.83-15.46,24-23,12.29,40.15,48.46,61.59,89.5,70.28a623.51,623.51,0,0,0,82,11.55l.42,0a20.76,20.76,0,0,0,.2,4.94c11.79,74,11.17,150.26-2.7,223.93-13.63,72.42-40.39,141.22-66.35,209.9-51.17,135.34-97.24,273.49-121.79,416.42a1295.32,1295.32,0,0,0-17,147.48c-1.38,24.82-5.07,52.85-1.66,77.54,3.29,23.76,9.71,46.65,2.46,70.09-7.67,24.81-23.66,45.54-39.47,65.71C1038.34,1818.91,1027.05,1833.26,1017.61,1848.93Z" class="ed9893ae-019b-459d-8dba-c4f77b7a213e"/></g><g id="f83aba9e-1816-4438-8f2e-68882f299ff4" data-name="Layer 2"><path d="M927,140c-4.84-3.24-10.85-4.87-9.41-11.9,2.38-11.7,16.78-14.35,27-15.26,17.79-1.6,22.94,12.08,30.26,25.91,14.27,26.95,24,55.94,15.78,86.38a12,12,0,0,0-.27,1.63,62.79,62.79,0,0,1-17.67,1.48C976.5,190,958.54,161.05,927,140Z" class="a752c6a6-6a57-484e-b48a-479a8a65ca0b"/><path d="M966.2,215c-.48.2-.35,11.25-2.41,13.11a6.11,6.11,0,0,1-2.29,1.11,69.55,69.55,0,0,1-9.35,2.25c-2.45.41-5,.71-7.17,1.9s-4,3.53-3.65,6,2.31,4,4.16,5.48a33.53,33.53,0,0,0,4.59,3.18,32.86,32.86,0,0,0,8.56,2.71A159.88,159.88,0,0,0,990.83,254,89.29,89.29,0,0,0,1008,252.8c4.56-.82,11-4.93,15.22-4.93,19.34-9.66,35.7-26.54,34-49.64-.23-3.17-.86-6.46-2.86-8.92s-5.69-3.79-8.46-2.25c-1.89,1-2.94,3.1-3.89,5-2.35,4.81-5,12.71-9.29,6.32-2-3-2.36-8.36-2.83-11.91-1.66-12.55,6.54-17,13.5-25.59q7.1-8.79,14.18-17.57c5.21-6.46,12.14-19.51,19.58-23.54,5.72-3.11,2.18-3.1,7.89-.64,3.81,1.64,8.55,8.37,11.07,11.14,7.58,8.31,14.81,16.79,20.47,26.56,10.35,17.89,16,39.31,12.34,59.93a82.62,82.62,0,0,1-15.28,34.81c-9,12.07-22.71,17.94-35.6,25.53-2.49,1.47-5,3-6.82,5.28s-2.58,5.56-1.23,8.12c1.5,2.85,5,3.89,8.21,4.4,15.1,2.42,30.57-1,44.11-7.86a83.87,83.87,0,0,0,19.56-13.15c1.74-1.63,12.25-17.85,12.52-17.79,35.19,6.71,84.31,21.89,84.23,59.6,0,19.31-2.37,36.92-19.73,47.65a175.92,175.92,0,0,1-46.95,20c-12.24,3.29-32.86,5.61-40.28,17.16a8,8,0,0,0-1.51,4.51c.18,4.88,6.41,6.72,11.29,7a154.54,154.54,0,0,0,57.26-7.78c10.2-3.42,20.17-7.94,30.85-9.24,18.52-2.24,40.89,10.37,55.83,20A146.36,146.36,0,0,1,1329,458.15a151.76,151.76,0,0,1,20.56,48.8,142.61,142.61,0,0,1,3.47,25.36c.18,4.08.21,8.18.1,12.26q-.15,3.06-.29,6.13c-.31.87-.54,1.63-.73,2.32-1.26-.15-2.31-.25-2.76-.26q-7.08-.07-14.14-.31-14.15-.5-28.25-1.64a554.66,554.66,0,0,1-61.55-8.52c-36-7.07-67.53-19.36-73.61-59.72-.77-5.11-3-8.65-6.12-10.82-2.41-12.69-19.43-22.71-31.94-11-21.81,20.39-50.33,40.94-64.91,67.58-6.25,11.41-9.28,23.78-7.53,36.75.33,2.42,2.61,7.62,3.49,11.46-2.19-3.44-11.26-1.67-16.79-2.57-30.08-4.91-57.08-19.86-78.52-41.33A209.74,209.74,0,0,1,941.85,498c-7.46-11.54-19.43-26-13.57-40.07q3.72-9,7.46-18c2.06-5,4.15-10.1,4.07-15.47,0-3.37-1.2-7-4.07-8.78-3.13-1.92-7.35-.95-10.29,1.25s-4.93,5.4-7.06,8.38c-10.54,14.77-25.6,21.61-39.32,32.56C823.52,502.17,756.87,537.47,684,535.5c1-15.75,8.89-30.6,16.78-44.2,10.32-17.77,21.33-35.33,33.17-52.12A309.15,309.15,0,0,1,771,395.86q10.2-9.94,21.27-18.95c6.08-4.94,10.38-11,19-9.21,3.86.81,7.42,2.66,11,4.25a92.12,92.12,0,0,0,28.93,7.48c3.95.35,8.09.42,11.7-1.21s6.54-5.39,6-9.33c-.4-3-2.6-5.38-5-7.22-6.22-4.85-14.07-7.15-20.6-11.56-10.47-7.06-15.83-20.13-20.61-31.35a41.29,41.29,0,0,1,.11-32.33c8.71-21,30.08-36.47,50.57-44.7C903.57,229.62,936.19,227.5,966.2,215Z" class="a752c6a6-6a57-484e-b48a-479a8a65ca0b"/><path d="M451.44,985.6a107.85,107.85,0,0,0,15.86,5c18.41,4,38,.33,56.13,5.47,4.59,1.3,9.19,3.28,12.25,6.92a13.21,13.21,0,0,1,2.28,3.71c5.29,13.51-21.44,25.72-31.27,28.91-10.7,3.47-22.52,2.63-33.6,2.64-16.62,0-34,.15-50-4.86-15.42-4.82-25.76-14.53-36.47-26.13-24.08-26.08-47.78-52.51-71.72-78.71-8.53-9.33-17.86-18.39-28.22-24.81,51.32-31.87,118.36-31.45,168.63,7.28,18,13.85,33,31.24,51.4,44.5,4.5,3.23,22.51,10.25,11.4,17.42-3,1.94-6.83,2-10.41,1.93-15.23-.15-30.75-.35-45.19-5.19-7.28-2.45-14.16-6-21.57-8.07-8.08-2.21-16.66-4-24.59-7.8-6.24-3-16.41-10.21-23.34-7.05C408.08,965,429.4,977.06,451.44,985.6Z" class="a752c6a6-6a57-484e-b48a-479a8a65ca0b"/><path d="M1036.3,1852.66c-7.46,12.38-13.87,29-29.25,32.37-.28.06-.52.15-.79.22-8.8-8.62,4.47-55.73,5.55-62.84,3.73-24.54,4.29-49.2,0-73.71-9-51-43-86.75-75.62-124.48-.61-.7-1.21-1.41-1.82-2.12-66.15-77.67-92.44-171.57-132.32-262.74-42.39-96.93-58.08-210.91-76.36-314.54-16.32-92.51-31.45-186.23-25.54-280.49a813.68,813.68,0,0,1,34.93-190.07c.06-.2.09-.39.15-.58,60.07-9.57,115.16-40,164-77.66,30.19,58.52,77.55,107.29,145.48,118.18,14.32,2.3,33.26,5.94,46.74-.9a22,22,0,0,0,2.86-1.81c8.76-6.31,13.38-22.59,11.66-32.61-1.57-9.16-5.86-15.46-2.38-24.91,3-8,9.33-14.62,15.21-20.61,7.75-7.87,15.83-15.45,24-23,12.3,40.15,48.46,61.59,89.5,70.28a623.43,623.43,0,0,0,82,11.55l.42,0a21.3,21.3,0,0,0,.19,4.94c11.8,74,11.18,150.26-2.69,223.92-13.64,72.43-40.39,141.23-66.36,209.91-51.17,135.34-97.23,273.49-121.78,416.42a1297.61,1297.61,0,0,0-17,147.48c-1.37,24.82-5.07,52.85-1.65,77.54,3.28,23.76,9.7,46.65,2.46,70.09-7.68,24.81-23.66,45.54-39.47,65.71C1057,1822.65,1045.74,1837,1036.3,1852.66Z" class="bbc44b7f-896d-441d-876d-d9287b5d03f6"/><path d="M1558.32,905.69c-.84-.75-2.11-.61-3.21-.4-19.72,3.8-37.07,14.74-50.93,29-12.74,13.08-23.67,28.1-38.12,39.27s-34,18.11-51.14,11.91c4.19-10.92,15.46-15.86,22.17-25,24.62-33.64,52.22-61,90-79.65,25.35-12.48,61.71-25.07,92.89-21.36-10.51,15.77-14.89,35.87-16.06,56.23-1.2,20.68-.15,41.66-13,59.18s-33.16,27.53-53.45,33.9c-12.36,3.87-97.42,26.66-99.31,10.57-.36-3.09,1.45-6,3.58-8.28,9-9.61,23.68-11.14,35-18,16.58-10.1,23.68-29.37,35.91-43.56C1515.94,945.56,1561.53,908.57,1558.32,905.69Z" class="a752c6a6-6a57-484e-b48a-479a8a65ca0b"/></g><g id="b751f530-0525-497c-829d-298de8b6b713" data-name="Layer 3"><path d="M1133.5,1508.64c11-86.67,30.78-172,55.66-255.71,21-70.65,45.5-140.21,71.5-209.16q5.91-15.68,11.86-31.37a110.89,110.89,0,0,0,40.12,23.42c11.54,3.77,23.69,4.47,35.55,6.7,11.69,2.2,22.09,6.67,33.16,10.81,45.12,16.89,93.87,8.57,139.53-1.65,41.41-9.27,85.55-26.16,107.14-65.49,10.89-19.85,12-42,13-64.09.77-16.82,1.6-44.73,20.87-51.89,14.66-5.44,19.08-25.44,4.46-34.17-58.7-35-145.35-1.86-195.36,35.16-28.92,21.41-48.14,47.72-70.14,75.52-15.66,19.78-55.31,38.48-80.28,25.79-9.88-5-16.07-15.58-18.23-26.45-3.94-19.79,4.56-31.89,10.28-49.55,6.56-20.23,11.31-41.34,15.45-62.18a694.23,694.23,0,0,0,13.09-150.06c7.08-.08,14.51-4.49,15.87-11.85a143.82,143.82,0,0,0,2.75-25,16,16,0,0,0-1.35-7.13c-1.75-6-6.69-10.74-14.94-10.25-1.82.11-3.63.21-5.45.3q-1.85-19.36-4.71-38.68c13.6,0,26.57-2.28,34-10.93,12.76-14.78,8.85-45.45,6.68-63.14a189.4,189.4,0,0,0-21.6-67.93c-21.86-40-58.23-69.2-100.47-85.11,6.88-14.88,9-32.21,9-48.84a74.42,74.42,0,0,0-6.68-31.55q8.43,3.31,16.79,6.77c95.81,39.69,186.07,93.61,261.61,169.15S1669.22,623,1708.91,718.81a773.56,773.56,0,0,1,45.83,156q5.25,28.47,8.46,57.26,1.62,14.45,2.73,28.95c1.44,18.73.39,37.37.52,56.1.09,12.32-.26,24.65-.75,37,9.76.94,19.52,1.76,29.3,2.37.78-13.93,1.73-29.12,1.89-31.75q.36-6.16.53-12.36c1.43-49.91-5.77-101.13-15.46-149.85A824.21,824.21,0,0,0,1735.06,708c-41.36-99.85-98-194.78-176.7-273.5s-174.17-134.07-274-175.43a782.7,782.7,0,0,0-133.16-41.59,125.75,125.75,0,0,0-9.64-63.75C1130.23,127.13,1104,87,1073.92,80.19c-32.58-7.35-56.77,33.19-74.59,57.25q-1.7-3.57-3.52-7.11c-6.39-12.36-13.4-29.55-26.27-36.66-12-6.65-26.27-4.16-38.81-.35-22.37,6.8-48.07,29.59-29.62,54,8.39,11.11,22.91,15.24,32.39,25.35a63.41,63.41,0,0,1,5.67,7c-21.94,10.49-46.35,13.41-69.7,19.46q-9.59,2.49-18.8,5.88c-69.31,8.62-138.23,25.66-202.64,52.35-99.85,41.35-192.21,100.78-270.93,179.5S233.64,605.76,192.28,705.61c-81.23,196.12-78.34,444.57,2.72,640.28,4.14,10,8.55,19.87,13.09,29.71,10.79-7.64,21.09-15.95,31.85-23.63-3.08-7-6.23-13.88-9.14-20.91C191.11,1235.25,164,1133.15,164,1026.31s24.4-210.06,64.09-305.88,98.2-183.28,173.74-258.83S564.59,326.94,660.4,287.25a806.53,806.53,0,0,1,129-41c-20,24.62-28.75,57.26-16.13,87A370.3,370.3,0,0,0,682.76,426c-26.34,38.56-58.66,83-49,132,1.69,8.63,10.2,12.9,18,13.72a241.85,241.85,0,0,0,24.8,1.29q-8.39,28.56-14.72,57.66c-4.79-.14-9.56-.35-14.34-.64-8.25-.49-13.19,4.25-14.95,10.25a16,16,0,0,0-1.35,7.13,144.81,144.81,0,0,0,2.76,25c1.49,8.11,10.36,12.65,18,11.74a854.25,854.25,0,0,0-9,160.74c.66,17.08,10.41,50.71,4.68,66.27-4.15,11.27-26.59,19.76-37.29,23.43-32.24,11.06-69.56,4.51-95.09-18.4-28.45-25.52-52.17-49.47-89.14-62.74-68.43-24.57-145.27-4.15-195.33,47.59-9.15,9.47-5.39,21.66,2.64,27.94,4,4.3,10.08,6.52,17.55,4.16,17.06-5.39,29.8,13.5,39.87,24.52q19.28,21.12,38.51,42.28c20.35,22.32,40.12,50.21,68,63.5,27,12.87,60.07,13.44,89.44,12.07,17.67-.83,35.94-4.58,50.45-13.81,12-5,23.41-13.55,34.13-19.8,15.66-9.15,31.4-18.21,45.45-29.78,8.42-6.93,22.57-37.06,35.41-33.5,11.76,3.27,16.09,39.2,17.76,48.69,18.88,107.39,39,215,73,318.83,30.8,94,65.7,189,124.16,269.95q15,20.76,31.93,40c18.2,20.59,37.82,41.32,48.87,66.9,11.89,27.51,13,58.9,8.68,88.2-3.68,24.74-16.36,55.55-6.86,79.86,8.27,21.16,31.83,35.47,54,27.3a19.13,19.13,0,0,0,8.87-6.48c12.42-6.9,21.57-18.32,29.4-30.82,27.27-43.57,68.35-82.9,82.76-133.22,9.62-33.59-1.29-75.44-.74-110.38A1170.91,1170.91,0,0,1,1133.5,1508.64Zm303.59-548.22c24.62-33.64,52.22-61,90-79.65,25.35-12.48,61.71-25.07,92.89-21.36-10.51,15.77-14.88,35.87-16.06,56.23-1.2,20.68-.15,41.66-13,59.18s-33.16,27.53-53.45,33.9c-12.36,3.87-97.42,26.66-99.31,10.56-.36-3.08,1.45-6,3.58-8.27,9-9.61,23.68-11.14,35-18,16.58-10.1,23.68-29.37,35.91-43.57,3.34-3.87,48.94-40.86,45.72-43.74-.84-.75-2.11-.61-3.21-.4-19.72,3.8-37.07,14.74-50.93,29-12.74,13.08-23.67,28.1-38.12,39.27s-34,18.11-51.14,11.91C1419.11,974.53,1430.38,969.59,1437.09,960.42Zm-930.4,75.23c-10.7,3.47-22.52,2.63-33.6,2.64-16.62,0-34,.15-50-4.86-15.42-4.82-25.76-14.53-36.47-26.13-24.08-26.08-47.78-52.51-71.72-78.71-8.53-9.33-17.86-18.39-28.22-24.81,51.32-31.87,118.36-31.45,168.63,7.28,18,13.85,33,31.24,51.4,44.5,4.5,3.23,22.51,10.25,11.4,17.42-3,1.94-6.83,2-10.41,1.93-15.23-.15-30.75-.35-45.19-5.19-7.28-2.45-14.16-6-21.57-8.07-8.08-2.21-16.66-4-24.59-7.8-6.24-3-16.41-10.21-23.34-7.05,15.06,18.22,36.38,30.26,58.42,38.8a107.85,107.85,0,0,0,15.86,5c18.41,4,38,.33,56.13,5.47,4.59,1.3,9.19,3.28,12.25,6.92a13.21,13.21,0,0,1,2.28,3.71C543.25,1020.25,516.52,1032.46,506.69,1035.65Zm580.55-460.51c-1.58-9.16-5.86-15.46-2.38-24.91,3-8,9.32-14.61,15.21-20.6,7.74-7.88,15.83-15.46,24-23,12.29,40.15,48.46,61.59,89.5,70.28a623.51,623.51,0,0,0,82,11.55l.42,0a20.78,20.78,0,0,0,.2,4.94q3,18.63,4.87,37.42c-40.89-.6-81.85-4.47-122.71-5q-79.29-1-158.48,3.06c-5.44.27-10.87.37-16.3.49-10.66-.24-21.53,0-32.24-.49q-79.2-3.94-158.48-3.06c-37.48.46-75,3.75-112.56,4.76q6.93-30.37,16.15-60.16c.07-.2.1-.39.15-.58,60.07-9.57,115.17-40,164-77.66C910.69,550.8,958.05,599.57,1026,610.46c14.33,2.3,33.26,5.94,46.75-.9a21.21,21.21,0,0,0,2.85-1.81C1084.33,601.44,1089,585.16,1087.24,575.14ZM927,140c-4.84-3.24-10.85-4.87-9.41-11.9,2.38-11.7,16.78-14.35,27-15.26,17.79-1.6,22.94,12.08,30.26,25.91,14.27,26.95,24,55.94,15.78,86.38a12,12,0,0,0-.27,1.63,62.79,62.79,0,0,1-17.67,1.48C976.5,190,958.54,161.05,927,140ZM669,535.5c1-15.75,8.88-30.6,16.78-44.2C696.12,473.53,707.13,456,719,439.18a309.08,309.08,0,0,1,37-43.32q10.22-9.94,21.28-18.95c6.07-4.94,10.37-11,19-9.21,3.86.81,7.41,2.66,11,4.25a92,92,0,0,0,28.93,7.48c4,.35,8.08.42,11.7-1.21s6.54-5.4,6-9.33c-.39-3-2.6-5.38-5-7.22-6.22-4.85-14.06-7.15-20.6-11.56-10.46-7.06-15.83-20.13-20.6-31.35a41.24,41.24,0,0,1,.11-32.33c8.7-21,30.08-36.47,50.57-44.7,30.12-12.11,62.75-14.23,92.75-26.72-.48.21-.34,11.26-2.41,13.12a6,6,0,0,1-2.29,1.11,69.41,69.41,0,0,1-9.34,2.25c-2.46.41-5,.71-7.18,1.9s-4,3.53-3.65,6,2.31,4,4.17,5.48a24.34,24.34,0,0,0,13.14,5.89A160,160,0,0,0,975.87,254,90,90,0,0,0,993,252.8c4.57-.82,11-4.93,15.22-4.93,19.35-9.66,35.71-26.54,34-49.64-.23-3.17-.87-6.46-2.86-8.92s-5.69-3.79-8.47-2.25c-1.88,1-2.94,3.1-3.88,5-2.35,4.81-5,12.71-9.3,6.32-2-3-2.36-8.36-2.82-11.91-1.66-12.55,6.54-17,13.5-25.59l14.17-17.57c5.22-6.46,12.15-19.51,19.58-23.54,5.72-3.11,2.19-3.1,7.9-.64,3.8,1.64,8.54,8.37,11.06,11.14,7.59,8.31,14.82,16.79,20.47,26.56,10.35,17.89,16,39.31,12.35,59.93a82.87,82.87,0,0,1-15.28,34.81c-9,12.07-22.72,17.94-35.6,25.53-2.5,1.47-5,3-6.82,5.28s-2.59,5.56-1.24,8.12c1.5,2.85,5,3.89,8.21,4.4,15.11,2.42,30.57-1,44.11-7.86a83.72,83.72,0,0,0,19.57-13.15c1.73-1.63,12.24-17.85,12.51-17.79,35.19,6.71,84.32,21.89,84.24,59.6,0,19.31-2.38,36.92-19.73,47.65a176,176,0,0,1-47,20c-12.23,3.29-32.85,5.61-40.28,17.16a8,8,0,0,0-1.51,4.51c.18,4.88,6.42,6.72,11.29,7a154.62,154.62,0,0,0,57.27-7.78c10.2-3.42,20.17-7.94,30.85-9.24,18.52-2.24,40.89,10.37,55.83,20A146.48,146.48,0,0,1,1314,458.15a151.73,151.73,0,0,1,20.55,48.8,141.7,141.7,0,0,1,3.47,25.36c.19,4.08.21,8.18.1,12.26-.1,2-.19,4.08-.29,6.13-.31.87-.54,1.63-.72,2.32-1.26-.15-2.32-.25-2.77-.26q-7.06-.07-14.14-.31-14.15-.5-28.24-1.64a554.84,554.84,0,0,1-61.56-8.52c-36-7.07-67.53-19.36-73.6-59.72-.77-5.11-3.06-8.65-6.13-10.82-2.41-12.69-19.42-22.71-31.93-11-21.81,20.39-50.34,40.94-64.92,67.58-6.25,11.41-9.27,23.78-7.52,36.75.32,2.42,2.6,7.62,3.49,11.45-2.2-3.43-11.26-1.66-16.8-2.56-30.07-4.91-57.07-19.86-78.52-41.33A210.26,210.26,0,0,1,926.89,498c-7.45-11.54-19.42-26-13.57-40.07q3.73-9,7.46-18c2.06-5,4.16-10.1,4.08-15.47-.05-3.37-1.2-7-4.08-8.78-3.13-1.92-7.35-.95-10.28,1.25s-4.94,5.4-7.07,8.38c-10.54,14.77-25.59,21.61-39.31,32.56C808.57,502.17,741.91,537.47,669,535.5Zm436.25,908.22a1295.32,1295.32,0,0,0-17,147.48c-1.38,24.82-5.07,52.85-1.66,77.54,3.29,23.76,9.71,46.65,2.46,70.09-7.67,24.81-23.66,45.54-39.47,65.71-11.27,14.37-22.56,28.72-32,44.38-7.46,12.38-13.87,29-29.26,32.37-.27.06-.52.15-.78.22-8.8-8.62,4.46-55.73,5.54-62.84,3.73-24.54,4.3-49.2,0-73.71-9-51-43-86.75-75.62-124.48l-1.81-2.12c-66.16-77.67-92.45-171.57-132.32-262.74-42.4-96.93-58.09-210.91-76.37-314.54-16.32-92.51-31.44-186.23-25.54-280.49a812.45,812.45,0,0,1,9.49-82.78c8.07-.66,16.17-1,24.3-1,.09.37.11.71.23,1.08,8.12,25.7,8,54.4,20.52,78.68,5,9.59,11.7,20.6,21.63,25.89,22.95,12.23,49.82,10.41,75,10.83,24.34.42,49.95,4.3,72.52-7.3,33.13-17,37.6-72.39,55.24-101a15.73,15.73,0,0,0,2.43-7.54c6.32,0,12.64.12,19,.29,9.23-.11,18.39.24,27.58,0,6.32-.17,12.64-.25,19-.29a15.75,15.75,0,0,0,2.44,7.54c17.64,28.56,22.1,83.94,55.24,101,22.56,11.6,48.17,7.72,72.51,7.3,25.15-.42,52,1.4,75-10.83,9.92-5.29,16.67-16.3,21.63-25.89,12.56-24.28,12.4-53,20.52-78.68.12-.37.13-.71.23-1.08,9.47.09,18.91.49,28.3,1.39a647.14,647.14,0,0,1-10.71,139.24c-13.63,72.42-40.38,141.22-66.35,209.9C1175.9,1162.64,1129.83,1300.79,1105.28,1443.72Z" class="b51fde23-def6-41e2-95cd-70ea806e23f4"/><path d="M1063.74,793.71c-20.16,12.83-41,23.49-65.39,23.86-20.45.31-45.19-1.51-59.82-17.34-3.84-4.15-8.22-5.85-12.49-5.82-9.87-.82-20.66,5.17-21.09,18-.82,24.22-1.77,48.43-2.45,72.65-.55,19.65.34,38.54,8.92,56.58,15.47,32.49,49.47,52.23,85,52.93,35.69.7,72.06-17.95,86.45-51.55,7.7-18,8.72-37.61,10.2-56.87q2.71-35.29,5.39-70.59C1099.53,801.18,1076.53,785.58,1063.74,793.71ZM1053.28,911.2c-5,29.14-27,46.75-56.89,45.94-26.34-.72-50.9-18.4-55.77-45.13a88,88,0,0,1-1.29-12.57c38.92,1.34,77,1.91,115.87-1.41C1054.64,902.45,1054,906.84,1053.28,911.2Zm4.41-39.56c-39.43,3.55-78.1,3-117.58,1.66.21-3.41.4-6.78.52-10.08q.29-8.6.58-17.21c16,6.25,33.82,8.33,51,8.84,24.24.74,46.4-5.58,67.34-15.84C1059,849.86,1058.46,860.77,1057.69,871.64Z" class="b51fde23-def6-41e2-95cd-70ea806e23f4"/><path d="M892.1,1483.89c8.27-3,14.78-9.49,8.39-17.94-1.62-2.14-4.27-3.22-6.78-4.19l-10.22-4c-4-1.55-8.08-3.12-12.35-3.17s-8.84,1.75-10.91,5.49c-5.85,10.57,7.75,21.84,16.46,25C880.48,1486.42,886.67,1485.89,892.1,1483.89Z" class="b51fde23-def6-41e2-95cd-70ea806e23f4"/><path d="M900.93,1491.32a22.73,22.73,0,0,0-3.38,1.72c-8.32,5.33-17.56,12.21-17.89,22.08-.14,4.26,2.75,9.3,7,8.81a9.33,9.33,0,0,0,2.07-.56,89.78,89.78,0,0,0,28.5-16.79c2.54-2.23,5.07-4.78,5.89-8.07C926.66,1484.24,909.59,1487.61,900.93,1491.32Z" class="b51fde23-def6-41e2-95cd-70ea806e23f4"/><path d="M1382.89,1759.21a23.44,23.44,0,0,0-11.12-11.54q-7.47-3.7-14.61-6.64a34.5,34.5,0,0,0-14.36-2.71,22.14,22.14,0,0,0-12.79,4.36c-3.71,2.77-6.13,5.75-7.23,9a22.71,22.71,0,0,0-1,10.43,55.78,55.78,0,0,0,3,11.86q2.28,6.27,2.08,17.29T1323,1810a32.57,32.57,0,0,1-11,12.91,39.5,39.5,0,0,1-16.28,6.6,32.63,32.63,0,0,1-16-.86q-7-2.36-13.49-10.28a63,63,0,0,1-10-16.89q-3.54-9-6.09-16.52t-7.42-22.76a258.88,258.88,0,0,1-7.3-27.19q-2.43-12-3.94-20.63a65.69,65.69,0,0,1-.33-18.89,53,53,0,0,1,5.49-18.45q4.31-8.24,15.72-13.2t18,.09a38.06,38.06,0,0,1,10.11,11.38q3.54,6.32,7.89,15.69a64.77,64.77,0,0,0,11,16.6q6.63,7.23,12.84,6.84t16.63-5.2c6.93-3.22,11.71-6.25,14.33-9.13a23.1,23.1,0,0,0,5.34-9.34,31.82,31.82,0,0,0,.56-12.28,63.25,63.25,0,0,0-2.43-12q-1.58-4.72-12.3-25.18T1315,1611.93a69.9,69.9,0,0,0-17.26-13.69,39.34,39.34,0,0,0-17.58-5,145.09,145.09,0,0,0-19.28.82,109.18,109.18,0,0,0-19.74,3.84,249.54,249.54,0,0,0-24.72,9.27q-15.39,6.49-24.2,15.42a73.32,73.32,0,0,0-13.81,19,68.52,68.52,0,0,0-6.48,20,67.81,67.81,0,0,0-.2,19.44,141.31,141.31,0,0,0,3.81,18.67q2.52,9.12,7,21.54t16.84,40.08q12.36,27.67,17.33,39.08t9.84,20.24a100.07,100.07,0,0,0,13.51,18.38,64.75,64.75,0,0,0,20.44,15.19,162.63,162.63,0,0,0,20,8.19,46.07,46.07,0,0,0,18.64,1.51,98.12,98.12,0,0,0,23.22-5.77q12.8-4.7,26.16-10.87,23.52-11.83,29.58-19.63t8.1-12.49q2-4.68,3.7-15.59a57.35,57.35,0,0,0-.87-21.75A96.32,96.32,0,0,0,1382.89,1759.21Z" class="b51fde23-def6-41e2-95cd-70ea806e23f4"/><path d="M1503.15,1587.13q-12.7-11.55-25.41-17.26t-26.41,2.55a85.08,85.08,0,0,0-15.85,22.43q-5.74,12-10.36,23.8l-4.23,19.89-27.44-30.94q-22.14-7.87-27.93,1.59t-2.23,23q3.56,13.54,23.46,40.4t37.72,53.61q40.26,49.35,52.87,50a20.94,20.94,0,0,0,16.5-8,74.44,74.44,0,0,0,10.92-18.41q4.5-10.6-3.09-27.06-10-12.29-19.69-23a154.78,154.78,0,0,0-21.26-19.56l-7.15-8.77q6.62-19.64,28.32-33.34,22.06-3.37,27-2.29t11.74-3.73q6.84-4.85,7.18-10.24t-5.79-14.27Q1515.86,1598.69,1503.15,1587.13Z" class="b51fde23-def6-41e2-95cd-70ea806e23f4"/><path d="M1693.4,1519.09a51.16,51.16,0,0,0-10.75-17.52,85.24,85.24,0,0,0-13.3-11.26c-4.47-3-8-4.38-10.59-4.13s-5.43,2.29-8.52,6.1a24,24,0,0,0-5.51,11.67q-.88,6,.9,15.42a74.77,74.77,0,0,0,3.92,14.54q2.15,5.08,1.18,12.77t-9,13.82q-8,6.13-15.48,7a52.7,52.7,0,0,1-17.1-1.3q-9.65-2.13-24.54-19.85,6-16.86,10.21-20a78.07,78.07,0,0,0,10.47-10q6.21-6.82,13.62-21.86t9.68-22.78q2.27-7.74-1.92-17.11-10.53-10-22.09-13.8t-28.71-3.9a62.79,62.79,0,0,0-32.84,9.23,99.18,99.18,0,0,0-27.69,24.7,58.54,58.54,0,0,0-16.73,24.47,76,76,0,0,0-4.15,28.35,50.45,50.45,0,0,0,9.21,27.09q8.61,12.45,25,27.75t40.63,30.76q24.2,15.46,37.38,19.26t28.59-2.84q15.4-6.64,37-28.9,18.42-22.26,22.06-32.69a62.73,62.73,0,0,0,3.39-22.3A66.74,66.74,0,0,0,1693.4,1519.09Zm-138.89,12a27.27,27.27,0,0,1-13.13-9.16c-3.29-4.22-4.52-7.94-3.71-11.13s2.85-8,6.1-14.27a53.81,53.81,0,0,1,13-16.44q8.12-6.94,14.23-7.21t13.91,7.25Q1579.15,1493.94,1554.51,1531.08Z" class="b51fde23-def6-41e2-95cd-70ea806e23f4"/><path d="M1804.75,1336.74a391.69,391.69,0,0,0-56.37-9.54,166.63,166.63,0,0,1-56.25-15.88q-27.6-13.15-42.18-11.59a91.54,91.54,0,0,0-24.94,5.82q-10.38,4.28-20,18.71t-11.73,22.49q-2.14,8.05-3.85,15.83a34,34,0,0,0,.6,16.32,36.06,36.06,0,0,0,8.67,15.35,50.81,50.81,0,0,1,10,15.63q3.57,8.82,15.94,16.83t22.37,4.2q10-3.81,12.67-7.57a18.44,18.44,0,0,0,3-9.67,98.54,98.54,0,0,0,.06-11.65q-.32-5.74-6.66-17.7t-7.6-17.36a14.18,14.18,0,0,1,.52-9.25,25.57,25.57,0,0,1,5.88-7.74q4.13-3.87,11.57-2.46a52.93,52.93,0,0,1,12.09,3.52,20.32,20.32,0,0,1,7.67,6q3,3.89,4.94,11.3t-1.38,17.9q-3.27,10.5-7.78,21.34a42.47,42.47,0,0,0-3.5,20.83c.68,6.65,2.67,12.07,5.93,16.27a44.47,44.47,0,0,0,12.19,10.74q7.29,4.46,16.67,9.84t23.25,2.27q13.88-3.12,17.29-5.44c2.28-1.55,6.35-5.13,12.25-10.73q4.28-8.62,9.59-18.49a76.16,76.16,0,0,0,7.51-20.07q2.19-10.2.2-15T1769.55,1372q4.54-4.46,12.64-6.81a81.28,81.28,0,0,0,18.15-8.33q10-6,11.25-10.24T1804.75,1336.74Zm-60.85,89q-6.6,4.9-12.54,5.6-6-5.23-7.52-11.08a23.72,23.72,0,0,1,.71-13.07q2.23-7.23,7.36-9.24t9.11-.17a24.65,24.65,0,0,1,7,4.77,20,20,0,0,1,4.51,6.44Q1750.54,1420.86,1743.9,1425.76Z" class="b51fde23-def6-41e2-95cd-70ea806e23f4"/><path d="M1771.24,1137.3a54.72,54.72,0,0,1,17.48-.34,187.59,187.59,0,0,1,18.58,3q8.29,1.85,12.52,4.64t17.59,5.29q13.35,2.49,25.68-6.45,6.4-23.57,2.93-30.4t-22.34-13.81L1763,1085.94a175.79,175.79,0,0,1-30.81,0q-16.44-1.35-28.89,6.7-8.32,16.88-10.46,38.36t11.22,36.36q-23.23,5.74-32.13,17.91-7.05,8.48-6.57,17.49a79.93,79.93,0,0,0,4.58,21q-15.39-5.46-26.41,5.73a65.34,65.34,0,0,0-4.29,21.51q-.54,12.15,12.88,19l9.11.55,53,11a435.61,435.61,0,0,0,53.8,9.45q27.08,3,52.31,5.14,15.66-3.7,19.23-19.73t-13.36-19.48l-47.9-7.2q-47.3-8.82-48.12-16a25.61,25.61,0,0,1,2.67-14.33q3.49-7.12,16-14l11.15-1.09,29.77,5.55q14.19,2.64,22.72,7.11t13.39,5.38a17.47,17.47,0,0,0,10.36-1.53,22.71,22.71,0,0,0,9.41-8,104.22,104.22,0,0,0,6.59-10.58l1.76-9.46a130.47,130.47,0,0,0-40.35-19.9,294,294,0,0,0-47.37-10q-10.5-8.58-7.26-19.78A28.26,28.26,0,0,1,1771.24,1137.3Z" class="b51fde23-def6-41e2-95cd-70ea806e23f4"/><path d="M318.47,1541.07q2.5-8,4.34-15.46a34.58,34.58,0,0,0,.49-14.6,22.21,22.21,0,0,0-6.26-12q-4.95-4.86-10-5.78a22.66,22.66,0,0,0-10.44.65,54.88,54.88,0,0,0-11.28,4.78q-5.85,3.19-16.77,4.68t-19.19-1A32.66,32.66,0,0,1,235,1493.4a39.22,39.22,0,0,1-9-15.08,32.63,32.63,0,0,1-1.59-16q1.27-7.29,8.11-14.89A62.83,62.83,0,0,1,247.66,1435q8.33-4.86,15.4-8.54t21.37-10.8a261.11,261.11,0,0,1,25.77-11.35q11.46-4.21,19.79-7a66,66,0,0,1,18.61-3.19,52.5,52.5,0,0,1,19.08,2.63q8.77,3,15.44,13.52t2.64,17.79a38.16,38.16,0,0,1-9.71,11.72q-5.7,4.45-14.3,10.18A64.61,64.61,0,0,0,347,1463.32q-6.13,7.64-4.81,13.73t7.67,15.63q6.34,9.55,11.21,12.78a23.19,23.19,0,0,0,10,3.86,32,32,0,0,0,12.21-1.32,62.26,62.26,0,0,0,11.47-4.22q4.44-2.28,23-16T444,1464.29a70.23,70.23,0,0,0,10.9-19.14,39.6,39.6,0,0,0,2.23-18.13,145.84,145.84,0,0,0-3.74-18.92,108.9,108.9,0,0,0-6.81-18.94,249.3,249.3,0,0,0-12.91-23q-8.78-14.22-18.93-21.58a73.06,73.06,0,0,0-20.9-10.75,66.95,66.95,0,0,0-40-.61,142.8,142.8,0,0,0-17.87,6.6q-8.64,3.87-20.23,10.22t-37.05,22.75q-25.47,16.41-36,23.06t-18.51,12.81a99.82,99.82,0,0,0-16.12,16.15,64.63,64.63,0,0,0-11.89,22.51,160.24,160.24,0,0,0-5.05,21,45.8,45.8,0,0,0,1.34,18.65,98.21,98.21,0,0,0,9.23,22.07q6.59,11.94,14.72,24.2,15.27,21.46,23.9,26.26t13.57,6.11q5,1.31,16,1.28a57.37,57.37,0,0,0,21.36-4.17,97,97,0,0,0,17.52-8.92A23.49,23.49,0,0,0,318.47,1541.07Z" class="b51fde23-def6-41e2-95cd-70ea806e23f4"/><path d="M492,1621.27q-3.07-25.3-15.29-39.21a320.68,320.68,0,0,0-25.86-26.27q14.67-19.17,32.91-41.23t20.87-45.62a24.22,24.22,0,0,0-10.55-12.6q-7.55-4.54-15-1t-35.7,31.45l-87.74,97q-23.88,23.45-27.87,27.85t-11.74,13.61q-7.75,9.21-8.67,15.06t6,19.34a41.86,41.86,0,0,0,15.9,13.44q9.45,4.53,28.39-1.22a224.36,224.36,0,0,0,30.71-35.2q12.33-17.85,12.38-21.06T420.54,1594q12.24,12.62,14.41,19.73t-.71,20q-2.87,12.87-9.93,19.83t-27.67,29.74Q376,1706,381.87,1716.46a80.72,80.72,0,0,0,12.27,17q6.44,6.58,13.37,7t28.3-23.26q21.36-23.61,27-32.42t16.24-26A90.86,90.86,0,0,0,492,1621.27Z" class="b51fde23-def6-41e2-95cd-70ea806e23f4"/><path d="M598.37,1609.91q9.52,4,16.83-1.82a90.9,90.9,0,0,0,11.21-10.18q3.92-4.38,5.31-13.54a23.37,23.37,0,0,0-3.55-16.75,30.49,30.49,0,0,0-11.78-11q-6.85-3.46-19.19,1.84T583,1573.91a119.73,119.73,0,0,0-1.55,24.08A48,48,0,0,0,598.37,1609.91Z" class="b51fde23-def6-41e2-95cd-70ea806e23f4"/><path d="M592.6,1648.71q6.35-21.06,5-25.07t-9.92-10.56q-8.6-6.54-16.77-6.82t-35.39,42.12q-27.22,42.42-33.14,53.73t-16.3,34.05q-10.39,22.71-12.53,34.4t7,23.75q5.88,5,17.1,2t17.41-6.47q6.18-3.46,20.18-24.76t32.49-58.3Q586.26,1669.78,592.6,1648.71Z" class="b51fde23-def6-41e2-95cd-70ea806e23f4"/><path d="M711.88,1642q-1-20.73-12.92-31.61t-15.85-14.24q-3.9-3.37-11.29-5.26a22.64,22.64,0,0,0-14.78,1.23A485.07,485.07,0,0,1,641.8,1654a381.89,381.89,0,0,1-21.71,54.68q-12,24.21-21.32,41.12t-19.25,31.63q-17,29.86-16.09,40.59t9.37,22.79A123.57,123.57,0,0,0,593,1852q11,2.92,24-12.89l48.86-105,21.2-38.84Z" class="b51fde23-def6-41e2-95cd-70ea806e23f4"/><path d="M774.35,1639.39q-13.26-9.26-17.54-12.1t-11.87-3.77a22.64,22.64,0,0,0-14.5,3.11,485,485,0,0,1-7.22,63.34,383.06,383.06,0,0,1-14.55,57q-8.86,25.53-15.91,43.5T677.7,1824.3q-13.07,31.8-10.77,42.32t12.2,21.41a123.43,123.43,0,0,0,21,4.58q11.25,1.48,22.11-15.84l35.07-110.33,16.07-41.23,17.84-56.11Q787.59,1648.66,774.35,1639.39Z" class="b51fde23-def6-41e2-95cd-70ea806e23f4"/><path d="M847.08,1653.64a30.53,30.53,0,0,0-15-6q-7.65-.7-17.18,8.75t-7.52,19.63a119.56,119.56,0,0,0,7.4,23,48.07,48.07,0,0,0,20.11,4.89q10.32.18,15-7.88a92.8,92.8,0,0,0,6.69-13.58q2-5.52,0-14.54A23.31,23.31,0,0,0,847.08,1653.64Z" class="b51fde23-def6-41e2-95cd-70ea806e23f4"/><path d="M839.22,1717q-2.72-3.23-13.1-6.17t-18.1-.19q-7.71,2.75-17.46,52.18t-11.1,62.14q-1.35,12.71-2.66,37.65t1,36.6q2.29,11.65,15.24,19.52,7.31,2.5,16.65-4.39t13.81-12.41q4.49-5.51,9.68-30.45t8.82-66.16q3.62-41.22,1.79-63.15T839.22,1717Z" class="b51fde23-def6-41e2-95cd-70ea806e23f4"/></g><g id="bfab3b4a-0b1b-46f4-9eb8-0d28e5d7829b" data-name="Layer 4"><path d="M906.27,678.27c-2.95,1.81-4.57,6-5.62,9.64a211.58,211.58,0,0,1-22.34,50.71c-1.64,2.69-3.36,5.42-4.06,8.49s-.15,6.65,2.19,8.76c2.67,2.39,6.85,2.23,10.15.83,19.43-8.24,28.58-46,30.37-64.83.29-3.14.43-6.41-.76-9.33s-4-5.38-7.18-5.16A6,6,0,0,0,906.27,678.27Z" class="f1058528-cd47-41a9-93f8-dc3cfa7d2f47"/><path d="M1227.4,680.53a9,9,0,0,0-3.14,2.24c-1.94,2.14-2.93,5-3.91,7.68a333.16,333.16,0,0,1-23,50.29c-1.16,2.07-2.38,4.23-2.48,6.6-.51,11.79,17.12,8.67,21.43,2.1,10.88-16.54,18.63-38,20-57.73.31-4.33-.23-9.76-4.27-11.36A6.17,6.17,0,0,0,1227.4,680.53Z" class="f1058528-cd47-41a9-93f8-dc3cfa7d2f47"/><path d="M1053.28,911.2c-5,29.14-27,46.75-56.89,45.94-26.34-.72-50.9-18.4-55.77-45.13a88,88,0,0,1-1.29-12.57c38.92,1.34,77,1.91,115.87-1.41C1054.64,902.45,1054,906.84,1053.28,911.2Z" class="b5e3741e-14af-4178-8c7e-e98612ab36b2"/><path d="M1057.69,871.64c-39.43,3.55-78.1,3-117.58,1.66.21-3.41.4-6.78.52-10.08q.29-8.6.58-17.21c16,6.25,33.82,8.33,51,8.84,24.24.74,46.4-5.58,67.34-15.84C1059,849.86,1058.46,860.77,1057.69,871.64Z" class="ac95715e-59d5-4822-871a-9a898a39f3ea"/><path d="M1246,829.92c-3.48-.59-6.54,2.22-8.86,4.88a136.42,136.42,0,0,0-15.37,21.75c-10.64,18.5-17.46,38.88-24.89,59.21-8.63,23.63-20,46.14-30,69.22-33.69,77.61-58.67,164.48-59.08,249.21,0,9.44,5.68,11.84,12.1,6.15,5.51-4.88,6.55-17.24,8.4-23.87,5.67-20.44,11.13-40.92,17-61.3q18.83-65,40.72-129,16.63-48.59,35-96.55c10.67-27.83,20-55.64,29-84.12.92-2.92,1.85-6,1.47-9S1249,830.43,1246,829.92Z" class="ed9893ae-019b-459d-8dba-c4f77b7a213e"/><path d="M1108,1252.82h-1.19a16.58,16.58,0,0,0-11.35,4.68,16.12,16.12,0,0,0-4.7,11.28c.18,4.13,1.55,8.41,4.7,11.28a16.72,16.72,0,0,0,11.35,4.68H1108a16.62,16.62,0,0,0,11.35-4.68,16.14,16.14,0,0,0,4.7-11.28c-.18-4.13-1.55-8.41-4.7-11.28A16.72,16.72,0,0,0,1108,1252.82Z" class="ed9893ae-019b-459d-8dba-c4f77b7a213e"/></g></svg>