<svg xmlns="http://www.w3.org/2000/svg" viewBox="0 0 177 84"><path fill="#2c5b9c" d="M0 0h177v84H0z"/><g fill="#fff"><path d="M107.22 34.35c.5-.69.89-1.52 1.16-2.48s.4-2.02.4-3.16c0-1.2-.11-2.28-.32-3.25-.21-.96-.55-1.78-1.01-2.47s-1.04-1.21-1.74-1.57-1.52-.54-2.48-.54c-.68 0-1.39.16-2.14.49-.74.32-1.41.87-2 1.65l-.22-1.64H95v20.88l4.41-.47v-6.77c.9 1.04 2.08 1.55 3.55 1.55.9 0 1.71-.2 2.42-.6.72-.38 1.33-.93 1.84-1.62zm-3.72-2.07c-.47.7-1.1 1.05-1.89 1.05-.9 0-1.64-.43-2.21-1.3v-6.18c.31-.54.68-.95 1.09-1.25.41-.29.86-.44 1.34-.44.37 0 .7.07.99.21s.54.38.74.72.36.81.47 1.41.16 1.35.16 2.26c.01 1.64-.22 2.82-.69 3.52zm16.16-.55c-.29.44-.64.81-1.05 1.1-.4.29-.85.43-1.35.43-.53 0-.88-.17-1.03-.51-.16-.34-.23-.77-.23-1.29V21.38h-4.41V32c0 1.4.32 2.52.96 3.34s1.68 1.23 3.11 1.23c.88 0 1.7-.19 2.47-.55.76-.37 1.39-.92 1.89-1.64l.19 1.72h3.86V21.38h-4.41zm14.13 1.36c-.46 0-.8-.14-1.03-.43s-.34-.78-.34-1.48v-6.74h2.98l.47-3.05h-3.44v-3.72l-4.41.53v3.19h-2.18v3.05h2.18v6.71c0 .85.07 1.61.22 2.29s.41 1.24.78 1.71.88.82 1.5 1.07 1.4.38 2.34.38c.64 0 1.33-.1 2.07-.29.73-.2 1.38-.49 1.93-.87l-1.49-2.83c-.59.31-1.12.48-1.58.48zm9.82-12.21c-1.14 0-2.14.21-2.99.62-.85.42-1.58.98-2.16 1.69-.59.71-1.03 1.54-1.32 2.5s-.44 1.97-.44 3.06c0 1.15.15 2.2.45 3.15s.76 1.77 1.38 2.47 1.39 1.23 2.33 1.62 2.03.58 3.28.58c1.16 0 2.21-.19 3.15-.58.95-.39 1.78-.87 2.49-1.44l-1.85-2.53c-.62.48-1.21.82-1.75 1.03-.54.2-1.11.3-1.69.3-.88 0-1.61-.25-2.19-.76s-.94-1.36-1.09-2.56h9.04c.04-.22.06-.48.07-.76s.01-.56.01-.82c0-2.4-.6-4.27-1.79-5.59-1.19-1.31-2.83-1.98-4.93-1.98zm-2.45 6.49c.09-1.22.35-2.11.79-2.68.43-.56 1-.85 1.69-.85.44 0 .81.09 1.12.26.3.17.55.42.73.72.18.31.32.67.4 1.11.08.43.12.91.12 1.43h-4.85zm20.11-6.44c-.23-.04-.47-.05-.73-.05-.83 0-1.57.28-2.23.85-.66.56-1.17 1.34-1.52 2.34l-.33-2.75h-3.91v14.72h4.41v-7.4c.11-.48.25-.93.41-1.36.17-.42.36-.79.59-1.09s.51-.54.84-.72.72-.26 1.16-.26c.48 0 .92.06 1.32.19l.71-4.3c-.25-.08-.49-.13-.72-.17zM91.52 56.51c-.14-.25-.21-.65-.21-1.21v-5.74c0-1.72-.48-3.02-1.45-3.9-.96-.88-2.56-1.32-4.78-1.32-.77 0-1.64.09-2.62.28-.97.19-1.93.46-2.87.83l.99 2.94c.75-.26 1.46-.45 2.13-.58s1.23-.2 1.67-.2c.99 0 1.69.16 2.08.47.4.31.59.91.59 1.78v.53h-1.68c-2.28 0-4.01.43-5.21 1.3s-1.79 2.11-1.79 3.72c0 .68.11 1.31.33 1.87s.54 1.05.96 1.46.94.73 1.54.96c.61.23 1.29.35 2.04.35.88 0 1.72-.16 2.51-.47s1.45-.81 1.98-1.5c.35.61.81 1.06 1.39 1.35s1.31.47 2.19.57l.91-2.91c-.31-.14-.56-.33-.7-.58zm-4.45-1.23c-.28.52-.62.92-1.02 1.19-.4.28-.84.42-1.32.42-.57 0-.99-.16-1.27-.47s-.41-.75-.41-1.3c0-.72.24-1.27.72-1.63.48-.37 1.32-.56 2.54-.56h.77zm17.78-3.15c-.39-.36-.85-.67-1.41-.93s-1.17-.49-1.85-.69c-.68-.19-1.23-.35-1.64-.5s-.73-.29-.97-.43c-.23-.14-.38-.28-.45-.43s-.11-.31-.11-.5c0-.35.17-.63.5-.83s.82-.31 1.46-.31c.61 0 1.2.1 1.79.31.59.2 1.15.47 1.68.8l1.79-2.61c-.59-.44-1.37-.83-2.33-1.17-.96-.33-2.01-.5-3.13-.5-1.03 0-1.93.12-2.7.36s-1.41.57-1.93.98-.9.9-1.17 1.46c-.27.55-.4 1.14-.4 1.75 0 1.2.37 2.17 1.12 2.91.74.74 1.77 1.29 3.07 1.64.72.2 1.29.37 1.72.51s.77.29 1.01.44c.24.16.39.32.47.5.07.18.11.38.11.62 0 .42-.19.76-.56 1-.38.24-.9.36-1.58.36-.73 0-1.42-.13-2.07-.4-.64-.27-1.25-.62-1.82-1.07l-2.18 2.44c.72.67 1.6 1.2 2.66 1.6s2.24.59 3.54.59c.9 0 1.75-.11 2.56-.33s1.51-.54 2.09-.96c.59-.42 1.06-.93 1.4-1.53.35-.6.52-1.29.52-2.07 0-.68-.11-1.27-.32-1.76a3.41 3.41 0 00-.87-1.25zm9.45-7.78c-1.14 0-2.14.21-2.99.62-.85.42-1.57.98-2.16 1.69s-1.03 1.54-1.32 2.5c-.29.95-.44 1.97-.44 3.06 0 1.14.15 2.2.45 3.15s.76 1.77 1.38 2.47a6.14 6.14 0 002.33 1.62c.94.39 2.03.58 3.28.58 1.16 0 2.21-.19 3.15-.58.95-.39 1.78-.87 2.49-1.44l-1.85-2.53c-.62.48-1.21.82-1.75 1.03-.54.2-1.11.3-1.69.3-.88 0-1.61-.25-2.19-.76s-.94-1.36-1.09-2.56h9.04c.04-.22.06-.48.07-.76.01-.29.01-.56.01-.82 0-2.4-.6-4.27-1.79-5.59s-2.84-1.98-4.93-1.98zm-2.45 6.49c.09-1.22.35-2.11.78-2.68.43-.56 1-.85 1.7-.85.44 0 .81.09 1.12.26.3.18.55.42.73.72s.32.67.4 1.11.12.91.12 1.43h-4.85zM54.73 13.4c-1.92-1.11-4.11-1.97-6.5-2.54-2.38-.57-4.99-.86-7.75-.86-3.45 0-6.8.66-9.93 1.95-3.15 1.29-5.88 3.11-8.13 5.41-2.3 2.37-4.13 5.21-5.44 8.45-1.31 3.25-1.98 6.9-1.98 10.88 0 5.11 1.54 9.1 4.57 11.85 3.01 2.75 7.32 4.14 12.81 4.14 2.01 0 3.61-.1 4.75-.3s2.37-.5 3.64-.87c.99-.29 2.05-.67 3.13-1.14 1.06-.45 1.99-.84 2.78-1.16.18-.07.32-.23.36-.42l2.32-9.54c.04-.18 0-.37-.11-.52a.588.588 0 00-.48-.23h-1.06c-.14 0-.27.05-.38.13-1.87 1.5-3.88 2.75-5.97 3.71-2.06.95-4.3 1.43-6.64 1.43-2.55 0-4.51-.66-5.8-1.97-1.3-1.3-1.95-3.49-1.95-6.49 0-4.78 1.25-8.77 3.71-11.84 2.47-3.07 5.52-4.56 9.32-4.56 2.15 0 4.04.41 5.61 1.22 1.6.82 3.24 2.13 4.87 3.89.11.12.27.19.44.19h1.17c.28 0 .52-.19.59-.46l2.34-9.68a.625.625 0 00-.29-.67z"/><path d="M70.92 52.23c2.15-.82 3.81-1.92 4.97-3.31 1.41-1.69 2.13-3.84 2.13-6.41 0-3.07-1.37-5.49-4.07-7.18-2.61-1.63-6.4-2.46-11.27-2.46H48.21c-.28 0-.53.2-.59.47l-1.01 4.39a.55.55 0 00.09-.07c.32-.26.72-.4 1.13-.4h1.06c.56 0 1.08.25 1.43.7.35.44.47 1.01.33 1.56l-2.32 9.54c-.14.57-.54 1.04-1.09 1.26-.77.31-1.68.69-2.76 1.15-.38.16-.76.31-1.13.46l-4.88 21.31c-.04.18 0 .37.12.52s.29.24.47.24h17.17c6.34 0 11.34-1.23 14.84-3.64 3.58-2.47 5.39-5.95 5.39-10.34 0-2.3-.62-4.11-1.83-5.4-.91-.98-2.16-1.78-3.71-2.39zm-8.2 11.85c-1.51.92-3.72 1.39-6.57 1.39h-4.4l2-8.73h4.87c2.24 0 3.88.3 4.88.89.91.54 1.35 1.41 1.35 2.65 0 1.68-.7 2.93-2.13 3.8zm1.66-16.64c-1.14.79-2.78 1.19-4.88 1.19h-3.9l1.66-7.23h4.12c1.52 0 2.71.24 3.53.71.73.42 1.08 1.07 1.08 2.03 0 1.47-.53 2.55-1.61 3.3zm5.27-18.74c0-1.18-.17-2.25-.5-3.22-.33-.96-.8-1.78-1.42-2.47a6.276 6.276 0 00-2.26-1.58c-.89-.37-1.9-.55-3.02-.55s-2.13.19-3.02.57-1.65.91-2.27 1.59-1.1 1.51-1.43 2.48-.5 2.04-.5 3.2c0 1.08.13 2.05.37 2.92h4.58c-.25-.71-.37-1.69-.37-2.92 0-1.61.22-2.77.66-3.49s1.1-1.08 1.98-1.08 1.54.36 1.97 1.08.65 1.88.65 3.47c0 1.29-.13 2.29-.4 3.01.04 0 .08.01.13.01 1.56.04 3 .17 4.32.38.35-.98.53-2.11.53-3.4zm21.43-6.66c-.63-.77-1.6-1.15-2.91-1.15-.75 0-1.5.18-2.23.54s-1.43.91-2.09 1.65c-.57-1.46-1.73-2.19-3.47-2.19-.77 0-1.51.17-2.2.53s-1.37.91-2.01 1.66l-.33-1.69H72V32.8c1.15.37 2.18.82 3.07 1.38.5.31.93.66 1.34 1.02v-9.31c.35-.54.72-.96 1.1-1.26s.76-.46 1.13-.46c.4 0 .7.12.9.37.19.25.29.68.29 1.29v10.29h4.41V25.88c.33-.54.69-.96 1.08-1.26s.77-.46 1.16-.46c.4 0 .7.13.88.39s.28.71.28 1.36v10.21h4.41V25.29c-.02-1.4-.34-2.49-.97-3.25z"/></g></svg>