<svg xmlns="http://www.w3.org/2000/svg" xmlns:xlink="http://www.w3.org/1999/xlink" width="268" height="80"><symbol id="c"><path d="M62.848 6.736V.207h2.948v6.515c0 1.503.486 2.181 1.666 2.181 1.179 0 1.65-.678 1.65-2.181V.207H72v6.529c0 2.889-1.385 4.539-4.569 4.539s-4.583-1.65-4.583-4.539zM50.428.207h2.948v3.95l3.007-3.95h3.419l-3.67 4.304 3.994 6.603h-3.331l-2.579-4.363-.84.973v3.39h-2.948V.207zM36.433 5.66c0-3.993 2.726-5.66 5.365-5.66 2.623 0 5.35 1.666 5.35 5.66s-2.727 5.66-5.35 5.66c-2.639-.001-5.365-1.666-5.365-5.66zm7.766 0c0-2.004-.87-3.227-2.402-3.227-1.548 0-2.417 1.223-2.417 3.227 0 2.005.87 3.302 2.417 3.302 1.533-.001 2.402-1.297 2.402-3.302zM24.588.207h4.259c2.8 0 4.51.929 4.51 3.552 0 1.709-.722 2.698-2.152 3.183l2.314 4.171h-3.124l-2.108-3.787h-.811v3.787h-2.889V.207h.001zm4.156 4.878c1.209 0 1.739-.339 1.739-1.253 0-.914-.531-1.238-1.739-1.238h-1.267v2.491h1.267zM13.318.207H21.1v2.447h-4.834v1.769h3.449v2.299h-3.449v2.019h5.085v2.373h-8.032V.207h-.001zM0 .207h2.948V4.26h3.626V.207h2.948v10.906H6.574V6.706H2.948v4.407H0V.207z"/></symbol><symbol id="b"><path d="M19 68l9-8-9-8v16zm32.517-32.425C49.905 33.944 46.945 32 42 32c-5.423 0-11.006 1.411-15 2.711V12h-8v34.692l5.651-2.56C24.742 44.091 33.866 40 42 40c4.062 0 4.961 2.243 5 4.11V68h8V44c.005-.512-.042-4.945-3.483-8.425zM41 25h8c3.618-4.1 5.46-8.456 6-13h-8c-.882 4.534-2.856 8.875-6 13z"/></symbol><symbol id="a"><path d="M64.8 0H7.2A7.2 7.2 0 000 7.2v65.6A7.2 7.2 0 007.2 80h57.6a7.2 7.2 0 007.2-7.2V7.2A7.2 7.2 0 0064.8 0zM68 72.8c0 1.764-1.435 3.2-3.2 3.2H7.2A3.204 3.204 0 014 72.8V7.2C4 5.435 5.436 4 7.2 4h57.6C66.565 4 68 5.435 68 7.2v65.6z"/></symbol><g fill="#430098" fill-rule="evenodd"><rect width="70" height="78" x="1" y="1" fill="transparent" rx="5"/><use xlink:href="#a"/><use xlink:href="#b"/><use x="35" y="10" transform="scale(2.5)" xlink:href="#c"/></g></svg>