<svg xmlns="http://www.w3.org/2000/svg" viewBox="0 0 112 35"><g fill="none" fill-rule="evenodd"><path fill="#F27557" d="M21.152 13.573a.984.984 0 01-.984.984H5.41a.984.984 0 010-1.968h14.757c.543 0 .984.44.984.984m-3.935 5.41H8.362a.984.984 0 110-1.967h8.855a.984.984 0 010 1.968M8.362 8.162h8.855a.984.984 0 010 1.968H8.362a.984.984 0 110-1.968M20.2 5.686a10.72 10.72 0 00-7.403-2.934c-.232 0-.465.007-.699.021-5.426.337-9.77 4.682-10.107 10.108-.188 3.026.846 5.903 2.912 8.102a10.722 10.722 0 007.887 3.412h10.822V13.573A10.72 10.72 0 0020.2 5.686"/><path fill="#C34027" d="M23.611 24.395H12.789a10.721 10.721 0 01-7.887-3.412c-2.066-2.199-3.1-5.076-2.912-8.102.336-5.426 4.68-9.771 10.107-10.108.234-.014.468-.021.7-.021a10.72 10.72 0 017.402 2.934 10.72 10.72 0 013.412 7.887v10.822zM21.546 4.252C18.948 1.81 15.55.585 11.975.81 5.561 1.208.424 6.345.025 12.759c-.221 3.573 1.001 6.973 3.444 9.571a12.84 12.84 0 009.32 4.032h11.806c.543 0 .984-.44.984-.983V13.573a12.84 12.84 0 00-4.033-9.32z"/><path fill="#FEFEFE" d="M17.217 17.016H8.362a.984.984 0 000 1.968h8.855a.984.984 0 000-1.968M8.362 10.13h8.855a.984.984 0 000-1.968H8.362a.984.984 0 000 1.968m-2.951 2.46a.984.984 0 000 1.967h14.757a.984.984 0 000-1.968H5.411z"/><path fill="#3C3D3F" d="M53.982 13.852c0-4.095-2.777-7.906-7.3-7.906-4.558 0-7.3 3.81-7.3 7.906 0 4.095 2.742 7.905 7.3 7.905 4.523 0 7.3-3.81 7.3-7.905m-1.424 11.715l2.136 2.885-5.056 2.564-2.991-4.06C38.349 26.92 33.47 20.69 33.47 13.852 33.47 7.015 38.384.748 46.68.748c8.262 0 13.177 6.267 13.177 13.104 0 4.985-2.671 9.686-7.3 11.715m27.03-16.416v17.164h-5.448v-2.457c-.962 1.816-2.956 2.885-5.627 2.885-2.207 0-3.881-.749-4.807-1.96-1.069-1.317-1.318-2.99-1.318-5.447V9.15H67.8v8.796c0 2.457.748 4.167 3.027 4.167 2.244 0 3.312-1.71 3.312-4.345V9.151h5.448zm3.919 17.164h5.448V9.151h-5.448v17.164zM86.212 0c1.994 0 3.525 1.53 3.525 3.455 0 1.886-1.531 3.453-3.525 3.453a3.465 3.465 0 01-3.49-3.453C82.722 1.53 84.254 0 86.212 0zM98.32 17.734c0 2.385 1.637 4.38 4.13 4.38 2.421 0 4.06-1.995 4.06-4.38 0-2.386-1.639-4.38-4.06-4.38-2.493 0-4.13 1.994-4.13 4.38zm0-6.125c.818-1.567 3.026-2.885 5.27-2.885 4.949 0 8.368 3.882 8.368 9.01 0 5.127-3.42 9.009-8.369 9.009-2.243 0-4.45-1.318-5.27-2.885v10.22h-5.448V9.152h5.448v2.457z"/></g></svg>