<svg xmlns="http://www.w3.org/2000/svg" width="1030.1" height="386.21"><path fill="#1eb152" d="M22.56 76.74h16.86c18.55 0 32.25-6.75 32.25-22.76 0-14.13-11.38-23.62-28.24-23.62H22.56v46.38zm21.92-66.19c22.98 0 51.22 12.02 51.22 42.79 0 24.66-17.28 37.31-35 41.53l46.38 63.23H78.85L35.42 96.55H22.56v61.55H0V10.55h44.48zM165.9 67.04c-16.44 0-26.55 11.6-30.36 26.57h56.92c-.83-14.55-11.59-26.57-26.56-26.57m.63 75.26c14.13 0 24.46-5.28 30.99-16.86l15.17 9.91c-10.96 17.28-25.29 25.29-47.22 25.29-33.52 0-53.12-24.24-53.12-55.65 0-31.83 23.18-56.07 53.12-56.07 28.68 0 49.55 21.07 49.55 49.53 0 3.8-.43 8.65-1.06 11.8h-79.69c1.49 17.5 13.29 32.05 32.26 32.05M289.83 74.84c-4.85-4.43-13.49-8.23-21.09-8.23-8.64 0-14.54 5.06-14.54 12.65 0 7.81 9.69 11.6 19.6 15.6 13.91 5.48 31.2 13.07 31.2 32.03 0 23.83-18.96 33.73-39.21 33.73-15.17 0-29.08-5.9-38.37-17.07l14.33-12.44c7.39 7.59 14.76 11.6 23.83 11.6 9.27 0 17.7-4.64 17.7-14.55 0-8.23-9.69-12.02-20.23-16.23-13.91-5.7-29.73-12.03-29.73-30.99 0-21.72 17.08-32.05 35.42-32.05 12.65 0 24.87 4.22 33.73 12.23l-12.64 13.72zM375.98 67.04c-16.44 0-26.55 11.6-30.36 26.57h56.92c-.83-14.55-11.59-26.57-26.56-26.57m.64 75.26c14.13 0 24.46-5.28 30.99-16.86l15.17 9.91c-10.96 17.28-25.29 25.29-47.22 25.29-33.52 0-53.12-24.24-53.12-55.65 0-31.83 23.18-56.07 53.12-56.07 28.66 0 49.53 21.07 49.53 49.53 0 3.8-.42 8.65-1.04 11.8h-79.69c1.48 17.5 13.28 32.05 32.26 32.05M509.09 110.04c-7.38-1.46-12.86-1.89-18.12-1.89-12.44 0-28.66 3.38-28.66 18.55 0 12.02 9.27 16.66 19.81 16.66 10.33 0 18.97-5.06 26.97-11.81v-21.51zm1.69 48.07l-.64-10.75c-8.22 9.49-18.12 13.28-31.2 13.28-19.81 0-37.95-10.12-37.95-32.89 0-26.77 24.04-35.2 47.22-35.2 5.48 0 12.23.62 20.87 2.31v-3.15c0-15.6-7.16-24.67-24.24-24.67-12.22 0-24.66 4.64-33.51 9.49l-6.12-17.5c11.59-5.48 28.03-10.12 43-10.12 30.57 0 42.59 16.88 42.59 44.48v64.72h-20.02zM580.69 68.85c6.32-11.18 15.81-19.18 26.99-19.18 4.63 0 8.22.42 12.22 1.46l-4.43 21.92c-3.17-1.68-6.12-2.31-10.12-2.31-10.33 0-18.34 6.12-24.24 16.44v71.67H559.4V52.19h20.65l.64 16.66zM716.73 149.47c-8.43 7.16-20.67 11.17-33.94 11.17-30.78 0-54.6-22.34-54.6-55.85 0-31.21 24.04-55.87 55.43-55.87 12.23 0 22.98 3.59 32.05 10.12L705.13 76.1c-6.1-4.63-13.7-7.58-21.5-7.58-18.54 0-33.31 16.23-33.31 36.26 0 21.71 15.6 36.26 33.31 36.26 7.17 0 16.24-2.95 22.14-7.59l10.96 16.02zM762.19 67.88c8.01-12.02 20.65-18.97 34.15-18.97 14.13 0 24.04 5.06 30.36 13.49 7.38 10.12 9.49 24.24 9.49 40.26v55.45h-21.71v-53.55c0-9.69-.42-20.45-5.06-27.83-3.17-5.06-8.85-8.22-17.5-8.22-11.38 0-22.76 7.8-29.72 18.96v70.63h-21.71V0h21.71v67.88zM36.9 211.33H22.56v107.93h6.1c40.28 0 67.46-13.07 67.46-52.7.01-36.03-21.91-55.23-59.22-55.23M0 191.52h40.48c37.73 0 79.69 19.81 79.69 73.15 0 54.6-41.53 74.42-81.58 74.42H0V191.52zM187.94 247.96c-16.44 0-26.55 11.6-30.36 26.57h56.92c-.84-14.55-11.59-26.57-26.56-26.57m.63 75.26c14.13 0 24.46-5.26 30.99-16.86l15.17 9.91c-10.96 17.28-25.29 25.29-47.22 25.29-33.52 0-53.12-24.24-53.12-55.65 0-31.83 23.18-56.07 53.12-56.07 28.68 0 49.53 21.07 49.53 49.53 0 3.8-.42 8.65-1.04 11.8h-79.69c1.49 17.5 13.29 32.05 32.26 32.05M309.92 255.76c-4.85-4.43-13.49-8.23-21.09-8.23-8.64 0-14.55 5.06-14.55 12.65 0 7.8 9.7 11.6 19.61 15.6 13.91 5.48 31.2 13.07 31.2 32.03 0 23.82-18.96 33.74-39.21 33.74-15.17 0-29.08-5.91-38.37-17.08l14.33-12.44c7.39 7.59 14.76 11.6 23.82 11.6 9.28 0 17.72-4.64 17.72-14.55 0-8.23-9.69-12.02-20.23-16.24-13.91-5.68-29.73-12.01-29.73-30.98 0-21.72 17.08-32.05 35.42-32.05 12.65 0 24.87 4.22 33.73 12.22l-12.65 13.73zM370.27 198.34c0 7.27-5.89 13.16-13.15 13.16-7.27 0-13.16-5.89-13.16-13.16 0-7.26 5.89-13.16 13.16-13.16 7.26 0 13.15 5.9 13.15 13.16m-24.01 33.98h21.71V339h-21.71V232.32zM478.11 264.78c-7.17-10.12-18.97-15.39-29.52-15.39-23.18 0-34.15 17.7-34.15 35.2 0 18.97 12.86 34.78 33.73 34.78 10.96 0 24.46-6.32 29.94-18.97v-35.62zm-33.53 74.21c-30.14 0-52.28-23.62-52.28-54.81 0-28.66 21.09-54.38 52.7-54.38 12.23 0 25.29 5.26 33.73 14.54l.43-12.02h20.65v100.97c0 11.18-1.89 20.45-5.9 28.04-9.49 17.92-28.04 24.87-47.85 24.87-16.44 0-34.36-4.85-47.85-14.33l8.43-18.34c10.34 7.58 26.15 13.07 38.79 13.07 17.5 0 32.68-8.65 32.68-30.15v-13.7c-7.6 10.76-21.31 16.24-33.53 16.24M547.37 232.32l.64 16.86c8-12.44 20.87-19.39 34.57-19.39 14.13 0 24.04 5.06 30.36 13.49 7.38 10.12 9.49 24.24 9.49 40.26v55.45H600.7v-53.55c0-9.69-.42-20.45-5.06-27.83-3.17-5.06-8.85-8.22-17.5-8.22-11.38 0-22.76 7.8-29.72 18.97v70.62H526.7V232.32h20.67zM939.75 141.24c-16.23 0-29.94-12.02-29.94-27.19 0-11.6 6.54-20.87 16.44-25.73l4.01 3.59 21.92 19.61 16.66 14.97c-6.74 9.49-16.65 14.75-29.09 14.75m56.8-16.29l21.58-23.62-14.64-12.73-21.4 23.4-17.04-15.24-22.13-19.61c-14.13-12.64-22.56-20.87-22.56-31.61 0-10.76 8.85-18.13 20.03-18.13 10.12 0 17.5 4.85 19.81 14.13l.15-.05h20.5c.14-2.16-.62-5.65-.62-5.65-4.85-17.5-20.23-27.83-39-27.83-20.87 0-42.37 14.75-42.37 36.68 0 12.02 5.7 21.5 13.71 30.36-14.75 8.01-24.46 22.34-24.46 39.42 0 24.66 23.18 46.16 49.75 46.16 17.92 0 34.58-6.54 45.54-21.29l17.5 15.69 29.2-.06-33.55-30.02z"/></svg>