<svg xmlns="http://www.w3.org/2000/svg" viewBox="0 0 114 151"><path fill="#6F7B81" d="M88.01 1.927l-1.053 18.842 7.67-6.001 6.391 6.001V.962L114 0v151l-99.51-5.052L8 7.858l80.01-5.931zM70.53 57.86l21.172-.529c.526-20.629-10.126-30.811-28.668-30.811s-28.93 10.58-28.93 26.449c0 27.638 35.505 28.167 35.505 43.242 0 4.232-1.972 6.744-6.312 6.744-5.654 0-7.89-3.703-7.627-14.017H33.446c-1.71 25.522 13.15 31.34 30.114 31.34 16.438 0 29.325-7.67 29.325-24.332 0-29.621-36.031-28.828-36.031-43.506 0-5.951 4.208-6.745 6.706-6.745 2.63 0 7.364 1.058 6.97 12.166zM11 146L4.714 8H0l4.714 138z"/></svg>