<svg xmlns="http://www.w3.org/2000/svg" viewBox="0 0 133 150"><path fill="#6f7b81" d="M66.5 0L133 37.496v75.008L66.5 150 0 112.504V37.496zm54.626 109.918l-19.76-11.374-32.667 17.917v23.022zm3.592-3.238V44.861L105.54 55.91v39.74l19.177 11.03zm-113.05 3.238l52.426 29.565V116.46L31.411 98.544zm-3.592-3.238l19.177-11.03V55.91L8.076 44.86zm2.251-65.827l19.04 10.98.274-.154 34.453-18.894v-22.25L10.327 40.852zm112.14 0L68.699 10.534v22.251l34.453 18.877.275.154zM64.094 111.22V77.098l-32.236-18.55v34.994zm4.605 0l32.237-17.66V58.546L68.699 77.098zM34.04 54.505l32.357 18.62 32.356-18.62-32.356-17.729z"/></svg>