<?xml version="1.0" encoding="UTF-8"?>
<svg width="100px" height="102px" viewBox="0 0 100 102" version="1.1" xmlns="http://www.w3.org/2000/svg" xmlns:xlink="http://www.w3.org/1999/xlink">
    <!-- Generator: Sketch 47.1 (45422) - http://www.bohemiancoding.com/sketch -->
    <title>Group 3</title>
    <desc>Created with Sketch.</desc>
    <defs></defs>
    <g id="Page-1" stroke="none" stroke-width="1" fill="none" fill-rule="evenodd">
        <g id="prettier-homepage" transform="translate(-837.000000, -1607.000000)" fill="#56B3B4">
            <g id="Group-11" transform="translate(837.000000, 1607.000000)">
                <g id="Group-3">
                    <path d="M80.975751,82.0443194 L82.0846582,82.0443194 L82.0846582,77.6679637 L99.9547771,65.7531791 L89.7334017,45.7113474 L99.9547771,34.2279417 L87.1533606,1.63331256 L63.1089251,0 L59.7253996,3.85935951 L55.586961,1.63331256 L40.3281665,9.43106284 L24.7730048,0 L-4.54747351e-13,10.8239887 L12.986646,91.7429359 L63.1089251,101.07274 L69.0634361,101.07274 L73.2301344,82.4081924 L18.3829987,82.4081924 L18.3829987,18.4455651 L80.975751,18.4455651 L80.975751,82.0443194 Z" id="Combined-Shape"></path>
                    <path d="M22.6821708,27.186751 C22.9993934,27.186751 25.0934472,27.186751 28.9643321,27.186751 L32.7360163,41.594313 L37.2403861,27.186751 L41.7278795,27.186751 L46.0140901,41.594313 L50.0203983,27.186751 L56.1766036,27.186751 L48.827932,53.6247632 L43.8596652,53.6247632 L40.0797485,38.8257495 L39.4293872,38.8257495 L35.4720618,53.6247632 L30.2601154,53.6247632 C24.8909296,35.9994217 22.3649481,27.186751 22.6821708,27.186751 Z" id="Path-13"></path>
                    <rect id="Rectangle" x="24.1308759" y="70.6012526" width="24.0255009" height="3.89887514"></rect>
                    <path d="M55.532627,49.7298027 L58.2349196,45.8710606 C62.0420032,47.8626208 64.6551798,48.866496 66.0744494,48.8826865 C68.2033538,48.9069721 70.2419073,48.230267 70.2431422,46.2763016 C70.2439654,44.973658 67.8716558,43.6479636 63.1262132,42.2992185 C58.4707785,41.3766384 56.148275,38.7632559 56.1587027,34.4590712 C56.1743443,28.0027941 62.8302576,26.5419508 65.0151425,26.6670836 C67.2000273,26.7922164 73.8448269,28.581945 74.7326936,30.0967107 C74.1118318,30.9217366 73.0438122,32.3758568 71.5286349,34.4590712 C69.414483,32.3300296 67.509742,31.2884224 65.8144118,31.3342496 C63.2714166,31.4029903 61.6159754,32.6664613 61.5112178,34.4590712 C61.4064602,36.2516811 65.2032533,37.1763837 68.8090542,38.1948393 C72.4148552,39.213295 76.4421561,42.8228005 76.0725203,46.2763016 C75.7028846,49.7298027 72.8349145,54.3959396 66.576833,54.2193541 C62.4047786,54.1016305 58.7233766,52.6051134 55.532627,49.7298027 Z" id="Path-14"></path>
                </g>
            </g>
        </g>
    </g>
</svg>