<svg viewBox="0 0 100 94" xmlns="http://www.w3.org/2000/svg"><path d="M0 23C2.2 9.4 38 0 50.6 0S94-1.6 98.5 13.7s1.8 77.2-41.1 79.4C14.4 95 2.2 46.6 0 23zm47.1-2.8c0 3.5 4.6 4.3 6.2 4.3 1.1 0 3.5-.5 7-1.8-4.4-.9-6.7-2.2-6.7-4 0-2.7 3.5-3.8 3.5-5.6 0-1.7-3.8-5.1-7.7-4.4 2.3 1.8 4.2 1.7 4.2 3.5s-6.5 4.5-6.5 8zM34.3 30.3c-1.1 0-1.8 0-2 .3-.3.2-.4 1-.3 2C35.3 52.3 37.3 63 38 65c.8 2 2.7 3 5.8 3h17.4c2.8 0 4 .2 5-.7 1.4-1.5 1.7-4.6 1.7-5.3 0-.8-.1-1.3-.4-1.3a878 878 0 01-20-.1c-1-.1-1.4-.4-1.6-1a25 25 0 01-.5-4.3c0-.8.3-1.2 1-1.2l18.3-.4c.6-.1.8-.4 1-.9l.5-4c0-.8-.5-1.3-1.5-1.6H45.5c-.7 0-1-.5-1.2-1.4L44 41c0-.7.4-1.1 1.2-1.3l25.5-.3c1.3 0 2-.5 2-1.4l1-5.6c.4-1.3-.1-2-1.5-2.2z" fill="#56b3b4" fill-rule="evenodd"/></svg>