<svg xmlns="http://www.w3.org/2000/svg" viewBox="0 0 93 96"><g fill="none" fill-rule="evenodd" transform="translate(-1 -2)"><rect width="69.984" height="84.618" x="8.504" y="7.691" stroke="#56B3B4" stroke-width="4" rx="13" transform="rotate(-9 43.496 50)"/><path fill="#56B3B4" d="M18.267 59.016l8.808-11.053-11.628-9.03 3.417-2.674 11.26 6.481 15.272-19.976 10.874 3.19 5.519 33.062-9.605 6.838-19.678-14.481-9.54 9.104-4.699-1.461zm19.108-13.048l12.578 6.71-3.11-16.637-9.468 9.927z"/><path fill="#56B3B4" d="M63.629 8.943c.255 0 7.008 1.67 20.26 5.012l9.607 58.722-17.64 11.876-58.783-10.07 56.636-.969c-6.975-43.047-10.335-64.57-10.08-64.57z"/></g></svg>