<svg xmlns="http://www.w3.org/2000/svg" viewBox="0 0 104 95"><g fill="none" fill-rule="evenodd"><g stroke="#56b3b4" stroke-linecap="round" stroke-width="3"><path d="M82.213 22.714c1.663-8.514.733-14.976-3.199-17.543-1.31-.856-2.882-1.23-4.65-1.163-9.55.364-24.959 13.587-37.548 33.082C21.895 60.195 16.592 83.35 24.98 88.828c3.982 2.6 10.327.757 17.495-4.38"/><path d="M90.22 60c7.147-2.774 11.542-6.57 11.77-10.931.529-10.085-21.41-19.422-49.021-20.87a137.05 137.05 0 00-7.624-.198c-24.07.08-42.857 6.686-43.336 15.825-.228 4.353 3.736 8.573 10.53 12.075"/><path d="M45.162 7.999c-4.897-4.068-9.49-6.253-13.18-5.976a7.111 7.111 0 00-2.736.747c-9.007 4.595-6.13 28.357 6.441 53.055 12.571 24.7 30.063 40.994 39.07 36.4 8.663-4.419 6.325-26.56-5.048-50.217"/></g><path fill="#56b3b4" fill-rule="nonzero" d="M60 48a8 8 0 11-16 0 8 8 0 0116 0z"/></g></svg>