<?xml version="1.0" encoding="UTF-8"?>
<svg width="104px" height="95px" viewBox="0 0 104 95" version="1.1" xmlns="http://www.w3.org/2000/svg" xmlns:xlink="http://www.w3.org/1999/xlink">
    <!-- Generator: Sketch 47.1 (45422) - http://www.bohemiancoding.com/sketch -->
    <title>Atom_editor_logo</title>
    <desc>Created with Sketch.</desc>
    <defs></defs>
    <g id="Page-1" stroke="none" stroke-width="1" fill="none" fill-rule="evenodd">
        <g id="prettier-homepage" transform="translate(-58.000000, -1453.000000)">
            <g id="Group-4" transform="translate(60.000000, 1455.000000)">
                <g id="Atom_editor_logo">
                    <path d="M80.2128236,20.7137521 C81.8762981,12.1998588 80.9460364,5.73839644 77.0141065,3.17065755 C75.7034624,2.31474456 74.1321274,1.94020134 72.363664,2.00771615 C62.8139634,2.37229612 47.4051508,15.5948891 34.8156469,35.0896872 C19.8947535,58.1946331 14.592272,81.3503676 22.9803939,86.8282075 C26.9621143,89.4284614 33.3069525,87.5851903 40.4749156,82.4486197" id="Shape" stroke="#56B3B4" stroke-width="3" stroke-linecap="round"></path>
                    <path d="M88.2193811,58 C95.3670735,55.2260438 99.7622148,51.4291949 99.990655,47.0685494 C100.518962,36.9836772 78.5808515,27.6471173 50.9685143,26.1994164 C48.3798584,26.0636946 45.8343809,25.9922801 43.3445036,26.0006627 C19.2756883,26.0816962 0.488106606,32.6870065 0.00932858584,41.8264219 C-0.218660228,46.1785107 3.74473314,50.3985737 10.5389069,53.900706" id="Shape" stroke="#56B3B4" stroke-width="3" stroke-linecap="round"></path>
                    <path d="M43.1624291,5.99872942 C38.2649834,1.93087746 33.6717855,-0.253582392 29.9814748,0.0234956545 C28.9989337,0.0972674052 28.0902361,0.339672445 27.2458051,0.770399885 C18.2385445,5.36482618 21.1160203,29.1265675 33.6870639,53.825497 C46.2581074,78.5244288 63.7501414,94.8190588 72.757402,90.2246298 C81.4195471,85.8062391 79.081602,63.664513 67.7088478,40.0077687" id="Shape" stroke="#56B3B4" stroke-width="3" stroke-linecap="round"></path>
                    <path d="M58,46 C58,50.418278 54.418278,54 50,54 C45.581722,54 42,50.418278 42,46 C42,41.581722 45.581722,38 50,38 C54.418278,38 58,41.581722 58,46 Z" id="Shape" fill="#56B3B4" fill-rule="nonzero"></path>
                </g>
            </g>
        </g>
    </g>
</svg>