<svg xmlns="http://www.w3.org/2000/svg" viewBox="0 0 100 102"><g fill="#56b3b4" fill-rule="evenodd"><path d="M80.976 82.044h1.109v-4.376l17.87-11.915-10.222-20.042 10.222-11.483L87.153 1.633 63.11 0l-3.384 3.86-4.138-2.227-15.259 7.798L24.773 0 0 10.824l12.987 80.919 50.122 9.33h5.954l4.167-18.665H18.383V18.446h62.593z"/><path d="M22.682 27.187h6.282l3.772 14.407 4.504-14.407h4.488l4.286 14.407 4.006-14.407h6.157l-7.35 26.438H43.86l-3.78-14.8h-.65l-3.958 14.8H30.26c-5.37-17.626-7.895-26.438-7.578-26.438zm1.449 43.414h24.026V74.5H24.131zM55.533 49.73l2.702-3.859c3.807 1.992 6.42 2.995 7.84 3.012 2.128.024 4.167-.653 4.168-2.607.001-1.302-2.371-2.628-7.117-3.977-4.655-.922-6.978-3.536-6.967-7.84.015-6.456 6.671-7.917 8.856-7.792s8.83 1.915 9.718 3.43c-.621.825-1.69 2.279-3.204 4.362-2.115-2.129-4.02-3.17-5.715-3.125-2.543.069-4.198 1.332-4.303 3.125s3.692 2.717 7.298 3.736c3.606 1.018 7.633 4.628 7.264 8.081-.37 3.454-3.238 8.12-9.496 7.943-4.172-.117-7.854-1.614-11.044-4.49z"/></g></svg>