<svg viewBox="0 0 100 102" xmlns="http://www.w3.org/2000/svg">
  <g fill="#56b3b4" fill-rule="evenodd">
    <path d="M81 82h1v-4.3l18-12-10.3-20L100 34.2 87.2 1.6 63.2 0l-3.5 3.9-4.1-2.3-15.3 7.8L24.8 0 0 10.8l13 81 50 9.2h6l4.1-18.7H18.4v-64H81z"/>
    <path d="M22.7 27.2H29l3.7 14.4 4.5-14.4h4.5L46 41.6l4-14.4h6.2l-7.4 26.4h-5l-3.7-14.8h-.7l-4 14.8h-5.1a308 308 0 01-7.6-26.4zM24 70.6h24v3.9H24zm31.4-20.9l2.7-3.8c3.8 2 6.5 3 7.9 3 2.1 0 4.1-.7 4.1-2.6 0-1.3-2.3-2.7-7-4-4.7-1-7-3.5-7-7.8 0-6.5 6.6-8 8.8-7.8s8.8 1.9 9.7 3.4l-3.2 4.4c-2-2.2-4-3.2-5.7-3.2-2.5.1-4.2 1.4-4.3 3.2s3.7 2.7 7.3 3.7c3.6 1 7.6 4.6 7.3 8a9 9 0 01-9.5 8c-4.2-.1-7.9-1.6-11-4.5z"/>
  </g>
</svg>
