<?xml version="1.0" encoding="UTF-8"?>
<svg width="92px" height="86px" viewBox="0 0 92 86" version="1.1" xmlns="http://www.w3.org/2000/svg" xmlns:xlink="http://www.w3.org/1999/xlink">
    <!-- Generator: Sketch 47.1 (45422) - http://www.bohemiancoding.com/sketch -->
    <title>Vimlogo</title>
    <desc>Created with Sketch.</desc>
    <defs></defs>
    <g id="Page-1" stroke="none" stroke-width="1" fill="none" fill-rule="evenodd">
        <g id="prettier-homepage" transform="translate(-57.000000, -1615.000000)" fill="#56B3B4">
            <g id="Group-8" transform="translate(57.000000, 1615.000000)">
                <g id="Vimlogo">
                    <polygon id="path3650" points="2.39385567 0.825242718 34.6601068 0.825242718 36.6259058 2.79062691 36.6259058 8.82233992 35.0668224 10.7199534 31.541937 10.7199534 31.541937 40.675198 61.9101711 10.7199534 56.8939902 10.7199534 55.131546 8.82233992 55.131546 2.45176775 56.7584173 0.960784217 89.4313841 0.960784217 91.0582524 2.58731196 91.0582524 8.55125151 17.1712586 84.3203883 8.76576516 84.3203883 6.33275837 82.9159865 6.33275837 10.4488677 2.25828579 10.4488677 0.766990291 8.95788412 0.766990291 2.58731196"></polygon>
                    <g id="g3673" transform="translate(32.805825, 51.310680)" stroke="#56B3B4" stroke-width="3" fill-rule="nonzero">
                        <path d="M12.5024711,0.0743940954 C12.4467063,0.0860911289 12.3949115,0.112115982 12.3521408,0.149929085 L10.9323545,1.37527448 C10.8899027,1.41399312 10.8582371,1.4631716 10.840486,1.51795168 L9.42069968,5.51291336 C9.37792454,5.63260309 9.40713683,5.76633606 9.49586484,5.8570172 L10.5815838,6.94807817 C10.6443419,7.008678 10.7284084,7.04186661 10.8154309,7.04039871 L15.2000651,7.04039871 C15.2870876,7.04186661 15.3711541,7.008678 15.4339122,6.94807817 L16.578093,5.78987499 C16.6175023,5.75018772 16.646239,5.70109491 16.6616098,5.64719779 L17.8809557,1.44241669 C17.914773,1.32617218 17.8827449,1.20064816 17.7974389,1.1150984 L16.8536985,0.166714638 C16.7909404,0.106114806 16.7068739,0.0729261984 16.6198514,0.0743940954 L12.5692846,0.0743940954 C12.547071,0.0721193231 12.5246848,0.0721193231 12.5024711,0.0743940954 L12.5024711,0.0743940954 Z M4.468151,11.3375004 C4.34528608,11.3639874 4.24810639,11.4583899 4.21760048,11.5808909 L3.67474101,13.7462273 C3.65030412,13.8447276 3.67217577,13.9490497 3.7340822,14.0292691 C3.79598864,14.1094886 3.89108927,14.1567414 3.99210501,14.1574733 L6.5727754,14.1574733 L0.175385366,32.5124758 C0.141862463,32.6129251 0.158191927,32.7234293 0.219314947,32.8097546 C0.280437966,32.8960799 0.378974286,32.947803 0.484397679,32.9489002 L9.79652547,32.9489002 C9.94015401,32.9509496 10.068556,32.8592677 10.1138895,32.7222952 L10.7235624,30.7499927 C10.7542497,30.6492082 10.7353629,30.5397627 10.6726984,30.4552467 C10.610034,30.3707306 10.5110769,30.3212389 10.4061984,30.3219611 L8.30157401,30.3219611 L14.6321506,11.7739247 C14.6656735,11.6734754 14.649344,11.5629712 14.588221,11.4766459 C14.527098,11.3903207 14.4285617,11.3385976 14.3231383,11.3375004 L4.53496448,11.3375004 C4.51275084,11.3352256 4.49036464,11.3352256 4.468151,11.3375004 L4.468151,11.3375004 Z M34.0999262,11.4046426 C34.0283324,11.419522 33.9636952,11.4579047 33.9161892,11.5137487 L31.9785985,13.7126561 L28.896827,13.7126561 L26.8423128,11.5724981 C26.7809228,11.5088222 26.6966879,11.4725438 26.6084656,11.4717848 L19.2506319,11.4717848 C19.112252,11.472105 18.9888129,11.5592728 18.9416196,11.689997 L18.2651332,13.7210489 C18.2316103,13.8214982 18.2479397,13.9320024 18.3090627,14.0183277 C18.3701858,14.104653 18.4687221,14.1563761 18.5741455,14.1574733 L20.5451429,14.1574733 L14.4150068,32.3110492 C14.3814839,32.4114985 14.3978133,32.5220027 14.4589364,32.608328 C14.5200594,32.6946533 14.6185957,32.7463764 14.7240191,32.7474736 L22.5578988,32.7474736 C22.6962787,32.7471534 22.8197178,32.6599856 22.8669111,32.5292614 L23.4682324,30.7583855 C23.5017553,30.6579362 23.4854258,30.547432 23.4243028,30.4611067 C23.3631798,30.3747814 23.2646434,30.3230584 23.1592201,30.3219611 L21.7895439,30.3219611 L25.698132,17.9594011 L32.7720085,17.9594011 L28.3122092,32.319442 C28.2815218,32.4202266 28.3004087,32.529672 28.3630731,32.614188 C28.4257376,32.6987041 28.5246946,32.7481958 28.6295732,32.7474736 L36.1878473,32.7474736 C36.3190314,32.7464597 36.4371212,32.6673458 36.4885079,32.5460469 L37.1649943,30.9178483 C37.2048858,30.8167964 37.1928803,30.7025046 37.1328724,30.61205 C37.0728646,30.5215953 36.9724985,30.4665004 36.8643337,30.4646383 L35.4946575,30.4646383 L39.4700591,17.8922589 L46.2015165,17.8922589 L41.6749037,32.319442 C41.6442164,32.4202266 41.6631033,32.529672 41.7257677,32.614188 C41.7884321,32.6987041 41.8873892,32.7481958 41.9922677,32.7474736 L50.2938418,32.7474736 C50.4301089,32.7484696 50.5529297,32.6650742 50.6028541,32.5376542 L51.2793405,30.7667783 C51.3162417,30.6653106 51.3015706,30.5521332 51.2400336,30.4635519 C51.1784965,30.3749706 51.0778306,30.3221227 50.9703282,30.3219611 L49.3250464,30.3219611 L54.3277052,13.9980106 C54.3611423,13.8951199 54.3424313,13.7823018 54.2775951,13.6958706 L52.7241818,11.5976764 C52.6598247,11.5157241 52.5607793,11.4690681 52.4569279,11.4717848 L46.5188805,11.4717848 C46.4277628,11.4702569 46.3400836,11.5067165 46.2766817,11.5724981 L44.4059044,13.6371212 L41.1320443,13.6371212 L39.1944536,11.5053559 C39.1310516,11.4395742 39.0433725,11.4031147 38.9522547,11.4046426 L34.1667397,11.4046426 C34.1445261,11.4023678 34.1221399,11.4023678 34.0999262,11.4046426 L34.0999262,11.4046426 Z" id="path3671"></path>
                    </g>
                </g>
            </g>
        </g>
    </g>
</svg>