<svg xmlns="http://www.w3.org/2000/svg" viewBox="0 0 92 93"><g fill="none" fill-rule="evenodd"><path fill="#56B3B4" fill-rule="nonzero" d="M92 46.5C92 72.181 71.405 93 46 93S0 72.181 0 46.5 20.595 0 46 0s46 20.819 46 46.5z"/><path fill="#000" d="M32.522 72.933s3.089.218 7.062-.131c1.61-.142 7.72-.74 12.288-1.74 0 0 5.57-1.187 8.55-2.282 3.117-1.146 4.814-2.118 5.578-3.496-.034-.282.235-1.283-1.203-1.884-3.676-1.537-7.94-1.26-16.375-1.438-9.355-.32-12.467-1.881-14.125-3.139-1.59-1.275-.79-4.804 6.021-7.913C43.75 49.255 57.2 46.2 57.2 46.2c-4.53-2.232-12.977-6.156-14.713-7.004-1.523-.743-3.96-1.862-4.488-3.216-.599-1.3 1.414-2.42 2.54-2.74 3.621-1.042 8.734-1.69 13.388-1.762 2.34-.037 2.719-.187 2.719-.187 3.228-.534 5.352-2.735 4.467-6.222-.795-3.56-4.986-5.65-8.97-4.926-3.75.681-12.791 3.3-12.791 3.3 11.175-.097 13.045.09 13.88 1.254.494.687-.223 1.63-3.204 2.116-3.244.528-9.99 1.164-9.99 1.164-6.47.383-11.027.409-12.394 3.294-.893 1.885.952 3.552 1.761 4.595 3.418 3.79 8.355 5.834 11.533 7.34 1.196.566 4.704 1.635 4.704 1.635-10.31-.565-17.747 2.59-22.11 6.225-4.933 4.55-2.75 9.974 7.358 13.313 5.97 1.973 8.932 2.9 17.838 2.1 5.246-.281 6.073-.113 6.125.316.073.604-5.827 2.105-7.437 2.568-4.098 1.179-14.84 3.558-14.894 3.57z"/></g></svg>