<?xml version="1.0" encoding="UTF-8"?>
<svg width="100px" height="94px" viewBox="0 0 100 94" version="1.1" xmlns="http://www.w3.org/2000/svg" xmlns:xlink="http://www.w3.org/1999/xlink">
    <!-- Generator: Sketch 47.1 (45422) - http://www.bohemiancoding.com/sketch -->
    <title>Combined Shape</title>
    <desc>Created with Sketch.</desc>
    <defs></defs>
    <g id="Page-1" stroke="none" stroke-width="1" fill="none" fill-rule="evenodd">
        <g id="prettier-homepage" transform="translate(-557.000000, -1456.000000)" fill="#56B3B4">
            <g id="Group-6" transform="translate(557.000000, 1456.000000)">
                <path d="M0,23.0948065 C2.19300958,9.2755065 38.0737634,0.0203381317 50.5928424,0.0403757827 C63.1119215,0.0604134337 94.1212997,-1.55039107 98.4794888,13.6893557 C102.837678,28.9291025 100.276198,90.9255948 57.3533232,93.0551518 C14.4304483,95.1847089 2.21861325,46.5577739 0,23.0948065 Z M47.1132487,20.2018706 C47.1408004,23.682021 51.7054887,24.4813006 53.3296516,24.532508 C54.4124269,24.5666462 56.7627691,23.9623626 60.3806784,22.7196571 C55.8842666,21.8402269 53.6360607,20.5049401 53.6360607,18.7137967 C53.6360607,16.0270817 57.0917206,14.8576621 57.0783621,13.1327543 C57.0650037,11.4078465 53.3496893,7.9808516 49.3655363,8.69719763 C51.6918519,10.4841665 53.6360607,10.4081904 53.6360607,12.2499845 C53.6360607,14.0917786 47.0856969,16.7217203 47.1132487,20.2018706 Z M34.3292273,30.3456532 C33.1939982,30.2544367 32.5003337,30.3337524 32.2482338,30.5836003 C31.9961338,30.8334481 31.9005839,31.5362966 31.961584,32.6921456 C35.2934001,52.1553839 37.3411831,62.9014556 38.104933,64.9303605 C38.8686829,66.9592655 40.8107581,67.9501087 43.9311584,67.9028904 C50.6573154,67.9028904 56.4377603,67.9028904 61.272493,67.9028904 C64.1474815,67.9028904 65.3255469,68.1441545 66.2734176,67.1595492 C67.7218312,65.6550024 67.9987428,62.6151282 67.9987428,61.8870031 C67.9987428,61.08392 67.8778675,60.6394738 67.636117,60.5536644 C55.0732519,60.5536644 48.369127,60.5204075 47.5237422,60.4538936 C46.6783574,60.3873798 46.1649854,60.0762859 45.9836261,59.5206122 C45.6288855,57.3872517 45.4515151,55.935125 45.4515151,55.1642321 C45.4515151,54.3933391 45.7903926,54.0122527 46.4681476,54.0209727 C58.1274631,53.813917 64.2214137,53.6748594 64.7499995,53.6038 C65.2785853,53.5327405 65.6227505,53.2446993 65.7824951,52.7396763 C66.061538,50.7284898 66.2251788,49.3592503 66.2734176,48.6319578 C66.3216564,47.9046653 65.8138503,47.3945401 64.7499995,47.1015822 C52.5019853,47.1015822 46.0691572,47.0913779 45.4515151,47.0709691 C44.8338731,47.0505604 44.4607646,46.5876536 44.3321897,45.6822486 C44.1204956,43.310941 43.9868185,41.7827918 43.9311584,41.097801 C43.8754982,40.4128102 44.2653048,39.9881233 45.1005779,39.8237404 C60.8416371,39.615757 69.3554124,39.5111159 70.6419038,39.5098172 C71.9283952,39.5085185 72.5915858,39.0305834 72.6314756,38.0760119 C73.0346405,35.6653712 73.3889173,33.8040033 73.694306,32.4919082 C73.9996946,31.1798131 73.4540397,30.4643948 72.0573412,30.3456532 L34.3292273,30.3456532 Z" id="Combined-Shape"></path>
            </g>
        </g>
    </g>
</svg>