<?xml version="1.0" encoding="UTF-8"?>
<svg width="89px" height="89px" viewBox="0 0 89 89" version="1.1" xmlns="http://www.w3.org/2000/svg" xmlns:xlink="http://www.w3.org/1999/xlink">
    <!-- Generator: Sketch 47.1 (45422) - http://www.bohemiancoding.com/sketch -->
    <title>Combined Shape Copy</title>
    <desc>Created with Sketch.</desc>
    <defs></defs>
    <g id="Page-1" stroke="none" stroke-width="1" fill="none" fill-rule="evenodd">
        <g id="prettier-homepage" transform="translate(-843.000000, -1456.000000)" fill-rule="nonzero" fill="#56B3B4">
            <g id="Group-7" transform="translate(843.000000, 1456.000000)">
                <path d="M80.9338641,0 C81.3698714,0 82.0238824,0 82.4598898,0 C83.1139008,0 83.5499081,0 83.9859155,1.98114986e-15 C85.7299449,0.446115288 87.4739743,1.56140351 88.345989,3.34586466 C89,4.46115288 89,6.02255639 89,7.36090226 C89,24.0902256 89,40.8195489 89,57.5488722 C88.7819963,66.4711779 89,75.1704261 88.7819963,83.8696742 C88.345989,86.5463659 85.9479486,89 83.1139008,89 C75.0477648,89 66.7636252,89 58.6974893,89 C48.0153092,89 37.1151255,89 26.2149418,89 C19.6748316,89 12.9167177,89 6.37660747,89 C3.54255971,89 0.926515615,86.7694236 0.272504593,83.8696742 C-0.163502756,81.4160401 0.0545009186,79.1854637 0.0545009186,76.7318296 C0.0545009186,53.7568922 0.0545009186,31.0050125 0.0545009186,8.03007519 C0.0545009186,6.24561404 0.0545009186,4.01503759 1.36252296,2.45363409 C2.67054501,1.11528822 4.63257808,0 6.81261482,0 C15.5327618,0 24.2529088,0 32.9730557,0 C45.1812615,0 57.1714636,0 69.3796693,0 C73.0857318,0 77.0097979,0 80.9338641,0 Z M20,27.3012278 L20,44 L41.2558077,52.0703406 L20,58.2360998 L20,77 L70,60.9415035 L70,43.7123538 L48.8350127,35.4881559 L70,29.2175426 L70,11 L20,27.3012278 Z" id="Combined-Shape-Copy"></path>
            </g>
        </g>
    </g>
</svg>