<?xml version="1.0" encoding="UTF-8"?>
<svg width="93px" height="96px" viewBox="0 0 93 96" version="1.1" xmlns="http://www.w3.org/2000/svg" xmlns:xlink="http://www.w3.org/1999/xlink">
    <!-- Generator: Sketch 47.1 (45422) - http://www.bohemiancoding.com/sketch -->
    <title>Group</title>
    <desc>Created with Sketch.</desc>
    <defs></defs>
    <g id="Page-1" stroke="none" stroke-width="1" fill="none" fill-rule="evenodd">
        <g id="prettier-homepage" transform="translate(-583.000000, -1609.000000)">
            <g id="Group-10" transform="translate(582.000000, 1607.000000)">
                <g id="Group">
                    <rect id="Rectangle" stroke="#56B3B4" stroke-width="4" transform="translate(43.495935, 50.000000) rotate(-9.000000) translate(-43.495935, -50.000000) " x="8.50406504" y="7.69105691" width="69.9837398" height="84.6178862" rx="13"></rect>
                    <path d="M18.2672676,59.0158825 L27.0746049,47.9634444 L15.4471545,38.9338587 L18.8637479,36.2590596 L30.1232028,42.7403859 L45.3964432,22.7642276 L56.2697518,25.9540967 L61.7886179,59.0158825 L52.1840755,65.8536585 L32.5055649,51.3728865 L22.9661513,60.4769702 L18.2672676,59.0158825 Z M37.3752783,45.9680386 L49.9526129,52.678562 L46.8438687,36.0412688 L37.3752783,45.9680386 Z" id="Combined-Shape" fill="#56B3B4"></path>
                    <path d="M63.6288601,8.94308943 C63.8840486,8.94308943 70.6373627,10.6135888 83.8888022,13.9545876 L93.495935,72.6768223 L75.8553719,84.5528455 L17.0731707,74.4832388 L73.7085686,73.5143847 C66.7335744,30.4668545 63.3736715,8.94308943 63.6288601,8.94308943 Z" id="Path-11" fill="#56B3B4"></path>
                </g>
            </g>
        </g>
    </g>
</svg>