<svg xmlns="http://www.w3.org/2000/svg" viewBox="0 0 92 93">
  <g fill="none" fill-rule="evenodd">
    <path fill="#56B3B4" fill-rule="nonzero" d="M92 46.5C92 72.2 71.4 93 46 93S0 72.2 0 46.5 20.6 0 46 0s46 20.8 46 46.5z"/>
    <path fill="#000" d="M32.5 73s3.1.2 7-.2c1.7-.1 7.8-.7 12.4-1.7 0 0 5.5-1.2 8.5-2.3 3.1-1.2 4.8-2.1 5.6-3.5 0-.3.2-1.3-1.2-1.9-3.7-1.5-8-1.3-16.4-1.4-9.3-.4-12.4-2-14.1-3.2-1.6-1.3-.8-4.8 6-7.9 3.5-1.6 16.9-4.7 16.9-4.7l-14.7-7c-1.5-.7-4-1.9-4.5-3.2-.6-1.3 1.4-2.4 2.5-2.8 3.7-1 8.8-1.7 13.4-1.7 2.4 0 2.7-.2 2.7-.2 3.3-.5 5.4-2.7 4.5-6.2-.8-3.6-5-5.7-9-5-3.7.7-12.7 3.3-12.7 3.3 11.1 0 13 .1 13.8 1.3.5.7-.2 1.6-3.2 2.1-3.2.5-10 1.2-10 1.2-6.4.4-11 .4-12.4 3.3-.8 1.9 1 3.5 1.8 4.6 3.4 3.8 8.4 5.8 11.5 7.3a56 56 0 004.7 1.6 31.5 31.5 0 00-22 6.3c-5 4.5-2.8 10 7.3 13.3 6 2 9 2.9 17.8 2 5.3-.2 6.1 0 6.2.4 0 .6-5.9 2.1-7.5 2.6a419 419 0 01-14.9 3.5z"/>
  </g>
</svg>
