<svg viewBox="0 0 104 95" xmlns="http://www.w3.org/2000/svg"><g fill="none" fill-rule="evenodd"><g stroke="#56b3b4" stroke-linecap="round" stroke-width="3"><path d="M82.2 22.7c1.7-8.5.7-15-3.2-17.5A7.8 7.8 0 0074.4 4c-9.6.4-25 13.6-37.6 33C22 60.3 16.6 83.4 25 88.9c4 2.6 10.3.8 17.5-4.4"/><path d="M90.2 60c7.2-2.8 11.6-6.6 11.8-11 .5-10-21.4-19.4-49-20.8a137 137 0 00-7.7-.2C21.3 28 2.5 34.7 2 43.8c-.2 4.4 3.7 8.6 10.5 12.1"/><path d="M45.2 8c-5-4-9.5-6.3-13.2-6a7.1 7.1 0 00-2.8.8c-9 4.6-6 28.3 6.5 53 12.6 24.7 30 41 39 36.4 8.7-4.4 6.4-26.5-5-50.2"/></g><path d="M60 48a8 8 0 11-16 0 8 8 0 0116 0z" fill="#56b3b4" fill-rule="nonzero"/></g></svg>