<?xml version="1.0" encoding="UTF-8"?>
<svg width="92px" height="93px" viewBox="0 0 92 93" version="1.1" xmlns="http://www.w3.org/2000/svg" xmlns:xlink="http://www.w3.org/1999/xlink">
    <!-- Generator: Sketch 47.1 (45422) - http://www.bohemiancoding.com/sketch -->
    <title>emacs</title>
    <desc>Created with Sketch.</desc>
    <defs></defs>
    <g id="Page-1" stroke="none" stroke-width="1" fill="none" fill-rule="evenodd">
        <g id="prettier-homepage" transform="translate(-317.000000, -1454.000000)">
            <g id="Group-5" transform="translate(317.000000, 1454.000000)">
                <g id="emacs">
                    <path d="M92,46.500001 C92,72.1812416 71.4051001,93 46.00001,93 C20.5949199,93 0,72.1812416 0,46.500001 C0,20.8187564 20.5949199,0 46.00001,0 C71.4051001,0 92,20.8187564 92,46.500001 Z" id="path4235" fill="#56B3B4" fill-rule="nonzero"></path>
                    <path d="M32.5215806,72.9328577 C32.5215806,72.9328577 35.6105846,73.1507265 39.5844505,72.8015457 C41.1937655,72.6601371 47.3039009,72.061771 51.8720619,71.0629375 C51.8720619,71.0629375 57.4417527,69.874517 60.4214753,68.7797182 C63.5392746,67.6341805 65.2358676,66.6619374 65.999523,65.2843011 C65.9662206,65.0020346 66.2346432,64.0010635 64.7968483,63.3998078 C61.1209515,61.8626168 56.8577864,62.1406611 48.4220363,61.9623408 C39.0671204,61.6418724 35.9551114,60.0806826 34.2973608,58.8233006 C32.7076861,57.5477381 33.507054,54.0187873 40.3184342,50.9103177 C43.7495236,49.2550147 57.199778,46.2002891 57.199778,46.2002891 C52.6699743,43.9679507 44.2233165,40.0435723 42.4870203,39.1961348 C40.9641852,38.4528962 38.5271922,37.3337866 37.9989386,35.9798136 C37.4000113,34.6799575 39.4133999,33.5602394 40.5380612,33.2395853 C44.1601389,32.197936 49.273408,31.5505177 53.9270785,31.4778334 C56.2662614,31.4412962 56.6459529,31.2912452 56.6459529,31.2912452 C59.8735814,30.7574468 61.9983485,28.5557929 61.1130798,25.0690229 C60.3183442,21.5099415 56.1268387,19.4186621 52.143677,20.1426405 C48.3927402,20.8244163 39.3520064,23.4426538 39.3520064,23.4426538 C50.5270223,23.3462235 52.3974202,23.5321798 53.2327667,24.6966172 C53.7260902,25.3843002 53.0086012,26.3272209 50.0282683,26.8125179 C46.7836287,27.3408553 40.038916,27.9771129 40.038916,27.9771129 C33.5685884,28.3602252 29.0108971,28.3858669 27.6439324,31.271364 C26.7508858,33.1564939 28.5962756,34.8230871 29.4051115,35.8662935 C32.8231022,39.6560771 37.7601721,41.7000096 40.9380816,43.2051758 C42.1337923,43.7715015 45.642144,44.8409893 45.642144,44.8409893 C35.3324436,44.2756435 27.8954065,47.4319202 23.5328975,51.0659359 C18.5987541,55.6161336 20.7814714,61.0398287 30.8901684,64.3793468 C36.8607717,66.3517964 39.8218086,67.2794403 48.7278616,66.4798521 C53.9736206,66.1979508 54.8005631,66.3657095 54.8528642,66.7948611 C54.9264958,67.3990689 49.0263315,68.8999428 47.4155298,69.3631835 C43.3176249,70.541676 32.5753528,72.9213163 32.5215806,72.9328577 L32.5215806,72.9328577 Z" id="path4237" fill="#000000"></path>
                </g>
            </g>
        </g>
    </g>
</svg>