<svg xmlns="http://www.w3.org/2000/svg" viewBox="0 0 92 86"><g fill="#56B3B4" fill-rule="evenodd"><path d="M2.4.8h32.3l2 2v6l-1.6 2h-3.6v29.9l30.4-30h-5L55 8.8V2.5L56.8 1h32.6l1.7 1.6v6L17 84.3H8.9L6.3 83V10.4h-4L.8 9V2.6z"/><path fill-rule="nonzero" stroke="#56B3B4" stroke-width="3" d="M45.3 51.4a.3.3 0 00-.1 0l-1.5 1.3a.3.3 0 000 .1l-1.5 4a.3.3 0 00.1.4l1 1a.3.3 0 00.3.2H48a.3.3 0 00.2-.1l1.2-1.2a.3.3 0 000-.1l1.3-4.2a.3.3 0 00-.1-.4l-1-1a.3.3 0 00-.2 0h-4a.3.3 0 000 0zm-8 11.2a.3.3 0 00-.3.3l-.5 2.2a.3.3 0 00.3.4h2.6L33 83.8a.3.3 0 00.3.5h9.3a.3.3 0 00.3-.3l.6-2a.3.3 0 00-.3-.4h-2l6.2-18.5a.3.3 0 00-.3-.5h-9.8a.3.3 0 000 0zm29.6.1a.3.3 0 00-.2.1l-2 2.2h-3l-2-2.1a.3.3 0 00-.3-.1h-7.3a.3.3 0 00-.4.2l-.6 2a.3.3 0 00.3.5h2l-6.2 18.1a.3.3 0 00.3.5h7.9a.3.3 0 00.3-.3l.6-1.7a.3.3 0 00-.3-.5h-1.4l3.9-12.3h7l-4.4 14.3a.3.3 0 00.3.5H69a.3.3 0 00.3-.2l.7-1.7a.3.3 0 00-.3-.4h-1.4l4-12.6H79l-4.5 14.4a.3.3 0 00.3.5h8.3a.3.3 0 00.3-.3l.7-1.7a.3.3 0 00-.3-.5H82l5-16.3a.3.3 0 000-.3l-1.6-2a.3.3 0 00-.2-.2h-6a.3.3 0 00-.2 0L77.2 65H74l-2-2a.3.3 0 00-.2-.2H67a.3.3 0 000 0z"/></g></svg>