<svg xmlns="http://www.w3.org/2000/svg" viewBox="0 0 140 150"><path fill="#6F7B81" d="M139.737 109.443c-.79-6.247-6.057-10.557-12.815-10.47-10.094.133-18.565 5.367-24.182 8.842-2.195 1.364-4.082 2.376-5.706 3.123.352-5.102.044-11.788-2.589-19.134-3.204-8.798-7.505-14.209-10.577-17.332 3.555-5.19 8.427-12.756 10.709-24.457 1.975-9.986 1.36-25.514-3.16-34.223-.922-1.76-2.458-3.035-4.389-3.563-.79-.22-2.282-.66-5.222.176-4.301-9.194-5.837-10.162-7.022-10.91C72.326-.087 69.429-.44 66.708.573c-3.642 1.32-6.758 4.839-9.699 11.085a45.866 45.866 0 00-1.185 2.683c-5.573.396-14.35 2.42-21.768 10.47-.921 1.011-2.72 1.759-4.608 2.463h.044c-3.862 1.32-5.661 4.487-7.768 10.205-2.984 8.006.088 15.88 3.116 20.982-4.125 3.695-9.611 9.59-12.508 16.496C8.734 83.49 8.34 91.848 8.47 96.378 5.398 99.633.658 105.748.132 112.61c-.703 9.59 2.765 16.1 4.3 18.475.44.704.922 1.276 1.449 1.848-.176 1.187-.22 2.463.044 3.783.57 3.079 2.501 5.586 5.442 7.17 5.793 3.079 13.868 4.398 20.1 1.275 2.238 2.376 6.32 4.663 13.737 4.663h.439c1.887 0 25.85-1.276 32.827-2.991 3.116-.748 5.267-2.068 6.671-3.255 4.477-1.408 16.853-5.63 28.527-13.197 8.25-5.366 11.103-6.51 17.247-8.006 5.837-1.451 9.612-6.862 8.822-12.932zm-29.668 15.352c-13.605 8.797-28.439 12.888-28.439 12.888s-1.229 1.848-4.784 2.684c-6.144 1.495-29.272 2.77-31.379 2.815-5.661.044-9.128-1.452-10.094-3.783-2.94-7.038 4.213-10.117 4.213-10.117s-1.58-.968-2.501-1.848c-.834-.836-1.712-2.507-1.975-1.891-1.097 2.683-1.668 9.237-4.608 12.184-4.038 4.091-11.674 2.728-16.195.352-4.959-2.64.351-8.841.351-8.841s-2.677 1.583-4.827-1.672c-1.931-2.991-3.73-8.094-3.248-14.384.527-7.17 8.514-14.12 8.514-14.12s-1.404-10.602 3.204-21.467c4.17-9.897 15.404-17.859 15.404-17.859s-9.435-10.47-5.924-19.883c2.282-6.158 3.203-6.114 3.95-6.378 2.633-1.012 5.178-2.111 7.065-4.179 9.436-10.205 21.461-8.27 21.461-8.27S65.962 3.651 71.23 7.038c1.624 1.056 7.46 14.076 7.46 14.076s6.233-3.65 6.935-2.287c3.774 7.346 4.213 21.378 2.545 29.912-2.808 14.076-9.83 21.642-12.64 26.393-.658 1.1 7.55 4.575 12.728 18.959 4.784 13.152.527 24.193 1.273 25.425.175.308 5.661.748 16.677-6.07 5.88-3.651 12.859-7.742 20.802-7.83 7.68-.132 8.076 8.93 2.326 10.293-7.022 1.672-10.576 3.211-19.266 8.886z"/></svg>