<svg viewBox="0 0 385 289" xmlns="http://www.w3.org/2000/svg">
  <g fill="#c6cbd0" fill-rule="evenodd" opacity=".5">
    <rect height="10" rx="5" width="70" x="315" y="20"/>
    <rect height="10" rx="5" width="90" x="235" y="100"/>
    <rect height="10" rx="5" width="40" x="343" y="200"/>
    <rect height="10" rx="5" width="90" x="255" y="80"/>
    <rect height="10" rx="5" width="90" x="295" y="180"/>
    <rect height="10" rx="5" width="90" x="155" y="80"/>
    <rect height="10" rx="5" width="60" x="235" y="259"/>
    <rect height="10" rx="5" width="60" x="205"/>
    <rect height="10" rx="5" width="60" x="275"/>
    <rect height="10" rx="5" width="60" x="295" y="40"/>
    <rect height="10" rx="5" width="60" x="140" y="120"/>
    <rect height="10" rx="5" width="60" x="65" y="60"/>
    <rect height="10" rx="5" width="145" x="240" y="160"/>
    <rect height="10" rx="5" width="145" x="50"/>
    <rect height="10" rx="5" width="115" x="270" y="120"/>
    <rect height="10" rx="5" width="40" x="345"/>
    <rect height="10" rx="5" width="40" x="237" y="240"/>
    <rect height="10" rx="5" width="40" x="95" y="40"/>
    <rect height="10" rx="5" width="100" x="95" y="20"/>
    <rect height="10" rx="5" width="40" x="245" y="40"/>
    <rect height="10" rx="5" width="40" x="105" y="80"/>
    <rect height="10" rx="5" width="40" x="245" y="180"/>
    <rect height="10" rx="5" width="40" x="345" y="259"/>
    <rect height="10" rx="5" width="40"/>
    <rect height="10" rx="5" width="20" x="365" y="40"/>
    <rect height="10" rx="5" width="110" x="275" y="60"/>
    <rect height="10" rx="5" width="90" x="145" y="40"/>
    <rect height="10" rx="5" width="100" x="205" y="20"/>
    <rect height="10" rx="5" width="100" x="285" y="240"/>
    <rect height="10" rx="5" width="50" x="210" y="120"/>
    <rect height="10" rx="5" width="50" x="35" y="20"/>
    <rect height="10" rx="5" width="50" x="180" y="160"/>
    <rect height="10" rx="5" width="30" x="355" y="80"/>
    <rect height="10" rx="5" width="30" x="305" y="259"/>
    <rect height="10" rx="5" width="30" x="285" y="220"/>
    <rect height="10" rx="5" width="20" x="295" y="140"/>
    <rect height="10" rx="5" width="20" x="365" y="279"/>
    <rect height="10" rx="5" width="60" x="325" y="140"/>
    <rect height="10" rx="5" width="30" x="55" y="40"/>
    <rect height="10" rx="5" width="60" x="325" y="220"/>
    <rect height="10" rx="5" width="85" x="200" y="140"/>
    <rect height="10" rx="5" width="60" x="165" y="100"/>
    <rect height="10" rx="5" width="60" x="215" y="220"/>
    <rect height="10" rx="5" width="60" x="203" y="200"/>
    <rect height="10" rx="5" width="60" x="273" y="200"/>
    <rect height="10" rx="5" width="130" x="135" y="60"/>
    <rect height="10" rx="5" width="50" x="335" y="100"/>
  </g>
</svg>
