<?xml version="1.0" encoding="UTF-8"?>
<svg width="385px" height="289px" viewBox="0 0 385 289" version="1.1" xmlns="http://www.w3.org/2000/svg" xmlns:xlink="http://www.w3.org/1999/xlink">
    <!-- Generator: Sketch 47.1 (45422) - http://www.bohemiancoding.com/sketch -->
    <title>Group 14</title>
    <desc>Created with Sketch.</desc>
    <defs></defs>
    <g id="Page-1" stroke="none" stroke-width="1" fill="none" fill-rule="evenodd" opacity="0.5">
        <g id="prettier-homepage" transform="translate(-669.000000, -1949.000000)" fill="#C6CBD0">
            <g id="Group-14" transform="translate(669.000000, 1949.000000)">
                <rect id="Rectangle-Copy-122" x="315" y="20" width="70" height="10" rx="5"></rect>
                <rect id="Rectangle-Copy-129" x="235" y="100" width="90" height="10" rx="5"></rect>
                <rect id="Rectangle-Copy-163" x="343" y="200" width="40" height="10" rx="5"></rect>
                <rect id="Rectangle-Copy-127" x="255" y="80" width="90" height="10" rx="5"></rect>
                <rect id="Rectangle-Copy-161" x="295" y="180" width="90" height="10" rx="5"></rect>
                <rect id="Rectangle-Copy-151" x="155" y="80" width="90" height="10" rx="5"></rect>
                <rect id="Rectangle-Copy-138" x="235" y="259" width="60" height="10" rx="5"></rect>
                <rect id="Rectangle-Copy-150" x="205" y="0" width="60" height="10" rx="5"></rect>
                <rect id="Rectangle-Copy-180" x="275" y="0" width="60" height="10" rx="5"></rect>
                <rect id="Rectangle-Copy-124" x="295" y="40" width="60" height="10" rx="5"></rect>
                <rect id="Rectangle-Copy-175" x="140" y="120" width="60" height="10" rx="5"></rect>
                <rect id="Rectangle-Copy-171" x="65" y="60" width="60" height="10" rx="5"></rect>
                <rect id="Rectangle-Copy-134" x="240" y="160" width="145" height="10" rx="5"></rect>
                <rect id="Rectangle-Copy-159" x="50" y="0" width="145" height="10" rx="5"></rect>
                <rect id="Rectangle-Copy-130" x="270" y="120" width="115" height="10" rx="5"></rect>
                <rect id="Rectangle-Copy-111" x="345" y="0" width="40" height="10" rx="5"></rect>
                <rect id="Rectangle-Copy-170" x="237" y="240" width="40" height="10" rx="5"></rect>
                <rect id="Rectangle-Copy-158" x="95" y="40" width="40" height="10" rx="5"></rect>
                <rect id="Rectangle-Copy-157" x="95" y="20" width="100" height="10" rx="5"></rect>
                <rect id="Rectangle-Copy-149" x="245" y="40" width="40" height="10" rx="5"></rect>
                <rect id="Rectangle-Copy-176" x="105" y="80" width="40" height="10" rx="5"></rect>
                <rect id="Rectangle-Copy-162" x="245" y="180" width="40" height="10" rx="5"></rect>
                <rect id="Rectangle-Copy-177" x="345" y="259" width="40" height="10" rx="5"></rect>
                <rect id="Rectangle-Copy-174" x="0" y="0" width="40" height="10" rx="5"></rect>
                <rect id="Rectangle-Copy-123" x="365" y="40" width="20" height="10" rx="5"></rect>
                <rect id="Rectangle-Copy-125" x="275" y="60" width="110" height="10" rx="5"></rect>
                <rect id="Rectangle-Copy-152" x="145" y="40" width="90" height="10" rx="5"></rect>
                <rect id="Rectangle-Copy-142" x="205" y="20" width="100" height="10" rx="5"></rect>
                <rect id="Rectangle-Copy-169" x="285" y="240" width="100" height="10" rx="5"></rect>
                <rect id="Rectangle-Copy-153" x="210" y="120" width="50" height="10" rx="5"></rect>
                <rect id="Rectangle-Copy-173" x="35" y="20" width="50" height="10" rx="5"></rect>
                <rect id="Rectangle-Copy-160" x="180" y="160" width="50" height="10" rx="5"></rect>
                <rect id="Rectangle-Copy-126" x="355" y="80" width="30" height="10" rx="5"></rect>
                <rect id="Rectangle-Copy-178" x="305" y="259" width="30" height="10" rx="5"></rect>
                <rect id="Rectangle-Copy-167" x="285" y="220" width="30" height="10" rx="5"></rect>
                <rect id="Rectangle-Copy-132" x="295" y="140" width="20" height="10" rx="5"></rect>
                <rect id="Rectangle-Copy-179" x="365" y="279" width="20" height="10" rx="5"></rect>
                <rect id="Rectangle-Copy-131" x="325" y="140" width="60" height="10" rx="5"></rect>
                <rect id="Rectangle-Copy-172" x="55" y="40" width="30" height="10" rx="5"></rect>
                <rect id="Rectangle-Copy-166" x="325" y="220" width="60" height="10" rx="5"></rect>
                <rect id="Rectangle-Copy-133" x="200" y="140" width="85" height="10" rx="5"></rect>
                <rect id="Rectangle-Copy-154" x="165" y="100" width="60" height="10" rx="5"></rect>
                <rect id="Rectangle-Copy-168" x="215" y="220" width="60" height="10" rx="5"></rect>
                <rect id="Rectangle-Copy-164" x="203" y="200" width="60" height="10" rx="5"></rect>
                <rect id="Rectangle-Copy-165" x="273" y="200" width="60" height="10" rx="5"></rect>
                <rect id="Rectangle-Copy-148" x="135" y="60" width="130" height="10" rx="5"></rect>
                <rect id="Rectangle-Copy-128" x="335" y="100" width="50" height="10" rx="5"></rect>
            </g>
        </g>
    </g>
</svg>