<svg xmlns="http://www.w3.org/2000/svg" fill="rgb(111,123,129)" viewBox="0 0 1143 370" class="SidebarLogo__SVG-sc-134wwb4-1 jirPnA"><g><path d="M78.845 54.401l5.548-20.694h106.935l-53.619 199.085H13.836a63.63 63.63 0 01-8.455-20.694h116.436l42.472-157.697H78.845zM184.81 332.293a39.517 39.517 0 0023.98-8.146 39.48 39.48 0 0014.103-21.028l38.201-141.6a24.27 24.27 0 0123.395-17.922h67.001l5.547-20.694h-76.782a39.514 39.514 0 00-23.981 8.145 39.49 39.49 0 00-14.103 21.028l-38.2 141.601a24.26 24.26 0 01-8.664 12.918 24.277 24.277 0 01-14.732 5.004H83.519l-5.548 20.694H184.81zm29.731-192.002l-38.2 141.6H91.483L85.13 305.59h95.444a18.254 18.254 0 0011.077-3.763 18.236 18.236 0 006.514-9.712l38.2-141.601a45.502 45.502 0 0116.253-24.233 45.534 45.534 0 0127.636-9.387h78.393L365 93.195h-88.981a63.693 63.693 0 00-38.729 13.128 63.639 63.639 0 00-22.75 33.968zM230.132 4H92.357l-6.353 23.698h113.168l-56.855 211.103H18.133a63.272 63.272 0 0022.074 17.507 63.308 63.308 0 0027.49 6.192h92.815L230.132 4zm54.356 145.606a18.255 18.255 0 00-11.077 3.762 18.235 18.235 0 00-6.514 9.713l-38.2 141.6a45.505 45.505 0 01-16.252 24.233 45.537 45.537 0 01-27.636 9.388H76.36L70.007 362h119.036a63.685 63.685 0 0038.729-13.128 63.639 63.639 0 0022.75-33.968l38.2-141.6h54.803l6.353-23.698h-65.39zM117.21 206.089l39.235-145.678h-79.21l-6.353 23.698h54.602l-26.47 98.282H6.198a63.5 63.5 0 00-1.796 23.698H117.21zM513.306 94.832c0 102.212-110.308 119.416-110.308 223.652V362h160.908v-50.6H458.658c-.506-2.53-.506-5.06-.506-7.59 0-58.19 110.814-99.682 110.814-211.002 0-56.672-28.336-89.056-82.984-89.056-54.648 0-82.984 32.384-82.984 89.056v34.408h52.624v-37.95c0-25.3 11.132-34.914 28.842-34.914s28.842 8.602 28.842 40.48zm141.419-5.566c0-25.3 11.132-34.914 28.842-34.914s28.842 9.614 28.842 34.914v191.268c0 25.3-11.132 34.914-28.842 34.914s-28.842-9.614-28.842-34.914V89.266zm-55.66 187.726c0 56.672 29.854 89.056 84.502 89.056 54.648 0 84.502-32.384 84.502-89.056V92.808c0-56.672-29.854-89.056-84.502-89.056-54.648 0-84.502 32.384-84.502 89.056v184.184zm315.483-182.16c0 102.212-110.308 119.416-110.308 223.652V362h160.908v-50.6H859.9c-.506-2.53-.506-5.06-.506-7.59 0-58.19 110.814-99.682 110.814-211.002 0-56.672-28.336-89.056-82.984-89.056-54.648 0-82.984 32.384-82.984 89.056v34.408h52.624v-37.95c0-25.3 11.132-34.914 28.842-34.914s28.842 8.602 28.842 40.48zm124.722-3.036h43.01V362h55.66V7.8h-37.44c-8.61 23.782-18.22 44.528-61.23 44.528v39.468z"></path></g></svg>