<?xml version="1.0" standalone="yes"?>
<svg xmlns="http://www.w3.org/2000/svg" width="1600" height="800">
<path style="fill:#24262a; stroke:none;" d="M0 0L0 800L1600 800L1600 0L0 0z"/>
<path style="fill:#745053; stroke:none;" d="M308 104L308 500L700 500L700 696L1096 696L1096 500L1292 500L1292 104L1092 104L1092 300L900 300L900 104L308 104z"/>
<path style="fill:#24262a; stroke:none;" d="M312 108L312 300L504 300L504 108L312 108M508 108L508 300L700 300L700 108L508 108M704 108L704 300L896 300L896 108L704 108M1096 108L1096 300L1288 300L1288 108L1096 108z"/>
<path style="fill:#745053; stroke:none;" d="M1217 176L1217 177L1232 177L1217 176M1214 177L1215 178L1214 177z"/>
<path style="fill:#d0d0d0; stroke:none;" d="M1209 193L1197 193L1197 200L1209 200L1209 223L1198 223L1198 230L1230 230L1230 223L1218 223L1218 200L1232 200L1232 193L1218 193L1218 184L1232 184L1232 177C1218 177 1209 176.537 1209 193z"/>
<path style="fill:#745053; stroke:none;" d="M1212 178L1213 179L1212 178M380.667 179.333L381.333 179.667L380.667 179.333z"/>
<path style="fill:#d0d0d0; stroke:none;" d="M403 184C395.679 180.168 388.321 177.536 380 179.939C370.976 182.545 366.023 193.723 371.738 201.895C376.426 208.597 394.882 206.588 394.623 216C394.3 227.785 380.278 220.704 375.001 219.272C372.529 218.602 369.207 219.937 369.207 222.927C369.207 227.275 376.72 229.468 380 230.181C389.129 232.162 402.671 229.078 403.891 218C405.434 203.994 395.48 203.001 385.005 199.467C381.094 198.148 377.726 194.451 380.184 190.225C386.345 179.628 399.218 197.306 403 184z"/>
<path style="fill:#745053; stroke:none;" d="M392 179L392 180L395 180L392 179M422 190L423 190L423 180L431 180C422.58 176.475 422.001 183.546 422 190M575 182L576 182C579.7 179.197 585.3 179.197 589 182C589.842 176.895 576.96 178.439 575 182M618 190L619 190L619 180L627 180C618.58 176.475 618.001 183.546 618 190M784 230L785 230L785 180L816 180C811.341 178.045 788.376 176.376 785.028 180.603C782.699 183.543 784 190.469 784 194L784 230M1164.67 179.333L1165.33 179.667L1164.67 179.333z"/>
<path style="fill:#d0d0d0; stroke:none;" d="M1166 179.529C1142.75 184.896 1147.06 236.55 1175 230.177C1198.12 224.902 1193.77 173.121 1166 179.529z"/>
<path style="fill:#745053; stroke:none;" d="M1175.67 179.333L1176.33 179.667L1175.67 179.333M1211 179L1212 180L1211 179M377 180L378 181L377 180M396 180L397 181L396 180z"/>
<path style="fill:#d0d0d0; stroke:none;" d="M423 180C422.994 189.637 420.927 192.992 411 193L411 200L422 200C422 207.543 418.917 223.323 426.109 228.142C431.27 231.6 440.08 230 446 230L446 223L431 223L431 200L446 200L446 193L431 193L431 180L423 180M562 230C574.324 229.99 568.39 222.991 576.279 218.028C579.765 215.834 586.036 217 590 217L593 230L603 230C600.151 217.575 596.231 205.256 592.709 193C591.731 189.596 591.089 182.36 587.57 180.603C584.547 179.094 577.551 179.283 575.569 182.318C567.976 193.942 564.816 216.395 562 230M619 180C618.994 189.637 616.927 192.992 607 193L607 200L618 200C618 207.543 614.917 223.323 622.109 228.142C627.27 231.6 636.08 230 642 230L642 223L627 223L627 200L642 200L642 193L627 193L627 180L619 180M785 180L785 230L816 230L816 222L794 222L794 208L815 208L815 201L794 201L794 187L816 187L816 180L785 180z"/>
<path style="fill:#745053; stroke:none;" d="M1162 180L1163 181L1162 180M1178 180L1179 181L1178 180M1210 180L1211 181L1210 180M375 181L376 182L375 181M398 181L399 182L398 181M1160 181L1161 182L1160 181M1180 181L1181 182L1180 181M374 182L375 183L374 182M400 182L401 183L400 182M1209 182L1210 183L1209 182M401 183L402 184L401 183M574.333 183.667L574.667 184.333L574.333 183.667M590.333 184.667L590.667 185.333L590.333 184.667M371 185L372 186L371 185M403.333 185.667L403.667 186.333L403.333 185.667M1208 185L1208 193L1209 193L1208 185M385 186L385 187L388 187L385 186M1155 186L1156 187L1155 186M1169 186L1169 187L1172 187L1169 186M1185 186L1186 187L1185 186M370 187L371 188L370 187M382 187L383 188L382 187M391.667 187.333L392.333 187.667L391.667 187.333M402 187L403 188L402 187M573.333 187.667L573.667 188.333L573.333 187.667M794 187L794 188L816 188L794 187M1166 187L1167 188L1166 187z"/>
<path style="fill:#24262a; stroke:none;" d="M1167.11 187.743C1157.77 191.681 1158.92 227.387 1172.98 222.242C1183.54 218.377 1182.41 181.286 1167.11 187.743z"/>
<path style="fill:#745053; stroke:none;" d="M1174 187L1175 188L1174 187M380 188L381 189L380 188M394 188L395 189L394 188M401 188L402 189L401 188M591 188L592 189L591 188M1154 188L1155 189L1154 188M1186 188L1187 189L1186 188M369 189L369 192L370 192L369 189M400 189L401 190L400 189M582 189L581 192L582 192L582 189M379 190L380 191L379 190M399 190L400 191L399 190z"/>
<path style="fill:#24262a; stroke:none;" d="M582 190L577 209L587 209L582 190z"/>
<path style="fill:#745053; stroke:none;" d="M1153 190L1154 191L1153 190M1163 190L1164 191L1163 190M1177 190L1178 191L1177 190M1187.33 190.667L1187.67 191.333L1187.33 190.667M398 191L399 192L398 191M572 191L573 192L572 191M592.333 191.667L592.667 192.333L592.333 191.667M419.667 192.333L420.333 192.667L419.667 192.333M583.333 192.667L583.667 193.333L583.333 192.667M615.667 192.333L616.333 192.667L615.667 192.333M1162.33 192.667L1162.67 193.333L1162.33 192.667M1178.33 192.667L1178.67 193.333L1178.33 192.667M1152.33 193.667L1152.67 194.333L1152.33 193.667M1188 193L1188 196L1189 196L1188 193M1196 193L1196 200L1197 200L1196 193M571.333 194.667L571.667 195.333L571.333 194.667M580.333 194.667L580.667 195.333L580.333 194.667M369 195L369 198L370 198L369 195M593 195L594 196L593 195M379 196L380 197L379 196M584.333 196.667L584.667 197.333L584.333 196.667M1161 196L1161 214L1162 214L1161 196M380 197L381 198L380 197M579.333 197.667L579.667 198.333L579.333 197.667M1179 197L1179 212L1180 212L1179 197M381 198L382 199L381 198M570 198L571 199L570 198M594.333 198.667L594.667 199.333L594.333 198.667M1151 198L1151 212L1152 212L1151 198M384.667 199.333L385.333 199.667L384.667 199.333M1189 199L1189 211L1190 211L1189 199M370 200L371 201L370 200M389 200L389 201L392 201L389 200M421 200L421 221L422 221L421 200M585 200L586 201L585 200M617 200L617 221L618 221L617 200M794 200L794 201L815 201L794 200M1208 200L1208 222L1198 222L1198 223L1209 223L1208 200M394 201L395 202L394 201M569.333 201.667L569.667 202.333L569.333 201.667M578.333 201.667L578.667 202.333L578.333 201.667M815 201L815 208L816 208L815 201M396 202L397 203L396 202M595 202L596 203L595 202M372 203L373 204L372 203M398 203L399 204L398 203M586.333 203.667L586.667 204.333L586.333 203.667M373 204L374 205L373 204M375 205L376 206L375 205M401 205L402 206L401 205M568.333 205.667L568.667 206.333L568.333 205.667M577.333 205.667L577.667 206.333L577.333 205.667M596.333 205.667L596.667 206.333L596.333 205.667M377 206L378 207L377 206M379.667 207.333L380.333 207.667L379.667 207.333M587 207L577 209L577 210C579.726 210 588.659 211.402 587 207M383 208L383 209L386 209L383 208M403.333 208.667L403.667 209.333L403.333 208.667M567.333 208.667L567.667 209.333L567.333 208.667M794 208L794 209L815 209L794 208M389.667 209.333L390.333 209.667L389.667 209.333M597.333 209.667L597.667 210.333L597.333 209.667M392 210L393 211L392 210M393 211L394 212L393 211M404 211L404 219L405 219L404 211M394.333 212.667L394.667 213.333L394.333 212.667M566.333 212.667L566.667 213.333L566.333 212.667M598.333 212.667L598.667 213.333L598.333 212.667M1188 214L1188 217L1189 217L1188 214M565.333 215.667L565.667 216.333L565.333 215.667M1152.33 215.667L1152.67 216.333L1152.33 215.667M1178.33 215.667L1178.67 216.333L1178.33 215.667M599.333 216.667L599.667 217.333L599.333 216.667M1162.33 216.667L1162.67 217.333L1162.33 216.667M372.667 217.333L373.333 217.667L372.667 217.333M575 217L575 218L590 218L575 217M371 218L372 219L371 218M374 218L375 219L374 218M394 218L395 219L394 218M574 218L575 219L574 218M1187.33 218.667L1187.67 219.333L1187.33 218.667M370 219L371 220L370 219M564.333 219.667L564.667 220.333L564.333 219.667M600.333 219.667L600.667 220.333L600.333 219.667M1153 219L1154 220L1153 219M1163 219L1164 220L1163 219M1177 219L1178 220L1177 219M369 220L370 221L369 220M377 220L378 221L377 220M393 220L394 221L393 220M590.333 220.667L590.667 221.333L590.333 220.667M1164 220L1165 221L1164 220M1176 220L1177 221L1176 220M368 221L369 222L368 221M378.667 221.333L379.333 221.667L378.667 221.333M392 221L393 222L392 221M403 221L404 222L403 221M573.333 221.667L573.667 222.333L573.333 221.667M1154 221L1155 222L1154 221M1165 221L1166 222L1165 221M1175 221L1176 222L1175 221M1186 221L1187 222L1186 221M367 222L368 223L367 222M381.667 222.333L382.333 222.667L381.667 222.333M389.667 222.333L390.333 222.667L389.667 222.333M431 222L431 223L446 223L431 222M627 222L627 223L642 223L627 222M1166.67 222.333L1167.33 222.667L1166.67 222.333M1173 222L1174 223L1173 222M1218 222L1218 223L1230 223L1218 222M402 223L403 224L402 223M563 223L564 224L563 223M591.333 223.667L591.667 224.333L591.333 223.667M601.333 223.667L601.667 224.333L601.333 223.667M1155 223L1156 224L1155 223M1197 223L1197 230L1198 230L1197 223M401 224L402 225L401 224M422 224L423 225L422 224M618 224L619 225L618 224M1156 224L1157 225L1156 224M1184 224L1185 225L1184 224M400 225L401 226L400 225M572.333 225.667L572.667 226.333L572.333 225.667M1183 225L1184 226L1183 225M371 226L372 227L371 226M399 226L400 227L399 226M423 226L424 227L423 226M562.333 226.667L562.667 227.333L562.333 226.667M602.333 226.667L602.667 227.333L602.333 226.667M619 226L620 227L619 226M1182 226L1183 227L1182 226M372 227L373 228L372 227M398 227L399 228L398 227M424 227L425 228L424 227M592.333 227.667L592.667 228.333L592.333 227.667M620 227L621 228L620 227M1159 227L1160 228L1159 227M1181 227L1182 228L1181 227M374 228L375 229L374 228M396 228L397 229L396 228M1160 228L1161 229L1160 228M1180 228L1181 229L1180 228M376 229L377 230L376 229M394 229L395 230L394 229M427.667 229.333L428.333 229.667L427.667 229.333M571 229L572 230L571 229M623.667 229.333L624.333 229.667L623.667 229.333M1162 229L1163 230L1162 229M1178 229L1179 230L1178 229M379 230L379 231L382 231L379 230M389 230L389 231L392 231L389 230M1165.67 230.333L1166.33 230.667L1165.67 230.333M1173 230L1173 231L1176 231L1173 230z"/>
<path style="fill:#24262a; stroke:none;" d="M312 304L312 496L504 496L504 304L312 304M508 304L508 496L700 496L700 304L508 304M704 304L704 496L896 496L896 304L704 304M900 304L900 496L1092 496L1092 304L900 304M1096 304L1096 496L1288 496L1288 304L1096 304z"/>
<path style="fill:#745053; stroke:none;" d="M1016 372L1017 373L1016 372z"/>
<path style="fill:#43c2c2; stroke:none;" d="M1017.23 372.747C1010.5 375.738 1016.22 385.208 1022.77 382.254C1029.39 379.269 1023.45 369.978 1017.23 372.747z"/>
<path style="fill:#745053; stroke:none;" d="M1023 372L1024 373L1023 372M1024 373L1025 374L1024 373M1014 374L1015 375L1014 374M772 375L773 376L772 375z"/>
<path style="fill:#43c2c2; stroke:none;" d="M766 413L765 413C752.625 426.555 785.17 430.941 793.196 420.812C800.092 412.109 795.216 399.801 785 397.24C780.671 396.155 770.807 395.579 771.466 388.989C772.603 377.622 790.313 388.783 796 381C784.679 373.132 757.019 371.59 761.699 393C764.812 407.24 780.819 399.371 785.957 409.109C788.582 414.084 783.654 418.492 778.999 418.876C773.64 419.318 769.771 416.382 766 413z"/>
<path style="fill:#745053; stroke:none;" d="M785 375L786 376L785 375M374 376C374.124 386.423 382.827 384 391 384L391 412L392 412C392 406.436 394.955 387.638 390.397 384.028C387.139 381.447 378.969 383 375 383L374 376z"/>
<path style="fill:#43c2c2; stroke:none;" d="M375 376L375 383C379.096 383 387.249 381.456 390.397 384.603C394.808 389.015 393.4 413.303 388.57 417.254C382.946 421.855 380.16 414.106 375.742 412.777C372.869 411.913 369.237 413.787 369.801 417.058C372.014 429.892 393.234 429.365 398.91 419.957C405.166 409.588 401 387.853 401 376L375 376M562 376C565.981 390.029 567.614 411.504 575.569 423.682C577.551 426.717 584.547 426.906 587.57 425.397C591.281 423.544 591.933 415.6 592.884 412C596.057 399.987 599.216 387.832 603 376L593.728 377.028L589.873 388L583 417C577.163 403.257 580.331 376.002 562 376z"/>
<path style="fill:#745053; stroke:none;" d="M572 376L573 377L572 376M769 376L770 377L769 376M788 376L789 377L788 376M958 376L958 426L959 426C959 411.951 963.409 388.889 958 376z"/>
<path style="fill:#43c2c2; stroke:none;" d="M959 376L959 426L968 426L968 406C977.947 406.768 976.982 418.607 982.966 424.397C985.423 426.774 989.871 426 993 426L983 405C994.328 401.138 996.551 384.35 985.985 377.858C979.151 373.66 966.757 376 959 376z"/>
<path style="fill:#745053; stroke:none;" d="M983 376L984 377L983 376M1154 376L1154 426L1155 426C1155 411.951 1159.41 388.889 1154 376z"/>
<path style="fill:#43c2c2; stroke:none;" d="M1155 376L1155 426L1164 426L1164 407C1170.32 407 1177.39 407.791 1182.9 404.005C1190.99 398.435 1190.6 384.219 1182.96 378.514C1176.2 373.476 1163.01 376 1155 376z"/>
<path style="fill:#745053; stroke:none;" d="M1179 376L1180 377L1179 376z"/>
<path style="fill:#43c2c2; stroke:none;" d="M1206 376C1206 385.517 1205.2 388.992 1195 389L1195 396L1206 396C1206 403.543 1202.92 419.323 1210.11 424.142C1215.27 427.6 1224.08 426 1230 426L1230 419L1215 419L1215 396L1230 396L1230 389L1215 389L1215 376L1206 376z"/>
<path style="fill:#745053; stroke:none;" d="M562 377L563 378L562 377M592 377L593 378L592 377M602 377L603 378L602 377M767 377L768 378L767 377M792 378L793 379L792 378M987 378L988 379L987 378M1183 378L1184 379L1183 378M573.333 379.667L573.667 380.333L573.333 379.667M793 379L794 380L793 379M988 379L989 380L988 379M1184 379L1185 380L1184 379M601 380L602 381L601 380M989 380L990 381L989 380M1014 380L1015 381L1014 380M1025 380L1026 381L1025 380M1185 380L1186 381L1185 380M563 381L564 382L563 381M591 381L592 382L591 381M763 381L764 382L763 381M795 382L796 383L795 382M1016 382L1017 383L1016 382M1023 382L1024 383L1023 382M574.333 383.667L574.667 384.333L574.333 383.667M794 383L795 384L794 383M968 383L968 384L978 384L968 383M1164 383L1164 384L1174 384L1164 383M564 384L565 385L564 384M600 384L601 385L600 384M786 384L787 385L786 384M793 384L794 385L793 384z"/>
<path style="fill:#24262a; stroke:none;" d="M968 384L968 399C971.619 399 976.546 399.793 979.772 397.821C983.965 395.257 983.984 387.603 979.772 385.028C976.633 383.109 971.53 384 968 384z"/>
<path style="fill:#745053; stroke:none;" d="M980 384L981 385L980 384z"/>
<path style="fill:#24262a; stroke:none;" d="M1164 384L1164 399C1167.62 399 1172.55 399.793 1175.77 397.821C1179.97 395.257 1179.98 387.603 1175.77 385.028C1172.63 383.109 1167.53 384 1164 384z"/>
<path style="fill:#745053; stroke:none;" d="M1176 384L1177 385L1176 384M590 385L591 386L590 385M792 385L793 386L792 385M981 385L982 386L981 385M1177 385L1178 386L1177 385M761.333 386.667L761.667 387.333L761.333 386.667M791 386L792 387L791 386M575.333 387.667L575.667 388.333L575.333 387.667M790 387L791 388L790 387M982 387L983 388L982 387M992 387L993 388L992 387M1178 387L1179 388L1178 387M1188 387L1189 388L1188 387M423 388L424 389L423 388z"/>
<path style="fill:#43c2c2; stroke:none;" d="M435 405C430.75 405 426.206 404.55 422 405.214C398.428 408.933 424.388 441.526 435 420L436 420C438.28 426.098 443.214 425.996 449 426C448.863 421.824 448.362 419.728 444 419C444 410.966 446.711 397.246 439.867 391.43C435.65 387.847 413.895 385.287 415.037 395.03C415.719 400.846 423.217 395.584 426 395.272C432.364 394.556 434.825 399.601 435 405z"/>
<path style="fill:#745053; stroke:none;" d="M433.667 388.333L434.333 388.667L433.667 388.333M565 388L566 389L565 388M599 388L600 389L599 388M619 388L620 389L619 388z"/>
<path style="fill:#43c2c2; stroke:none;" d="M631 405C626.75 405 622.206 404.55 618 405.214C594.428 408.933 620.388 441.526 631 420L632 420C634.28 426.098 639.214 425.996 645 426C644.863 421.824 644.362 419.728 640 419C640 410.966 642.711 397.246 635.867 391.43C631.65 387.847 609.895 385.288 611.037 395.03C611.719 400.846 619.217 395.584 622 395.272C628.364 394.556 630.825 399.601 631 405z"/>
<path style="fill:#745053; stroke:none;" d="M629.667 388.333L630.333 388.667L629.667 388.333M817.667 388.333L818.333 388.667L817.667 388.333z"/>
<path style="fill:#43c2c2; stroke:none;" d="M838 417L831 414C829.752 415.574 828.795 416.909 826.941 417.845C807.507 427.655 813.411 380.731 830 400L838 397C825.66 376.109 797.973 395.186 806.483 416C811.572 428.446 833.751 432.003 838 417z"/>
<path style="fill:#745053; stroke:none;" d="M827.667 388.333L828.333 388.667L827.667 388.333M1204 388L1205 389L1204 388M589 389L590 390L589 389z"/>
<path style="fill:#43c2c2; stroke:none;" d="M1003 389L1003 396L1015 396L1015 419L1003 419L1003 426L1036 426L1036 419C1018.95 418.998 1024 402.228 1024 389L1003 389z"/>
<path style="fill:#745053; stroke:none;" d="M1024 389L1024 418L1025 418L1024 389M832 390L833 391L832 390M416 391L417 392L416 391M576.333 391.667L576.667 392.333L576.333 391.667M598 391L599 392L598 391M612 391L613 392L612 391M811 391L812 392L811 391M566 392L567 393L566 392M761.333 392.667L761.667 393.333L761.333 392.667M771 392L772 393L771 392M810 392L811 393L810 392M414 393L415 394L414 393M588 393L589 394L588 393M610 393L611 394L610 393M772 393L773 394L772 393M809 393L810 394L809 393M413.333 394.667L413.667 395.333L413.333 394.667M609.333 394.667L609.667 395.333L609.333 394.667M808 394L809 395L808 394M836 394L837 395L836 394M992.333 394.667L992.667 395.333L992.333 394.667M1188.33 394.667L1188.67 395.333L1188.33 394.667M423 395L424 396L423 395M567 395L568 396L567 395M597 395L598 396L597 395M619 395L620 396L619 395M776 395L777 396L776 395M821 395L821 396L825 396L821 395M414 396L415 397L414 396M421 396L422 397L421 396M443 396L444 397L443 396M577 396L578 397L577 396M610 396L611 397L610 396M617 396L618 397L617 396M639 396L640 397L639 396M781 396L782 397L781 396M818 396L819 397L818 396M1205 396L1206 397L1205 396M415 397L416 398L415 397M420 397L421 398L420 397M587 397L588 398L587 397M611 397L612 398L611 397M616 397L617 398L616 397M786 397L787 398L786 397M828 397L829 398L828 397M419 398L420 399L419 398M434 398L435 399L434 398M615 398L616 399L615 398M630 398L631 399L630 398M829 398L830 399L829 398M979 398L980 399L979 398M991 398L992 399L991 398M1175 398L1176 399L1175 398M1187 398L1188 399L1187 398M418 399L419 400L418 399M568 399L569 400L568 399M596 399L597 400L596 399M614 399L615 400L614 399M578 400L579 401L578 400M831 400L832 401L831 400M1186 400L1187 401L1186 400M586 401L587 402L586 401M805 401L806 402L805 401M989 401L990 402L989 401M595 402L596 403L595 402M814 402L814 412L815 412L814 402M988 402L989 403L988 402M569 403L570 404L569 403M771 403L772 404L771 403M987 403L988 404L987 403M424 404L424 405L435 405L424 404M579 404L580 405L579 404M620 404L620 405L631 405L620 404M776.667 404.333L777.333 404.667L776.667 404.333M985 404L986 405L985 404M1182 404L1183 405L1182 404M585 405L586 406L585 405M782 405L783 406L782 405M983.333 405.667L983.667 406.333L983.333 405.667M1180 405L1181 406L1180 405M417 406L418 407L417 406M570 406L571 407L570 406M594 406L595 407L594 406M613 406L614 407L613 406M784 406L785 407L784 406M968 406L968 407L974 407L968 406M1177 406L1178 407L1177 406M414 408L415 409L414 408M580 408L581 409L580 408M610 408L611 409L610 408M786 408L787 409L786 408M796 408L796 414L797 414L796 408M984 408L985 409L984 408M584 409L585 410L584 409M593 409L594 410L593 409M424 410L425 411L424 410z"/>
<path style="fill:#24262a; stroke:none;" d="M435 410C432.689 410 430.299 409.848 427.999 410.109C412.939 411.814 429.547 427.705 434.397 415.946C435.154 414.11 434.977 411.937 435 410z"/>
<path style="fill:#745053; stroke:none;" d="M571 410L572 411L571 410M620 410L621 411L620 410z"/>
<path style="fill:#24262a; stroke:none;" d="M631 410C628.689 410 626.299 409.848 623.999 410.109C608.94 411.814 625.547 427.705 630.397 415.946C631.154 414.11 630.977 411.937 631 410z"/>
<path style="fill:#745053; stroke:none;" d="M985 410L986 411L985 410M422 411L423 412L422 411M618 411L619 412L618 411M373 412L374 413L373 412M377 412L378 413L377 412M412 412L413 413L412 412M581.333 412.667L581.667 413.333L581.333 412.667M608 412L609 413L608 412M369 413L370 414L369 413M583.333 413.667L583.667 414.333L583.333 413.667M592 413L593 414L592 413M764 413L765 414L764 413M805 413L806 414L805 413M368 414L369 415L368 414M572 414L573 415L572 414M763 414L764 415L763 414M786 414L787 415L786 414M977 414L978 415L977 414M378 415L379 416L378 415M762 415L763 416L762 415M830 415L831 416L830 415M834 415L835 416L834 415M400 416L401 417L400 416M582 416L583 417L582 416M761 416L762 417L761 416M769 416L770 417L769 416M785 416L786 417L785 416M806 416L807 417L806 416M816 416L817 417L816 416M836 416L837 417L836 416M978 416L979 417L978 416M369 417L370 418L369 417M389 417L390 418L389 417M421 417L422 418L421 417M573 417L574 418L573 417M591 417L592 418L591 417M617 417L618 418L617 417M760 417L761 418L760 417M784 417L785 418L784 417M795 417L796 418L795 417M817 417L818 418L817 417M387 418L388 419L387 418M433 418L434 419L433 418M629 418L630 419L629 418M759 418L760 419L759 418M773 418L774 419L773 418M782 418L783 419L782 418M807 418L808 419L807 418M979 418L980 419L979 418M370 419L371 420L370 419M412 419L413 420L412 419M448 419L449 420L448 419M608 419L609 420L608 419M644 419L645 420L644 419M426 420L426 421L429 421L426 420M590 420L591 421L590 420M622 420L622 421L625 421L622 420M793 420L794 421L793 420M980 420L981 421L980 420M1206 420L1207 421L1206 420M413 421L414 422L413 421M574 421L575 422L574 421M609 421L610 422L609 421M809 421L810 422L809 421M372 422L373 423L372 422M810 422L811 423L810 422M835 422L836 423L835 422M981 422L982 423L981 422M433 423L434 424L433 423M629 423L630 424L629 423M764 423L765 424L764 423M790 423L791 424L790 423M811 423L812 424L811 423M992 423L993 424L992 423M1208 423L1209 424L1208 423M394 424L395 425L394 424M438 424L439 425L438 424M575.333 424.667L575.667 425.333L575.333 424.667M589 424L590 425L589 424M634 424L635 425L634 424M766 424L767 425L766 424M832 424L833 425L832 424M982 424L983 425L982 424M392 425L393 426L392 425M417 425L418 426L417 425M430 425L431 426L430 425M613 425L614 426L613 425M626 425L627 426L626 425M768 425L769 426L768 425M786 425L787 426L786 425M830 425L831 426L830 425M993 425L994 426L993 425M1212 425L1213 426L1212 425M380 426L381 427L380 426M388.667 426.333L389.333 426.667L388.667 426.333M420 426L421 427L420 426M427 426L428 427L427 426M616 426L617 427L616 426M623 426L624 427L623 426M772.667 426.333L773.333 426.667L772.667 426.333M782.667 426.333L783.333 426.667L782.667 426.333M818.667 426.333L819.333 426.667L818.667 426.333M827 426L828 427L827 426z"/>
<path style="fill:#24262a; stroke:none;" d="M704 500L704 692L896 692L896 500L704 500M900 500L900 692L1092 692L1092 500L900 500z"/>
<path style="fill:#745053; stroke:none;" d="M926.667 521.333L927.333 521.667L926.667 521.333z"/>
<path style="fill:#f96969; stroke:none;" d="M915 534L922 536C927.484 528.976 942.737 527.016 938.268 540C933.434 554.048 915.013 555.491 915 572L950 572L950 564L926 564C934.445 556.227 949.309 548.223 948.867 535C948.241 516.306 918.099 516.9 915 534z"/>
<path style="fill:#745053; stroke:none;" d="M937.667 521.333L938.333 521.667L937.667 521.333M970 521L970 522L983 522L970 521M923 522L924 523L923 522M940 522L941 523L940 522M968 522L969 523L968 522z"/>
<path style="fill:#f96969; stroke:none;" d="M957 536L957 537L962 541L963 541L975 529L975 564L961 564L961 572L995 572L995 564L984 564L984 522C969.614 522 966.606 525.57 957 536z"/>
<path style="fill:#745053; stroke:none;" d="M921 523L922 524L921 523M942 523L943 524L942 523M920 524L921 525L920 524M965 526L966 527L965 526M964 527L965 528L964 527M916 528L917 529L916 528M947 528L948 529L947 528M963 528L964 529L963 528M928 529L929 530L928 529M933.667 529.333L934.333 529.667L933.667 529.333M974 529L974 564L975 564L974 529M915 530L916 531L915 530M926 530L927 531L926 530M936 530L937 531L936 530M948.333 530.667L948.667 531.333L948.333 530.667M937 531L938 532L937 531M971 531L972 532L971 531M914.333 532.667L914.667 533.333L914.333 532.667M960 532L961 533L960 532M970 532L971 533L970 532M923 533L924 534L923 533M938 533L939 534L938 533M959 533L960 534L959 533M969 533L970 534L969 533M916.667 534.333L917.333 534.667L916.667 534.333M958 534L959 535L958 534M968 534L969 535L968 534M919 535L920 536L919 535M922.333 535.667L922.667 536.333L922.333 535.667M965 538L966 539L965 538M938.333 539.667L938.667 540.333L938.333 539.667M948.333 539.667L948.667 540.333L948.333 539.667M960 539L961 540L960 539M964 539L965 540L964 539M961 540L962 541L961 540M963 540L964 541L963 540M962 541L963 542L962 541M937 542L938 543L937 542M947 542L948 543L947 542M940 650L941 651C950.971 646.35 959.268 634.732 967 627L1020 574C1029.12 564.88 1043.53 554.737 1049 543L1048 542C1036.26 547.473 1026.12 561.88 1017 571L964 624C956.268 631.732 944.65 640.029 940 650M946 544L947 545L946 544M934 546L935 547L934 546M945 546L946 547L945 546M933 547L934 548L933 547M944 547L945 548L944 547M943 548L944 549L943 548M942 549L943 550L942 549M941 550L942 551L941 550M928 551L929 552L928 551M940 551L941 552L940 551M927 552L928 553L927 552M939 552L940 553L939 552M926 553L927 554L926 553M938 553L939 554L938 553M934 556L935 557L934 556M921 557L922 558L921 557M933 557L934 558L933 557M920 558L921 559L920 558M932 558L933 559L932 558M919 559L920 560L919 559M929 560L930 561L929 560M928 561L929 562L928 561M927 562L928 563L927 562M950 564L950 572L951 572L950 564M960 564L960 572L961 572L960 564M772.667 571.333L773.333 571.667L772.667 571.333z"/>
<path style="fill:#f96969; stroke:none;" d="M761 584L768 586C773.485 578.976 788.737 577.016 784.268 590C779.434 604.048 761.013 605.491 761 622L796 622L796 614L772 614C780.445 606.227 795.309 598.223 794.867 585C794.241 566.306 764.099 566.9 761 584z"/>
<path style="fill:#745053; stroke:none;" d="M783.667 571.333L784.333 571.667L783.667 571.333M815.667 571.333L816.333 571.667L815.667 571.333z"/>
<path style="fill:#f96969; stroke:none;" d="M817 571.529C793.821 576.88 798.326 628.27 826 622.177C849.301 617.046 844.855 565.099 817 571.529z"/>
<path style="fill:#745053; stroke:none;" d="M826.667 571.333L827.333 571.667L826.667 571.333M769 572L770 573L769 572M786 572L787 573L786 572M813 572L814 573L813 572M829 572L830 573L829 572M767 573L768 574L767 573M788 573L789 574L788 573M811 573L812 574L811 573M831 573L832 574L831 573M766 574L767 575L766 574M807 577L808 578L807 577M762 578L763 579L762 578M793 578L794 579L793 578M806 578L807 579L806 578M819 578L819 579L824 579L819 578M836 578L837 579L836 578M774 579L775 580L774 579M779.667 579.333L780.333 579.667L779.667 579.333M817 579L818 580L817 579z"/>
<path style="fill:#24262a; stroke:none;" d="M818.055 579.742C807.448 584.1 809.336 620.534 824.956 614.257C835.754 609.917 834.076 573.16 818.055 579.742z"/>
<path style="fill:#745053; stroke:none;" d="M826 579L827 580L826 579M761 580L762 581L761 580M772 580L773 581L772 580M782 580L783 581L782 580M794.333 580.667L794.667 581.333L794.333 580.667M805 580L806 581L805 580M815 580L816 581L815 580M827 580L828 581L827 580M837 580L838 581L837 580M783 581L784 582L783 581M828 581L829 582L828 581M760.333 582.667L760.667 583.333L760.333 582.667M804.333 582.667L804.667 583.333L804.333 582.667M838 582L839 583L838 582M769 583L770 584L769 583M784 583L785 584L784 583M813.333 583.667L813.667 584.333L813.333 583.667M829 583L830 584L829 583M762.667 584.333L763.333 584.667L762.667 584.333M765 585L766 586L765 585M768.333 585.667L768.667 586.333L768.333 585.667M839.333 585.667L839.667 586.333L839.333 585.667M803.333 586.667L803.667 587.333L803.333 586.667M812 586L812 591L813 591L812 586M830.333 586.667L830.667 587.333L830.333 586.667M784.333 589.667L784.667 590.333L784.333 589.667M794.333 589.667L794.667 590.333L794.333 589.667M840 590L840 604L841 604L840 590M783 592L784 593L783 592M793 592L794 593L793 592M802 592L802 602L803 602L802 592M820 592L820 593L823 593L820 592M818 593L817 595L818 593z"/>
<path style="fill:#f96969; stroke:none;" d="M819.322 594.032C815.132 596.807 819.705 602.412 823.682 599.953C828.257 597.125 823.661 591.159 819.322 594.032z"/>
<path style="fill:#745053; stroke:none;" d="M792 594L793 595L792 594M780 596L781 597L780 596M791 596L792 597L791 596M779 597L780 598L779 597M790 597L791 598L790 597M789 598L790 599L789 598M788 599L789 600L788 599M817 599L818 600L817 599M825 599L826 600L825 599M787 600L788 601L787 600M818 600L819 601L818 600M824 600L825 601L824 600M774 601L775 602L774 601M786 601L787 602L786 601M773 602L774 603L773 602M785 602L786 603L785 602M772 603L773 604L772 603M784 603L785 604L784 603M812 603L812 607L813 607L812 603M830 605L830 608L831 608L830 605M780 606L781 607L780 606M803.333 606.667L803.667 607.333L803.333 606.667M767 607L768 608L767 607M779 607L780 608L779 607M839.333 607.667L839.667 608.333L839.333 607.667M766 608L767 609L766 608M778 608L779 609L778 608M765 609L766 610L765 609M813 609L814 610L813 609M775 610L776 611L775 610M804.333 610.667L804.667 611.333L804.333 610.667M829 610L830 611L829 610M774 611L775 612L774 611M814 611L815 612L814 611M838 611L839 612L838 611M773 612L774 613L773 612M805 613L806 614L805 613M827 613L828 614L827 613M837 613L838 614L837 613M796 614L796 622L797 622L796 614M817 614L818 615L817 614M825 614L826 615L825 614M836 615L837 616L836 615M807 616L808 617L807 616M835 616L836 617L835 616M808 617L809 618L808 617M1004.67 617.333L1005.33 617.667L1004.67 617.333z"/>
<path style="fill:#f96969; stroke:none;" d="M993 630L1000 632C1005.48 624.976 1020.74 623.016 1016.27 636C1011.43 650.048 993.013 651.491 993 668L1028 668L1028 660L1004 660C1012.45 652.227 1027.31 644.223 1026.87 631C1026.24 612.306 996.099 612.9 993 630z"/>
<path style="fill:#745053; stroke:none;" d="M1015.67 617.333L1016.33 617.667L1015.67 617.333M1047.67 617.333L1048.33 617.667L1047.67 617.333z"/>
<path style="fill:#f96969; stroke:none;" d="M1036 630L1044 632C1048.8 622.966 1062.95 624.265 1059.35 636C1054.97 650.262 1036.01 651.433 1036 668L1071 668L1071 660L1047 660C1054.76 653.244 1066.89 646.738 1069.47 636C1074.62 614.501 1039.88 609.994 1036 630z"/>
<path style="fill:#745053; stroke:none;" d="M1058.67 617.333L1059.33 617.667L1058.67 617.333M809 618L810 619L809 618M1001 618L1002 619L1001 618M1018 618L1019 619L1018 618M1044 618L1045 619L1044 618M1061 618L1062 619L1061 618M810 619L811 620L810 619M832 619L833 620L832 619M999 619L1000 620L999 619M1020 619L1021 620L1020 619M1042 619L1043 620L1042 619M1063 619L1064 620L1063 619M831 620L832 621L831 620M998 620L999 621L998 620M1041 620L1042 621L1041 620M813.667 621.333L814.333 621.667L813.667 621.333M829 621L830 622L829 621M1040 621L1041 622L1040 621M1066 621L1067 622L1066 621M816 622L816 623L819 623L816 622M824 622L824 623L827 623L824 622M1038 623L1039 624L1038 623M994 624L995 625L994 624M1025 624L1026 625L1025 624M1037 624L1038 625L1037 624M1068 624L1069 625L1068 624M1006 625L1007 626L1006 625M1011.67 625.333L1012.33 625.667L1011.67 625.333M1049 625L1050 626L1049 625M1055 625L1056 626L1055 625M993 626L994 627L993 626M1004 626L1005 627L1004 626M1014 626L1015 627L1014 626M1026.33 626.667L1026.67 627.333L1026.33 626.667M1036 626L1037 627L1036 626M1047 626L1048 627L1047 626M1057 626L1058 627L1057 626M1069.33 626.667L1069.67 627.333L1069.33 626.667M1015 627L1016 628L1015 627M1046 627L1047 628L1046 627M1058 627L1059 628L1058 627M992.333 628.667L992.667 629.333L992.333 628.667M1035.33 628.667L1035.67 629.333L1035.33 628.667M1045 628L1046 629L1045 628M1059.33 628.667L1059.67 629.333L1059.33 628.667M1001 629L1002 630L1001 629M1016 629L1017 630L1016 629M994.667 630.333L995.333 630.667L994.667 630.333M1037.67 630.333L1038.33 630.667L1037.67 630.333M1044 630L1045 631L1044 630M997 631L998 632L997 631M1000.33 631.667L1000.67 632.333L1000.33 631.667M1040 631L1041 632L1040 631M1070.33 631.667L1070.67 632.333L1070.33 631.667M1043 632L1044 633L1043 632M1016.33 635.667L1016.67 636.333L1016.33 635.667M1026.33 635.667L1026.67 636.333L1026.33 635.667M1059 636L1060 637L1059 636M1069.33 636.667L1069.67 637.333L1069.33 636.667M1015 638L1016 639L1015 638M1025 638L1026 639L1025 638M1058 638L1059 639L1058 638M1068 639L1069 640L1068 639M1024 640L1025 641L1024 640M1057 640L1058 641L1057 640M1056 641L1057 642L1056 641M1012 642L1013 643L1012 642M1023 642L1024 643L1023 642M1055 642L1056 643L1055 642M1066 642L1067 643L1066 642M1011 643L1012 644L1011 643M1022 643L1023 644L1022 643M1054 643L1055 644L1054 643M1065 643L1066 644L1065 643M1021 644L1022 645L1021 644M1053 644L1054 645L1053 644M1020 645L1021 646L1020 645M1052 645L1053 646L1052 645M1019 646L1020 647L1019 646M1006 647L1007 648L1006 647M1018 647L1019 648L1018 647M1005 648L1006 649L1005 648M1017 648L1018 649L1017 648M1048 648L1049 649L1048 648M1060 648L1061 649L1060 648M1004 649L1005 650L1004 649M1016 649L1017 650L1016 649M1047 649L1048 650L1047 649M1059 649L1060 650L1059 649M1046 650L1047 651L1046 650M1058 650L1059 651L1058 650M1012 652L1013 653L1012 652M999 653L1000 654L999 653M1011 653L1012 654L1011 653M1054 653L1055 654L1054 653M998 654L999 655L998 654M1010 654L1011 655L1010 654M1041 654L1042 655L1041 654M1053 654L1054 655L1053 654M997 655L998 656L997 655M1040 655L1041 656L1040 655M1007 656L1008 657L1007 656M1039 656L1040 657L1039 656M1006 657L1007 658L1006 657M1049 657L1050 658L1049 657M1005 658L1006 659L1005 658M1048 658L1049 659L1048 658M1047 659L1048 660L1047 659M1028 660L1028 668L1029 668L1028 660M1071 660L1071 668L1072 668L1071 660z"/>
</svg>
