<?xml version="1.0" encoding="UTF-8"?>
<svg width="43px" height="49px" viewBox="0 0 43 49" version="1.1" xmlns="http://www.w3.org/2000/svg" xmlns:xlink="http://www.w3.org/1999/xlink">
    <!-- Generator: Sketch 47.1 (45422) - http://www.bohemiancoding.com/sketch -->
    <title>CSS3_logo_and_wordmark Copy</title>
    <desc>Created with Sketch.</desc>
    <defs></defs>
    <g id="Page-1" stroke="none" stroke-width="1" fill="none" fill-rule="evenodd" opacity="0.5">
        <g id="prettier-homepage" transform="translate(-878.000000, -1002.000000)" fill-rule="nonzero" fill="#FFFFFF">
            <g id="CSS3_logo_and_wordmark-Copy" transform="translate(878.000000, 1002.000000)">
                <path d="M21.4906943,19.9626939 L8.97106695,19.9626939 L9.45354171,25.3715373 L21.4906943,25.3715373 L28.1101413,25.3715373 L27.485295,32.3864772 L21.4813886,34.0147285 L21.4764097,34.0165151 L15.481157,32.3899315 L15.0979037,28.0760781 L12.1846808,28.0760781 L9.69406783,28.0760781 L10.4482458,36.5688317 L21.4752243,39.6446424 L21.5,39.637734 L21.5,39.6368391 L32.5171393,36.5688317 L32.5981049,35.65501 L33.8630898,21.4151369 L33.9944367,19.9626939 L34.9662618,9.01493753 L21.4906943,9.01493753 L8.00161275,9.01493753 L8.49096307,14.4239 L21.4906943,14.4239 L29.0667927,14.4239 L28.5769682,19.9626939 L21.4906943,19.9626939 Z M43,0 L39.0825894,44.0948782 L21.4736832,49 L3.91326151,44.1017867 L0,0 L43,0 Z" id="Combined-Shape"></path>
            </g>
        </g>
    </g>
</svg>