<?xml version="1.0" encoding="UTF-8"?>
<svg width="41px" height="40px" viewBox="0 0 41 40" version="1.1" xmlns="http://www.w3.org/2000/svg" xmlns:xlink="http://www.w3.org/1999/xlink">
    <!-- Generator: Sketch 47.1 (45422) - http://www.bohemiancoding.com/sketch -->
    <title>Group 2</title>
    <desc>Created with Sketch.</desc>
    <defs></defs>
    <g id="Page-1" stroke="none" stroke-width="1" fill="none" fill-rule="evenodd" fill-opacity="0.5">
        <g id="prettier-homepage" transform="translate(-879.000000, -1229.000000)" fill-rule="nonzero" fill="#FFFFFF">
            <g id="Group-2" transform="translate(879.000000, 1229.000000)">
                <path d="M19.9004911,0.980806287 C18.2480153,0.988207929 16.6699379,1.12406129 15.2813923,1.36090923 C11.1909109,2.05751977 10.448238,3.51558537 10.4482377,6.20450671 L10.4482377,9.75575417 L20.1145469,9.75575417 L20.1145469,10.9395033 L10.4482377,10.9395033 L6.82055516,10.9395033 C4.01125656,10.9395033 1.55135427,12.5672012 0.781928312,15.6636398 C-0.105594803,19.2128772 -0.144961278,21.4276591 0.781928312,25.1336331 C1.46904411,27.8922167 3.1099697,29.8577689 5.91926758,29.8577696 L9.24276553,29.8577696 L9.24276553,25.6006167 C9.24276553,22.525075 12.003281,19.8121926 15.2813923,19.8121919 L24.9364355,19.8121919 C27.6240574,19.8121919 29.7695912,17.6790407 29.7695901,15.0771953 L29.7695901,6.20450671 C29.7695901,3.67928906 27.5596402,1.78235784 24.9364355,1.36090923 C23.2759079,1.09445479 21.5529669,0.973404644 19.9004911,0.980806287 Z M14.6730232,3.8370084 C15.6714865,3.8370084 16.4868644,4.63584004 16.4868644,5.61806218 C16.4868637,6.59680283 15.6714865,7.38825586 14.6730232,7.38825586 C13.6709803,7.38825551 12.8591819,6.59680248 12.8591819,5.61806218 C12.8591816,4.63584039 13.6709803,3.8370084 14.6730232,3.8370084 Z" id="path1948"></path>
                <path d="M30.8997235,10.8817765 L30.8997235,15.0194685 C30.8997235,18.2273653 28.0783707,20.9273539 24.8610967,20.9273542 L15.2060535,20.9273542 C12.5613755,20.9273542 10.3728992,23.1092695 10.3728989,25.6623508 L10.3728989,34.5350384 C10.3728989,37.0602564 12.6508448,38.5455614 15.2060535,39.270035 C18.2658639,40.1373161 21.2000619,40.2940558 24.8610967,39.270035 C27.294629,38.5908401 29.6942524,37.2239569 29.6942513,34.5350384 L29.6942513,30.983792 L20.0392082,30.983792 L20.0392082,29.8000428 L29.6942513,29.8000428 L34.5274074,29.8000428 C37.3367064,29.8000428 38.3835663,27.9111152 39.3605585,25.0759063 C40.369759,22.1571029 40.3268181,19.3502003 39.3605585,15.6059131 C38.6662858,12.9100263 37.3402791,10.8817765 34.5274074,10.8817765 L30.8997235,10.8817765 Z M25.4694658,33.3512903 C26.4715094,33.3512913 27.2833071,34.1427443 27.2833071,35.1214829 C27.2833063,36.1037037 26.4715083,36.9025367 25.4694658,36.9025367 C24.4710014,36.9025367 23.6556246,36.1037037 23.6556246,35.1214829 C23.6556253,34.1427443 24.4710003,33.3512903 25.4694658,33.3512903 Z" id="path1950"></path>
            </g>
        </g>
    </g>
</svg>