<svg xmlns="http://www.w3.org/2000/svg" viewBox="0 0 41 40"><g fill="#FFF" fill-opacity=".5"><path d="M19.9 1a28.8 28.8 0 00-4.6.4c-4.1.7-4.9 2.1-4.9 4.8v3.6h9.7v1.1H6.8a6 6 0 00-6 4.8c-1 3.5-1 5.7 0 9.4C1.5 28 3 30 5.9 30h3.3v-4.3a6 6 0 016-5.8H25c2.7 0 4.9-2.1 4.9-4.7v-9c0-2.5-2.2-4.4-4.9-4.8a31.3 31.3 0 00-5-.4zm-5.2 2.8c1 0 1.8.8 1.8 1.8s-.8 1.8-1.8 1.8-1.8-.8-1.8-1.8.8-1.8 1.8-1.8z"/><path d="M30.9 10.9V15a6 6 0 01-6 6h-9.7a4.8 4.8 0 00-4.8 4.7v8.8c0 2.6 2.3 4 4.8 4.8 3 .8 6 1 9.7 0 2.4-.7 4.8-2 4.8-4.8V31H20v-1.2h14.5c2.8 0 3.9-1.9 4.9-4.7 1-3 1-5.8 0-9.5-.7-2.7-2-4.7-4.9-4.7H31zm-5.4 22.5c1 0 1.8.7 1.8 1.7s-.8 1.8-1.8 1.8-1.8-.8-1.8-1.8.8-1.7 1.8-1.7z"/></g></svg>