<svg xmlns="http://www.w3.org/2000/svg" viewBox="0 0 41 40"><g fill="#FFF" fill-opacity=".5"><path d="M19.9.98a28.78 28.78 0 00-4.619.38c-4.09.698-4.833 2.156-4.833 4.845v3.55h9.667v1.185H6.82c-2.81 0-5.27 1.627-6.04 4.724-.887 3.549-.926 5.764 0 9.47.688 2.758 2.329 4.724 5.138 4.724h3.324V25.6c0-3.076 2.76-5.789 6.038-5.789h9.655c2.688 0 4.834-2.133 4.834-4.735V6.205c0-2.526-2.21-4.423-4.834-4.844A31.253 31.253 0 0019.9.98zm-5.227 2.857c.998 0 1.814.799 1.814 1.781 0 .979-.816 1.77-1.814 1.77-1.002 0-1.814-.791-1.814-1.77 0-.982.812-1.781 1.814-1.781z"/><path d="M30.9 10.882v4.137c0 3.208-2.822 5.908-6.039 5.908h-9.655c-2.645 0-4.833 2.182-4.833 4.735v8.873c0 2.525 2.278 4.01 4.833 4.735 3.06.867 5.994 1.024 9.655 0 2.434-.68 4.833-2.046 4.833-4.735v-3.551H20.04V29.8h14.488c2.81 0 3.857-1.889 4.834-4.724 1.009-2.919.966-5.726 0-9.47-.695-2.696-2.02-4.724-4.834-4.724H30.9zm-5.43 22.47c1.002 0 1.813.79 1.813 1.77 0 .982-.811 1.78-1.814 1.78-.998 0-1.813-.798-1.813-1.78 0-.98.815-1.77 1.813-1.77z"/></g></svg>