<?xml version="1.0" encoding="UTF-8"?>
<svg width="47px" height="42px" viewBox="0 0 47 42" version="1.1" xmlns="http://www.w3.org/2000/svg" xmlns:xlink="http://www.w3.org/1999/xlink">
    <!-- Generator: Sketch 47.1 (45422) - http://www.bohemiancoding.com/sketch -->
    <title>Swift_logo-3</title>
    <desc>Created with Sketch.</desc>
    <defs></defs>
    <g id="Page-1" stroke="none" stroke-width="1" fill="none" fill-rule="evenodd" fill-opacity="0.5">
        <g id="prettier-homepage" transform="translate(-876.000000, -1172.000000)" fill-rule="nonzero" fill="#FFFFFF">
            <g id="Swift_logo-3" transform="translate(876.000000, 1172.000000)">
                <path d="M35.4516052,39.0941163 C29.9152946,42.2834544 22.3030158,42.6111423 14.6444727,39.337812 C8.4434964,36.7068446 3.29829824,32.1014688 5.68434189e-14,26.8395341 C1.58319265,28.1550178 3.43021119,29.2078779 5.40914269,30.1282433 C13.3182256,33.8250836 21.2256477,33.571924 26.7904287,30.1377072 C26.7868699,30.1341582 26.7844973,30.1317923 26.7821248,30.1282433 C18.8661616,24.076072 12.1376521,16.181987 7.12448554,9.73588044 C6.06858881,8.68325691 5.27699248,7.36753664 4.48539616,6.18348304 C10.5542222,11.7092242 20.1856469,18.6817609 23.6151464,20.6561694 C16.3599341,13.0247079 9.8947761,3.5525157 10.1581275,3.81513924 C21.6364521,15.3930517 32.3235363,21.971653 32.3235363,21.971653 C32.677044,22.1703952 32.9498856,22.3360136 33.1693451,22.4838872 C33.4006672,21.8971247 33.603519,21.2878855 33.7743415,20.6561694 C35.62136,13.9462563 33.5109901,6.31479481 28.8928506,0 C39.5787485,6.44669807 45.9122309,18.5504491 43.2727856,28.6815662 C43.2039821,28.9548366 43.1292472,29.2245581 43.0485811,29.4895476 C43.079424,29.5262202 43.110267,29.5640759 43.1411099,29.6031145 C48.4176279,36.1817159 46.9668227,43.1542525 46.307258,41.8387688 C43.4447944,36.2526952 38.1457373,37.9609312 35.4517238,39.0942346 L35.4516052,39.0941163 Z" id="Shape"></path>
            </g>
        </g>
    </g>
</svg>