<svg xmlns="http://www.w3.org/2000/svg" viewBox="0 0 47 42"><path fill="#FFF" fill-opacity=".5" d="M35.452 39.094c-5.537 3.19-13.149 3.517-20.808.244C8.444 36.707 3.298 32.1 0 26.84c1.583 1.315 3.43 2.368 5.41 3.288 7.908 3.697 15.816 3.444 21.38.01l-.008-.01C18.866 24.076 12.138 16.182 7.124 9.736 6.07 8.683 5.277 7.368 4.485 6.183c6.07 5.526 15.7 12.499 19.13 14.473-7.255-7.631-13.72-17.103-13.457-16.84 11.478 11.577 22.166 18.156 22.166 18.156.353.198.626.364.845.512.232-.587.435-1.196.605-1.828 1.847-6.71-.263-14.341-4.881-20.656 10.686 6.447 17.02 18.55 14.38 28.682a18.4 18.4 0 01-.224.808l.092.113c5.277 6.579 3.826 13.551 3.166 12.236-2.862-5.586-8.161-3.878-10.855-2.745z"/></svg>