<?xml version="1.0" encoding="UTF-8"?>
<svg width="67px" height="63px" viewBox="0 0 67 63" version="1.1" xmlns="http://www.w3.org/2000/svg" xmlns:xlink="http://www.w3.org/1999/xlink">
    <!-- Generator: Sketch 47.1 (45422) - http://www.bohemiancoding.com/sketch -->
    <title>Group 15</title>
    <desc>Created with Sketch.</desc>
    <defs></defs>
    <g id="Page-1" stroke="none" stroke-width="1" fill="none" fill-rule="evenodd">
        <g id="prettier-homepage-copy" transform="translate(-748.000000, -910.000000)" stroke="#C695C8" stroke-width="2">
            <g id="Group-15" transform="translate(747.000000, 905.000000)">
                <g id="tool" transform="translate(32.000000, 36.000000) rotate(21.000000) translate(-32.000000, -36.000000) translate(14.000000, 5.000000)" fill="#192B34">
                    <path d="M11.7263138,6.97165196 C13.2218785,7.29189574 14.6418692,8.53588093 14.8333033,8.73089687 C15.6633589,9.57648342 16.9450423,11.9324966 16.9450423,11.9324966 L17.2918246,23.2986293 L17.417545,27.4192388 L20.9898263,27.4192388 L21.9756132,11.9324966 C21.9756132,11.9324966 23.1789042,10.0193303 24.0150784,9.16749415 C24.8556963,8.31113122 25.4587147,7.85211945 26.5233603,7.63738378 C27.588006,7.42264813 28.7365914,7.93875312 29.4782615,7.93875312 C29.9736362,7.93875312 31.4127515,9.29036034 31.4127515,9.29036034 C31.4127515,9.29036034 31.9094645,9.74745645 32.1564496,9.83672593 C32.575379,9.98814241 35.0995526,9.83672593 35.0995526,9.83672593 C35.0995526,9.83672593 35.9354373,7.55417952 35.9265608,6.62034423 C35.916911,5.60514422 35.6284688,3.17092657 35.6284688,3.17092657 L33.0653391,2.8086964 C33.0653391,2.8086964 29.335767,3.77238792 28.7181108,3.77238792 C28.4531318,3.77238788 27.2457612,3.68465444 26.5233603,3.1709266 C25.8009595,2.65719876 24.7697278,1.07533685 24.6460199,1.07641686 C23.9061375,1.08287626 18.5058278,0.62787961 13.493035,1.37023383 C11.5513245,1.65778567 7.17965168,3.09681343 3.88700211,5.08515303 C0.726716726,6.99356206 -0.0973311702,9.70880749 0.0197320388,10.0264073 C0.3175281,10.8343465 0.397847643,11.5498688 0.539056008,11.421668 C0.795837937,11.1885399 2.49564117,10.0264072 2.49564117,10.0264072 C2.49564117,10.0264072 4.91482373,8.36788142 7.19652327,7.63738378 C8.45788815,7.23355145 10.1454639,6.63314615 11.7263138,6.97165196 Z" id="Path-2"></path>
                    <path d="M14.5841594,61.1121627 C17.1214926,61.1121627 21.6166661,61.1121627 23.5375922,61.1121627 C24.1061589,61.1121627 24.3415908,60.6555094 24.3415908,60.6555094 C24.3415908,60.6555094 24.4370417,60.3571098 24.4309614,59.9795833 C24.2020216,45.7645569 24.1770374,50.2647072 24.1770374,50.2647072 C24.1770374,50.2647072 23.582451,42.1263101 23.1369079,38.7343936 C22.5877249,34.5534665 21.1928589,27.5461772 21.1928589,27.5461772 L17.5036201,27.5461772 L14.5841594,38.1868176 C14.5841594,38.1868176 13.6348287,45.7799531 13.4761006,59.6105008 C13.4673554,60.3725059 13.7253598,60.6555094 13.7253598,60.6555094 C13.7253598,60.6555094 14.1832682,61.1121627 14.5841594,61.1121627 Z" id="Path-1"></path>
                </g>
                <path d="M5.05703476,14.9529133 L6.6687365,58.9268655 L63.8423651,55.3431258 L59.1566189,12.9873442 L5.05703476,14.9529133 Z" id="Rectangle-1" transform="translate(34.486343, 35.971697) rotate(-8.000000) translate(-34.486343, -35.971697) "></path>
            </g>
        </g>
    </g>
</svg>