<svg xmlns="http://www.w3.org/2000/svg" viewBox="0 0 44 49"><g fill="#C695C8"><path d="M4.11 37.337L2.294 36.29l20.02-34.673 1.814 1.048z"/><path d="M1.786 33.525h40.416V35.6H1.786z"/><path d="M22.806 46.308L2.591 34.636l1.037-1.797 20.216 11.672zm17.561-30.135L20.15 4.5l1.038-1.797 20.215 11.672z"/><path d="M3.733 16.12l-1.048-1.815L22.711 2.743l1.047 1.814z"/><path d="M39.998 37.497l-20.208-35 1.797-1.038 20.208 35zM3.388 12.938h2.095v23.125H3.388z"/><path d="M38.517 12.938h2.095v23.125h-2.095z"/><path d="M22.527 45.383l-.915-1.585L39.029 33.74l.915 1.585z"/><path d="M43.388 36.737c-1.211 2.088-3.912 2.8-6.019 1.6a4.347 4.347 0 01-1.615-5.962c1.211-2.087 3.912-2.8 6.019-1.6 2.12 1.213 2.839 3.875 1.615 5.962M8.233 16.625c-1.21 2.087-3.911 2.8-6.018 1.6a4.347 4.347 0 01-1.616-5.963c1.212-2.087 3.912-2.8 6.02-1.6a4.35 4.35 0 011.614 5.963M.612 36.737a4.35 4.35 0 011.615-5.962 4.438 4.438 0 016.02 1.6 4.35 4.35 0 01-1.616 5.962c-2.12 1.2-4.808.488-6.019-1.6m35.155-20.112a4.35 4.35 0 011.615-5.963c2.107-1.2 4.795-.487 6.019 1.6a4.351 4.351 0 01-1.616 5.963c-2.107 1.2-4.807.487-6.018-1.6M22 48.975c-2.435 0-4.404-1.95-4.404-4.363 0-2.412 1.969-4.362 4.404-4.362 2.435 0 4.404 1.95 4.404 4.362 0 2.4-1.969 4.363-4.404 4.363M22 8.75c-2.435 0-4.404-1.95-4.404-4.362 0-2.413 1.969-4.363 4.404-4.363 2.435 0 4.404 1.95 4.404 4.362C26.404 6.8 24.435 8.75 22 8.75"/></g></svg>