<svg xmlns="http://www.w3.org/2000/svg" viewBox="0 0 44 49"><g fill="#C695C8"><path d="M4.1 37.3l-1.8-1 20-34.7 1.8 1z"/><path d="M1.8 33.5h40.4v2.1H1.8z"/><path d="M22.8 46.3L2.6 34.6l1-1.8 20.2 11.7zm17.6-30.1L20 4.5l1-1.8 20.3 11.7z"/><path d="M3.7 16.1l-1-1.8 20-11.6 1 1.9z"/><path d="M40 37.5l-20.2-35 1.8-1 20.2 35zM3.4 12.9h2v23.2h-2z"/><path d="M38.5 13h2.1v23h-2z"/><path d="M22.5 45.4l-.9-1.6 17.4-10 1 1.5z"/><path d="M43.4 36.7a4.4 4.4 0 01-6 1.6 4.3 4.3 0 01-1.6-6c1.2-2 3.9-2.7 6-1.5a4.3 4.3 0 011.6 6M8.2 16.5a4.4 4.4 0 01-6 1.6 4.3 4.3 0 01-1.6-6c1.2-2 4-2.7 6-1.5a4.3 4.3 0 011.6 6m-7.6 20a4.3 4.3 0 011.6-6 4.4 4.4 0 016 1.7 4.3 4.3 0 01-1.6 6 4.4 4.4 0 01-6-1.7m35.2-20a4.3 4.3 0 011.6-6 4.4 4.4 0 016 1.6 4.4 4.4 0 01-1.6 6 4.4 4.4 0 01-6-1.7M22 49c-2.4 0-4.4-2-4.4-4.4 0-2.4 2-4.3 4.4-4.3 2.4 0 4.4 1.9 4.4 4.3S24.4 49 22 49m0-40.3c-2.4 0-4.4-1.9-4.4-4.3S19.6 0 22 0a4.4 4.4 0 110 8.7"/></g></svg>