<svg xmlns="http://www.w3.org/2000/svg" viewBox="0 0 67 63"><g fill="none" fill-rule="evenodd" stroke="#C695C8" stroke-width="2"><path fill="#192B34" d="M33.754 6.32c1.281.834 2.161 2.504 2.27 2.755.472 1.087.824 3.746.824 3.746l-3.75 10.735-1.359 3.892 3.335 1.28 6.47-14.104s1.81-1.355 2.896-1.85c1.091-.499 1.819-.711 2.89-.53 1.07.18 1.958 1.074 2.65 1.34.463.177 1.322 1.955 1.322 1.955s.3.605.498.777c.337.291 2.748 1.054 2.748 1.054s1.598-1.831 1.925-2.706c.355-.951.958-3.327.958-3.327l-2.263-1.257s-3.828-.437-4.404-.658c-.248-.095-1.343-.61-1.834-1.348-.49-.739-.886-2.585-1.002-2.628-.693-.26-5.571-2.62-10.517-3.723-1.916-.427-6.513-.65-10.3.026-3.634.649-5.376 2.888-5.38 3.227-.012.86-.194 1.558-.016 1.489.323-.126 2.327-.602 2.327-.602s2.853-.681 5.244-.546c1.323.076 3.113.12 4.468 1.002zM17.02 57.888l8.359 3.209c.53.203.914-.139.914-.139s.196-.244.325-.599c4.88-13.352 3.245-9.16 3.245-9.16s2.361-7.811 3.161-11.137c.986-4.1 2.195-11.142 2.195-11.142l-3.445-1.322-6.538 8.887s-3.608 6.749-8.713 19.604c-.28.708-.141 1.065-.141 1.065s.264.59.638.734z"/><path d="M1.418 14.253l7.716 43.322 56.119-11.506L54.718 4.778l-53.3 9.475z"/></g></svg>