<?xml version="1.0" encoding="UTF-8"?>
<svg width="48px" height="48px" viewBox="0 0 48 48" version="1.1" xmlns="http://www.w3.org/2000/svg" xmlns:xlink="http://www.w3.org/1999/xlink">
    <!-- Generator: Sketch 47.1 (45422) - http://www.bohemiancoding.com/sketch -->
    <title>Unofficial_JavaScript_logo_2 Copy</title>
    <desc>Created with Sketch.</desc>
    <defs></defs>
    <g id="Page-1" stroke="none" stroke-width="1" fill="none" fill-rule="evenodd">
        <g id="prettier-homepage-copy" transform="translate(-57.000000, -917.000000)" fill-rule="nonzero" fill="#C695C8">
            <g id="Unofficial_JavaScript_logo_2-Copy" transform="translate(57.000000, 917.000000)">
                <g id="Group">
                    <path d="M0,0 L48,0 L48,48 L0,48 L0,0 Z M32.2438095,37.5001905 L28.5782857,39.6297143 C29.9024762,42.2460952 32.6087619,44.2422857 36.7977143,44.2422857 C41.0819048,44.2422857 44.272,42.0175238 44.272,37.9565714 C44.272,34.1897143 42.1081905,32.5142857 38.2758095,30.8708571 L37.1481905,30.3878095 C35.2129524,29.5497143 34.3748571,29.0019048 34.3748571,27.6487619 C34.3748571,26.5539048 35.2121905,25.7158095 36.5333333,25.7158095 C37.8285714,25.7158095 38.6628571,26.2620952 39.4361905,27.6487619 L42.9485714,25.3935238 C41.4628571,22.7801905 39.4011429,21.7820952 36.5333333,21.7820952 C32.5051429,21.7820952 29.927619,24.3573333 29.927619,27.7401905 C29.927619,31.4125714 32.0899048,33.1497143 35.3447619,34.536381 L36.472381,35.0201905 C38.5295238,35.92 39.7561905,36.4678095 39.7561905,38.0144762 C39.7561905,39.3051429 38.5622857,40.2392381 36.6933333,40.2392381 C34.4685714,40.2392381 33.2106667,39.0788571 32.2438095,37.5001905 Z M16.3100952,37.8910476 L12.6384762,40.1139048 C13.7020952,42.3649524 15.7935238,44.2339048 19.4049524,44.2339048 C23.4019048,44.2339048 26.1401905,42.1081905 26.1401905,37.4377143 L26.1401905,22.039619 L21.6297143,22.039619 L21.6297143,37.3767619 C21.6297143,39.6312381 20.6948571,40.2110476 19.2129524,40.2110476 C17.6632381,40.2110476 17.0186667,39.1481905 16.3100952,37.8910476 Z" id="Combined-Shape"></path>
                </g>
            </g>
        </g>
    </g>
</svg>