<!--

This icon is modified from https://github.com/file-icons/source/blob/8e0a4ac/svg/YAML-Alt4.svg

Copyright (c) 2016-2018, John Gardner

Permission to use, copy, modify, and/or distribute this software for any
purpose with or without fee is hereby granted, provided that the above
copyright notice and this permission notice appear in all copies.

THE SOFTWARE IS PROVIDED "AS IS" AND THE AUTHOR DISCLAIMS ALL WARRANTIES
WITH REGARD TO THIS SOFTWARE INCLUDING ALL IMPLIED WARRANTIES OF
MERCHANTABILITY AND FITNESS. IN NO EVENT SHALL THE AUTHOR BE LIABLE FOR
ANY SPECIAL, DIRECT, INDIRECT, OR CONSEQUENTIAL DAMAGES OR ANY DAMAGES
WHATSOEVER RESULTING FROM LOSS OF USE, DATA OR PROFITS, WHETHER IN AN
ACTION OF CONTRACT, NEGLIGENCE OR OTHER TORTIOUS ACTION, ARISING OUT OF
OR IN CONNECTION WITH THE USE OR PERFORMANCE OF THIS SOFTWARE.

-->
<svg version="1.1" xmlns="http://www.w3.org/2000/svg" xmlns:xlink="http://www.w3.org/1999/xlink" x="0px" y="0px" width="512px" height="512px"><path fill="#C695C8" d="M235.793457,20.9389935l-91.8156738,137.6740112v87.2750244H87.7020035v-87.2751465L0,20.9389935h63.2502899l55.7678528,88.6458817l56.2244568-88.6458817H235.793457z M330.2944641,195.8635406H228.4328003l-20.7168121,50.0244904h-45.1060944l95.3815918-224.9490356h46.1360474l91.5108948,224.9490356h-48.1963501L330.2944641,195.8635406z M313.3734131,151.1300201l-31.2258606-82.5503616l-34.8368378,82.5503616H313.3734131z M87.7023544,270.5895996v220.471405h47.3023605V338.9823914l49.5055237,102.2188416h37.2337494l51.1964111-105.8118896v155.6254272h45.3786011V270.5895996h-61.959259l-54.977951,99.7063904l-52.3599548-99.7063904H87.7023544z M512,443.201355H395.6384277V270.5895996h-48.1963501v219.5221863L512,490.111969V443.201355z"/></svg>