<svg xmlns="http://www.w3.org/2000/svg" viewBox="0 0 67 63">
  <g fill="none" fill-rule="evenodd" stroke="#C695C8" stroke-width="2">
    <path fill="#192B34" d="M33.8 6.3c1.2.9 2.1 2.5 2.2 2.8.5 1 .8 3.7.8 3.7l-3.7 10.8-1.4 3.8 3.4 1.3 6.4-14s1.9-1.4 3-2c1-.4 1.8-.6 2.8-.5 1.1.2 2 1.1 2.7 1.4.4.2 1.3 2 1.3 2l.5.7c.3.3 2.7 1 2.7 1s1.6-1.8 2-2.6l1-3.4-2.3-1.2s-3.9-.5-4.4-.7c-.3 0-1.4-.6-1.9-1.3-.5-.8-.9-2.6-1-2.7-.7-.2-5.5-2.6-10.5-3.7a35 35 0 00-10.3 0c-3.6.7-5.4 3-5.4 3.3 0 .8-.2 1.5 0 1.5.3-.2 2.3-.6 2.3-.6s2.9-.7 5.3-.6c1.3 0 3.1.1 4.5 1zM17 58l8.4 3.2c.5.2.9-.1.9-.1l.3-.6 3.3-9.2s2.3-7.8 3.1-11.1c1-4.1 2.2-11.2 2.2-11.2l-3.4-1.3-6.6 8.9s-3.6 6.7-8.7 19.6c-.3.7-.1 1-.1 1s.2.6.6.8z"/>
    <path d="M1.4 14.3l7.7 43.3L65.3 46 54.7 4.8 1.4 14.3z"/>
  </g>
</svg>
