<?xml version="1.0" encoding="UTF-8"?>
<svg width="44px" height="49px" viewBox="0 0 44 49" version="1.1" xmlns="http://www.w3.org/2000/svg" xmlns:xlink="http://www.w3.org/1999/xlink">
    <!-- Generator: Sketch 47.1 (45422) - http://www.bohemiancoding.com/sketch -->
    <title>GraphQL_Logo Copy</title>
    <desc>Created with Sketch.</desc>
    <defs></defs>
    <g id="Page-1" stroke="none" stroke-width="1" fill="none" fill-rule="evenodd">
        <g id="prettier-homepage-copy" transform="translate(-497.000000, -916.000000)" fill-rule="nonzero" fill="#C695C8">
            <g id="GraphQL_Logo-Copy" transform="translate(497.000000, 916.000000)">
                <g id="GraphQL_Logo">
                    <g id="Group">
                        <rect id="Rectangle-path" transform="translate(13.211995, 19.477512) rotate(-149.999272) translate(-13.211995, -19.477512) " x="12.1647032" y="-0.540797083" width="2.09458334" height="40.0366192"></rect>
                        <rect id="Rectangle-path" x="1.78556425" y="33.525" width="40.4162533" height="2.075"></rect>
                        <rect id="Rectangle-path" transform="translate(13.216802, 39.573487) rotate(-149.999272) translate(-13.216802, -39.573487) " x="1.54517839" y="38.5360103" width="23.3432481" height="2.07495435"></rect>
                        <rect id="Rectangle-path" transform="translate(30.778176, 9.438613) rotate(-149.999272) translate(-30.778176, -9.438613) " x="19.1065515" y="8.40113533" width="23.3432481" height="2.07495435"></rect>
                        <rect id="Rectangle-path" transform="translate(13.222405, 9.430712) rotate(-120.000728) translate(-13.222405, -9.430712) " x="12.1751133" y="-2.13153312" width="2.09458334" height="23.1244912"></rect>
                        <rect id="Rectangle-path" transform="translate(30.792548, 19.477888) rotate(-120.000728) translate(-30.792548, -19.477888) " x="10.5848656" y="18.4404103" width="40.4153641" height="2.07495435"></rect>
                        <rect id="Rectangle-path" x="3.38808194" y="12.9375" width="2.09462942" height="23.125"></rect>
                        <rect id="Rectangle-path" x="38.5172886" y="12.9375" width="2.09462942" height="23.125"></rect>
                        <rect id="Rectangle-path" transform="translate(30.778087, 39.561950) rotate(-120.000728) translate(-30.778087, -39.561950) " x="29.8632842" y="29.5059212" width="1.82960593" height="20.1120575"></rect>
                        <path d="M43.387933,36.7375 C42.176581,38.825 39.4762756,39.5375 37.3690279,38.3375 C35.2617803,37.1375 34.54254,34.4625 35.753892,32.375 C36.9652439,30.2875 39.6655493,29.575 41.772797,30.775 C43.8926629,31.9875 44.6119032,34.65 43.387933,36.7375" id="Shape"></path>
                        <path d="M8.23348976,16.625 C7.0221378,18.7125 4.3218324,19.425 2.21458473,18.225 C0.107337058,17.025 -0.611903166,14.35 0.59944879,12.2625 C1.81080074,10.175 4.51110615,9.4625 6.61835382,10.6625 C8.72560149,11.875 9.44484171,14.5375 8.23348976,16.625" id="Shape"></path>
                        <path d="M0.612067039,36.7375 C-0.599284916,34.65 0.119955307,31.9875 2.22720298,30.775 C4.33445065,29.575 7.0221378,30.2875 8.24610801,32.375 C9.45745996,34.4625 8.73821974,37.125 6.63097207,38.3375 C4.51110615,39.5375 1.82341899,38.825 0.612067039,36.7375" id="Shape"></path>
                        <path d="M35.7665102,16.625 C34.5551583,14.5375 35.2743985,11.875 37.3816462,10.6625 C39.4888939,9.4625 42.176581,10.175 43.4005512,12.2625 C44.6119032,14.35 43.8926629,17.0125 41.7854153,18.225 C39.6781676,19.425 36.9778622,18.7125 35.7665102,16.625" id="Shape"></path>
                        <path d="M22,48.975 C19.5646778,48.975 17.5962309,47.025 17.5962309,44.6125 C17.5962309,42.2 19.5646778,40.25 22,40.25 C24.4353222,40.25 26.4037691,42.2 26.4037691,44.6125 C26.4037691,47.0125 24.4353222,48.975 22,48.975" id="Shape"></path>
                        <path d="M22,8.75 C19.5646778,8.75 17.5962309,6.8 17.5962309,4.3875 C17.5962309,1.975 19.5646778,0.025 22,0.025 C24.4353222,0.025 26.4037691,1.975 26.4037691,4.3875 C26.4037691,6.8 24.4353222,8.75 22,8.75" id="Shape"></path>
                    </g>
                </g>
            </g>
        </g>
    </g>
</svg>