<?xml version="1.0" encoding="UTF-8"?>
<svg width="685px" height="250px" viewBox="0 0 685 250" version="1.1" xmlns="http://www.w3.org/2000/svg" xmlns:xlink="http://www.w3.org/1999/xlink">
    <!-- Generator: Sketch 47.1 (45422) - http://www.bohemiancoding.com/sketch -->
    <title>Group 17</title>
    <desc>Created with Sketch.</desc>
    <defs></defs>
    <g id="Page-1" stroke="none" stroke-width="1" fill="none" fill-rule="evenodd">
        <g>
            <g>
                <rect fill="#56B3B4" x="410" y="60" width="20" height="10" rx="5"></rect>
                <rect fill="#EA5E5E" x="260" y="220" width="70" height="10" rx="5"></rect>
                <rect fill="#C693C6" x="380" y="140" width="40" height="10" rx="5"></rect>
                <rect fill="#EA5E5E" x="320" y="140" width="50" height="10" rx="5"></rect>
                <rect fill="#56B3B4" x="260" y="140" width="50" height="10" rx="5"></rect>
                <rect fill="#C693C6" x="260" y="180" width="70" height="10" rx="5"></rect>
                <rect fill="#C693C6" x="260" y="100" width="50" height="10" rx="5"></rect>
                <rect fill="#FBBF47" x="310" y="40" width="110" height="10" rx="5"></rect>
                <rect fill="#EA5E5E" x="260" y="40" width="40" height="10" rx="5"></rect>
                <rect fill="#FBBF47" x="300" y="200" width="30" height="10" rx="5"></rect>
                <rect fill="#56B3B4" x="260" y="200" width="30" height="10" rx="5"></rect>
                <rect fill="#56B3B4" x="340" y="120" width="90" height="10" rx="5"></rect>
                <rect fill="#FBBF47" x="290" y="120" width="40" height="10" rx="5"></rect>
                <rect fill="#EA5E5E" x="260" y="120" width="20" height="10" rx="5"></rect>
                <rect fill="#C693C6" x="350" y="60" width="50" height="10" rx="5"></rect>
                <rect fill="#56B3B4" x="260" y="60" width="80" height="10" rx="5"></rect>
                <rect fill="#FBBF47" x="290" y="160" width="100" height="10" rx="5"></rect>
                <rect fill="#C693C6" x="260" y="160" width="20" height="10" rx="5"></rect>
                <rect fill="#EA5E5E" x="380" y="80" width="60" height="10" rx="5"></rect>
                <rect fill="#FBBF47" x="380" y="100" width="60" height="10" rx="5"></rect>
                <rect fill="#FBBF47" x="260" y="80" width="50" height="10" rx="5"></rect>
                <rect fill="#56B3B4" x="260" y="20" width="130" height="10" rx="5"></rect>
                <rect fill="#C6CBD0" opacity="0.5" x="400" y="20" width="70" height="10" rx="5"></rect>
                <rect  fill="#C6CBD0" opacity="0.5" x="100" y="20" width="70" height="10" rx="5"></rect>
                <rect  fill="#C6CBD0" opacity="0.5" x="180" y="20" width="70" height="10" rx="5"></rect>
                <rect  fill="#C6CBD0" opacity="0.5" x="195" y="0" width="145" height="10" rx="5"></rect>
                <rect  fill="#C6CBD0" opacity="0.5" x="350" y="0" width="50" height="10" rx="5"></rect>
                <rect  fill="#C6CBD0" opacity="0.5" x="105" y="0" width="50" height="10" rx="5"></rect>
                <rect  fill="#C6CBD0" opacity="0.5" x="160" y="220" width="50" height="10" rx="5"></rect>
                <rect  fill="#C6CBD0" opacity="0.5" x="180" y="60" width="70" height="10" rx="5"></rect>
                <rect  fill="#C6CBD0" opacity="0.5" x="559" y="0" width="50" height="10" rx="5"></rect>
                <rect  fill="#C6CBD0" opacity="0.5" x="41" y="20" width="50" height="10" rx="5"></rect>
                <rect  fill="#C6CBD0" opacity="0.5" x="410" y="0" width="139" height="10" rx="5"></rect>
                <rect  fill="#C6CBD0" opacity="0.5" x="515" y="20" width="124" height="10" rx="5"></rect>
                <rect  fill="#C6CBD0" opacity="0.5" x="175" y="240" width="110" height="10" rx="5"></rect>
                <rect  fill="#C6CBD0" opacity="0.5" x="95" y="240" width="70" height="10" rx="5"></rect>
                <rect fill="#C6CBD0" opacity="0.5" x="400" y="160" width="70" height="10" rx="5"></rect>
                <rect  fill="#C6CBD0" opacity="0.5" x="480" y="160" width="90" height="10" rx="5"></rect>
                <rect  fill="#C6CBD0" opacity="0.5" x="100" y="140" width="90" height="10" rx="5"></rect>
                <rect  fill="#C6CBD0" opacity="0.5" x="120" y="120" width="90" height="10" rx="5"></rect>
                <rect  fill="#C6CBD0" opacity="0.5" x="20" y="120" width="90" height="10" rx="5"></rect>
                <rect  fill="#C6CBD0" opacity="0.5" x="580" y="160" width="35" height="10" rx="5"></rect>
                <rect fill="#C6CBD0" opacity="0.5" x="430" y="140" width="70" height="10" rx="5"></rect>
                <rect  fill="#C6CBD0" opacity="0.5" x="590" y="120" width="70" height="10" rx="5"></rect>
                <rect fill="#C6CBD0" opacity="0.5" x="430" y="40" width="60" height="10" rx="5"></rect>
                <rect  fill="#C6CBD0" opacity="0.5" x="140" y="40" width="60" height="10" rx="5"></rect>
                <rect  fill="#C6CBD0" opacity="0.5" x="70" y="40" width="60" height="10" rx="5"></rect>
                <rect  fill="#C6CBD0" opacity="0.5" x="160" y="80" width="60" height="10" rx="5"></rect>
                <rect  fill="#C6CBD0" opacity="0.5" x="500" y="40" width="115" height="10" rx="5"></rect>
                <rect  fill="#C6CBD0" opacity="0.5" x="410" y="200" width="115" height="10" rx="5"></rect>
                <rect  fill="#C6CBD0" opacity="0.5" x="105" y="200" width="145" height="10" rx="5"></rect>
                <rect  fill="#C6CBD0" opacity="0.5" x="135" y="160" width="115" height="10" rx="5"></rect>
                <rect  fill="#C6CBD0" opacity="0.5" x="210" y="40" width="40" height="10" rx="5"></rect>
                <rect  fill="#C6CBD0" opacity="0.5" x="25" y="60" width="40" height="10" rx="5"></rect>
                <rect  fill="#C6CBD0" opacity="0.5" x="110" y="80" width="40" height="10" rx="5"></rect>
                <rect  fill="#C6CBD0" opacity="0.5" x="230" y="80" width="20" height="10" rx="5"></rect>
                <rect fill="#C6CBD0" opacity="0.5" x="440" y="120" width="110" height="10" rx="5"></rect>
                <rect  fill="#C6CBD0" opacity="0.5" x="140" y="100" width="110" height="10" rx="5"></rect>
                <rect  fill="#C6CBD0" opacity="0.5" x="480" y="80" width="205" height="10" rx="5"></rect>
                <rect fill="#C6CBD0" opacity="0.5" x="440" y="60" width="90" height="10" rx="5"></rect>
                <rect  fill="#C6CBD0" opacity="0.5" x="540" y="60" width="90" height="10" rx="5"></rect>
                <rect  fill="#C6CBD0" opacity="0.5" x="10" y="80" width="90" height="10" rx="5"></rect>
                <rect  fill="#C6CBD0" opacity="0.5" x="70" y="60" width="100" height="10" rx="5"></rect>
                <rect  fill="#C6CBD0" opacity="0.5" x="478" y="20" width="30" height="10" rx="5"></rect>
                <rect  fill="#C6CBD0" opacity="0.5" x="480" y="220" width="40" height="10" rx="5"></rect>
                <rect  fill="#C6CBD0" opacity="0.5" x="75" y="160" width="50" height="10" rx="5"></rect>
                <rect  fill="#C6CBD0" opacity="0.5" x="220" y="220" width="30" height="10" rx="5"></rect>
                <rect  fill="#C6CBD0" opacity="0.5" x="220" y="120" width="30" height="10" rx="5"></rect>
                <rect  fill="#C6CBD0" opacity="0.5" x="560" y="120" width="20" height="10" rx="5"></rect>
                <rect fill="#C6CBD0" opacity="0.5" x="450" y="80" width="20" height="10" rx="5"></rect>
                <rect  fill="#C6CBD0" opacity="0.5" x="165" y="0" width="20" height="10" rx="5"></rect>
                <rect  fill="#C6CBD0" opacity="0.5" x="160" y="180" width="20" height="10" rx="5"></rect>
                <rect  fill="#C6CBD0" opacity="0.5" x="60" y="220" width="90" height="10" rx="5"></rect>
                <rect fill="#C6CBD0" opacity="0.5" x="450" y="100" width="145" height="10" rx="5"></rect>
                <rect  fill="#C6CBD0" opacity="0.5" x="340" y="180" width="90" height="10" rx="5"></rect>
                <rect  fill="#C6CBD0" opacity="0.5" x="440" y="180" width="155" height="10" rx="5"></rect>
                <rect  fill="#C6CBD0" opacity="0.5" x="340" y="200" width="60" height="10" rx="5"></rect>
                <rect  fill="#C6CBD0" opacity="0.5" x="395" y="240" width="60" height="10" rx="5"></rect>
                <rect  fill="#C6CBD0" opacity="0.5" x="190" y="180" width="60" height="10" rx="5"></rect>
                <rect  fill="#C6CBD0" opacity="0.5" x="65" y="180" width="85" height="10" rx="5"></rect>
                <rect  fill="#C6CBD0" opacity="0.5" x="30" y="140" width="60" height="10" rx="5"></rect>
                <rect  fill="#C6CBD0" opacity="0.5" x="510" y="140" width="130" height="10" rx="5"></rect>
                <rect  fill="#C6CBD0" opacity="0.5" x="0" y="100" width="130" height="10" rx="5"></rect>
                <rect  fill="#C6CBD0" opacity="0.5" x="340" y="220" width="130" height="10" rx="5"></rect>
                <rect  fill="#C6CBD0" opacity="0.5" x="295" y="240" width="90" height="10" rx="5"></rect>
                <rect  fill="#C6CBD0" opacity="0.5" x="320" y="80" width="50" height="10" rx="5"></rect>
                <rect  fill="#C6CBD0" opacity="0.5" x="320" y="100" width="50" height="10" rx="5"></rect>
                <rect  fill="#C6CBD0" opacity="0.5" x="200" y="140" width="50" height="10" rx="5"></rect>
            </g>
        </g>
    </g>
</svg>
