<svg viewBox="0 0 685 250" xmlns="http://www.w3.org/2000/svg"><g clip-rule="evenodd" fill-rule="evenodd"><path d="m385 140h30c2.8 0 5 2.2 5 5s-2.2 5-5 5h-30c-2.8 0-5-2.2-5-5s2.2-5 5-5zm-120 40h60c2.8 0 5 2.2 5 5s-2.2 5-5 5h-60c-2.8 0-5-2.2-5-5s2.2-5 5-5zm0-80h40c2.8 0 5 2.2 5 5s-2.2 5-5 5h-40c-2.8 0-5-2.2-5-5s2.2-5 5-5zm90-40h40c2.8 0 5 2.2 5 5s-2.2 5-5 5h-40c-2.8 0-5-2.2-5-5s2.2-5 5-5zm-90 100h10c2.8 0 5 2.2 5 5s-2.2 5-5 5h-10c-2.8 0-5-2.2-5-5s2.2-5 5-5z" fill="#c693c6"/><path d="m265 220h60c2.8 0 5 2.2 5 5s-2.2 5-5 5h-60c-2.8 0-5-2.2-5-5s2.2-5 5-5zm60-80h40c2.8 0 5 2.2 5 5s-2.2 5-5 5h-40c-2.8 0-5-2.2-5-5s2.2-5 5-5zm-60-100h30c2.8 0 5 2.2 5 5s-2.2 5-5 5h-30c-2.8 0-5-2.2-5-5s2.2-5 5-5zm0 80h10c2.8 0 5 2.2 5 5s-2.2 5-5 5h-10c-2.8 0-5-2.2-5-5s2.2-5 5-5zm120-40h50c2.8 0 5 2.2 5 5s-2.2 5-5 5h-50c-2.8 0-5-2.2-5-5s2.2-5 5-5z" fill="#ea5e5e"/><path d="m315 40h100c2.8 0 5 2.2 5 5s-2.2 5-5 5h-100c-2.8 0-5-2.2-5-5s2.2-5 5-5zm-10 160h20c2.8 0 5 2.2 5 5s-2.2 5-5 5h-20c-2.8 0-5-2.2-5-5s2.2-5 5-5zm-10-80h30c2.8 0 5 2.2 5 5s-2.2 5-5 5h-30c-2.8 0-5-2.2-5-5s2.2-5 5-5zm0 40h90c2.8 0 5 2.2 5 5s-2.2 5-5 5h-90c-2.8 0-5-2.2-5-5s2.2-5 5-5zm90-60h50c2.8 0 5 2.2 5 5s-2.2 5-5 5h-50c-2.8 0-5-2.2-5-5s2.2-5 5-5zm-120-20h40c2.8 0 5 2.2 5 5s-2.2 5-5 5h-40c-2.8 0-5-2.2-5-5s2.2-5 5-5z" fill="#fbbf47"/><path d="m265 140h40c2.8 0 5 2.2 5 5s-2.2 5-5 5h-40c-2.8 0-5-2.2-5-5s2.2-5 5-5zm0 60h20c2.8 0 5 2.2 5 5s-2.2 5-5 5h-20c-2.8 0-5-2.2-5-5s2.2-5 5-5zm150-140h10c2.8 0 5 2.2 5 5s-2.2 5-5 5h-10c-2.8 0-5-2.2-5-5s2.2-5 5-5zm-70 60h80c2.8 0 5 2.2 5 5s-2.2 5-5 5h-80c-2.8 0-5-2.2-5-5s2.2-5 5-5zm-80-60h70c2.8 0 5 2.2 5 5s-2.2 5-5 5h-70c-2.8 0-5-2.2-5-5s2.2-5 5-5zm0-40h120c2.8 0 5 2.2 5 5s-2.2 5-5 5h-120c-2.8 0-5-2.2-5-5s2.2-5 5-5z" fill="#56b3b4"/><path d="m483 20h20c2.8 0 5 2.2 5 5s-2.2 5-5 5h-20c-2.8 0-5-2.2-5-5s2.2-5 5-5zm-78 0h60c2.8 0 5 2.2 5 5s-2.2 5-5 5h-60c-2.8 0-5-2.2-5-5s2.2-5 5-5zm-300 0h60c2.8 0 5 2.2 5 5s-2.2 5-5 5h-60c-2.8 0-5-2.2-5-5s2.2-5 5-5zm80 0h60c2.8 0 5 2.2 5 5s-2.2 5-5 5h-60c-2.8 0-5-2.2-5-5s2.2-5 5-5zm15-20h135c2.8 0 5 2.2 5 5s-2.2 5-5 5h-135c-2.8 0-5-2.2-5-5s2.2-5 5-5zm155 0h40c2.8 0 5 2.2 5 5s-2.2 5-5 5h-40c-2.8 0-5-2.2-5-5s2.2-5 5-5zm-245 0h40c2.8 0 5 2.2 5 5s-2.2 5-5 5h-40c-2.8 0-5-2.2-5-5s2.2-5 5-5zm55 220h40c2.8 0 5 2.2 5 5s-2.2 5-5 5h-40c-2.8 0-5-2.2-5-5s2.2-5 5-5zm20-160h60c2.8 0 5 2.2 5 5s-2.2 5-5 5h-60c-2.8 0-5-2.2-5-5s2.2-5 5-5zm379-60h40c2.8 0 5 2.2 5 5s-2.2 5-5 5h-40c-2.8 0-5-2.2-5-5s2.2-5 5-5zm-518 20h40c2.8 0 5 2.2 5 5s-2.2 5-5 5h-40c-2.8 0-5-2.2-5-5s2.2-5 5-5zm369-20h129c2.8 0 5 2.2 5 5s-2.2 5-5 5h-129c-2.8 0-5-2.2-5-5s2.2-5 5-5zm105 20h114c2.8 0 5 2.2 5 5s-2.2 5-5 5h-114c-2.8 0-5-2.2-5-5s2.2-5 5-5zm-340 220h100c2.8 0 5 2.2 5 5s-2.2 5-5 5h-100c-2.8 0-5-2.2-5-5s2.2-5 5-5zm-80 0h60c2.8 0 5 2.2 5 5s-2.2 5-5 5h-60c-2.8 0-5-2.2-5-5s2.2-5 5-5zm305-80h60c2.8 0 5 2.2 5 5s-2.2 5-5 5h-60c-2.8 0-5-2.2-5-5s2.2-5 5-5zm80 0h80c2.8 0 5 2.2 5 5s-2.2 5-5 5h-80c-2.8 0-5-2.2-5-5s2.2-5 5-5zm-380-20h80c2.8 0 5 2.2 5 5s-2.2 5-5 5h-80c-2.8 0-5-2.2-5-5s2.2-5 5-5zm20-20h80c2.8 0 5 2.2 5 5s-2.2 5-5 5h-80c-2.8 0-5-2.2-5-5s2.2-5 5-5zm-100 0h80c2.8 0 5 2.2 5 5s-2.2 5-5 5h-80c-2.8 0-5-2.2-5-5s2.2-5 5-5zm560 40h25c2.8 0 5 2.2 5 5s-2.2 5-5 5h-25c-2.8 0-5-2.2-5-5s2.2-5 5-5zm-150-20h60c2.8 0 5 2.2 5 5s-2.2 5-5 5h-60c-2.8 0-5-2.2-5-5s2.2-5 5-5zm160-20h60c2.8 0 5 2.2 5 5s-2.2 5-5 5h-60c-2.8 0-5-2.2-5-5s2.2-5 5-5zm-160-80h50c2.8 0 5 2.2 5 5s-2.2 5-5 5h-50c-2.8 0-5-2.2-5-5s2.2-5 5-5zm-290 0h50c2.8 0 5 2.2 5 5s-2.2 5-5 5h-50c-2.8 0-5-2.2-5-5s2.2-5 5-5zm-70 0h50c2.8 0 5 2.2 5 5s-2.2 5-5 5h-50c-2.8 0-5-2.2-5-5s2.2-5 5-5zm90 40h50c2.8 0 5 2.2 5 5s-2.2 5-5 5h-50c-2.8 0-5-2.2-5-5s2.2-5 5-5zm340-40h105c2.8 0 5 2.2 5 5s-2.2 5-5 5h-105c-2.8 0-5-2.2-5-5s2.2-5 5-5zm-90 160h105c2.8 0 5 2.2 5 5s-2.2 5-5 5h-105c-2.8 0-5-2.2-5-5s2.2-5 5-5zm-305 0h135c2.8 0 5 2.2 5 5s-2.2 5-5 5h-135c-2.8 0-5-2.2-5-5s2.2-5 5-5zm30-40h105c2.8 0 5 2.2 5 5s-2.2 5-5 5h-105c-2.8 0-5-2.2-5-5s2.2-5 5-5zm75-120h30c2.8 0 5 2.2 5 5s-2.2 5-5 5h-30c-2.8 0-5-2.2-5-5s2.2-5 5-5zm-185 20h30c2.8 0 5 2.2 5 5s-2.2 5-5 5h-30c-2.8 0-5-2.2-5-5s2.2-5 5-5zm85 20h30c2.8 0 5 2.2 5 5s-2.2 5-5 5h-30c-2.8 0-5-2.2-5-5s2.2-5 5-5zm120 0h10c2.8 0 5 2.2 5 5s-2.2 5-5 5h-10c-2.8 0-5-2.2-5-5s2.2-5 5-5zm210 40h100c2.8 0 5 2.2 5 5s-2.2 5-5 5h-100c-2.8 0-5-2.2-5-5s2.2-5 5-5zm-300-20h100c2.8 0 5 2.2 5 5s-2.2 5-5 5h-100c-2.8 0-5-2.2-5-5s2.2-5 5-5zm340-20h195c2.8 0 5 2.2 5 5s-2.2 5-5 5h-195c-2.8 0-5-2.2-5-5s2.2-5 5-5zm-40-20h80c2.8 0 5 2.2 5 5s-2.2 5-5 5h-80c-2.8 0-5-2.2-5-5s2.2-5 5-5zm100 0h80c2.8 0 5 2.2 5 5s-2.2 5-5 5h-80c-2.8 0-5-2.2-5-5s2.2-5 5-5zm-530 20h80c2.8 0 5 2.2 5 5s-2.2 5-5 5h-80c-2.8 0-5-2.2-5-5s2.2-5 5-5zm60-20h90c2.8 0 5 2.2 5 5s-2.2 5-5 5h-90c-2.8 0-5-2.2-5-5s2.2-5 5-5zm410 160h30c2.8 0 5 2.2 5 5s-2.2 5-5 5h-30c-2.8 0-5-2.2-5-5s2.2-5 5-5zm-405-60h40c2.8 0 5 2.2 5 5s-2.2 5-5 5h-40c-2.8 0-5-2.2-5-5s2.2-5 5-5zm145 60h20c2.8 0 5 2.2 5 5s-2.2 5-5 5h-20c-2.8 0-5-2.2-5-5s2.2-5 5-5zm0-100h20c2.8 0 5 2.2 5 5s-2.2 5-5 5h-20c-2.8 0-5-2.2-5-5s2.2-5 5-5zm340 0h10c2.8 0 5 2.2 5 5s-2.2 5-5 5h-10c-2.8 0-5-2.2-5-5s2.2-5 5-5zm-110-40h10c2.8 0 5 2.2 5 5s-2.2 5-5 5h-10c-2.8 0-5-2.2-5-5s2.2-5 5-5zm-285-80h10c2.8 0 5 2.2 5 5s-2.2 5-5 5h-10c-2.8 0-5-2.2-5-5s2.2-5 5-5zm-5 180h10c2.8 0 5 2.2 5 5s-2.2 5-5 5h-10c-2.8 0-5-2.2-5-5s2.2-5 5-5zm-100 40h80c2.8 0 5 2.2 5 5s-2.2 5-5 5h-80c-2.8 0-5-2.2-5-5s2.2-5 5-5zm390-120h135c2.8 0 5 2.2 5 5s-2.2 5-5 5h-135c-2.8 0-5-2.2-5-5s2.2-5 5-5zm-110 80h80c2.8 0 5 2.2 5 5s-2.2 5-5 5h-80c-2.8 0-5-2.2-5-5s2.2-5 5-5zm100 0h145c2.8 0 5 2.2 5 5s-2.2 5-5 5h-145c-2.8 0-5-2.2-5-5s2.2-5 5-5zm-100 20h50c2.8 0 5 2.2 5 5s-2.2 5-5 5h-50c-2.8 0-5-2.2-5-5s2.2-5 5-5zm55 40h50c2.8 0 5 2.2 5 5s-2.2 5-5 5h-50c-2.8 0-5-2.2-5-5s2.2-5 5-5zm-205-60h50c2.8 0 5 2.2 5 5s-2.2 5-5 5h-50c-2.8 0-5-2.2-5-5s2.2-5 5-5zm-125 0h75c2.8 0 5 2.2 5 5s-2.2 5-5 5h-75c-2.8 0-5-2.2-5-5s2.2-5 5-5zm-35-40h50c2.8 0 5 2.2 5 5s-2.2 5-5 5h-50c-2.8 0-5-2.2-5-5s2.2-5 5-5zm480 0h120c2.8 0 5 2.2 5 5s-2.2 5-5 5h-120c-2.8 0-5-2.2-5-5s2.2-5 5-5zm-510-40h120c2.8 0 5 2.2 5 5s-2.2 5-5 5h-120c-2.8 0-5-2.2-5-5s2.2-5 5-5zm340 120h120c2.8 0 5 2.2 5 5s-2.2 5-5 5h-120c-2.8 0-5-2.2-5-5s2.2-5 5-5zm-45 20h80c2.8 0 5 2.2 5 5s-2.2 5-5 5h-80c-2.8 0-5-2.2-5-5s2.2-5 5-5zm25-160h40c2.8 0 5 2.2 5 5s-2.2 5-5 5h-40c-2.8 0-5-2.2-5-5s2.2-5 5-5zm0 20h40c2.8 0 5 2.2 5 5s-2.2 5-5 5h-40c-2.8 0-5-2.2-5-5s2.2-5 5-5zm-120 40h40c2.8 0 5 2.2 5 5s-2.2 5-5 5h-40c-2.8 0-5-2.2-5-5s2.2-5 5-5z" fill="#c6cbd0" opacity=".5"/></g></svg>