<svg xmlns="http://www.w3.org/2000/svg" viewBox="0 0 685 250">
  <g fill="none" fill-rule="evenodd">
    <rect width="20" height="10" x="410" y="60" fill="#56B3B4" rx="5"/>
    <rect width="70" height="10" x="260" y="220" fill="#EA5E5E" rx="5"/>
    <rect width="40" height="10" x="380" y="140" fill="#C693C6" rx="5"/>
    <rect width="50" height="10" x="320" y="140" fill="#EA5E5E" rx="5"/>
    <rect width="50" height="10" x="260" y="140" fill="#56B3B4" rx="5"/>
    <rect width="70" height="10" x="260" y="180" fill="#C693C6" rx="5"/>
    <rect width="50" height="10" x="260" y="100" fill="#C693C6" rx="5"/>
    <rect width="110" height="10" x="310" y="40" fill="#FBBF47" rx="5"/>
    <rect width="40" height="10" x="260" y="40" fill="#EA5E5E" rx="5"/>
    <rect width="30" height="10" x="300" y="200" fill="#FBBF47" rx="5"/>
    <rect width="30" height="10" x="260" y="200" fill="#56B3B4" rx="5"/>
    <rect width="90" height="10" x="340" y="120" fill="#56B3B4" rx="5"/>
    <rect width="40" height="10" x="290" y="120" fill="#FBBF47" rx="5"/>
    <rect width="20" height="10" x="260" y="120" fill="#EA5E5E" rx="5"/>
    <rect width="50" height="10" x="350" y="60" fill="#C693C6" rx="5"/>
    <rect width="80" height="10" x="260" y="60" fill="#56B3B4" rx="5"/>
    <rect width="100" height="10" x="290" y="160" fill="#FBBF47" rx="5"/>
    <rect width="20" height="10" x="260" y="160" fill="#C693C6" rx="5"/>
    <rect width="60" height="10" x="380" y="80" fill="#EA5E5E" rx="5"/>
    <rect width="60" height="10" x="380" y="100" fill="#FBBF47" rx="5"/>
    <rect width="50" height="10" x="260" y="80" fill="#FBBF47" rx="5"/>
    <rect width="130" height="10" x="260" y="20" fill="#56B3B4" rx="5"/>
    <rect width="70" height="10" x="400" y="20" fill="#C6CBD0" opacity=".5" rx="5"/>
    <rect width="70" height="10" x="100" y="20" fill="#C6CBD0" opacity=".5" rx="5"/>
    <rect width="70" height="10" x="180" y="20" fill="#C6CBD0" opacity=".5" rx="5"/>
    <rect width="145" height="10" x="195" fill="#C6CBD0" opacity=".5" rx="5"/>
    <rect width="50" height="10" x="350" fill="#C6CBD0" opacity=".5" rx="5"/>
    <rect width="50" height="10" x="105" fill="#C6CBD0" opacity=".5" rx="5"/>
    <rect width="50" height="10" x="160" y="220" fill="#C6CBD0" opacity=".5" rx="5"/>
    <rect width="70" height="10" x="180" y="60" fill="#C6CBD0" opacity=".5" rx="5"/>
    <rect width="50" height="10" x="559" fill="#C6CBD0" opacity=".5" rx="5"/>
    <rect width="50" height="10" x="41" y="20" fill="#C6CBD0" opacity=".5" rx="5"/>
    <rect width="139" height="10" x="410" fill="#C6CBD0" opacity=".5" rx="5"/>
    <rect width="124" height="10" x="515" y="20" fill="#C6CBD0" opacity=".5" rx="5"/>
    <rect width="110" height="10" x="175" y="240" fill="#C6CBD0" opacity=".5" rx="5"/>
    <rect width="70" height="10" x="95" y="240" fill="#C6CBD0" opacity=".5" rx="5"/>
    <rect width="70" height="10" x="400" y="160" fill="#C6CBD0" opacity=".5" rx="5"/>
    <rect width="90" height="10" x="480" y="160" fill="#C6CBD0" opacity=".5" rx="5"/>
    <rect width="90" height="10" x="100" y="140" fill="#C6CBD0" opacity=".5" rx="5"/>
    <rect width="90" height="10" x="120" y="120" fill="#C6CBD0" opacity=".5" rx="5"/>
    <rect width="90" height="10" x="20" y="120" fill="#C6CBD0" opacity=".5" rx="5"/>
    <rect width="35" height="10" x="580" y="160" fill="#C6CBD0" opacity=".5" rx="5"/>
    <rect width="70" height="10" x="430" y="140" fill="#C6CBD0" opacity=".5" rx="5"/>
    <rect width="70" height="10" x="590" y="120" fill="#C6CBD0" opacity=".5" rx="5"/>
    <rect width="60" height="10" x="430" y="40" fill="#C6CBD0" opacity=".5" rx="5"/>
    <rect width="60" height="10" x="140" y="40" fill="#C6CBD0" opacity=".5" rx="5"/>
    <rect width="60" height="10" x="70" y="40" fill="#C6CBD0" opacity=".5" rx="5"/>
    <rect width="60" height="10" x="160" y="80" fill="#C6CBD0" opacity=".5" rx="5"/>
    <rect width="115" height="10" x="500" y="40" fill="#C6CBD0" opacity=".5" rx="5"/>
    <rect width="115" height="10" x="410" y="200" fill="#C6CBD0" opacity=".5" rx="5"/>
    <rect width="145" height="10" x="105" y="200" fill="#C6CBD0" opacity=".5" rx="5"/>
    <rect width="115" height="10" x="135" y="160" fill="#C6CBD0" opacity=".5" rx="5"/>
    <rect width="40" height="10" x="210" y="40" fill="#C6CBD0" opacity=".5" rx="5"/>
    <rect width="40" height="10" x="25" y="60" fill="#C6CBD0" opacity=".5" rx="5"/>
    <rect width="40" height="10" x="110" y="80" fill="#C6CBD0" opacity=".5" rx="5"/>
    <rect width="20" height="10" x="230" y="80" fill="#C6CBD0" opacity=".5" rx="5"/>
    <rect width="110" height="10" x="440" y="120" fill="#C6CBD0" opacity=".5" rx="5"/>
    <rect width="110" height="10" x="140" y="100" fill="#C6CBD0" opacity=".5" rx="5"/>
    <rect width="205" height="10" x="480" y="80" fill="#C6CBD0" opacity=".5" rx="5"/>
    <rect width="90" height="10" x="440" y="60" fill="#C6CBD0" opacity=".5" rx="5"/>
    <rect width="90" height="10" x="540" y="60" fill="#C6CBD0" opacity=".5" rx="5"/>
    <rect width="90" height="10" x="10" y="80" fill="#C6CBD0" opacity=".5" rx="5"/>
    <rect width="100" height="10" x="70" y="60" fill="#C6CBD0" opacity=".5" rx="5"/>
    <rect width="30" height="10" x="478" y="20" fill="#C6CBD0" opacity=".5" rx="5"/>
    <rect width="40" height="10" x="480" y="220" fill="#C6CBD0" opacity=".5" rx="5"/>
    <rect width="50" height="10" x="75" y="160" fill="#C6CBD0" opacity=".5" rx="5"/>
    <rect width="30" height="10" x="220" y="220" fill="#C6CBD0" opacity=".5" rx="5"/>
    <rect width="30" height="10" x="220" y="120" fill="#C6CBD0" opacity=".5" rx="5"/>
    <rect width="20" height="10" x="560" y="120" fill="#C6CBD0" opacity=".5" rx="5"/>
    <rect width="20" height="10" x="450" y="80" fill="#C6CBD0" opacity=".5" rx="5"/>
    <rect width="20" height="10" x="165" fill="#C6CBD0" opacity=".5" rx="5"/>
    <rect width="20" height="10" x="160" y="180" fill="#C6CBD0" opacity=".5" rx="5"/>
    <rect width="90" height="10" x="60" y="220" fill="#C6CBD0" opacity=".5" rx="5"/>
    <rect width="145" height="10" x="450" y="100" fill="#C6CBD0" opacity=".5" rx="5"/>
    <rect width="90" height="10" x="340" y="180" fill="#C6CBD0" opacity=".5" rx="5"/>
    <rect width="155" height="10" x="440" y="180" fill="#C6CBD0" opacity=".5" rx="5"/>
    <rect width="60" height="10" x="340" y="200" fill="#C6CBD0" opacity=".5" rx="5"/>
    <rect width="60" height="10" x="395" y="240" fill="#C6CBD0" opacity=".5" rx="5"/>
    <rect width="60" height="10" x="190" y="180" fill="#C6CBD0" opacity=".5" rx="5"/>
    <rect width="85" height="10" x="65" y="180" fill="#C6CBD0" opacity=".5" rx="5"/>
    <rect width="60" height="10" x="30" y="140" fill="#C6CBD0" opacity=".5" rx="5"/>
    <rect width="130" height="10" x="510" y="140" fill="#C6CBD0" opacity=".5" rx="5"/>
    <rect width="130" height="10" y="100" fill="#C6CBD0" opacity=".5" rx="5"/>
    <rect width="130" height="10" x="340" y="220" fill="#C6CBD0" opacity=".5" rx="5"/>
    <rect width="90" height="10" x="295" y="240" fill="#C6CBD0" opacity=".5" rx="5"/>
    <rect width="50" height="10" x="320" y="80" fill="#C6CBD0" opacity=".5" rx="5"/>
    <rect width="50" height="10" x="320" y="100" fill="#C6CBD0" opacity=".5" rx="5"/>
    <rect width="50" height="10" x="200" y="140" fill="#C6CBD0" opacity=".5" rx="5"/>
  </g>
</svg>
