<?xml version="1.0" encoding="UTF-8" standalone="no"?><!DOCTYPE svg PUBLIC "-//W3C//DTD SVG 1.1//EN" "http://www.w3.org/Graphics/SVG/1.1/DTD/svg11.dtd"><svg width="100%" height="100%" viewBox="0 0 200 100" version="1.1" xmlns="http://www.w3.org/2000/svg" xmlns:xlink="http://www.w3.org/1999/xlink" xml:space="preserve" xmlns:serif="http://www.serif.com/" style="fill-rule:evenodd;clip-rule:evenodd;stroke-linejoin:round;stroke-miterlimit:1.41421;"><path d="M0,36.98l13,0l6.24,-6.2l-13.04,0l-6.2,6.2Z" style="fill:#78a0db;fill-rule:nonzero;"/><path d="M13,36.98l0,13.04l6.24,-6.24l0,-13l-6.24,6.2Z" style="fill:#2c66c4;fill-rule:nonzero;"/><path d="M6.8,56.22l13,0l6.24,-6.2l-13.04,0l-6.2,6.2Z" style="fill:#78a0db;fill-rule:nonzero;"/><path d="M19.8,56.22l0,13l6.24,-6.2l0,-13l-6.24,6.2Z" style="fill:#2c66c4;fill-rule:nonzero;"/><path d="M19.24,43.78l13,0l6.2,-6.2l-13,0l-6.2,6.2Z" style="fill:#78a0db;fill-rule:nonzero;"/><path d="M32.24,43.78l0,13.04l6.2,-6.24l0,-13l-6.2,6.2Z" style="fill:#2c66c4;fill-rule:nonzero;"/><path d="M73.88,43.9l-0.08,0.16c-0.08,0.12 -0.2,0.36 -0.4,0.72l-3.36,6.64c-0.28,0.56 -0.52,1.04 -0.76,1.52l0,-0.04c-0.2,-0.44 -0.48,-0.92 -0.76,-1.48c-0.28,-0.56 -0.6,-1.16 -0.92,-1.76l-0.96,-1.84c-0.32,-0.6 -0.6,-1.2 -0.88,-1.68c-0.28,-0.52 -0.52,-0.96 -0.68,-1.32c-0.2,-0.36 -0.32,-0.6 -0.4,-0.72l-0.08,-0.16l-4.36,0l0.36,0.52c0.04,0.04 0.16,0.28 0.6,1.08c0.32,0.64 0.76,1.4 1.24,2.28c0.48,0.88 1,1.84 1.56,2.84c0.56,1 1.04,1.96 1.56,2.84c0.48,0.88 0.92,1.64 1.24,2.28c0.36,0.68 0.52,0.96 0.6,1.08l0,6.2l3.76,0l0,-6.28l7.04,-12.92l-4.32,0l0,0.04Z" style="fill:#4f4f4f;fill-rule:nonzero;"/><path d="M93.8,46.58c-0.88,-0.88 -1.92,-1.6 -3.12,-2.12c-1.2,-0.52 -2.44,-0.8 -3.8,-0.8c-1.36,0 -2.6,0.28 -3.8,0.8c-1.16,0.52 -2.2,1.24 -3.08,2.12c-0.88,0.88 -1.6,1.92 -2.08,3.12c-0.52,1.2 -0.76,2.44 -0.76,3.8c0,1.36 0.28,2.6 0.76,3.8c0.52,1.16 1.2,2.2 2.08,3.08c0.88,0.88 1.92,1.6 3.08,2.08c1.16,0.52 2.44,0.76 3.8,0.76c1.32,0 2.6,-0.24 3.76,-0.76c1.2,-0.52 2.24,-1.2 3.12,-2.08c0.88,-0.88 1.6,-1.92 2.12,-3.08c0.52,-1.16 0.76,-2.44 0.76,-3.8c0,-1.32 -0.28,-2.6 -0.76,-3.8c-0.48,-1.16 -1.16,-2.2 -2.08,-3.12Zm-6.88,0.76c0.84,0 1.6,0.16 2.32,0.48c0.72,0.32 1.36,0.76 1.92,1.32c0.56,0.56 1,1.24 1.32,1.96c0.32,0.76 0.48,1.56 0.48,2.4c0,0.84 -0.16,1.64 -0.48,2.4c-0.32,0.76 -0.76,1.4 -1.28,1.96c-0.52,0.56 -1.16,1 -1.88,1.32c-0.72,0.32 -1.52,0.48 -2.32,0.48c-0.84,0 -1.64,-0.16 -2.36,-0.48c-0.72,-0.32 -1.36,-0.76 -1.92,-1.32c-0.56,-0.56 -1,-1.2 -1.28,-1.96c-0.32,-0.76 -0.48,-1.56 -0.48,-2.4c0,-0.84 0.16,-1.64 0.48,-2.4c0.32,-0.76 0.76,-1.4 1.28,-1.96c0.52,-0.56 1.16,-1 1.88,-1.32c0.72,-0.32 1.48,-0.48 2.32,-0.48Z" style="fill:#4f4f4f;fill-rule:nonzero;"/><path d="M110.16,56.02c0,0.48 -0.08,0.96 -0.28,1.4c-0.2,0.44 -0.48,0.8 -0.8,1.12c-0.36,0.32 -0.76,0.6 -1.2,0.8c-0.92,0.4 -2.04,0.4 -2.96,0c-0.44,-0.2 -0.84,-0.44 -1.16,-0.8c-0.32,-0.32 -0.6,-0.72 -0.8,-1.16c-0.2,-0.44 -0.28,-0.88 -0.28,-1.4l0,-12.08l-3.76,0l0,12.2c0,1.04 0.2,2.04 0.6,2.92c0.4,0.88 0.92,1.64 1.6,2.24c0.68,0.6 1.48,1.12 2.36,1.44c0.92,0.36 1.88,0.52 2.92,0.52c1.04,0 2,-0.16 2.92,-0.52c0.92,-0.36 1.72,-0.84 2.4,-1.44c0.68,-0.6 1.24,-1.36 1.6,-2.24c0.4,-0.88 0.6,-1.84 0.6,-2.92l0,-12.2l-3.76,0l0,12.12Z" style="fill:#4f4f4f;fill-rule:nonzero;"/><rect x="156.4" y="43.9" width="3.76" height="19.12" style="fill:#4f4f4f;"/><path d="M199.44,50.22c-0.36,-1.16 -1,-2.24 -1.84,-3.16c-0.84,-0.92 -1.92,-1.68 -3.28,-2.28c-1.32,-0.6 -2.96,-0.88 -4.88,-0.88l-5.12,0l0,19.12l6.08,0c1.28,0 2.52,-0.2 3.68,-0.64c1.16,-0.44 2.2,-1.04 3.08,-1.84c0.88,-0.8 1.56,-1.8 2.08,-2.92c0.52,-1.16 0.76,-2.44 0.76,-3.88c0,-1.16 -0.2,-2.36 -0.56,-3.52Zm-3.2,3.32c0,0.96 -0.16,1.84 -0.48,2.56c-0.32,0.72 -0.76,1.32 -1.28,1.84c-0.56,0.48 -1.24,0.88 -2,1.12c-0.76,0.24 -1.64,0.4 -2.56,0.4l-1.76,0l0,-11.92l2.16,0c0.64,0 1.32,0.12 2.04,0.32c0.68,0.2 1.36,0.56 1.92,1.04c0.56,0.48 1.04,1.08 1.44,1.84c0.32,0.76 0.52,1.68 0.52,2.8Z" style="fill:#4f4f4f;fill-rule:nonzero;"/><path d="M151.6,44.02c-0.32,0.44 -0.68,0.92 -1.12,1.56c-0.44,0.6 -0.92,1.28 -1.48,2.04c-0.52,0.76 -1.08,1.48 -1.64,2.24c-0.56,0.76 -1.12,1.52 -1.64,2.24c-0.52,0.72 -1,1.4 -1.4,1.96c-0.4,0.56 -0.76,1.04 -1.04,1.44l-0.2,0.28c-0.08,-0.12 -0.16,-0.24 -0.28,-0.36c-0.28,-0.4 -0.64,-0.88 -1.08,-1.48c-0.44,-0.6 -0.88,-1.24 -1.44,-1.96l-3.24,-4.44c-0.52,-0.72 -1,-1.4 -1.44,-2c-0.44,-0.6 -0.8,-1.12 -1.08,-1.52l-0.32,-0.48l-0.84,0l0,19.48l3.76,0l0,-9.28l0.96,1.32c0.44,0.6 0.92,1.28 1.44,2c0.52,0.72 1,1.4 1.44,2c0.44,0.64 0.84,1.16 1.16,1.64c0.32,0.48 0.56,0.76 0.64,0.84l0.28,0.32l5.76,-8.12l0,9.28l3.96,0l0,-19.48l-0.84,0l-0.32,0.48Z" style="fill:#4f4f4f;fill-rule:nonzero;"/><path d="M177,55.14c-0.16,-0.16 -0.36,-0.36 -0.6,-0.64c-0.4,-0.4 -0.88,-0.88 -1.48,-1.4c-0.6,-0.56 -1.24,-1.16 -1.96,-1.84c-0.72,-0.68 -1.44,-1.36 -2.2,-2.04l-2.2,-2c-0.72,-0.64 -1.36,-1.28 -1.96,-1.84c-0.6,-0.56 -1.08,-1.04 -1.48,-1.44c-0.12,-0.12 -0.24,-0.24 -0.32,-0.32l-0.08,-0.08l-0.92,0l0,19.48l3.76,0l0,-11.52c0.16,0.16 0.36,0.4 0.64,0.68c0.4,0.4 0.88,0.88 1.48,1.44c0.6,0.56 1.24,1.2 1.96,1.88c0.72,0.68 1.44,1.36 2.2,2.08c0.76,0.72 1.48,1.4 2.2,2.08l1.96,1.88c0.6,0.56 1.08,1.04 1.48,1.44c0.12,0.12 0.2,0.2 0.32,0.32l0.08,0.12l0.96,0l0,-19.52l-3.76,0l-0.08,11.24Z" style="fill:#4f4f4f;fill-rule:nonzero;"/><path d="M128.48,54.58c0.52,-0.6 0.92,-1.32 1.16,-2.08c0.24,-0.76 0.36,-1.56 0.36,-2.32c0,-0.96 -0.16,-1.84 -0.52,-2.64c-0.32,-0.8 -0.84,-1.44 -1.44,-2c-0.6,-0.52 -1.36,-0.96 -2.24,-1.24c-0.88,-0.28 -1.84,-0.44 -2.88,-0.44l-5.56,0l0,19.16l3.76,0l0,-6.36l1.52,0l4.12,6.28l4.84,0l-4.72,-7.08c0.64,-0.36 1.16,-0.76 1.6,-1.28Zm-2.28,-4.32c0,0.24 -0.04,0.56 -0.12,0.88c-0.08,0.32 -0.24,0.64 -0.48,0.92c-0.24,0.28 -0.52,0.52 -0.92,0.72c-0.36,0.2 -0.84,0.28 -1.44,0.28l-2.16,0l0,-5.6l2.16,0c0.6,0 1.08,0.08 1.48,0.28c0.36,0.2 0.68,0.44 0.88,0.72c0.2,0.28 0.36,0.6 0.44,0.92c0.12,0.36 0.16,0.64 0.16,0.88Z" style="fill:#4f4f4f;fill-rule:nonzero;"/><path d="M50.16,53.78l3.72,-6.4l-6.8,0l0,-3.48l12.4,0l-0.28,0.48c-0.64,1.12 -1.28,2.24 -1.92,3.36c-0.6,1 -1.2,2 -1.76,3.04c1.04,0.6 1.88,1.36 2.52,2.28c0.72,1.04 1.08,2.24 1.08,3.6c0,0.92 -0.16,1.76 -0.52,2.56c-0.36,0.8 -0.84,1.52 -1.44,2.12c-0.6,0.6 -1.32,1.08 -2.12,1.4c-0.8,0.36 -1.68,0.52 -2.56,0.52c-0.92,0 -1.84,-0.2 -2.68,-0.6c-0.08,-0.04 -0.12,-0.04 -0.16,-0.08l-0.12,-0.04c-0.08,-0.04 -0.16,-0.08 -0.24,-0.12c-0.08,-0.04 -0.12,-0.08 -0.2,-0.12c-0.12,-0.08 -0.28,-0.16 -0.4,-0.28l-0.08,-0.08c-0.16,-0.12 -0.32,-0.24 -0.48,-0.36l-0.04,-0.04c-0.16,-0.12 -0.28,-0.28 -0.44,-0.4l-0.28,-0.28c-0.6,-0.72 -1.04,-1.56 -1.28,-2.44l-0.08,-0.24l3.2,-1.68l0.08,0.44c0.24,1.56 1.68,2.84 3.2,2.88c0.4,0 0.8,-0.08 1.16,-0.24c0.4,-0.16 0.72,-0.4 1,-0.68c0.28,-0.28 0.52,-0.6 0.68,-1c0.16,-0.36 0.24,-0.8 0.24,-1.24c0,-0.4 -0.08,-0.8 -0.24,-1.2c-0.16,-0.4 -0.4,-0.72 -0.68,-1c-0.28,-0.28 -0.6,-0.48 -1,-0.64c-0.36,-0.16 -0.76,-0.24 -1.2,-0.24c-0.64,0 -1.24,0.12 -1.72,0.4l-0.24,0.12l-0.32,-0.32l0.12,-0.24" style="fill:#4f4f4f;fill-rule:nonzero;"/></svg>
