<svg clip-rule="evenodd" fill-rule="evenodd" stroke-linejoin="round" stroke-miterlimit="1.4" viewBox="0 0 200 100" xmlns="http://www.w3.org/2000/svg">
  <g fill-rule="nonzero">
    <path d="M0 37h13l6.2-6.2h-13z" fill="#78a0db"/>
    <path d="M13 37v13l6.2-6.2v-13z" fill="#2c66c4"/>
    <path d="M6.8 56.2h13L26 50H13z" fill="#78a0db"/>
    <path d="M19.8 56.2v13L26 63V50z" fill="#2c66c4"/>
    <path d="M19.2 43.8h13l6.2-6.2h-13z" fill="#78a0db"/>
    <path d="M32.2 43.8v13l6.2-6.2v-13z" fill="#2c66c4"/>
    <path d="M73.9 43.9l-.1.2-.4.7-3.4 6.6-.7 1.5-.8-1.5-.9-1.7-1-1.9-.8-1.7-.7-1.3-.4-.7-.1-.2h-4.4l.4.6.6 1 1.2 2.3c.4 1 1 1.9 1.6 2.9l1.6 2.8 1.2 2.3.6 1v6.3h3.8v-6.3l7-13h-4.3zm19.9 2.7a10 10 0 00-7-3c-1.3 0-2.5.3-3.7.9-1.2.5-2.2 1.2-3.1 2a9.3 9.3 0 00-2 3.2 10 10 0 002 10.7 9.5 9.5 0 006.9 2.8c1.3 0 2.6-.2 3.7-.7a10 10 0 005.3-5.2 10.2 10.2 0 000-7.6 9.5 9.5 0 00-2.1-3.1zm-6.9.7a6.2 6.2 0 012.4 11.8c-.7.4-1.5.6-2.3.6a5.8 5.8 0 01-4.3-1.8c-.5-.6-1-1.2-1.3-2a6.1 6.1 0 010-4.8c.4-.8.8-1.4 1.3-2s1.2-1 1.9-1.3 1.5-.5 2.3-.5zm23.3 8.7a3.4 3.4 0 01-1.1 2.5c-.4.4-.8.6-1.2.8-1 .4-2 .4-3 0-.4-.2-.8-.4-1.1-.8-.4-.3-.6-.7-.8-1.1s-.3-.9-.3-1.4V43.9h-3.8v12.2a7 7 0 002.2 5.2c.7.6 1.5 1 2.4 1.4.9.4 1.9.5 2.9.5a8 8 0 005.3-2A7 7 0 00114 56V44h-3.7z" fill="#4f4f4f"/>
  </g>
  <path d="M156.4 43.9h3.8V63h-3.8z" fill="#4f4f4f"/>
  <path d="M199.4 50.2c-.3-1.1-1-2.2-1.8-3.1s-2-1.7-3.3-2.3c-1.3-.6-3-.9-4.9-.9h-5V63h6a10.3 10.3 0 006.8-2.5 9 9 0 002.8-6.8 12 12 0 00-.6-3.5zm-3.2 3.3c0 1-.1 1.9-.4 2.6s-.8 1.3-1.3 1.8c-.6.5-1.3 1-2 1.2s-1.7.4-2.6.4h-1.7v-12h2.1c.7 0 1.3.2 2 .4s1.4.5 2 1 1 1 1.4 1.8c.3.8.5 1.7.5 2.8zM151.6 44l-1.1 1.6-1.5 2-1.6 2.3-1.7 2.2-1.4 2-1 1.4-.2.3-.3-.4-1-1.5a34 34 0 00-1.5-2l-3.3-4.4-1.4-2c-.4-.6-.8-1-1-1.5l-.4-.5h-.8V63h3.7v-9.3l1 1.4 1.4 2 1.5 2 1.1 1.6c.3.5.6.8.7.8l.2.4 5.8-8.2V63h4V43.5h-.9zM177 55.1l-.6-.6-1.5-1.4a448.7 448.7 0 01-4.1-3.9l-2.2-2-2-1.8-1.5-1.5-.3-.3h-1V63h3.8V51.5l.6.7 1.5 1.4 2 1.9 2.1 2 2.2 2.2 2 1.8 1.5 1.5.3.3v.1h1V44h-3.7zm-48.5-.5c.5-.6.9-1.3 1.1-2.1s.4-1.6.4-2.3c0-1-.2-1.9-.5-2.7-.3-.8-.9-1.4-1.5-2-.6-.5-1.3-1-2.2-1.2a9.4 9.4 0 00-2.9-.4h-5.5V63h3.7v-6.3h1.5l4.2 6.2h4.8l-4.7-7 1.6-1.3zm-2.3-4.3l-.1.8-.5 1c-.2.3-.5.5-1 .7a3 3 0 01-1.4.3h-2.1v-5.6h2.1c.6 0 1.1 0 1.5.2.4.2.7.5.9.8l.4.9c.2.3.2.6.2.9zm-76 3.5l3.7-6.4H47v-3.5h12.4l-.3.5-2 3.3-1.7 3c1 .7 1.9 1.4 2.5 2.4.8 1 1.1 2.2 1.1 3.6 0 .9-.1 1.7-.5 2.5a7.1 7.1 0 01-1.4 2.1c-.6.6-1.4 1.1-2.2 1.4-.8.4-1.6.6-2.5.6-1 0-1.9-.2-2.7-.6l-.2-.1-.3-.2-.2-.1-.4-.3h-.1l-.5-.4-.5-.5-.2-.2a6.5 6.5 0 01-1.3-2.5l-.1-.2 3.2-1.7v.4a3.5 3.5 0 003.3 3c.4 0 .8-.2 1.1-.3.4-.2.8-.4 1-.7l.7-1 .3-1.2-.3-1.2c-.2-.4-.4-.8-.7-1l-1-.7a3 3 0 00-1.2-.2c-.6 0-1.2.1-1.7.4l-.2.1-.3-.3v-.3" fill="#4f4f4f" fill-rule="nonzero"/>
</svg>
