<svg xmlns="http://www.w3.org/2000/svg" fill-rule="evenodd" stroke-linejoin="round" stroke-miterlimit="1.414" clip-rule="evenodd" viewBox="0 0 200 100"><g fill-rule="nonzero"><path fill="#78a0db" d="M0 36.98h13l6.24-6.2H6.2z"/><path fill="#2c66c4" d="M13 36.98v13.04l6.24-6.24v-13z"/><path fill="#78a0db" d="M6.8 56.22h13l6.24-6.2H13z"/><path fill="#2c66c4" d="M19.8 56.22v13l6.24-6.2v-13z"/><path fill="#78a0db" d="M19.24 43.78h13l6.2-6.2h-13z"/><path fill="#2c66c4" d="M32.24 43.78v13.04l6.2-6.24v-13z"/><path fill="#4f4f4f" d="M73.88 43.9l-.08.16c-.08.12-.2.36-.4.72l-3.36 6.64-.76 1.52v-.04c-.2-.44-.48-.92-.76-1.48s-.6-1.16-.92-1.76l-.96-1.84c-.32-.6-.6-1.2-.88-1.68-.28-.52-.52-.96-.68-1.32-.2-.36-.32-.6-.4-.72l-.08-.16h-4.36l.36.52c.04.04.16.28.6 1.08.32.64.76 1.4 1.24 2.28s1 1.84 1.56 2.84 1.04 1.96 1.56 2.84c.48.88.92 1.64 1.24 2.28.36.68.52.96.6 1.08v6.2h3.76v-6.28l7.04-12.92h-4.32zm19.92 2.68c-.88-.88-1.92-1.6-3.12-2.12s-2.44-.8-3.8-.8-2.6.28-3.8.8c-1.16.52-2.2 1.24-3.08 2.12a9.28 9.28 0 00-2.08 3.12c-.52 1.2-.76 2.44-.76 3.8s.28 2.6.76 3.8c.52 1.16 1.2 2.2 2.08 3.08s1.92 1.6 3.08 2.08c1.16.52 2.44.76 3.8.76 1.32 0 2.6-.24 3.76-.76 1.2-.52 2.24-1.2 3.12-2.08s1.6-1.92 2.12-3.08.76-2.44.76-3.8c0-1.32-.28-2.6-.76-3.8a9.481 9.481 0 00-2.08-3.12zm-6.88.76c.84 0 1.6.16 2.32.48s1.36.76 1.92 1.32 1 1.24 1.32 1.96c.32.76.48 1.56.48 2.4s-.16 1.64-.48 2.4-.76 1.4-1.28 1.96-1.16 1-1.88 1.32-1.52.48-2.32.48c-.84 0-1.64-.16-2.36-.48s-1.36-.76-1.92-1.32-1-1.2-1.28-1.96c-.32-.76-.48-1.56-.48-2.4s.16-1.64.48-2.4.76-1.4 1.28-1.96 1.16-1 1.88-1.32 1.48-.48 2.32-.48zm23.24 8.68c0 .48-.08.96-.28 1.4s-.48.8-.8 1.12c-.36.32-.76.6-1.2.8-.92.4-2.04.4-2.96 0-.44-.2-.84-.44-1.16-.8-.32-.32-.6-.72-.8-1.16s-.28-.88-.28-1.4V43.9h-3.76v12.2c0 1.04.2 2.04.6 2.92s.92 1.64 1.6 2.24 1.48 1.12 2.36 1.44c.92.36 1.88.52 2.92.52s2-.16 2.92-.52 1.72-.84 2.4-1.44 1.24-1.36 1.6-2.24c.4-.88.6-1.84.6-2.92V43.9h-3.76z"/></g><path fill="#4f4f4f" d="M156.4 43.9h3.76v19.12h-3.76z"/><path fill="#4f4f4f" fill-rule="nonzero" d="M199.44 50.22c-.36-1.16-1-2.24-1.84-3.16s-1.92-1.68-3.28-2.28c-1.32-.6-2.96-.88-4.88-.88h-5.12v19.12h6.08c1.28 0 2.52-.2 3.68-.64s2.2-1.04 3.08-1.84 1.56-1.8 2.08-2.92c.52-1.16.76-2.44.76-3.88 0-1.16-.2-2.36-.56-3.52zm-3.2 3.32c0 .96-.16 1.84-.48 2.56s-.76 1.32-1.28 1.84c-.56.48-1.24.88-2 1.12s-1.64.4-2.56.4h-1.76V47.54h2.16c.64 0 1.32.12 2.04.32.68.2 1.36.56 1.92 1.04s1.04 1.08 1.44 1.84c.32.76.52 1.68.52 2.8zm-44.64-9.52c-.32.44-.68.92-1.12 1.56-.44.6-.92 1.28-1.48 2.04-.52.76-1.08 1.48-1.64 2.24s-1.12 1.52-1.64 2.24-1 1.4-1.4 1.96-.76 1.04-1.04 1.44l-.2.28c-.08-.12-.16-.24-.28-.36-.28-.4-.64-.88-1.08-1.48s-.88-1.24-1.44-1.96l-3.24-4.44c-.52-.72-1-1.4-1.44-2s-.8-1.12-1.08-1.52l-.32-.48h-.84v19.48h3.76v-9.28l.96 1.32c.44.6.92 1.28 1.44 2s1 1.4 1.44 2c.44.64.84 1.16 1.16 1.64s.56.76.64.84l.28.32 5.76-8.12v9.28h3.96V43.54h-.84zM177 55.14c-.16-.16-.36-.36-.6-.64-.4-.4-.88-.88-1.48-1.4-.6-.56-1.24-1.16-1.96-1.84s-1.44-1.36-2.2-2.04l-2.2-2c-.72-.64-1.36-1.28-1.96-1.84s-1.08-1.04-1.48-1.44l-.32-.32-.08-.08h-.92v19.48h3.76V51.5c.16.16.36.4.64.68.4.4.88.88 1.48 1.44s1.24 1.2 1.96 1.88 1.44 1.36 2.2 2.08 1.48 1.4 2.2 2.08l1.96 1.88c.6.56 1.08 1.04 1.48 1.44l.32.32.08.12h.96V43.9h-3.76zm-48.52-.56c.52-.6.92-1.32 1.16-2.08s.36-1.56.36-2.32c0-.96-.16-1.84-.52-2.64-.32-.8-.84-1.44-1.44-2-.6-.52-1.36-.96-2.24-1.24a9.45 9.45 0 00-2.88-.44h-5.56v19.16h3.76v-6.36h1.52l4.12 6.28h4.84l-4.72-7.08c.64-.36 1.16-.76 1.6-1.28zm-2.28-4.32c0 .24-.04.56-.12.88s-.24.64-.48.92-.52.52-.92.72c-.36.2-.84.28-1.44.28h-2.16v-5.6h2.16c.6 0 1.08.08 1.48.28.36.2.68.44.88.72s.36.6.44.92c.12.36.16.64.16.88zm-76.04 3.52l3.72-6.4h-6.8V43.9h12.4l-.28.48-1.92 3.36c-.6 1-1.2 2-1.76 3.04 1.04.6 1.88 1.36 2.52 2.28.72 1.04 1.08 2.24 1.08 3.6 0 .92-.16 1.76-.52 2.56a7.1 7.1 0 01-1.44 2.12c-.6.6-1.32 1.08-2.12 1.4-.8.36-1.68.52-2.56.52-.92 0-1.84-.2-2.68-.6-.08-.04-.12-.04-.16-.08l-.12-.04-.24-.12c-.08-.04-.12-.08-.2-.12-.12-.08-.28-.16-.4-.28l-.08-.08-.48-.36-.04-.04c-.16-.12-.28-.28-.44-.4l-.28-.28a6.51 6.51 0 01-1.28-2.44l-.08-.24 3.2-1.68.08.44c.24 1.56 1.68 2.84 3.2 2.88.4 0 .8-.08 1.16-.24.4-.16.72-.4 1-.68s.52-.6.68-1c.16-.36.24-.8.24-1.24 0-.4-.08-.8-.24-1.2s-.4-.72-.68-1-.6-.48-1-.64c-.36-.16-.76-.24-1.2-.24-.64 0-1.24.12-1.72.4l-.24.12-.32-.32.12-.24"/></svg>