<svg viewBox="0 0 200 100" xmlns="http://www.w3.org/2000/svg">
  <g fill="none">
    <path d="M181.4 59.5l4.6-8.3-83.2-45.8L93 0l-9.8 5.4L0 51.2l4.6 8.3 16.3-9V98h9.3v-4.6h.1c2.1 4 6.4 5.6 11.7 5.6 7.1 0 14.7-5.7 14.7-18.8 0-13-7.6-18.6-14.6-18.6-4.4 0-8.8 1.6-11.2 5.3h-.1V45L93 10.8l62.2 34.3v21.8h-.1a12.2 12.2 0 00-10.5-5.3c-10.4 0-15.7 8.8-15.7 18.4 0 9.8 5.2 19 15.9 19 4.5 0 8.5-1.6 10.7-5.5h.2v4.6h9.3V50.4l16.4 9zM38.6 68.9c5.7 0 8.3 5.5 8.3 11.4s-2.6 11.4-8.3 11.4-8.3-5.5-8.3-11.4S33 69 38.6 69zm108.6 22.8c-6 0-8.5-5.9-8.5-11.4 0-5.9 2.2-11.4 8.5-11.4 6.4 0 8.4 5.5 8.4 11.3 0 5.8-2 11.5-8.4 11.5z" fill="#66676C"/>
    <path d="M85.3 81.4c0 7-2.2 10-7.5 10-4.4 0-6.1-2.8-6.1-8.6V63H62v21.6C62 93.1 64.6 99 74.9 99a12.6 12.6 0 0010.7-5.8h.2V98H95V63h-9.7v18.4zM114 46h10v52h-10z" fill="#66676C"/>
    <path fill="#00A79F" d="M99 94.7l10 5.3V61l-10 5.3z"/>
    <path d="M178.7 89v2.7c.5 0 1 .3 1.4.7.4.4.6.9.5 1.4 0 1.8-1.5 2.5-3.1 2.5s-3.1-.7-3.1-2.5a1.9 1.9 0 011.6-2V89c-2.6 0-4 2.5-4 4.8 0 3.2 2.4 5.2 5.5 5.2s5.5-2 5.5-5.2c0-2.7-1.6-4.7-4.3-4.8zm-1.2-11c-3 0-5.5 1.8-5.5 5s2.4 5 5.5 5 5.5-1.8 5.5-5-2.4-5-5.5-5zm0 7.4c-1.6 0-3.1-.7-3.1-2.4s1.5-2.4 3.1-2.4 3.1.7 3.1 2.4-1.5 2.4-3.1 2.4zm5.5-16.8V66h-10v4.1l6.7 1.9-6.7 2v4h10v-2.6h-7.6L183 73v-2.2l-7.6-2.2zm3 26.4a2 2 0 102 2 2 2 0 00-2-2zm0 3.7a1.7 1.7 0 111.6-1.7 1.7 1.7 0 01-1.6 1.7z" fill="#66676C"/>
    <path d="M187 96.6c0-.2-.1-.4-.3-.5a.9.9 0 00-.7 0h-1V98h.4v-.9h.4l.8.9h.4l-.8-.9c.4 0 .7-.2.8-.5zm-1.2.3h-.4v-.7h.6c.2 0 .5 0 .5.4s-.3.3-.7.3z" fill="#66676C"/>
  </g>
</svg>
