<svg width="142" height="21" fill="none" xmlns="http://www.w3.org/2000/svg">
  <path d="M41 14.2c-2.5 0-4.2-2-4.2-4.5s1.7-4.5 4.2-4.5c2 0 3.2 1.4 3.2 1.4l1.5-1.4s-1.7-2-4.7-2c-3.6 0-6.4 2.8-6.4 6.5s2.8 6.5 6.4 6.5c3.2 0 4.8-2.1 4.8-2.1l-1.4-1.4s-1.2 1.5-3.4 1.5zm9.6.2c-.7 0-1.6-.2-1.6-1 0-1 1-1.3 1.6-1.3 1.2 0 2 .4 2 .4v1s-.7 1-2 1zm.2-7.1c-1.7 0-3.3.7-3.3.7l.7 1.8s1.3-.6 2.5-.6c.8 0 1.9.3 1.9 1.5v.4s-.8-.6-2.4-.6c-1.9 0-3.4 1.2-3.4 2.9 0 1.8 1.5 2.8 3.1 2.8 2 0 2.8-1.3 2.8-1.3V16h2v-5.6c0-2-1.4-3.1-3.9-3.1zm16 0c-2 0-2.7 1.4-2.7 1.4s-.6-1.4-2.7-1.4c-1.7 0-2.5 1.4-2.5 1.4V7.5h-2V16H59v-5.6s.5-1.1 1.6-1.1 1.6.6 1.6 1.8V16h2.1v-5.6s.6-1.1 1.7-1.1c1 0 1.5.6 1.5 1.8V16h2.2v-5.5c0-2-1.3-3.2-3-3.2zm5.1.2V20h2.2v-5a3 3 0 002.4 1.1c2.2 0 4.2-1.8 4.2-4.5s-2-4.4-4.2-4.4c-1.8 0-2.6 1.3-2.6 1.3V7.5h-2zm2.2 3s.6-1.2 2-1.2c1.5 0 2.4 1 2.4 2.4s-1 2.5-2.4 2.5-2-1.2-2-1.2v-2.5zm11.3 5.7a3 3 0 002.5-1.4V16h2V7.5h-2.1v5.7s-.6 1-1.7 1c-1 0-1.7-.5-1.7-1.8v-5h-2.1V13a3 3 0 003 3.2zm6.2-1.5s1.3 1.5 3.8 1.5c2.2 0 3.8-1.2 3.8-2.6 0-1.8-1.2-2.3-3-2.7-1.4-.3-2-.4-2-1s.8-.8 1.6-.8c1.1 0 2.1.8 2.1.8L99 8.3s-1.3-1-3.2-1c-2.3 0-3.7 1.3-3.7 2.6 0 1.6 1.5 2.4 3.2 2.7 1.3.3 1.7.4 1.7 1 0 .5-.8.7-1.6.7-1.5 0-2.6-1.2-2.6-1.2l-1.2 1.6zm7.2 5.1s.8.6 2 .6c1.3 0 3.2-.8 3.2-3.6V7.5h-2.2v9c0 1.7-.8 1.8-1.2 1.8-.5 0-1-.3-1-.3l-.8 1.8zm2.6-15c0 .7.7 1.3 1.5 1.3s1.4-.6 1.4-1.4c0-.8-.6-1.4-1.4-1.4-.8 0-1.5.6-1.5 1.4zm8.4 9.6c-.7 0-1.6-.2-1.6-1 0-1 1-1.3 1.6-1.3 1.2 0 2 .4 2 .4v1s-.7 1-2 1zm.2-7.1c-1.7 0-3.3.7-3.3.7l.7 1.8s1.3-.6 2.5-.6c.8 0 1.9.3 1.9 1.5v.4s-.8-.6-2.4-.6c-1.9 0-3.3 1.2-3.3 2.9 0 1.8 1.4 2.8 3 2.8 2 0 2.8-1.3 2.8-1.3V16h2v-5.6c0-2-1.4-3.1-3.9-3.1zm-3-2.7c0 .8.7 1.5 1.5 1.5s1.4-.7 1.4-1.5c0-.7-.6-1.4-1.4-1.4-.8 0-1.4.7-1.4 1.4zm3.8 0c0 .8.6 1.5 1.4 1.5.8 0 1.4-.7 1.4-1.5 0-.7-.6-1.4-1.4-1.4-.8 0-1.4.7-1.4 1.4zM122 15.1v1c0 1.3-.8 2.2-2.4 2.2a4.3 4.3 0 01-2.9-1.2l-1.2 1.6s1.6 1.7 4 1.7c2.5 0 4.7-1.4 4.7-4.3V7.5h-2v1s-.8-1.2-2.6-1.2c-2.2 0-4.2 1.8-4.2 4.4s2 4.5 4.2 4.5a3 3 0 002.4-1zm0-2s-.6 1.1-2 1.1c-1.5 0-2.4-1-2.4-2.5 0-1.4.9-2.4 2.4-2.4 1.4 0 2 1.2 2 1.2V13zm8-5.8c-2.4 0-4.3 2-4.3 4.4 0 2.5 2 4.5 4.6 4.5 2.1 0 3.4-1.2 3.4-1.2l-1-1.6s-.9.8-2.4.8c-1.3 0-2.2-1-2.4-1.7h6.4v-.8c0-2.6-2-4.4-4.3-4.4zm-2 3.6c0-.7.6-1.7 2-1.7s2.1 1 2.2 1.7H128zm12.3-3.6c-1.6 0-2.3 1.4-2.3 1.4V7.5h-2V16h2v-5.6s.7-1.1 2-1.1c.6 0 1 .2 1 .2l.8-2s-.7-.2-1.5-.2z" fill="#333"/>
  <path d="M24 1.4L7.3 13a.3.3 0 01-.3 0L1 10a.3.3 0 010-.5L23.7 1c.3-.1.6.3.3.5zM10.7 16l-1.1 1.6c-.2.2 0 .6.3.4l2-1a.3.3 0 000-.6l-.9-.5a.3.3 0 00-.4.1zm8.8 3.4l-7.8-3.9a.3.3 0 010-.5L26.9 1.1c.2-.2.6 0 .4.3L20 19.2a.3.3 0 01-.4.2zm-9.7-4L8.4 18a.3.3 0 01-.5 0l-.6-3.7a.3.3 0 010-.3C9 12.8 24.7 1.5 25 1.8c.3.3-14.1 12.7-15 13.5z" fill="#FC3F74"/>
</svg>
