<svg width="142" height="21" viewBox="0 0 142 21" fill="none" xmlns="http://www.w3.org/2000/svg"><path d="M41.002 14.2c-2.484 0-4.194-2.07-4.194-4.5s1.71-4.5 4.194-4.5c2.07 0 3.204 1.386 3.204 1.386l1.458-1.422s-1.638-1.98-4.662-1.98c-3.636 0-6.39 2.79-6.39 6.516s2.754 6.516 6.39 6.516c3.186 0 4.842-2.142 4.842-2.142l-1.44-1.422S43.216 14.2 41.002 14.2zm9.59.216c-.666 0-1.548-.198-1.548-1.098 0-.918.918-1.206 1.584-1.206 1.17 0 1.944.432 1.944.432v.882s-.684.99-1.98.99zm.252-7.164c-1.782 0-3.366.774-3.366.774l.702 1.782s1.314-.63 2.556-.63c.756 0 1.836.36 1.836 1.476v.486s-.81-.612-2.376-.612c-1.854 0-3.348 1.188-3.348 2.826 0 1.818 1.476 2.862 3.078 2.862 1.926 0 2.808-1.296 2.808-1.296V16h1.998v-5.562c0-1.944-1.44-3.186-3.888-3.186zm15.95 0c-1.998 0-2.718 1.494-2.718 1.494s-.593-1.494-2.645-1.494c-1.746 0-2.52 1.458-2.52 1.458V7.468h-2.017V16h2.16v-5.634s.54-1.098 1.674-1.098c1.08 0 1.53.63 1.53 1.8V16h2.16v-5.634s.54-1.098 1.674-1.098c1.08 0 1.53.63 1.53 1.8V16h2.16v-5.49c0-2.052-1.26-3.258-2.987-3.258zm5.147.216V20.14h2.16v-5.022c.288.36 1.062 1.098 2.412 1.098 2.214 0 4.158-1.854 4.158-4.482s-1.944-4.482-4.158-4.482c-1.764 0-2.574 1.332-2.574 1.332V7.468h-1.998zm2.16 2.988s.612-1.188 2.034-1.188c1.458 0 2.34 1.062 2.34 2.466 0 1.404-.882 2.466-2.34 2.466-1.422 0-2.034-1.188-2.034-1.188v-2.556zm11.29 5.76c1.747 0 2.557-1.458 2.557-1.458V16h2.016V7.468h-2.16v5.688s-.576 1.044-1.692 1.044c-1.098 0-1.692-.54-1.692-1.8V7.468h-2.16v5.526c0 2.052 1.494 3.222 3.132 3.222zm6.19-1.548s1.35 1.548 3.852 1.548c2.178 0 3.726-1.17 3.726-2.628 0-1.764-1.206-2.322-2.898-2.682-1.44-.306-2.016-.432-2.016-.954s.738-.81 1.548-.81c1.152 0 2.124.738 2.124.738l1.08-1.584s-1.278-1.044-3.204-1.044c-2.34 0-3.672 1.332-3.672 2.664 0 1.62 1.476 2.34 3.168 2.7 1.296.27 1.692.378 1.692.936 0 .522-.738.774-1.62.774-1.44 0-2.574-1.224-2.574-1.224l-1.206 1.566zm7.18 5.13s.846.558 2.034.558c1.278 0 3.168-.792 3.168-3.582V7.468h-2.16v9.108c0 1.656-.774 1.764-1.242 1.764-.468 0-1.026-.36-1.026-.36l-.774 1.818zm2.682-15.084c0 .792.63 1.422 1.422 1.422.792 0 1.422-.63 1.422-1.422 0-.792-.63-1.422-1.422-1.422-.792 0-1.422.63-1.422 1.422zm8.352 9.702c-.666 0-1.548-.198-1.548-1.098 0-.918.918-1.206 1.584-1.206 1.17 0 1.944.432 1.944.432v.882s-.684.99-1.98.99zm.252-7.164c-1.782 0-3.366.774-3.366.774l.702 1.782s1.314-.63 2.556-.63c.756 0 1.836.36 1.836 1.476v.486s-.81-.612-2.376-.612c-1.854 0-3.348 1.188-3.348 2.826 0 1.818 1.476 2.862 3.078 2.862 1.926 0 2.808-1.296 2.808-1.296V16h1.998v-5.562c0-1.944-1.44-3.186-3.888-3.186zm-2.97-2.61c0 .792.63 1.422 1.422 1.422.792 0 1.422-.63 1.422-1.422 0-.792-.63-1.422-1.422-1.422-.792 0-1.422.63-1.422 1.422zm3.708 0c0 .792.63 1.422 1.422 1.422.792 0 1.422-.63 1.422-1.422 0-.792-.63-1.422-1.422-1.422-.792 0-1.422.63-1.422 1.422zm11.307 10.476v1.026c0 1.278-.756 2.196-2.43 2.196-1.638 0-2.826-1.26-2.826-1.26l-1.224 1.656s1.602 1.62 4.05 1.62c2.394 0 4.59-1.314 4.59-4.284V7.468h-1.998v1.116s-.792-1.332-2.574-1.332c-2.214 0-4.158 1.854-4.158 4.482s1.944 4.482 4.158 4.482c1.35 0 2.124-.738 2.412-1.098zm0-2.106s-.63 1.188-2.034 1.188c-1.458 0-2.34-1.062-2.34-2.466 0-1.404.882-2.466 2.34-2.466 1.422 0 2.034 1.188 2.034 1.188v2.556zm8.032-5.76c-2.466 0-4.284 1.98-4.284 4.482 0 2.502 1.998 4.482 4.59 4.482 2.07 0 3.42-1.224 3.42-1.224l-1.08-1.62s-.846.864-2.34.864c-1.35 0-2.232-.972-2.394-1.728h6.372c.018-.324.018-.648.018-.81 0-2.628-1.962-4.446-4.302-4.446zm-2.088 3.69c.072-.756.702-1.728 2.088-1.728 1.422 0 2.106.99 2.142 1.728h-4.23zm12.352-3.69c-1.584 0-2.322 1.458-2.322 1.458V7.468h-2.052V16h2.16v-5.58s.594-1.152 1.908-1.152c.63 0 1.026.198 1.026.198l.756-1.944s-.702-.27-1.476-.27z" fill="#333"/><path d="M23.997 1.405L7.282 13.041a.3.3 0 0 1-.307.021L1.1 10.068a.3.3 0 0 1 .03-.548L23.717.88c.33-.127.57.324.279.526zM10.65 16.044l-1.087 1.531c-.183.258.107.588.386.438l2.044-1.09a.3.3 0 0 0-.015-.538l-.958-.44a.3.3 0 0 0-.37.099zm8.844 3.322l-7.757-3.832a.3.3 0 0 1-.07-.49L26.85 1.099c.237-.217.604.04.48.337l-7.426 17.777a.3.3 0 0 1-.41.153zm-9.666-4.008l-1.392 2.676a.3.3 0 0 1-.562-.089l-.616-3.676a.282.282 0 0 1 .11-.285c1.65-1.195 17.275-12.495 17.554-12.193.286.309-14.126 12.707-15.023 13.478a.299.299 0 0 0-.07.09z" fill="#FC3F74"/></svg>