<svg viewBox="0 0 673.4 104.6" xmlns="http://www.w3.org/2000/svg">
  <path d="M56.4 82.3c-4 0-5.8-2.2-5-5.9l6.3-27.3 7.7-31.5a20.8 20.8 0 01.7-2.1c1.1-3.2 3.5-4.4 6.9-3.4 2.8.8 4 3 3.3 6.2l-8.6 36.2L62 77.6c-1 3.6-2.4 4.7-5.6 4.7z" fill="#ff7c41"/>
  <path d="M168.8 73.7l-6-2.6-38-16.4a2 2 0 01-1.4-2.2v-8.2a1.5 1.5 0 011-1.7L167.7 24l1.2-.4v11.9c0 .4-.9 1-1.4 1.2l-28 10.9-2.3.9 1.9.9 28.4 11.2a1.9 1.9 0 011.4 2.1v11z" fill="#00d664"/>
  <path d="M100 52.4l-1.4-1a18 18 0 01-8-13.6c-.3-3.5-.4-7.2-.6-10.8l-.4-8.5c-.2-3.6-1.6-5-5-5.5-4.7-.6-6.9-4-5.7-8.6a5.2 5.2 0 014.3-4c10-1.9 19.7 4 20.2 15l.6 18a13 13 0 006.1 11.3l2.3 1.5c5 2.8 4.1 10.5-.3 12.5a19.4 19.4 0 00-1.7 1.1c-4.5 2.7-6.2 6.7-6.4 11.7l-.6 18a15.4 15.4 0 01-15.1 15 19.3 19.3 0 01-6-.6c-2.7-.8-4-3.5-3.6-6.7s2-5 5-5.5c4.6-.7 5.7-1.7 6-6.4l.6-14.7c.2-7.4 2.5-13.6 9-17.7zm-54.5 21l-6-2.5-38-16.4A2 2 0 010 52.3v-8.2a1.5 1.5 0 011.1-1.7l43.2-18.7 1.2-.4v11.9c0 .4-.8 1-1.4 1.2L16 47.3l-2.2 1 1.8.8 28.5 11.2a1.9 1.9 0 011.4 2.1v11z" fill="#ff7c41"/>
  <path d="M254.5 58.1a4.6 4.6 0 00-5.3 2.4c-.7 1.1-1.1 2.4-1.7 3.6a14 14 0 01-13.5 9.3 14 14 0 01-13.8-8.1 23 23 0 01-2.2-8.6c-.5-5.6-.3-11.2 2.1-16.5 2.3-5 6-8.2 11.6-9 6-.8 10.9 1.1 14.3 6.2 1.2 1.8 2.2 3.7 3.4 5.4a5 5 0 008.7-2 9 9 0 00-.2-3.9 19 19 0 00-9-11.1c-6-3.8-12.6-4.8-19.5-3.8a25 25 0 00-19.6 13.3 36.1 36.1 0 00-1.2 31.5 23.8 23.8 0 0012.9 13.7 29.8 29.8 0 0011.9 2.3c8.6 0 15.2-2.5 20-7.8 3-3.5 5.2-7.5 5-12.3a5 5 0 00-3.9-4.6z" fill="#424243"/>
  <path d="M466.6 58.2a4.7 4.7 0 00-5.4 2.6l-.9 2a41.5 41.5 0 01-3 5.6c-2.8 3.6-6.7 5-11.1 5.1a14 14 0 01-12.4-5.8 21.2 21.2 0 01-3.6-10.5c-.6-5.7-.4-11.3 1.9-16.6 2.3-5.6 6.6-9 12.7-9.5s10.7 1.9 13.9 7.1l2.8 4.5a4.7 4.7 0 005.9 1.6 5.2 5.2 0 003-5.4c-.9-6-4.5-10-9.4-13-6.2-4-13-4.9-20-3.7-9 1.6-16 6.4-19.8 15-4.2 9.2-4.3 19-.8 28.4A24.4 24.4 0 00432.7 80a28.7 28.7 0 0013 2.7c7.5 0 13.8-1.7 19-6.8 3.4-3.6 5.8-7.7 6-12.8a5 5 0 00-4.1-5z" fill="#ff7c41"/>
  <path d="M358.8 26.1c-.5-3-2.1-4.4-5-4.4s-4.3 1.4-4.8 4.2a17.5 17.5 0 00-.3 3.2v15.6l-1.3-1a18 18 0 00-14.7-5.5 16.6 16.6 0 00-12.3 6.5 21.8 21.8 0 00-4.4 11.8c-.6 6.4.1 12.6 3.6 18.1a16.7 16.7 0 0024 5.4 60 60 0 005-4.2l.1 1.7c.2 3 2 5.2 4.7 5.3 3 .2 4.8-1.3 5.4-4.6a12.3 12.3 0 00.2-2.2V28.6a15.8 15.8 0 00-.2-2.5zm-12.5 43.1a9.7 9.7 0 01-17 .5 18.2 18.2 0 010-18.7c3.8-6.8 13-6.3 17 .7a19.4 19.4 0 012 8.8 19.6 19.6 0 01-2 8.8z" fill="#424243"/>
  <path d="M518.5 64c.1-4.3.1-8.6-.2-13s-1.6-8-5.6-10.3a19 19 0 00-7.8-2.3 33 33 0 00-16.9 1.8 12 12 0 00-7.3 7.7c-.8 2.5 0 4.7 2.2 5.7 1.7.7 4.2 1 5.7-1.8a15.4 15.4 0 013.4-4.2c3.1-2.6 7-2.3 10.8-1.8a5.2 5.2 0 014.6 4.2c.3 1 .3 2 .5 3s-.2 1.3-1 1.5l-7.4 1.9c-4.2 1-8.4 1.7-12.5 2.9s-7.4 4-8.3 8.5c-1.7 8.2 4.1 14.2 12 15a22.4 22.4 0 0015.2-4.4l2.7-1.7 1.7 2.2A25.5 25.5 0 00512 81c1.8 1.9 3.9 2.2 6 1s3-2.7 2.2-5.5a40 40 0 01-1.7-12.5zm-11.8 6.2c-2.1 4.4-9.3 7-13.8 5a5.8 5.8 0 01-3.6-5.2 4.8 4.8 0 013-5.2 63.1 63.1 0 017.2-2.1l7.2-1.8a11.1 11.1 0 011.4-.1c0 3.3 0 6.5-1.4 9.3z" fill="#ff7c41"/>
  <path d="M389.4 63.1c5 0 9.9 0 14.8-.3 4.2-.2 6.1-2.2 6-6.4a17.9 17.9 0 00-10-16c-4.4-2.4-9-2.7-13.9-2.1-7.5 1-13.2 4.7-16 11.9a27.3 27.3 0 00-.3 20A17.7 17.7 0 00380.5 81a26.6 26.6 0 006.5 1.6c5.6.6 11 .1 16-2.8 2.7-1.6 5-3.6 6-6.6.8-2 .5-3.8-1-4.7a4.3 4.3 0 00-5 .5l-2.3 2a33.6 33.6 0 01-4.3 3c-3.9 2.2-8 2.4-11.7 0s-5-6.3-5.3-10.9h10zm.2-17.4c6 0 9.7 4.3 9.9 11.2h-19.9c.2-6.8 4.2-11.3 10-11.2zm-87.5-3a23 23 0 00-17.8-4.4 19.6 19.6 0 00-13.7 7.4 21.9 21.9 0 00-4.5 11.8c-.5 5.7.2 11.2 3.4 16.1 4 6 9.7 8.8 16.7 9.2 5.6.3 10.8-.7 15.4-4.2 6-4.5 8.1-10.8 8-18.1 0-.9.2-1.7 0-2.6-.5-6-2.6-11.3-7.5-15.2zm-3.3 17.8a18 18 0 01-2 9.1 9.7 9.7 0 01-10 5.1 9.5 9.5 0 01-8.5-6.6 20.4 20.4 0 01.3-16.1c2-4.2 5.4-6 10-5.9a9.3 9.3 0 018.7 6.4 60.2 60.2 0 012 7.9z" fill="#424243"/>
  <path d="M627.5 40.2a24.7 24.7 0 00-14.9-1.6 19.3 19.3 0 00-11.8 6.6 21.8 21.8 0 00-5 12.7c-.5 6.7.7 12.9 5.2 18 5.8 6.4 13.3 7.7 21.4 6.4a19.1 19.1 0 0011.8-6.5c3.8-4.4 5.2-9.6 5.3-15.3-.2-2-.4-4-.8-6a19.2 19.2 0 00-11.2-14.3zm1 20.2a17.4 17.4 0 01-2.3 9.6 10.2 10.2 0 01-17.3 0c-2.5-4.2-2.9-8.8-2-13.6.6-3.6 1.9-6.7 5-8.7 4.2-2.8 11.7-2.5 15 4a18.4 18.4 0 011.6 8.7zm44.7 16c-.5-2-2.3-2.8-4.9-2.4a27.7 27.7 0 01-3.8.5 3.1 3.1 0 01-3.3-2.8 20.7 20.7 0 01-.3-3.2V48.2c0-1 .4-1.4 1.4-1.4a32.5 32.5 0 004.5-.4 3.5 3.5 0 00.3-7 17.7 17.7 0 00-4.5-.3c-1.3 0-1.7-.3-1.7-1.7 0-3.3 0-6.6-.3-9.9a4.8 4.8 0 00-5.2-4.3 5 5 0 00-5 4.6l-.2 7.4V39H648c-3 .2-4.7 2.4-4 5 .5 1.5 2 2.5 4.2 2.6 2 .1 2 .1 2 2v17.7a78.2 78.2 0 00.7 9.2 7.4 7.4 0 005.7 6.4 22.4 22.4 0 0013.7-.5 4.4 4.4 0 003-5.1zm-84-37.6c-4.3-1.3-8.7-.9-11.4 3.3l-2.1 2.7-.3-1.7c-.4-3.2-2-4.8-4.7-5s-4.5 1.2-5.2 4.3a13.1 13.1 0 00-.3 3v31.7c0 3 2 5.4 4.5 5.6 3.1.4 5.2-1.1 6-4.4a11.6 11.6 0 00.2-2.6l.1-13a60.1 60.1 0 011.2-9.3c.8-3.8 2.8-5.8 6.2-5.9a25.2 25.2 0 016.2 1.1 4.4 4.4 0 005-2 4 4 0 00-.7-5.1 14.7 14.7 0 00-4.8-2.7zm-31 2a13.3 13.3 0 00-8.4-2.6 8.4 8.4 0 00-7 3.6l-2.3 3-.6-3c-.8-2.6-2.1-3.6-4.8-3.6a4.4 4.4 0 00-4.7 3.6 10.1 10.1 0 00-.4 2.7v33.1a5.3 5.3 0 004.6 5.1c3.1.2 5.2-1.3 5.8-4.3a20 20 0 00.4-3.7c0-4.6-.1-9.1.1-13.7a40.5 40.5 0 011.2-8c1-4.3 3.6-6 8-5.4a23.7 23.7 0 014 .9 4.3 4.3 0 005.3-2 4.5 4.5 0 00-1.2-5.7z" fill="#ff7c41"/>
</svg>
