<svg viewBox="0 0 177 84" xmlns="http://www.w3.org/2000/svg">
  <path d="M0 0h177v84H0z" fill="#2c5b9c"/>
  <g fill="#fff">
    <path d="M107.2 34.4c.5-.7 1-1.6 1.2-2.5a14.8 14.8 0 000-6.4c-.1-1-.5-1.8-1-2.5s-1-1.2-1.7-1.6-1.5-.5-2.5-.5a5.3 5.3 0 00-4.1 2.1l-.2-1.6H95v20.9l4.4-.5V35c1 1 2 1.6 3.6 1.6.9 0 1.7-.2 2.4-.6.7-.4 1.3-1 1.8-1.7zm-3.7-2.1c-.5.7-1.1 1-1.9 1-.9 0-1.6-.4-2.2-1.3V26c.3-.6.7-1 1-1.3a2.3 2.3 0 012.4-.2c.3.1.6.4.8.7l.4 1.4.2 2.3c0 1.6-.2 2.8-.7 3.5zm16.2-.6a4 4 0 01-1 1.1c-.5.3-1 .5-1.4.5-.6 0-1-.2-1-.5a3 3 0 01-.3-1.3V21.4h-4.4V32c0 1.4.3 2.5 1 3.3s1.6 1.3 3 1.3c1 0 1.8-.2 2.5-.6.8-.3 1.4-.9 2-1.6l.1 1.7h3.9V21.4h-4.4zm14 1.4c-.4 0-.7-.1-1-.4s-.3-.8-.3-1.5v-6.8h3l.5-3h-3.5v-3.7l-4.4.5v3.2h-2.2v3h2.2v6.8c0 .8 0 1.6.2 2.2s.4 1.3.8 1.8.9.8 1.5 1a7.4 7.4 0 006.4-.8l-1.5-2.8c-.6.3-1.2.5-1.6.5zm10-12.2c-1.2 0-2.2.2-3 .6-1 .4-1.7 1-2.2 1.7a7.9 7.9 0 00-1.8 5.6c0 1.1.1 2.2.5 3.1s.7 1.8 1.3 2.5 1.4 1.2 2.4 1.6 2 .6 3.2.6c1.2 0 2.2-.2 3.2-.6 1-.4 1.8-.9 2.5-1.4l-1.9-2.6c-.6.5-1.2.8-1.7 1-.6.3-1.1.4-1.7.4-.9 0-1.6-.3-2.2-.8s-1-1.4-1-2.6h9v-.7-.8a8 8 0 00-1.8-5.6 6.3 6.3 0 00-4.9-2zm-2.5 6.5a5 5 0 01.8-2.7 2 2 0 011.6-.9c.5 0 .8.1 1.2.3l.7.7.4 1.1.1 1.5h-4.8zm20-6.5h-.7c-.8 0-1.5.3-2.2.8-.7.6-1.2 1.4-1.5 2.4l-.3-2.8h-4V36h4.5v-7.4c0-.4.2-.9.4-1.3.1-.4.3-.8.6-1.1l.8-.7c.3-.2.7-.3 1.2-.3.4 0 .9 0 1.3.2l.7-4.3-.7-.2zM91.6 56.5l-.2-1.2v-5.7c0-1.8-.5-3-1.4-4-1-.8-2.6-1.3-4.8-1.3l-2.6.3-3 .9 1 2.9a15.6 15.6 0 013.9-.8c1 0 1.7.2 2 .5.5.3.6.9.6 1.8v.5h-1.6c-2.3 0-4 .4-5.2 1.3s-1.8 2.1-1.8 3.7c0 .7 0 1.3.3 1.9s.5 1 1 1.4.9.8 1.5 1a6.8 6.8 0 004.6-.1c.7-.3 1.4-.8 2-1.5.3.6.7 1 1.3 1.3s1.3.5 2.2.6l1-3c-.4 0-.6-.2-.8-.5zm-4.4-1.2l-1 1.2c-.4.3-.9.4-1.4.4-.5 0-1-.2-1.2-.5s-.4-.7-.4-1.3c0-.7.2-1.2.7-1.6.5-.4 1.3-.6 2.5-.6h.8zm17.8-3.2l-1.5-.9-1.8-.7a23.9 23.9 0 01-2.6-1c-.2 0-.4-.2-.5-.3v-.5c0-.4 0-.7.4-.9s.8-.3 1.5-.3l1.8.3a8 8 0 011.6.8l1.8-2.6c-.5-.4-1.3-.8-2.3-1.2a9.6 9.6 0 00-5.8-.1c-.8.2-1.4.6-2 1s-.8.9-1.1 1.4A4 4 0 0094 49c0 1.2.4 2.2 1.1 2.9.7.7 1.8 1.3 3 1.6l1.8.6 1 .4.5.5v.6c0 .4-.1.8-.5 1a3 3 0 01-1.6.4c-.7 0-1.4-.2-2-.4-.7-.3-1.3-.6-1.8-1.1l-2.2 2.4c.7.7 1.6 1.2 2.6 1.6s2.3.6 3.6.6c.9 0 1.7 0 2.5-.3s1.5-.5 2.1-1c.6-.4 1-.9 1.4-1.5a4 4 0 00.5-2c0-.7 0-1.3-.3-1.8a3.4 3.4 0 00-.8-1.3zm9.4-7.7c-1.1 0-2.1.2-3 .6a6.5 6.5 0 00-3.5 4.2c-.3 1-.4 2-.4 3 0 1.2.1 2.2.4 3.2s.8 1.7 1.4 2.4a6.1 6.1 0 002.4 1.7c.9.4 2 .5 3.2.5 1.2 0 2.2-.2 3.2-.5 1-.4 1.8-1 2.5-1.5l-1.9-2.5c-.6.5-1.2.8-1.7 1-.6.2-1.1.3-1.7.3-.9 0-1.6-.2-2.2-.7s-1-1.4-1.1-2.6h9l.1-.8V52c0-2.4-.6-4.2-1.8-5.6s-2.8-2-4.9-2zm-2.5 6.4c.1-1.2.4-2 .8-2.6a2 2 0 011.7-.9c.5 0 .8.1 1.2.3l.7.7.4 1.1.1 1.4h-4.8zm-57-37.4c-2-1.1-4.2-2-6.6-2.5-2.4-.6-5-.9-7.7-.9a26 26 0 00-18 7.4 26 26 0 00-5.5 8.4 29 29 0 00-2 10.9c0 5.1 1.5 9 4.6 11.8 3 2.8 7.3 4.2 12.8 4.2a29.2 29.2 0 008.4-1.2l3.1-1.1 2.8-1.2c.2 0 .3-.2.3-.4l2.4-9.5-.1-.6a.6.6 0 00-.5-.2h-1l-.5.1a28.8 28.8 0 01-6 3.7c-2 1-4.2 1.5-6.6 1.5-2.5 0-4.5-.7-5.8-2-1.3-1.3-2-3.5-2-6.5 0-4.8 1.3-8.8 3.8-11.8 2.5-3.1 5.5-4.6 9.3-4.6 2.1 0 4 .4 5.6 1.2 1.6.9 3.2 2.2 4.9 4l.4.1h1.2c.3 0 .5-.2.6-.4L55 14a.6.6 0 00-.3-.7z"/>
    <path d="M71 52.2c2-.8 3.7-1.9 4.9-3.3a9.7 9.7 0 002.1-6.4 8 8 0 00-4-7.2A21.5 21.5 0 0062.6 33H48.2c-.3 0-.5.2-.6.4l-1 4.4a.6.6 0 00.1 0c.3-.3.7-.4 1.1-.4h1c.7 0 1.2.2 1.5.7.4.4.5 1 .4 1.5l-2.4 9.6c-.1.5-.5 1-1 1.2l-2.8 1.2-1.1.4-5 21.3c0 .2 0 .4.2.6l.5.2h17.1a26 26 0 0014.9-3.6A12 12 0 0076.5 60c0-2.3-.7-4-1.9-5.4a10 10 0 00-3.7-2.4zm-8.3 11.9c-1.5.9-3.7 1.4-6.6 1.4h-4.4l2-8.8h5c2.2 0 3.8.3 4.8 1 1 .5 1.4 1.3 1.4 2.6 0 1.7-.8 3-2.2 3.8zm1.7-16.7a8.5 8.5 0 01-4.9 1.2h-3.9l1.7-7.2h4c1.6 0 2.8.2 3.6.7.7.4 1 1 1 2 0 1.5-.4 2.6-1.5 3.3zm5.2-18.7a10 10 0 00-.5-3.2 7 7 0 00-1.4-2.5 6.3 6.3 0 00-2.2-1.6c-1-.3-2-.5-3-.5s-2.2.2-3 .6-1.7.9-2.3 1.5-1.1 1.5-1.5 2.5-.5 2-.5 3.2c0 1.1.2 2 .4 3h4.6c-.3-.8-.4-1.7-.4-3 0-1.6.2-2.8.7-3.5s1-1 2-1 1.5.3 2 1 .6 2 .6 3.5c0 1.3-.2 2.3-.4 3h.1c1.6 0 3 .2 4.3.4.4-1 .5-2.1.5-3.4zM91.1 22c-.7-.7-1.6-1.1-3-1.1a5.5 5.5 0 00-4.3 2.2c-.5-1.5-1.7-2.2-3.4-2.2-.8 0-1.5.2-2.2.5s-1.4 1-2 1.7l-.4-1.7H72v11.4c1.1.4 2.2.8 3 1.4.6.3 1 .6 1.4 1v-9.3c.4-.5.7-1 1.1-1.3s.8-.4 1.1-.4c.4 0 .7 0 1 .3l.2 1.3v10.3h4.4V26c.4-.6.7-1 1.1-1.3s.8-.4 1.2-.4c.4 0 .7 0 .9.3s.2.8.2 1.4v10.2H92V25.3c0-1.4-.3-2.5-1-3.3z"/>
  </g>
</svg>
