<?xml version="1.0" encoding="utf-8"?><svg version="1.1" id="Layer_1" xmlns="http://www.w3.org/2000/svg" xmlns:xlink="http://www.w3.org/1999/xlink" x="0px" y="0px" viewBox="0 0 402.2 92.7" style="enable-background:new 0 0 402.2 92.7" xml:space="preserve"><style type="text/css">.st0{fill:#58CC02;} .st1{fill:#F49000;} .st2{fill:#89E219;} .st3{fill:#B66E28;} .st4{fill:#FFC200;} .st5{fill:#FFDE00;} .st6{fill:#FFFFFF;} .st7{fill:#122431;}</style><g><g><path class="st0" d="M365,47.4c0-10.6,8-18,18.6-18s18.6,7.5,18.6,18c0,10.4-8,18-18.6,18S365,57.8,365,47.4z M391.6,47.4 c0-5-3.1-8.6-8-8.6s-8,3.6-8,8.6s3.1,8.6,8,8.6C388.5,56,391.6,52.4,391.6,47.4z M358,39c0.7,1.4,1,2.9,1,4.5 c0,3.9-2,7.3-5.2,10.1c4.4,2.2,7,7.2,7,12.1c0,9.1-7.3,15.1-18.4,15.1s-18.4-6-18.4-15.1c0-4.9,2.6-9.9,7-12.1 c-3.3-2.8-5.2-6.2-5.2-10.1c0-7.9,6.2-13.8,16-13.8c5.8,0,7.5,1,10.8,1c2.2,0,3.7-0.3,6.4-1.7c0.9-0.5,1.6-0.7,2.2-0.7 c1.3,0,2,1.3,2,3C363.3,34.8,361.6,37.7,358,39z M350.4,65.4c0-4.1-3.1-6.9-8-6.9s-8,2.8-8,6.9c0,3.9,3.4,6.9,8,6.9 S350.4,69.2,350.4,65.4z M336,44.1c0,3.4,2.9,6.2,6.4,6.2c3.6,0,6.4-2.8,6.4-6.2c0-3.7-2.6-6.2-6.4-6.2 C338.6,38,336,40.5,336,44.1z M319.2,48.1v12.6c0,2.4-0.9,3.5-3.5,3.5h-3.5c-2.6,0-3.5-1-3.5-3.5V48.4c0-3.1-0.5-5.3-1.6-6.8 c-1.2-1.5-3-2.3-5.3-2.3c-2.2,0-4.2,0.8-5.5,2.3c-1.2,1.4-2,3.7-2,6.7v12.3c0,2.6-1,3.5-3.5,3.5h-3.5c-2.4,0-3.5-0.9-3.5-3.5V32.4 c0-1.6,0.8-2.4,2-2.4c1.8,0,4.3,1.5,6.2,4.4c2.8-3.3,7.1-5,11.3-5c5.1,0,9.2,1.8,11.9,4.9C317.8,37.4,319.2,41.4,319.2,48.1z M264.6,19.7c0-3.2,2.6-5.7,6-5.7c3.2,0,6,2.5,6,5.7c0,3.1-2.8,5.7-6,5.7C267.2,25.4,264.6,22.8,264.6,19.7z M265.3,60.7V34.2 c0-2.4,0.9-3.5,3.5-3.5h3.5c2.6,0,3.5,1,3.5,3.5v26.5c0,2.4-0.9,3.5-3.5,3.5h-3.5C266.2,64.1,265.3,63.1,265.3,60.7z M246.8,60.7 V27.4c0-8.3,4.7-13.1,8.5-13.1c1.2,0,2,0.8,2,2.4v44c0,2.6-1,3.5-3.5,3.5h-3.5C247.9,64.1,246.8,63.2,246.8,60.7z M203.5,47.4 c0-10.6,8-18,18.6-18c10.6,0,18.6,7.5,18.6,18c0,10.4-8,18-18.6,18C211.5,65.4,203.5,57.8,203.5,47.4z M230.2,47.4 c0-5-3.1-8.6-8-8.6s-8,3.6-8,8.6s3.1,8.6,8,8.6S230.2,52.4,230.2,47.4z M198.2,34.2v28.3c0,1.6-0.8,2.4-2,2.4 c-1.8,0-4.3-1.5-6.1-4.3c-2.6,3.1-6.6,5-11.1,5s-8.1-1.6-10.8-4.1c-3.1-3-4.8-7.7-4.8-14.4V34.2c0-2.4,0.9-3.5,3.5-3.5h3.5 c2.6,0,3.5,1,3.5,3.5v11.9c0,4,0.7,6.2,2,7.6c1.1,1.2,2.7,1.8,4.7,1.8s3.9-0.8,5-2.1c1.3-1.4,2-3.7,2-7V34.2c0-2.6,1-3.5,3.5-3.5 h3.5C197.1,30.7,198.2,31.6,198.2,34.2z M156.2,16.7v45.8c0,1.6-0.8,2.4-2,2.4c-1.8,0-4.3-1.5-6.1-4.3c-2.2,2.6-6.7,4.9-11.9,4.9 c-10.4,0-17.4-7.7-17.4-18c0-10.2,7.1-18,17.4-18c3.8,0,7.1,1.2,9.6,2.9v-4.9c0-8.3,4.7-13.1,8.5-13.1 C155.5,14.3,156.2,15.1,156.2,16.7z M145.7,47.4c0-5.2-3.6-8.6-8.1-8.6c-4.6,0-8.2,3.4-8.2,8.6s3.6,8.6,8.2,8.6 C142.1,56,145.7,52.6,145.7,47.4z"/><g><path class="st1" d="M31.2,84.5L31.2,84.5c0.9-2.1,3.3-3.1,5.4-2.2l6,2.5c2.1,0.9,3.1,3.3,2.2,5.4c-0.9,2.1-3.3,3.1-5.4,2.2 l-6-2.5C31.3,89,30.3,86.6,31.2,84.5"/><path class="st1" d="M98.7,60L98.7,60c-2-1-4.5-0.2-5.5,1.8l-3,5.8c-1,2-0.2,4.5,1.8,5.5s4.5,0.2,5.5-1.8l3-5.8 C101.5,63.5,100.7,61,98.7,60"/><path class="st0" d="M99,12.7c-0.7-2.5-3.6-3.5-5.7-2.1l-13.6,9.2L75.1,7.1c-0.5-1.4-1.2-2.6-2.2-3.7C68.8-0.9,62-1.1,57.7,2.9 c-6.4,6-11.1,9.6-14,10.6c-2.9,1.1-8.9,1.4-17.9,0.9c-1.4-0.1-2.8,0.1-4.2,0.7c-5.6,2-8.4,8.1-6.4,13.7l4.7,12.8L3.4,43.3 c-2.5,0.3-4.1,3-3,5.3c4.9,11.1,16.4,17.9,28.8,16.8C36.9,78.2,52.8,84.3,67.4,79s22.9-20.2,20.5-35C98,36.9,102.3,24.4,99,12.7z"/><path class="st2" d="M78.2,27l-2.6-7.2c-1.7-4.5-5.8-7.4-10.3-7.8c-0.5-0.9-1.2-1.8-2-2.5C62.9,9.1,62,9.3,61.7,10l-1.1,2.6h-0.1 c-0.5-1.4-1.3-2.8-2.6-3.8c-0.4-0.5-1.3-0.2-1.6,0.5l-5,12.2c-2,2.7-5.7,4-9,3.1l-11.6-6c-0.6-0.4-1.2-0.1-1.4,0.7 c-0.3,1.6,0,3.2,0.6,4.7h-0.1l-2.7-1.4c-0.7-0.4-1.5,0-1.6,0.8c-0.2,1.2-0.1,2.4,0.2,3.6c-2.8,3.2-3.9,7.7-2.3,12l2.6,7.2 c2.3,6.2,9.1,9.3,15.3,7.1l0.9-0.3c4.6-1.7,7.5-5.9,7.8-10.5c3.6-1.3,6.1-2.2,7.7-2.8c3.2,3.2,8.1,4.5,12.6,2.9l0.8-0.3 C77.3,40,80.4,33.2,78.2,27z"/><path class="st1" d="M51.5,35L51.5,35c2.3-0.8,4.9,0.4,5.8,2.7l2.6,7c0.8,2.3-0.4,4.9-2.7,5.8c-2.3,0.8-4.9-0.4-5.8-2.7l-2.6-7 C48,38.4,49.2,35.8,51.5,35"/><path class="st3" d="M52.1,36.6L52.1,36.6c1.8-0.7,3.8,0.3,4.5,2.1l1.7,4.7c0.7,1.8-0.3,3.8-2.1,4.5c-1.8,0.7-3.8-0.3-4.5-2.1 L50,41.1C49.4,39.3,50.3,37.3,52.1,36.6"/><path class="st4" d="M47,40.7c-0.5-2.9,1.2-5.8,4.3-7c2.7-1,6,0.2,7.4,2.7l0.1,0.3l-5.5,3.2L47.1,41L47,40.7z"/><g><path class="st5" d="M50.4,37.1c-0.3,0-0.5-0.1-0.7-0.3c-0.3-0.4-0.3-0.9,0.1-1.3c0.9-0.8,2-1.1,3.2-1.1c0.5,0,0.9,0.4,0.9,0.9 s-0.4,0.9-0.9,0.9c-0.8,0-1.4,0.2-2,0.7C50.8,37,50.6,37.1,50.4,37.1z"/></g><g><path class="st6" d="M73.9,26.3l-1.4-3.8c-1.6-4.5-6.7-6.9-11.2-5.2s-6.9,6.7-5.2,11.2l1.8,4.9c0.5,1.4,1.4,2.6,2.4,3.6 C65.1,32.5,69.7,29,73.9,26.3z"/><path class="st6" d="M45.7,42.3c0.2-1.4,0.1-2.9-0.5-4.3l-1.8-4.9c-1.6-4.5-6.7-6.9-11.2-5.2s-6.9,6.7-5.2,11.2l1.4,3.7 C33.3,42.1,39.2,41.8,45.7,42.3z"/></g><g><path class="st7" d="M34.4,42.2c2.3-0.1,4.8-0.2,7.4-0.1c0.5-1,0.6-2.1,0.2-3.2l-1.5-4.2c-0.8-2.2-3.2-3.3-5.3-2.5 c-0.6,0.2-1.1,0.5-1.5,0.9c0.7,0.3,1.2,0.8,1.5,1.6c0.5,1.4-0.2,2.9-1.6,3.4c-0.2,0.1-0.4,0.1-0.6,0.1l1.2,3.5 C34.3,41.9,34.4,42,34.4,42.2z"/><path class="st7" d="M63.1,34.5c1.9-1.7,3.8-3.2,5.6-4.6c0-0.2-0.1-0.5-0.2-0.7L67,25c-0.8-2.2-3.2-3.3-5.3-2.5 c-0.7,0.3-1.3,0.7-1.7,1.2c0.6,0.3,1.1,0.8,1.3,1.5c0.5,1.4-0.2,2.9-1.6,3.4c-0.1,0-0.1,0-0.2,0l1.2,3.4 C61.1,33.2,62,34.1,63.1,34.5z"/></g><path class="st2" d="M49.4,61.6l7.5-2.7c0.4-0.1,0.8,0.1,0.8,0.5c0,2-1.3,3.8-3.3,4.5s-4.2,0.2-5.4-1.4 C48.8,62.2,49,61.7,49.4,61.6"/><path class="st2" d="M62.5,56.8l7.5-2.7c0.4-0.1,0.8,0.1,0.8,0.5c0,2-1.3,3.8-3.3,4.5s-4.2,0.2-5.4-1.4 C62,57.4,62.1,56.9,62.5,56.8"/><path class="st2" d="M58.3,65.5l7.5-2.7c0.4-0.1,0.8,0.1,0.8,0.5c0,2-1.3,3.8-3.3,4.5s-4.2,0.2-5.4-1.4 C57.7,66.1,57.9,65.7,58.3,65.5"/></g></g></g></svg>