<svg viewBox="0 0 960 720" fill="none" stroke-linecap="square" stroke-miterlimit="10" xmlns="http://www.w3.org/2000/svg">
  <clipPath id="a">
    <path d="M0 0h960v720H0V0z"/>
  </clipPath>
  <g clip-path="url(#a)">
    <path d="M0 0h960v720H0z"/>
    <path fill="#7e57c2" d="M602.3 586.5v82.2H346.6v-82.2z" fill-rule="evenodd"/>
    <path fill="#f90" d="M602.3 586.5l72 41-72 41.2zm-255.6 82.2h-21.8c-12 0-21.7-18.4-21.7-41 0-22.8 9.8-41.2 21.8-41.2h21.7z" fill-rule="evenodd"/>
    <path fill="#7e57c2" d="M537.5 51.3c-28.7 0-55 7.4-78.7 22.2a160.7 160.7 0 00-55.7 57.3 144.7 144.7 0 00-20 72.4c0 17 3.7 33.3 11 48.8 7.4 15.5 12.5 23.3 15.2 23.5-10.9 1.2-26.1 11.4-45.7 30.5a196 196 0 00-44.9 66.3 195 195 0 00-15.5 75c0 36 11.2 66.3 33.7 90.5 22.5 24.2 55.3 36.3 98.3 36.3 42 0 81.6-11.6 118.6-35 37-23.3 66.4-58.7 88-106.3l-38.6-16.9a124.2 124.2 0 01-52.4 53.5 135 135 0 01-60.9 16c-16.4 0-28.5-4.6-36.2-13.7a57.5 57.5 0 01-11.6-38 142 142 0 0113.8-58 168 168 0 0137.7-53.5c16-15.3 52.5-29 109.4-41.2-55.8-14.2-88.2-27.9-97.2-41a80.8 80.8 0 01-13.4-46.5c0-13.3 2.4-26 7.2-38.2a73.6 73.6 0 0119.4-28.8c8-7 16.6-10.4 25.7-10.4 6.5 0 11.9 1.7 16 5s6 9.4 6 17.6c0 9.6-2.2 18.9-6.5 27.9s-14.4 16-30.1 21.4c18.4 25 35.7 37.6 51.9 37.6 17.5 0 32-8 43.6-23.8a93.2 93.2 0 0017.5-56.6c0-29.6-10-52.6-30-69-20.1-16.7-45.3-25-75.6-25z" fill-rule="evenodd"/>
  </g>
</svg>
