<svg version="1.1" viewBox="0.0 0.0 960.0 720.0" fill="none" stroke="none" stroke-linecap="square" stroke-miterlimit="10" xmlns:xlink="http://www.w3.org/1999/xlink" xmlns="http://www.w3.org/2000/svg"><clipPath id="p.0"><path d="m0 0l960.0 0l0 720.0l-960.0 0l0 -720.0z" clip-rule="nonzero"/></clipPath><g clip-path="url(#p.0)"><path fill="#000000" fill-opacity="0.0" d="m0 0l960.0 0l0 720.0l-960.0 0z" fill-rule="evenodd"/><path fill="#7e57c2" d="m602.3025 586.5l0 82.20471l-255.68503 0l0 -82.20471z" fill-rule="evenodd"/><path fill="#ff9900" d="m602.3025 586.5l71.962585 41.0932l-71.962585 41.0932z" fill-rule="evenodd"/><path fill="#ff9900" d="m346.66757 668.73883l-21.716522 0l0 0c-11.993713 0 -21.716553 -18.40216 -21.716553 -41.102356c0 -22.700195 9.722839 -41.102356 21.716553 -41.102356l21.716522 0z" fill-rule="evenodd"/><path fill="#7e57c2" d="m537.54095 51.261208c-28.726196 0 -54.97119 7.4087296 -78.734985 22.226204c-23.693909 14.747566 -42.25061 33.863503 -55.670166 57.347794c-13.34964 23.484283 -20.024475 47.59761 -20.024475 72.33998c0 17.054077 3.669403 33.33931 11.008209 48.855713c7.408722 15.446487 12.475983 23.274612 15.201843 23.484268c-10.903381 1.1882019 -26.140167 11.357727 -45.710327 30.508606c-19.57019 19.080994 -34.527405 41.16742 -44.871643 66.25925c-10.344208 25.021942 -15.516327 50.00894 -15.516327 74.961c0 36.13504 11.2178955 66.3291 33.653687 90.582275c22.505707 24.183167 55.285767 36.27484 98.34015 36.27484c42.075867 0 81.60065 -11.637329 118.57428 -34.911926c37.04358 -23.344482 66.36389 -58.81555 87.96094 -106.41318l-38.581177 -16.879333c-13.699097 24.952057 -31.172485 42.774963 -52.420105 53.46869c-21.177734 10.693726 -41.44684 16.040619 -60.807343 16.040619c-16.424957 0 -28.51654 -4.5780334 -36.27472 -13.734131c-7.6882935 -9.225952 -11.53241 -21.876709 -11.53241 -37.95227c0 -18.312134 4.578003 -37.6727 13.73407 -58.081696c9.156036 -20.408966 21.736847 -38.231842 37.742462 -53.46869c16.005615 -15.306702 52.45508 -29.040833 109.34839 -41.20233c-55.775024 -14.188416 -88.170654 -27.85263 -97.18692 -40.99266c-8.94635 -13.209915 -13.419556 -28.691376 -13.419556 -46.444366c0 -13.349701 2.4113464 -26.1053 7.2339783 -38.266815c4.8925476 -12.161499 11.357697 -21.736938 19.395447 -28.72631c8.037781 -6.9893646 16.599731 -10.484055 25.685852 -10.484055c6.5700073 0 11.881897 1.7123947 15.93573 5.137184c4.053833 3.4247894 6.0807495 9.26091 6.0807495 17.508377c0 9.575439 -2.166748 18.871307 -6.500122 27.887589c-4.333374 8.946381 -14.363098 16.075546 -30.089172 21.387482c18.451904 25.091827 35.75055 37.637756 51.895935 37.637756c17.473389 0 32.01123 -7.9329376 43.613525 -23.798813c11.672241 -15.9357605 17.5083 -34.807068 17.5083 -56.613907c0 -29.565033 -10.029663 -52.59501 -30.089111 -69.08993c-20.059448 -16.564808 -45.22107 -24.847214 -75.484985 -24.847214z" fill-rule="evenodd"/></g></svg>