<?xml version="1.0" encoding="utf-8"?>
<!-- Generator: Adobe Illustrator 22.0.1, SVG Export Plug-In . SVG Version: 6.00 Build 0)  -->
<svg version="1.1" id="Layer_1" xmlns="http://www.w3.org/2000/svg" xmlns:xlink="http://www.w3.org/1999/xlink" x="0px" y="0px"
	 viewBox="0 0 524.5 134.5" style="enable-background:new 0 0 524.5 134.5;" xml:space="preserve">
<style type="text/css">
	.st0{fill:#1B1632;}
</style>
<path class="st0" d="M262.2,0c-19.3,0-35,15.7-35,35s15.7,35,35,35s35-15.7,35-35S281.5,0,262.2,0z M262.2,56c-11.5,0-21-9.5-21-21
	s9.5-21,21-21s21,9.5,21,21S273.8,56,262.2,56z"/>
<polygon class="st0" points="391.6,70 391.6,70 447.6,70 447.6,56 405.6,56 405.6,41.9 437.1,41.9 437.1,28 405.6,28 405.6,14 
	447.6,14 447.6,0 391.6,0 "/>
<polygon class="st0" points="150.3,0 132.9,0 115.4,23.3 97.9,0 80.4,0 106.6,35 80.4,70 97.9,70 115.4,46.6 132.9,70 150.3,70 
	124.1,35 "/>
<polygon class="st0" points="524.5,70 497,0 482,0 454.6,70 469.6,70 489.5,19.2 509.5,70 "/>
<polygon class="st0" points="363.6,51.3 325.2,0 307.7,0 307.7,70 321.7,70 321.7,18.7 360.2,70 370.6,70 377.6,70 377.6,0 363.6,0 
	"/>
<polygon class="st0" points="28,28 14,28 14,56 0,56 0,70 69.9,70 69.9,56 28,56 28,41.9 69.9,41.9 69.9,28 42,28 42,14 69.9,14 
	69.9,0 28,0 "/>
<path class="st0" d="M192.3,0L192.3,0h-31.5v69.9h14V14h17.5l0,0c7.8,0,14,6.2,14,14s-6.2,14-14,14h-3.5l-7,14h10.5
	c15.4,0,28-12.6,28-28S207.7,0,192.3,0z"/>
<g>
	<path class="st0" d="M0,133.9v-32h21.9v4.9H5.6v8.3h16v4.9h-16v8.9h16.3v4.9H0z"/>
	<path class="st0" d="M54.1,133.9l-9-12.5l-9,12.5h-6.7l12-16.4l-11.2-15.6h6.7l8.3,11.7l8.2-11.7h6.8l-11.3,15.6l12,16.5H54.1z"/>
	<path class="st0" d="M69.4,133.9v-32h14.1c6.7,0,10.4,4.6,10.4,10c0,5.4-3.7,10-10.4,10H75v12H69.4z M88.2,112
		c0-3.1-2.3-5.1-5.4-5.1H75V117h7.7C85.9,117,88.2,115,88.2,112z"/>
	<path class="st0" d="M103.6,133.9v-32h21.9v4.9h-16.3v8.3h16v4.9h-16v8.9h16.3v4.9H103.6z"/>
	<path class="st0" d="M154.6,133.9l-7.1-12h-5.6v12h-5.6v-32h14.1c6.3,0,10.5,4.1,10.5,10c0,5.7-3.7,8.8-7.6,9.4l7.9,12.6H154.6z
		 M155.1,111.9c0-3.1-2.3-5-5.5-5h-7.7V117h7.7C152.8,117,155.1,115,155.1,111.9z"/>
	<path class="st0" d="M171.5,133.9v-32h5.6v32H171.5z"/>
	<path class="st0" d="M188.9,133.9v-32h21.9v4.9h-16.3v8.3h16v4.9h-16v8.9h16.3v4.9H188.9z"/>
	<path class="st0" d="M243.9,133.9L227.2,111v22.9h-5.6v-32h5.8l16.4,22.2v-22.2h5.6v32H243.9z"/>
	<path class="st0" d="M259.8,118c0-9.9,7.3-16.6,16.8-16.6c6.4,0,10.5,3.3,12.8,7.2l-4.8,2.5c-1.5-2.7-4.7-4.7-8.1-4.7
		c-6.3,0-11,4.8-11,11.6c0,6.7,4.7,11.6,11,11.6c3.4,0,6.5-2,8.1-4.7l4.8,2.4c-2.4,3.8-6.4,7.2-12.9,7.2
		C267.1,134.5,259.8,127.8,259.8,118z"/>
	<path class="st0" d="M298.9,133.9v-32h21.9v4.9h-16.3v8.3h16v4.9h-16v8.9h16.3v4.9H298.9z"/>
	<path class="st0" d="M347.6,118c0-9.9,7.3-16.6,16.8-16.6c6.4,0,10.5,3.3,12.8,7.2l-4.8,2.5c-1.5-2.7-4.7-4.7-8.1-4.7
		c-6.3,0-11,4.8-11,11.6c0,6.7,4.7,11.6,11,11.6c3.4,0,6.5-2,8.1-4.7l4.8,2.4c-2.4,3.8-6.4,7.2-12.9,7.2
		C354.9,134.5,347.6,127.8,347.6,118z"/>
	<path class="st0" d="M386.3,133.9v-32h5.6V129H406v4.9H386.3z"/>
	<path class="st0" d="M413.1,118c0-9.6,6.8-16.6,16.4-16.6c9.6,0,16.4,7,16.4,16.6s-6.8,16.6-16.4,16.6
		C419.9,134.5,413.1,127.5,413.1,118z M440.1,118c0-6.6-4.2-11.6-10.6-11.6c-6.5,0-10.6,4.9-10.6,11.6c0,6.6,4.1,11.6,10.6,11.6
		C435.9,129.5,440.1,124.5,440.1,118z"/>
	<path class="st0" d="M456.2,121.3v-19.3h5.7v19.2c0,5.1,2.8,8.4,8.2,8.4c5.3,0,8.2-3.3,8.2-8.4v-19.2h5.7v19.3
		c0,7.9-4.6,13.2-13.9,13.2C460.8,134.5,456.2,129.2,456.2,121.3z"/>
	<path class="st0" d="M495.8,133.9v-32h11.9c10,0,16.8,6.6,16.8,16c0,9.5-6.7,16-16.7,16H495.8z M518.7,117.9c0-6.1-3.8-11-10.9-11
		h-6.3V129h6.3C514.6,129,518.7,124,518.7,117.9z"/>
</g>
</svg>
