<svg xmlns="http://www.w3.org/2000/svg" viewBox="0 0 524.5 134.5"><path fill="#1b1632" d="M262.2 0c-19.3 0-35 15.7-35 35s15.7 35 35 35 35-15.7 35-35-15.7-35-35-35zm0 56c-11.5 0-21-9.5-21-21s9.5-21 21-21 21 9.5 21 21-9.4 21-21 21zm129.4 14h56V56h-42V41.9h31.5V28h-31.5V14h42V0h-56zM150.3 0h-17.4l-17.5 23.3L97.9 0H80.4l26.2 35-26.2 35h17.5l17.5-23.4L132.9 70h17.4l-26.2-35zm374.2 70L497 0h-15l-27.4 70h15l19.9-50.8 20 50.8zM363.6 51.3L325.2 0h-17.5v70h14V18.7L360.2 70h17.4V0h-14zM28 28H14v28H0v14h69.9V56H28V41.9h41.9V28H42V14h27.9V0H28zM192.3 0h-31.5v69.9h14V14h17.5c7.8 0 14 6.2 14 14s-6.2 14-14 14h-3.5l-7 14h10.5c15.4 0 28-12.6 28-28s-12.6-28-28-28zM0 133.9v-32h21.9v4.9H5.6v8.3h16v4.9h-16v8.9h16.3v4.9H0zm54.1 0l-9-12.5-9 12.5h-6.7l12-16.4-11.2-15.6h6.7l8.3 11.7 8.2-11.7h6.8l-11.3 15.6 12 16.5h-6.8zm15.3 0v-32h14.1c6.7 0 10.4 4.6 10.4 10s-3.7 10-10.4 10H75v12h-5.6zM88.2 112c0-3.1-2.3-5.1-5.4-5.1H75V117h7.7c3.2 0 5.5-2 5.5-5zm15.4 21.9v-32h21.9v4.9h-16.3v8.3h16v4.9h-16v8.9h16.3v4.9h-21.9zm51 0l-7.1-12h-5.6v12h-5.6v-32h14.1c6.3 0 10.5 4.1 10.5 10 0 5.7-3.7 8.8-7.6 9.4l7.9 12.6h-6.6zm.5-22c0-3.1-2.3-5-5.5-5h-7.7V117h7.7c3.2 0 5.5-2 5.5-5.1zm16.4 22v-32h5.6v32h-5.6zm17.4 0v-32h21.9v4.9h-16.3v8.3h16v4.9h-16v8.9h16.3v4.9h-21.9zm55 0L227.2 111v22.9h-5.6v-32h5.8l16.4 22.2v-22.2h5.6v32h-5.5zm15.9-15.9c0-9.9 7.3-16.6 16.8-16.6 6.4 0 10.5 3.3 12.8 7.2l-4.8 2.5a9.5 9.5 0 00-8.1-4.7c-6.3 0-11 4.8-11 11.6 0 6.7 4.7 11.6 11 11.6 3.4 0 6.5-2 8.1-4.7l4.8 2.4c-2.4 3.8-6.4 7.2-12.9 7.2-9.4 0-16.7-6.7-16.7-16.5zm39.1 15.9v-32h21.9v4.9h-16.3v8.3h16v4.9h-16v8.9h16.3v4.9h-21.9zm48.7-15.9c0-9.9 7.3-16.6 16.8-16.6 6.4 0 10.5 3.3 12.8 7.2l-4.8 2.5a9.5 9.5 0 00-8.1-4.7c-6.3 0-11 4.8-11 11.6 0 6.7 4.7 11.6 11 11.6 3.4 0 6.5-2 8.1-4.7l4.8 2.4c-2.4 3.8-6.4 7.2-12.9 7.2-9.4 0-16.7-6.7-16.7-16.5zm38.7 15.9v-32h5.6V129H406v4.9h-19.7zm26.8-15.9c0-9.6 6.8-16.6 16.4-16.6 9.6 0 16.4 7 16.4 16.6s-6.8 16.6-16.4 16.6c-9.6-.1-16.4-7.1-16.4-16.6zm27 0c0-6.6-4.2-11.6-10.6-11.6-6.5 0-10.6 4.9-10.6 11.6 0 6.6 4.1 11.6 10.6 11.6 6.4-.1 10.6-5.1 10.6-11.6zm16.1 3.3V102h5.7v19.2c0 5.1 2.8 8.4 8.2 8.4 5.3 0 8.2-3.3 8.2-8.4V102h5.7v19.3c0 7.9-4.6 13.2-13.9 13.2s-13.9-5.3-13.9-13.2zm39.6 12.6v-32h11.9c10 0 16.8 6.6 16.8 16 0 9.5-6.7 16-16.7 16h-12zm22.9-16c0-6.1-3.8-11-10.9-11h-6.3V129h6.3c6.8 0 10.9-5 10.9-11.1z"/></svg>