<svg width="268" height="80" xmlns="http://www.w3.org/2000/svg" xmlns:xlink="http://www.w3.org/1999/xlink">
  <symbol id="c">
    <path d="M62.8 6.7V.2h3v6.5c0 1.5.5 2.2 1.7 2.2 1.1 0 1.6-.7 1.6-2.2V.2H72v6.5c0 3-1.4 4.6-4.6 4.6s-4.6-1.7-4.6-4.6zM50.4.2h3v4l3-4h3.4l-3.7 4.3 4 6.6h-3.3l-2.6-4.3-.8 1V11h-3V.2zm-14 5.5c0-4 2.8-5.7 5.4-5.7 2.6 0 5.3 1.7 5.3 5.7s-2.7 5.6-5.3 5.6c-2.6 0-5.4-1.6-5.4-5.6zm7.8 0c0-2-.9-3.3-2.4-3.3-1.6 0-2.4 1.3-2.4 3.3 0 2 .8 3.3 2.4 3.3 1.5 0 2.4-1.3 2.4-3.3zM24.6.2h4.2c2.8 0 4.6 1 4.6 3.6 0 1.7-.8 2.7-2.2 3.1l2.3 4.2h-3.1l-2.1-3.8h-.8v3.8h-3V.2zm4.1 4.9c1.3 0 1.8-.4 1.8-1.3s-.5-1.2-1.8-1.2h-1.2V5h1.2zM13.3.2h7.8v2.5h-4.8v1.7h3.4v2.3h-3.4v2h5v2.4h-8V.2zM0 .2h3v4h3.6v-4h3v11h-3V6.6H2.9V11H0V.2z"/>
  </symbol>
  <symbol id="b">
    <path d="M19 68l9-8-9-8v16zm32.5-32.4A12.9 12.9 0 0042 32c-5.4 0-11 1.4-15 2.7V12h-8v34.7l5.7-2.6S33.9 40 42 40c4 0 5 2.2 5 4.1V68h8V44c0-.5 0-5-3.5-8.4zM41 25h8c3.6-4.1 5.5-8.5 6-13h-8a32 32 0 01-6 13z"/>
  </symbol>
  <symbol id="a">
    <path d="M64.8 0H7.2A7.2 7.2 0 000 7.2v65.6A7.2 7.2 0 007.2 80h57.6a7.2 7.2 0 007.2-7.2V7.2A7.2 7.2 0 0064.8 0zM68 72.8c0 1.8-1.4 3.2-3.2 3.2H7.2A3.2 3.2 0 014 72.8V7.2C4 5.4 5.4 4 7.2 4h57.6C66.6 4 68 5.4 68 7.2v65.6z"/>
  </symbol>
  <g fill-rule="evenodd" fill="#430098">
    <rect x="1" y="1" width="70" height="78" rx="5" fill="transparent"/>
    <use xlink:href="#a"/>
    <use xlink:href="#b"/>
    <use xlink:href="#c" x="35" y="10" transform="scale(2.5)"/>
  </g>
</svg>
