<svg xmlns="http://www.w3.org/2000/svg" width="134" height="32" fill="#ff8127" viewBox="0 0 330 95"><path d="M76.75 85.736H5.69A5.686 5.686 0 010 80.047a5.686 5.686 0 015.69-5.689h65.37V42.365L40.908 17.334l-29.53 25v13.635a5.686 5.686 0 01-5.69 5.689A5.685 5.685 0 010 55.969V39.697c0-1.676.734-3.259 2.017-4.345L37.205 5.563a5.69 5.69 0 017.313-.031L80.39 35.321a5.688 5.688 0 012.058 4.376v40.35a5.701 5.701 0 01-5.699 5.689zm27.427-81.547h8.579v12.069h9.674V4.189h8.579v32.417h-8.58V23.739h-9.673v12.867h-8.58zm47.984 19.949c0-3.79-.997-6.185-3.59-6.185s-3.593 2.394-3.593 6.185 1 6.185 3.593 6.185 3.59-2.394 3.59-6.185m-15.959 0c0-8.279 5.985-13.067 12.37-13.067 6.382 0 12.366 4.788 12.366 13.067 0 8.28-5.984 13.067-12.367 13.067-6.384 0-12.369-4.788-12.369-13.067m29.031 2.892V11.67h8.579v14.264c0 3.192.799 3.99 2.494 3.99 1.596 0 2.494-.6 3.59-2.195v-16.06h8.578v24.938h-6.982l-.597-3.292h-.2c-1.994 2.394-4.29 3.89-7.68 3.89-5.486 0-7.782-3.99-7.782-10.174m27.037 6.683l3.79-5.286c2.294 1.695 4.338 2.493 6.085 2.493 1.794 0 2.494-.499 2.494-1.496 0-1.297-2.296-1.896-4.788-2.893-2.892-1.147-6.284-3.292-6.284-7.381 0-4.888 3.988-8.08 9.875-8.08 4.09 0 6.982 1.646 9.177 3.292l-3.791 5.087c-1.796-1.297-3.541-2.095-5.087-2.095-1.447 0-2.195.4-2.195 1.397 0 1.296 2.195 1.795 4.689 2.693 2.992 1.097 6.384 2.993 6.384 7.481 0 4.688-3.692 8.279-10.674 8.279-3.192 0-7.082-1.396-9.675-3.491m24.542 2.893h8.579V11.67h-8.579v24.936zm-.499-32.317c0-2.494 1.996-4.29 4.79-4.29 2.791 0 4.785 1.796 4.785 4.29 0 2.493-1.994 4.288-4.785 4.288-2.794 0-4.79-1.795-4.79-4.288zm14.865 7.38h6.983l.598 2.992h.198c1.997-1.895 4.49-3.59 7.881-3.59 5.486 0 7.782 3.99 7.782 10.174v15.36h-8.579V22.343c0-3.192-.799-3.99-2.494-3.99-1.596 0-2.494.698-3.79 1.895v16.358h-8.579zm41.598 8.478c0-2.294-1.096-3.39-2.692-3.39s-2.692 1.096-2.692 3.39c0 2.395 1.096 3.492 2.692 3.492s2.692-1.098 2.692-3.492M275.57 39.3c0-1.296-1.197-1.495-3.34-1.495h-1.945c-1.995 0-2.892-.102-3.591-.3-.597.597-.897 1.095-.897 1.794 0 1.596 1.995 2.294 4.887 2.294 2.793 0 4.887-.897 4.887-2.294m-16.757 1.398c0-2.046 1.196-3.592 3.493-4.789v-.2c-1.297-.896-2.297-2.194-2.297-4.287 0-1.697 1.099-3.491 2.793-4.69v-.199c-1.793-1.198-3.39-3.49-3.39-6.384 0-6.184 5.187-9.076 10.673-9.076 1.394 0 2.793.199 3.989.599h9.277v6.183h-3.591c.2.599.4 1.596.4 2.594 0 5.886-4.489 8.28-10.076 8.28-.796 0-1.695-.102-2.793-.352-.498.45-.599.75-.599 1.448 0 1.096.998 1.496 3.491 1.496h3.742c6.234 0 9.825 1.895 9.825 6.484 0 5.386-5.587 9.075-14.462 9.075-5.687 0-10.475-1.694-10.475-6.182M112.008 72.221h5.985l-.549-2.244c-.799-3.092-1.596-7.032-2.395-10.274h-.198c-.698 3.291-1.497 7.182-2.296 10.274zm-2.046-18.9h10.375l9.875 32.416h-9.079l-1.596-6.882h-9.075l-1.596 6.882h-8.779l9.875-32.417zm22.65 7.479h6.983l.597 2.994h.198c1.998-1.896 4.49-3.592 7.882-3.592 5.486 0 7.782 3.99 7.782 10.175v15.36h-8.58V71.474c0-3.192-.798-3.99-2.493-3.99-1.596 0-2.494.698-3.79 1.894v16.359h-8.58V60.8zm28.932 33.815l1.495-6.484c.45.1 1.098.299 1.596.299 2.296 0 3.392-.997 3.892-2.494l.299-1.097-9.477-24.038h8.579l2.99 9.575c.699 2.294 1.199 4.589 1.798 7.082h.198c.499-2.394.999-4.688 1.596-7.082l2.494-9.575h8.18l-8.378 24.537c-2.596 6.733-5.288 9.776-11.471 9.776-1.698 0-2.695-.201-3.791-.499M186.982 60.8h8.477l1.895 10.474c.401 2.494.6 4.988.998 7.58h.2c.398-2.592.797-5.186 1.396-7.58l2.296-10.473h7.28l2.394 10.473c.6 2.494.998 4.988 1.497 7.58h.198c.4-2.592.6-5.086.997-7.58l1.896-10.473h7.881l-5.686 24.936h-9.975l-1.796-8.677c-.398-2.295-.797-4.59-1.197-7.332h-.198c-.399 2.743-.698 5.037-1.099 7.332l-1.695 8.677h-9.776zm41.502-9.774h8.578v8.079l-.398 4.289c1.695-1.496 4.09-3.192 7.48-3.192 5.486 0 7.779 3.99 7.779 10.175v15.36h-8.576V71.474c0-3.192-.8-3.99-2.494-3.99-1.596 0-2.494.698-3.791 1.894v16.359h-8.578zm43.296 19.25c0-1.895-.8-3.59-3.393-3.59-1.896 0-3.492 1.096-3.989 3.59h7.381zm-15.562 2.993c0-8.08 5.884-13.067 11.971-13.067 7.381 0 10.872 5.386 10.872 12.07 0 1.495-.2 2.991-.35 3.59h-14.214c.797 2.993 2.992 3.99 5.785 3.99 1.695 0 3.291-.499 5.087-1.496l2.794 5.087c-2.695 1.894-6.285 2.893-9.078 2.893-7.28 0-12.867-4.788-12.867-13.067zM283.752 60.8h6.983l.599 4.29h.197c1.846-3.392 4.64-4.888 7.084-4.888 1.544 0 2.394.199 3.091.499l-1.396 7.38c-.897-.198-1.695-.398-2.793-.398-1.793 0-3.988 1.098-5.187 4.189v13.865h-8.577V60.8zm34.618 9.476c0-1.895-.798-3.59-3.391-3.59-1.896 0-3.492 1.096-3.99 3.59h7.382zm-15.56 2.993c0-8.08 5.884-13.067 11.97-13.067 7.382 0 10.873 5.386 10.873 12.07 0 1.495-.2 2.991-.351 3.59h-14.213c.797 2.993 2.992 3.99 5.785 3.99 1.695 0 3.29-.499 5.087-1.496l2.794 5.087c-2.695 1.894-6.285 2.893-9.078 2.893-7.28 0-12.867-4.788-12.867-13.067z"/></svg>