<svg fill="#ff8127" height="32" viewBox="0 0 330 95" width="134" xmlns="http://www.w3.org/2000/svg">
  <path d="M76.8 85.7H5.7A5.7 5.7 0 010 80a5.7 5.7 0 015.7-5.6H71v-32l-30.2-25-29.5 25V56a5.7 5.7 0 01-5.7 5.7A5.7 5.7 0 010 56V39.7c0-1.7.7-3.3 2-4.3L37.2 5.6a5.7 5.7 0 017.3 0l35.9 29.7a5.7 5.7 0 012 4.4V80a5.7 5.7 0 01-5.7 5.7zm27.4-81.5h8.6v12h9.6v-12h8.6v32.4h-8.6V23.7h-9.6v13h-8.6zm48 20c0-3.9-1-6.2-3.6-6.2s-3.6 2.3-3.6 6 1 6.2 3.6 6.2 3.6-2.4 3.6-6.2m-16 0a12.4 12.4 0 1124.7 0 12.4 12.4 0 11-24.7.1m29 2.8V11.7h8.6v14.2c0 3.2.8 4 2.5 4 1.6 0 2.5-.6 3.6-2.2v-16h8.6v25h-7l-.6-3.4h-.2a9.4 9.4 0 01-7.7 4c-5.5 0-7.8-4-7.8-10.3m27 6.7l3.9-5.3c2.3 1.7 4.3 2.5 6 2.5 1.8 0 2.5-.5 2.5-1.5 0-1.3-2.3-1.9-4.7-2.9-3-1.1-6.3-3.3-6.3-7.3 0-5 4-8.1 9.8-8.1 4.1 0 7 1.6 9.2 3.3l-3.8 5a9.3 9.3 0 00-5-2c-1.5 0-2.3.4-2.3 1.4 0 1.2 2.2 1.7 4.7 2.6 3 1.1 6.4 3 6.4 7.5 0 4.7-3.7 8.3-10.7 8.3-3.1 0-7-1.4-9.6-3.5m24.5 3h8.6v-25h-8.6v25zm-.5-32.4c0-2.5 2-4.3 4.8-4.3s4.8 1.8 4.8 4.3-2 4.3-4.8 4.3-4.8-1.8-4.8-4.3zm14.9 7.4h7l.6 3h.2c2-2 4.4-3.6 7.8-3.6 5.5 0 7.8 4 7.8 10.1v15.4H246V22.3c0-3.1-.8-4-2.5-4-1.5 0-2.4.8-3.7 2v16.3h-8.6zm41.6 8.4c0-2.2-1.1-3.3-2.7-3.3s-2.7 1-2.7 3.3c0 2.4 1 3.5 2.7 3.5s2.7-1 2.7-3.5m2.8 19.2c0-1.3-1.2-1.5-3.4-1.5h-2c-2 0-2.8-.1-3.5-.3-.6.6-.9 1.1-.9 1.8 0 1.6 2 2.3 4.9 2.3 2.8 0 4.9-.9 4.9-2.3m-16.8 1.4c0-2 1.2-3.6 3.5-4.8v-.2a5 5 0 01-2.3-4.3c0-1.7 1.1-3.5 2.8-4.7v-.2a7.7 7.7 0 01-3.4-6.4c0-6.1 5.2-9 10.7-9 1.4 0 2.8.2 4 .6h9.3v6.2h-3.6c.2.6.4 1.5.4 2.5 0 6-4.5 8.3-10.1 8.3-.8 0-1.7 0-2.8-.3-.5.4-.6.7-.6 1.4 0 1.1 1 1.5 3.5 1.5h3.7c6.3 0 9.9 2 9.9 6.5 0 5.4-5.6 9-14.5 9-5.7 0-10.5-1.6-10.5-6.1M112 72.2h6l-.6-2.2-2.4-10.3h-.1c-.7 3.3-1.5 7.2-2.3 10.3zm-2-18.9h10.3l10 32.4H121l-1.6-6.8h-9l-1.6 6.8H100l9.9-32.4zm22.6 7.5h7l.6 3h.2c2-1.9 4.5-3.6 7.9-3.6 5.5 0 7.8 4 7.8 10.2v15.3h-8.6V71.5c0-3.2-.8-4-2.5-4-1.6 0-2.5.7-3.8 1.9v16.3h-8.6V60.8zm29 33.8l1.4-6.5 1.6.3c2.3 0 3.4-1 4-2.5l.2-1-9.5-24.1h8.6l3 9.6c.7 2.3 1.2 4.6 1.8 7h.2l1.6-7 2.5-9.6h8.2l-8.4 24.5c-2.6 6.8-5.3 9.8-11.5 9.8a13 13 0 01-3.8-.5M187 60.8h8.5l1.9 10.5 1 7.6h.2c.3-2.6.7-5.2 1.3-7.6l2.3-10.5h7.3l2.4 10.5c.6 2.5 1 5 1.5 7.6h.2l1-7.6 2-10.5h7.8l-5.7 25h-10L207 77l-1.2-7.4h-.2l-1 7.4-1.8 8.6H193zm41.5-9.8h8.6v8.1l-.4 4.3c1.7-1.5 4-3.2 7.4-3.2 5.5 0 7.8 4 7.8 10.2v15.3h-8.6V71.5c0-3.2-.8-4-2.4-4-1.6 0-2.5.7-3.8 1.9v16.3h-8.6zm43.3 19.3c0-2-.8-3.6-3.4-3.6-2 0-3.5 1-4 3.6h7.4zm-15.6 3c0-8.1 5.9-13.1 12-13.1 7.4 0 10.9 5.4 10.9 12 0 1.6-.2 3-.4 3.7h-14.2c.8 3 3 4 5.8 4 1.7 0 3.3-.5 5-1.5l2.9 5a16.8 16.8 0 01-9.1 3c-7.3 0-12.9-4.9-12.9-13.1zm27.6-12.5h7l.5 4.3h.2c1.9-3.4 4.7-4.9 7.1-4.9 1.6 0 2.4.2 3.1.5l-1.4 7.4c-.9-.2-1.7-.4-2.8-.4-1.8 0-4 1-5.2 4.2v13.8h-8.5V60.8zm34.6 9.5c0-2-.8-3.6-3.4-3.6-2 0-3.5 1-4 3.6h7.4zm-15.6 3c0-8.1 5.9-13.1 12-13.1 7.4 0 10.9 5.4 10.9 12 0 1.6-.2 3-.4 3.7h-14.2c.8 3 3 4 5.8 4 1.7 0 3.3-.5 5-1.5l2.9 5a16.8 16.8 0 01-9.1 3c-7.3 0-12.9-4.9-12.9-13.1z"/>
</svg>
