<svg width="75" height="18" viewBox="0 0 75 18" fill="none" xmlns="http://www.w3.org/2000/svg">
<path d="M9 0H0V18H9V0Z" fill="#1FB141"/>
<path d="M13.5 9C15.9853 9 18 6.98528 18 4.5C18 2.01472 15.9853 0 13.5 0C11.0147 0 9 2.01472 9 4.5C9 6.98528 11.0147 9 13.5 9Z" fill="#1FB141"/>
<path d="M13.5 18C15.9853 18 18 15.9853 18 13.5C18 11.0147 15.9853 9 13.5 9C11.0147 9 9 11.0147 9 13.5C9 15.9853 11.0147 18 13.5 18Z" fill="#1FB141"/>
<path d="M31.0417 4.27273H28.9323V13H31.0417V4.27273ZM40.2158 7.43466C40.0027 5.34659 38.4473 4.15341 36.3379 4.15341C34.0112 4.15341 32.2002 5.75142 32.2002 8.63636C32.2002 11.5085 33.9686 13.1193 36.3379 13.1193C38.7328 13.1193 40.0581 11.4915 40.2158 9.9446L38.0851 9.93182C37.9359 10.7713 37.3053 11.2699 36.3806 11.2699C35.1362 11.2699 34.3521 10.3707 34.3521 8.63636C34.3521 6.97017 35.1192 6.00284 36.3933 6.00284C37.3521 6.00284 37.9786 6.56108 38.0851 7.43466H40.2158ZM49.588 8.63636C49.588 5.75142 47.7642 4.15341 45.4204 4.15341C43.0681 4.15341 41.2571 5.75142 41.2571 8.63636C41.2571 11.5085 43.0681 13.1193 45.4204 13.1193C47.7642 13.1193 49.588 11.5213 49.588 8.63636ZM47.4318 8.63636C47.4318 10.3452 46.6818 11.2699 45.4204 11.2699C44.1633 11.2699 43.409 10.3452 43.409 8.63636C43.409 6.92756 44.1633 6.00284 45.4204 6.00284C46.6818 6.00284 47.4318 6.92756 47.4318 8.63636ZM58.1751 4.27273H56.07V9.30114H55.9976L52.5629 4.27273H50.7476V13H52.8569V7.96307H52.9123L56.3853 13H58.1751V4.27273ZM64.1468 6.8892H66.1667C66.1496 5.2571 64.8499 4.15341 62.8215 4.15341C60.8272 4.15341 59.3911 5.24006 59.4039 6.86364C59.3996 8.18892 60.3286 8.93466 61.8371 9.27983L62.7491 9.4929C63.7079 9.71449 64.1383 9.97443 64.1468 10.4645C64.1383 10.9972 63.6397 11.3679 62.7917 11.3679C61.8584 11.3679 61.2448 10.9332 61.1979 10.0938H59.178C59.2036 12.1349 60.6226 13.1108 62.8172 13.1108C64.9905 13.1108 66.2775 12.1264 66.286 10.4688C66.2775 9.07528 65.3357 8.22301 63.6141 7.84375L62.8641 7.6733C62.0715 7.50284 61.5687 7.23864 61.5857 6.71875C61.59 6.24148 61.9991 5.89631 62.8172 5.89631C63.6397 5.89631 64.0914 6.26705 64.1468 6.8892ZM70.6714 13.1193C72.7126 13.1193 74.1955 12.0582 74.1955 10.6392C74.1955 9.55682 73.322 8.67898 72.2353 8.50852V8.44034C73.1813 8.26136 73.8717 7.47727 73.8717 6.5142C73.8717 5.15483 72.5166 4.15341 70.6714 4.15341C68.8262 4.15341 67.4711 5.15057 67.4711 6.5142C67.4711 7.47727 68.1444 8.26136 69.1075 8.44034V8.50852C68.0038 8.67898 67.1472 9.55682 67.1472 10.6392C67.1472 12.0582 68.6302 13.1193 70.6714 13.1193ZM70.6714 11.6236C69.8958 11.6236 69.3589 11.1378 69.3589 10.4688C69.3589 9.78693 69.9129 9.29688 70.6714 9.29688C71.4299 9.29688 71.9839 9.79119 71.9839 10.4688C71.9839 11.142 71.4427 11.6236 70.6714 11.6236ZM70.6714 7.80966C70.0066 7.80966 69.5293 7.36222 69.5293 6.74432C69.5293 6.13068 70.0024 5.70028 70.6714 5.70028C71.3404 5.70028 71.8134 6.13494 71.8134 6.74432C71.8134 7.36648 71.3319 7.80966 70.6714 7.80966Z" fill="#1A1A1A"/>
</svg>
