<svg version="1.1" viewBox="0 0 498.44 373.45" xmlns="http://www.w3.org/2000/svg">
 <defs>
  <clipPath id="a">
   <path d="m0 792h612v-792h-612z"/>
  </clipPath>
 </defs>
 <g transform="matrix(1.3333 0 0 -1.3333 -127.57 742.46)" clip-path="url(#a)">
  <path d="M154.72 459.05v-108.19c0-10.564-1.966-20.395-5.899-29.5-3.935-9.105-9.327-17.141-16.184-24.11-6.856-6.968-14.887-12.418-24.108-16.351-4.1459-1.7722-8.4474-3.1558-12.849-4.133v31.228c0.463 0.176 0.925 0.36 1.387 0.555 5.619 2.357 10.511 5.617 14.668 9.776 4.157 4.157 7.414 9.045 9.778 14.668 2.36 5.617 3.535 11.576 3.535 17.867v108.19z" fill="#474747"/>
  <path d="M241.71 347.67c6.294 0 12.193 1.178 17.701 3.54 5.508 2.358 10.34 5.62 14.497 9.777 4.157 4.16 7.419 9.047 9.78 14.664 2.359 5.622 3.54 11.578 3.54 17.872v45.52h-45.518c-6.292 0-12.253-1.182-17.87-3.546-5.618-2.353-10.506-5.617-14.663-9.774-4.159-4.161-7.421-8.993-9.78-14.501-2.36-5.503-3.542-11.405-3.542-17.699s1.182-12.25 3.542-17.872c2.359-5.617 5.621-10.504 9.78-14.664 4.157-4.157 9.045-7.419 14.663-9.777 5.617-2.362 11.578-3.54 17.87-3.54m75.525 162.74v-116.89c0-10.337-1.966-20.116-5.899-29.333-3.934-9.217-9.327-17.311-16.188-24.276-6.855-6.968-14.888-12.417-24.106-16.35-9.216-3.935-18.99-5.903-29.332-5.903-10.34 0-20.114 1.968-29.332 5.903-9.216 3.933-17.31 9.382-24.275 16.35-6.967 6.965-12.419 15.059-16.354 24.276-3.933 9.217-5.901 18.996-5.901 29.333 0 10.567 1.968 20.398 5.901 29.503 3.935 9.105 9.387 17.083 16.354 23.939 6.965 6.854 15.059 12.251 24.275 16.182 9.218 3.932 18.992 5.898 29.332 5.898h45.518v41.37z" fill="#474747"/>
  <path d="M330.92 510.41h30.008c0-43.812 9e-5 -91.706-1.6e-4 -133.63-4e-5 -6.292 0.84016-12.252 3.1982-17.87 2.365-5.623 5.624-10.507 9.78-14.668 4.157-4.159 9.048-7.418 14.668-9.772 0.462-0.196 0.925-0.382 1.387-0.558v-31.228c-4.4016 0.97839-8.7033 2.362-12.85 4.133-9.22 3.933-17.253 9.384-24.107 16.351-6.855 6.97-12.25 15.005-16.184 24.11-3.933 9.106-5.9 18.936-5.9 29.502v133.63z" fill="#474747"/>
  <path d="M469.52 347.67v-30.009h-14.838c-10.333 0-20.113 1.968-29.329 5.903-9.219 3.933-17.311 9.382-24.277 16.35-6.968 6.965-12.418 15.059-16.351 24.276-3.934 9.217-5.9 18.996-5.9 29.333v116.89h30.003v-43.716h33.637v-30.011h-33.637v-43.165c0-6.29 1.188-12.25 3.546-17.872 2.356-5.612 5.618-10.504 9.775-14.664 4.159-4.157 9.047-7.419 14.664-9.777 5.623-2.362 11.577-3.54 17.869-3.54z" fill="#474747"/>
  <path d="M141.57 513.01c-10.717 0-19.405-8.688-19.405-19.405s8.688-19.406 19.405-19.406 19.405 8.689 19.405 19.406-8.688 19.405-19.405 19.405" fill="#1ba1e2"/>
  <path d="M191.6 539.37c-4.11 9.288-14.972 13.485-24.259 9.375-9.288-4.11-13.485-14.972-9.375-24.259 4.11-9.288 14.971-13.485 24.259-9.375s13.485 14.972 9.375 24.259" fill="#a4c400"/>
  <path d="M218.66 496.04c-3.342 7.552-12.174 10.965-19.726 7.623-7.551-3.342-10.964-12.174-7.622-19.726 3.342-7.551 12.174-10.964 19.725-7.622 7.552 3.342 10.965 12.173 7.623 19.725" fill="#d80073"/>
  <path d="M273.02 519.49c-4.41 9.965-16.063 14.468-26.028 10.059-9.965-4.41-14.468-16.064-10.058-26.028 4.409-9.965 16.063-14.468 26.027-10.059 9.965 4.41 14.469 16.064 10.059 26.028" fill="#00aba9"/>
  <path d="M316.19 547.71c-3.434 7.76-12.509 11.267-20.269 7.833-7.759-3.434-11.266-12.509-7.833-20.269 3.435-7.759 12.509-11.266 20.269-7.833 7.76 3.435 11.267 12.51 7.833 20.269" fill="#f58a2e"/>
 </g>
</svg>
