<svg id="Layer_1" data-name="Layer 1" xmlns="http://www.w3.org/2000/svg" viewBox="0 0 68.97 31.96"><defs><style>.cls-1{fill:#148aab;}</style></defs><title>leesa-logo</title><path class="cls-1" d="M0,0H3.85V24.26H0Z"/><path class="cls-1" d="M8.82,17.9a3.91,3.91,0,0,0,1.35,2.7,4.22,4.22,0,0,0,2.79,1A4.59,4.59,0,0,0,15.38,21a6.72,6.72,0,0,0,1.72-1.49l2.76,2.09a7.82,7.82,0,0,1-3,2.37,8.89,8.89,0,0,1-3.5.71,9.24,9.24,0,0,1-3.27-.58,7.85,7.85,0,0,1-2.66-1.64,7.76,7.76,0,0,1-1.78-2.55A8.14,8.14,0,0,1,5,16.56a8.14,8.14,0,0,1,.66-3.32,7.76,7.76,0,0,1,1.78-2.55A7.85,7.85,0,0,1,10.07,9a9.24,9.24,0,0,1,3.27-.58A7.49,7.49,0,0,1,16.28,9a6.3,6.3,0,0,1,2.28,1.62A7.49,7.49,0,0,1,20,13.27a11.1,11.1,0,0,1,.53,3.58V17.9ZM16.72,15a3.63,3.63,0,0,0-1.06-2.68,4,4,0,0,0-2.86-1,3.74,3.74,0,0,0-2.74,1A4.44,4.44,0,0,0,8.82,15Z"/><path class="cls-1" d="M25.47,17.9a3.91,3.91,0,0,0,1.35,2.7,4.22,4.22,0,0,0,2.79,1A4.59,4.59,0,0,0,32,21a6.72,6.72,0,0,0,1.72-1.49l2.76,2.09a7.82,7.82,0,0,1-3,2.37,8.89,8.89,0,0,1-3.5.71,9.24,9.24,0,0,1-3.27-.58,7.85,7.85,0,0,1-2.66-1.64,7.76,7.76,0,0,1-1.78-2.55,8.14,8.14,0,0,1-.66-3.32,8.14,8.14,0,0,1,.66-3.32,7.76,7.76,0,0,1,1.78-2.55A7.85,7.85,0,0,1,26.73,9,9.24,9.24,0,0,1,30,8.47,7.49,7.49,0,0,1,32.93,9a6.3,6.3,0,0,1,2.28,1.62,7.49,7.49,0,0,1,1.48,2.61,11.09,11.09,0,0,1,.53,3.58V17.9ZM33.37,15a3.63,3.63,0,0,0-1.06-2.68,4,4,0,0,0-2.86-1,3.74,3.74,0,0,0-2.74,1A4.44,4.44,0,0,0,25.47,15Z"/><path class="cls-1" d="M47.55,13.12a3.52,3.52,0,0,0-3-1.57,3.22,3.22,0,0,0-1.51.39,1.31,1.31,0,0,0-.74,1.25,1.08,1.08,0,0,0,.61,1,6.69,6.69,0,0,0,1.54.55l2,.47a7.9,7.9,0,0,1,2,.74A4.39,4.39,0,0,1,50,17.33a4.07,4.07,0,0,1,.61,2.37A4.3,4.3,0,0,1,50,22a4.67,4.67,0,0,1-1.54,1.52,6.84,6.84,0,0,1-2.13.83,11.22,11.22,0,0,1-2.37.26,10.2,10.2,0,0,1-3.3-.51A6.27,6.27,0,0,1,38,22.27l2.57-2.41a7.22,7.22,0,0,0,1.59,1.36,3.84,3.84,0,0,0,2.07.53,4.13,4.13,0,0,0,.87-.1,2.81,2.81,0,0,0,.83-.32,2,2,0,0,0,.63-.56,1.44,1.44,0,0,0-.37-2,5.44,5.44,0,0,0-1.54-.63q-.93-.24-2-.45a7.75,7.75,0,0,1-2-.67A4.2,4.2,0,0,1,39,15.75a3.85,3.85,0,0,1-.61-2.31A4.5,4.5,0,0,1,39,11.21a4.66,4.66,0,0,1,1.4-1.56,6,6,0,0,1,2-.9A9.08,9.08,0,0,1,47.68,9a5,5,0,0,1,2.44,1.81Z"/><path class="cls-1" d="M62.05,22.14H62A5,5,0,0,1,59.84,24a6.65,6.65,0,0,1-2.82.59,7.5,7.5,0,0,1-2.07-.29,5.6,5.6,0,0,1-1.8-.87A4.45,4.45,0,0,1,51.88,22a4.09,4.09,0,0,1-.48-2,4.65,4.65,0,0,1,.45-2.13,4.38,4.38,0,0,1,1.2-1.48,6.1,6.1,0,0,1,1.75-.95,12,12,0,0,1,2.07-.53A18.39,18.39,0,0,1,59,14.71q1.09,0,2.05,0h1v-.42a2.5,2.5,0,0,0-1-2.17,4.21,4.21,0,0,0-2.53-.72,6,6,0,0,0-2.28.43A5.77,5.77,0,0,0,54.41,13l-2-2a7.46,7.46,0,0,1,3-1.89,11,11,0,0,1,3.55-.58,8.94,8.94,0,0,1,2.76.37,6.08,6.08,0,0,1,1.86.95,4.2,4.2,0,0,1,1.14,1.33,6.2,6.2,0,0,1,.58,1.52,8.39,8.39,0,0,1,.21,1.49q0,.72,0,1.27v8.86H62.05Zm-.22-4.78H61q-.8,0-1.8.06a9.44,9.44,0,0,0-1.88.3,4.29,4.29,0,0,0-1.49.71,1.54,1.54,0,0,0-.61,1.3,1.64,1.64,0,0,0,.24.91,2.17,2.17,0,0,0,.63.63,2.61,2.61,0,0,0,.87.37,4.2,4.2,0,0,0,1,.11,4,4,0,0,0,2.94-.95,3.49,3.49,0,0,0,.95-2.58Z"/><polyline class="cls-1" points="0 31.96 0 25.78 65.52 25.78 65.52 31.96 61.72 31.96 61.72 29.9 3.77 29.9 3.77 31.96"/><path class="cls-1" d="M66.68,30.83a1.12,1.12,0,0,1,.09-.45,1.15,1.15,0,0,1,1.5-.6,1.15,1.15,0,0,1,.37.24,1.13,1.13,0,0,1,.25.36,1.09,1.09,0,0,1,.09.45,1.12,1.12,0,0,1-.09.45,1.15,1.15,0,0,1-1.5.6,1.16,1.16,0,0,1-.36-.24,1.14,1.14,0,0,1-.25-.36A1.09,1.09,0,0,1,66.68,30.83Zm.18,0a1,1,0,0,0,.07.38,1,1,0,0,0,.21.31,1,1,0,0,0,.31.2,1,1,0,0,0,.75,0,1,1,0,0,0,.31-.21,1,1,0,0,0,.21-.31,1,1,0,0,0,.07-.39,1,1,0,0,0-.07-.38.94.94,0,0,0-.21-.31,1,1,0,0,0-.68-.28.94.94,0,0,0-.38.07,1,1,0,0,0-.31.2.94.94,0,0,0-.21.31A1,1,0,0,0,66.86,30.83Zm.54-.66h.48a.56.56,0,0,1,.35.09.35.35,0,0,1,.11.29.32.32,0,0,1-.1.26.46.46,0,0,1-.25.1l.38.58h-.2l-.36-.57h-.24v.57H67.4Zm.18.59h.36l.11,0a.18.18,0,0,0,.08-.06.22.22,0,0,0,0-.12.2.2,0,0,0,0-.11.17.17,0,0,0-.07-.06l-.1,0h-.39Z"/></svg>
