<svg xmlns="http://www.w3.org/2000/svg" data-name="Layer 1" viewBox="0 0 69 32"><path d="M0 0h3.9v24.3H0zm8.8 17.9a4 4 0 001.4 2.7 4.2 4.2 0 002.8 1 4.6 4.6 0 002.4-.6 6.7 6.7 0 001.7-1.5l2.8 2.1a7.8 7.8 0 01-3 2.4 8.9 8.9 0 01-3.5.7A9.2 9.2 0 0110 24a7.8 7.8 0 01-2.7-1.6 7.8 7.8 0 01-1.8-2.6 8.1 8.1 0 01-.6-3.3 8.1 8.1 0 01.7-3.4 7.8 7.8 0 011.7-2.5A7.8 7.8 0 0110.1 9a9.2 9.2 0 013.2-.6 7.5 7.5 0 013 .6 6.3 6.3 0 012.3 1.6 7.5 7.5 0 011.4 2.7 11.1 11.1 0 01.5 3.5V18zm8-2.9a3.6 3.6 0 00-1.1-2.7 4 4 0 00-2.9-1 3.7 3.7 0 00-2.7 1A4.4 4.4 0 008.8 15zm8.7 2.9a4 4 0 001.3 2.7 4.2 4.2 0 002.8 1A4.6 4.6 0 0032 21a6.7 6.7 0 001.7-1.5l2.8 2.1a7.8 7.8 0 01-3 2.4 8.9 8.9 0 01-3.5.7 9.2 9.2 0 01-3.3-.6 7.8 7.8 0 01-2.7-1.6 7.8 7.8 0 01-1.7-2.6 8.1 8.1 0 01-.7-3.3 8.1 8.1 0 01.7-3.3 7.8 7.8 0 011.7-2.6A7.8 7.8 0 0126.7 9a9.2 9.2 0 013.3-.5 7.5 7.5 0 013 .5 6.3 6.3 0 012.2 1.6 7.5 7.5 0 011.5 2.6 11 11 0 01.5 3.6V18zm7.9-2.9a3.6 3.6 0 00-1-2.7 4 4 0 00-3-1 3.7 3.7 0 00-2.7 1 4.4 4.4 0 00-1.2 2.7zm14.1-1.9a3.5 3.5 0 00-3-1.6 3.2 3.2 0 00-1.5.4 1.3 1.3 0 00-.7 1.3 1 1 0 00.6 1 6.7 6.7 0 001.5.5l2 .5a7.9 7.9 0 012 .7 4.4 4.4 0 011.6 1.4 4 4 0 01.6 2.4A4.3 4.3 0 0150 22a4.7 4.7 0 01-1.5 1.5 6.8 6.8 0 01-2.2.8 11.2 11.2 0 01-2.3.3 10.2 10.2 0 01-3.3-.5 6.3 6.3 0 01-2.7-1.8l2.6-2.4a7.2 7.2 0 001.6 1.3 3.8 3.8 0 002 .5 4.1 4.1 0 00.9 0 2.8 2.8 0 00.8-.4 2 2 0 00.7-.5 1.4 1.4 0 00-.4-2 5.4 5.4 0 00-1.5-.7l-2-.4a7.8 7.8 0 01-2-.7 4.2 4.2 0 01-1.7-1.3 3.9 3.9 0 01-.6-2.3 4.5 4.5 0 01.6-2.2 4.7 4.7 0 011.4-1.6 6 6 0 012-.9 9 9 0 015.3.3 5 5 0 012.4 1.8zm14.5 9a5 5 0 01-2.2 1.9 6.7 6.7 0 01-2.8.6 7.5 7.5 0 01-2-.3 5.6 5.6 0 01-1.8-.9 4.5 4.5 0 01-1.3-1.4 4 4 0 01-.5-2 4.7 4.7 0 01.5-2.1 4.4 4.4 0 011.2-1.5 6.1 6.1 0 011.7-1 12 12 0 012-.5 18.4 18.4 0 012.2-.2h3v-.4a2.5 2.5 0 00-1-2.2 4.2 4.2 0 00-2.5-.7 6 6 0 00-2.3.4 5.8 5.8 0 00-1.8 1.2l-2-2a7.5 7.5 0 013-1.9 11 11 0 013.6-.6 9 9 0 012.7.4 6 6 0 011.9 1 4.2 4.2 0 011.1 1.3 6.2 6.2 0 01.6 1.5 8.4 8.4 0 01.2 1.5v10.1H62zm-.2-4.7h-2.6a9.4 9.4 0 00-1.9.3 4.3 4.3 0 00-1.5.7 1.5 1.5 0 00-.6 1.3 1.6 1.6 0 00.3 1 2.2 2.2 0 00.6.6 2.6 2.6 0 00.9.3 4.2 4.2 0 001 .1 4 4 0 002.9-.9 3.5 3.5 0 001-2.6zM0 32v-6.2h65.5V32h-3.8v-2.1h-58v2m63-1a1.1 1.1 0 010-.5 1.1 1.1 0 011.6-.6 1.1 1.1 0 01.3.2 1.1 1.1 0 01.3.4 1 1 0 010 .4 1.1 1.1 0 010 .5 1.1 1.1 0 01-1.5.6 1.2 1.2 0 01-.4-.3 1.1 1.1 0 01-.2-.3 1 1 0 01-.1-.5zm.2 0a1 1 0 000 .3 1 1 0 00.2.3 1 1 0 00.4.2 1 1 0 00.7 0 1 1 0 00.3-.2 1 1 0 00.2-.3 1 1 0 000-.4 1 1 0 000-.4 1 1 0 00-.2-.3 1 1 0 00-.7-.3 1 1 0 00-.3.1 1 1 0 00-.4.2 1 1 0 00-.2.3 1 1 0 000 .4zm.5-.7h.5a.6.6 0 01.3 0 .3.3 0 01.1.3.3.3 0 010 .3.5.5 0 01-.3.1l.4.6h-.2l-.4-.6h-.2v.6h-.2zm.2.6h.5a.2.2 0 000-.1.2.2 0 000-.1.2.2 0 000-.1h-.5z" class="cls-1"/></svg>