<svg xmlns="http://www.w3.org/2000/svg" data-name="Layer 1" viewBox="0 0 68.97 31.96"><path d="M0 0h3.85v24.26H0zm8.82 17.9a3.91 3.91 0 001.35 2.7 4.22 4.22 0 002.79 1 4.59 4.59 0 002.42-.6 6.72 6.72 0 001.72-1.49l2.76 2.09a7.82 7.82 0 01-3 2.37 8.89 8.89 0 01-3.5.71 9.24 9.24 0 01-3.27-.58 7.85 7.85 0 01-2.66-1.64 7.76 7.76 0 01-1.78-2.55A8.14 8.14 0 015 16.56a8.14 8.14 0 01.66-3.32 7.76 7.76 0 011.78-2.55A7.85 7.85 0 0110.07 9a9.24 9.24 0 013.27-.58 7.49 7.49 0 012.94.58 6.3 6.3 0 012.28 1.62A7.49 7.49 0 0120 13.27a11.1 11.1 0 01.53 3.58v1.05zm7.9-2.9a3.63 3.63 0 00-1.06-2.68 4 4 0 00-2.86-1 3.74 3.74 0 00-2.74 1A4.44 4.44 0 008.82 15zm8.75 2.9a3.91 3.91 0 001.35 2.7 4.22 4.22 0 002.79 1A4.59 4.59 0 0032 21a6.72 6.72 0 001.72-1.49l2.76 2.09a7.82 7.82 0 01-3 2.37 8.89 8.89 0 01-3.5.71 9.24 9.24 0 01-3.27-.58 7.85 7.85 0 01-2.66-1.64 7.76 7.76 0 01-1.78-2.55 8.14 8.14 0 01-.66-3.32 8.14 8.14 0 01.66-3.32 7.76 7.76 0 011.78-2.55A7.85 7.85 0 0126.73 9 9.24 9.24 0 0130 8.47a7.49 7.49 0 012.93.53 6.3 6.3 0 012.28 1.62 7.49 7.49 0 011.48 2.61 11.09 11.09 0 01.53 3.58v1.09zm7.9-2.9a3.63 3.63 0 00-1.06-2.68 4 4 0 00-2.86-1 3.74 3.74 0 00-2.74 1A4.44 4.44 0 0025.47 15zm14.18-1.88a3.52 3.52 0 00-3-1.57 3.22 3.22 0 00-1.51.39 1.31 1.31 0 00-.74 1.25 1.08 1.08 0 00.61 1 6.69 6.69 0 001.54.55l2 .47a7.9 7.9 0 012 .74A4.39 4.39 0 0150 17.33a4.07 4.07 0 01.61 2.37A4.3 4.3 0 0150 22a4.67 4.67 0 01-1.54 1.52 6.84 6.84 0 01-2.13.83 11.22 11.22 0 01-2.37.26 10.2 10.2 0 01-3.3-.51A6.27 6.27 0 0138 22.27l2.57-2.41a7.22 7.22 0 001.59 1.36 3.84 3.84 0 002.07.53 4.13 4.13 0 00.87-.1 2.81 2.81 0 00.83-.32 2 2 0 00.63-.56 1.44 1.44 0 00-.37-2 5.44 5.44 0 00-1.54-.63q-.93-.24-2-.45a7.75 7.75 0 01-2-.67A4.2 4.2 0 0139 15.75a3.85 3.85 0 01-.61-2.31 4.5 4.5 0 01.61-2.23 4.66 4.66 0 011.4-1.56 6 6 0 012-.9 9.08 9.08 0 015.28.25 5 5 0 012.44 1.81zm14.5 9.02H62A5 5 0 0159.84 24a6.65 6.65 0 01-2.82.59 7.5 7.5 0 01-2.07-.29 5.6 5.6 0 01-1.8-.87A4.45 4.45 0 0151.88 22a4.09 4.09 0 01-.48-2 4.65 4.65 0 01.45-2.13 4.38 4.38 0 011.2-1.48 6.1 6.1 0 011.75-.95 12 12 0 012.07-.53 18.39 18.39 0 012.13-.2h3.05v-.42a2.5 2.5 0 00-1-2.17 4.21 4.21 0 00-2.53-.72 6 6 0 00-2.28.43A5.77 5.77 0 0054.41 13l-2-2a7.46 7.46 0 013-1.89 11 11 0 013.55-.58 8.94 8.94 0 012.76.37 6.08 6.08 0 011.86.95 4.2 4.2 0 011.14 1.33 6.2 6.2 0 01.58 1.52 8.39 8.39 0 01.21 1.49v10.13h-3.46zm-.22-4.78H61q-.8 0-1.8.06a9.44 9.44 0 00-1.88.3 4.29 4.29 0 00-1.49.71 1.54 1.54 0 00-.61 1.3 1.64 1.64 0 00.24.91 2.17 2.17 0 00.63.63 2.61 2.61 0 00.87.37 4.2 4.2 0 001 .11 4 4 0 002.94-.95 3.49 3.49 0 00.95-2.58zM0 31.96v-6.18h65.52v6.18h-3.8V29.9H3.77v2.06m62.91-1.13a1.12 1.12 0 01.09-.45 1.15 1.15 0 011.5-.6 1.15 1.15 0 01.37.24 1.13 1.13 0 01.25.36 1.09 1.09 0 01.09.45 1.12 1.12 0 01-.09.45 1.15 1.15 0 01-1.5.6 1.16 1.16 0 01-.36-.24 1.14 1.14 0 01-.25-.36 1.09 1.09 0 01-.1-.45zm.18 0a1 1 0 00.07.38 1 1 0 00.21.31 1 1 0 00.31.2 1 1 0 00.75 0 1 1 0 00.31-.21 1 1 0 00.21-.31 1 1 0 00.07-.39 1 1 0 00-.07-.38.94.94 0 00-.21-.31 1 1 0 00-.68-.28.94.94 0 00-.38.07 1 1 0 00-.31.2.94.94 0 00-.21.31 1 1 0 00-.07.41zm.54-.66h.48a.56.56 0 01.35.09.35.35 0 01.11.29.32.32 0 01-.1.26.46.46 0 01-.25.1l.38.58h-.2l-.36-.57h-.24v.57h-.17zm.18.59h.47a.18.18 0 00.08-.06.22.22 0 000-.12.2.2 0 000-.11.17.17 0 00-.07-.06h-.49z" class="cls-1"/></svg>