<svg viewBox="0 0 213 40" xmlns="http://www.w3.org/2000/svg"><path d="M145.5 22.2l4.6-2.9a12.3 12.3 0 00-11-6.3 12.7 12.7 0 00-13 13 13 13 0 0024.1 6.6l-4.7-2.9a7.5 7.5 0 110-7.4z" fill="#273844" fill-rule="evenodd"/><path d="M113 14h6v25h-6z" fill="#273844"/><path d="M116 8a4 4 0 004-4 4 4 0 10-8 0 4 4 0 004 4zm-17 6h-6v25h6V27a5.8 5.8 0 012.7-5 7.4 7.4 0 015.3-1v-7c-3.4 0-6.8.8-8 4zm-13 0h-6V7l-6 2v5h-4v6h4v10.6c0 6.9 2.8 9.4 12 8.4v-5.8c-3.9.1-6 0-6-2.7V20h6zm-58.4-.7a8.4 8.4 0 00-7.5 3.6 7.4 7.4 0 00-6.7-3.6c-3.2 0-5.5 1.1-7 3.4V14H0v25h6V25c0-3.6 2-5.7 4.6-5.7C14 19.4 15 21 15 24v15h6V25c0-3.6 1.7-5.7 4.6-5.7C29 19.4 30 21 30 24v15h6V23.6c0-6.3-2.7-10.3-8.4-10.3zM66.4 28H47.2a7.5 7.5 0 007.5 5.5 8.4 8.4 0 006.3-2.7l4.4 3c-2.4 3.4-6 5.2-10.8 5.2a13.3 13.3 0 01-9.9-3.7A12.6 12.6 0 0141 26a12.7 12.7 0 013.7-9.3A12.5 12.5 0 0154 13a11.7 11.7 0 019 3.7 12.9 12.9 0 013.5 9.3 10 10 0 01-.2 2zm-18.9-5h13c-.8-3.1-3.3-4.6-6.3-4.6-3.5 0-6 1.7-6.7 4.6z" fill="#273844" fill-rule="evenodd"/><path d="M206 14h6v25h-6z" fill="#0fb191"/><g fill-rule="evenodd"><path d="M209 8a4 4 0 004-4 4 4 0 10-8 0 4 4 0 004 4zm-16 9v-3h6v25h-6v-3a11 11 0 01-8.7 3.6 11.5 11.5 0 01-8.7-3.8 13.3 13.3 0 01-3.6-9.3 13.2 13.2 0 013.6-9.3 11.6 11.6 0 018.7-3.9 11 11 0 018.7 3.6zm-13 14.8a7.3 7.3 0 0012.6-5.3 7.4 7.4 0 00-12.5-5.3 7.1 7.1 0 00-2.1 5.3 7.3 7.3 0 002 5.3z" fill="#0fb191"/><path d="M164.8 38.8a4 4 0 10-5.6 0 4 4 0 005.6 0z" fill="#1ec4c6"/><path d="M166 4a4 4 0 01-8 0 4 4 0 118 0z" fill="#f7ab59"/><path d="M162 24a4 4 0 004-4 4 4 0 10-8 0 4 4 0 004 4z" fill="#1ec4c6"/></g></svg>