<svg viewBox="0 0 213 40" xmlns="http://www.w3.org/2000/svg"><path d="m145.49 22.24 4.61-2.89a12.26 12.26 0 0 0 -11-6.35 12.71 12.71 0 0 0 -13 13 13 13 0 0 0 24.13 6.6l-4.7-2.85a7.5 7.5 0 1 1 0-7.5z" fill="#273844" fill-rule="evenodd"/><path d="m113 14h6v25h-6z" fill="#273844"/><path d="m116 8a4 4 0 0 0 4-4 4 4 0 1 0 -8 0 4 4 0 0 0 4 4zm-17 6h-6v25h6v-12a5.84 5.84 0 0 1 2.72-5 7.38 7.38 0 0 1 5.28-1v-7c-3.39 0-6.8.8-8 4zm-13 0h-6v-7l-6 2v5h-4v6h4v10.61c0 6.84 2.8 9.39 12 8.39v-5.85c-3.85.2-6 0-6-2.65v-10.5h6zm-58.42-.7a8.43 8.43 0 0 0 -7.43 3.6 7.38 7.38 0 0 0 -6.78-3.6c-3.14 0-5.44 1.1-6.93 3.35v-2.65h-6.44v25h6v-14c0-3.65 2.08-5.65 4.6-5.65 3.4-.02 4.4 1.65 4.4 4.65v15h6v-14c0-3.65 1.66-5.65 4.6-5.65 3.4-.05 4.4 1.65 4.4 4.65v15h6v-15.4c0-6.25-2.69-10.3-8.42-10.3zm38.79 14.7h-19.17a7.54 7.54 0 0 0 7.48 5.5 8.38 8.38 0 0 0 6.32-2.72l4.38 3c-2.38 3.45-6.04 5.22-10.79 5.22a13.34 13.34 0 0 1 -9.86-3.69 12.58 12.58 0 0 1 -3.73-9.31 12.7 12.7 0 0 1 3.67-9.26 12.54 12.54 0 0 1 9.42-3.74 11.7 11.7 0 0 1 9 3.74 12.9 12.9 0 0 1 3.53 9.26 10 10 0 0 1 -.25 2zm-18.87-5h13c-.76-3.1-3.31-4.6-6.32-4.6-3.52 0-5.91 1.69-6.68 4.6z" fill="#273844" fill-rule="evenodd"/><path d="m206 14h6v25h-6z" fill="#0fb191"/><g fill-rule="evenodd"><path d="m209 8a4 4 0 0 0 4-4 4 4 0 1 0 -8 0 4 4 0 0 0 4 4zm-16 9v-3h6v25h-6v-3c-2 2.45-5.2 3.65-8.74 3.65a11.51 11.51 0 0 1 -8.68-3.8 13.33 13.33 0 0 1 -3.58-9.35 13.21 13.21 0 0 1 3.58-9.35 11.56 11.56 0 0 1 8.68-3.85c3.53 0 6.77 1.2 8.74 3.65zm-12.94 14.82a7.33 7.33 0 0 0 12.54-5.32 7.4 7.4 0 0 0 -12.54-5.27 7.11 7.11 0 0 0 -2.06 5.27 7.32 7.32 0 0 0 2.06 5.32z" fill="#0fb191"/><path d="m164.83 38.83a4 4 0 1 0 -5.66 0 4 4 0 0 0 5.66 0z" fill="#1ec4c6"/><path d="m166 4a4 4 0 0 1 -8 0 4 4 0 1 1 8 0z" fill="#f7ab59"/><path d="m162 24a4 4 0 0 0 4-4 4 4 0 1 0 -8 0 4 4 0 0 0 4 4z" fill="#1ec4c6"/></g></svg>