<svg xmlns="http://www.w3.org/2000/svg" viewBox="0 0 112 35">
  <g fill="none" fill-rule="evenodd">
    <path fill="#F27557" d="M21.2 13.6a1 1 0 01-1 1H5.4a1 1 0 010-2h14.8c.5 0 1 .4 1 1m-4 5.4H8.4a1 1 0 110-2h8.8a1 1 0 010 2M8.4 8.2h8.8a1 1 0 010 2H8.4a1 1 0 110-2m11.8-2.5a10.7 10.7 0 00-7.4-3h-.7A10.8 10.8 0 004.9 21a10.7 10.7 0 007.9 3.4h10.8V13.6a10.7 10.7 0 00-3.4-8"/>
    <path fill="#C34027" d="M23.6 24.4H12.8A10.7 10.7 0 014.9 21c-2-2.2-3.1-5-3-8.1a10.8 10.8 0 0111-10.1 10.7 10.7 0 017.4 2.9 10.7 10.7 0 013.4 7.9v10.8zm-2-20.1a12.8 12.8 0 00-18 18 12.8 12.8 0 009.2 4h11.8c.5 0 1-.4 1-1V13.7a12.8 12.8 0 00-4-9.3z"/>
    <path fill="#FEFEFE" d="M17.2 17H8.4a1 1 0 000 2h8.8a1 1 0 000-2m-8.8-6.9h8.8a1 1 0 000-2H8.4a1 1 0 000 2m-3 2.5a1 1 0 000 2h14.8a1 1 0 000-2H5.4z"/>
    <path fill="#3C3D3F" d="M54 13.9c0-4.1-2.8-8-7.3-8-4.6 0-7.3 3.9-7.3 8 0 4 2.7 7.9 7.3 7.9 4.5 0 7.3-3.9 7.3-8m-1.4 11.8l2 2.9-5 2.5-3-4c-8.3 0-13.1-6.3-13.1-13.1C33.5 7 38.4.7 46.7.7 54.9.7 59.9 7 59.9 14c0 5-2.7 9.6-7.3 11.7m27-16.4v17.1H74V24c-1 1.8-3 2.8-5.6 2.8-2.2 0-3.9-.7-4.8-2-1-1.2-1.3-3-1.3-5.4V9.1h5.4V18c0 2.5.7 4.2 3 4.2s3.3-1.7 3.3-4.3V9.2h5.5zm4 17.1H89V9.2h-5.5v17.1zM86.1 0a3.5 3.5 0 110 7 3.5 3.5 0 01-3.5-3.5c0-2 1.6-3.5 3.5-3.5zm12.1 17.7c0 2.4 1.7 4.4 4.1 4.4 2.5 0 4.1-2 4.1-4.4 0-2.4-1.6-4.3-4-4.3-2.5 0-4.2 2-4.2 4.3zm0-6c.8-1.7 3-3 5.3-3 5 0 8.4 4 8.4 9 0 5.2-3.5 9-8.4 9-2.3 0-4.5-1.3-5.3-2.8V34H93V9h5.4v2.5z"/>
  </g>
</svg>
