<svg xmlns="http://www.w3.org/2000/svg" width="1030.1" height="386.2">
  <path fill="#1eb152" d="M22.6 76.7h16.8C58 76.7 71.7 70 71.7 54c0-14.2-11.4-23.6-28.3-23.6H22.6v46.3zm21.9-66.2c23 0 51.2 12 51.2 42.8 0 24.7-17.3 37.4-35 41.6l46.4 63.2H78.8L35.4 96.6H22.6V158H0V10.6h44.5zM165.9 67c-16.4 0-26.6 11.6-30.4 26.6h57c-.9-14.5-11.6-26.6-26.6-26.6m.6 75.3c14.2 0 24.5-5.3 31-16.9l15.2 10a50.7 50.7 0 01-47.2 25.2c-33.5 0-53.1-24.2-53.1-55.6 0-31.8 23.1-56 53-56A48 48 0 01215 98.4c0 3.8-.4 8.6-1 11.8h-79.7c1.5 17.5 13.3 32 32.2 32m123.3-67.5a34.3 34.3 0 00-21-8.2c-8.7 0-14.6 5-14.6 12.7 0 7.8 9.7 11.6 19.6 15.6 14 5.4 31.2 13 31.2 32 0 23.8-19 33.7-39.2 33.7a49 49 0 01-38.4-17l14.4-12.5c7.3 7.6 14.7 11.6 23.8 11.6 9.3 0 17.7-4.6 17.7-14.5 0-8.3-9.7-12-20.2-16.3-14-5.7-29.8-12-29.8-31 0-21.7 17.1-32 35.4-32 12.7 0 25 4.2 33.8 12.2l-12.7 13.7zM376 67c-16.5 0-26.6 11.6-30.4 26.6h57C401.6 79.1 390.8 67 376 67m.6 75.3c14.1 0 24.5-5.3 31-16.9l15.2 10a50.7 50.7 0 01-47.2 25.2c-33.6 0-53.2-24.2-53.2-55.6 0-31.8 23.2-56 53.2-56A48 48 0 01425 98.4c0 3.8-.4 8.6-1 11.8h-79.7c1.4 17.5 13.2 32 32.2 32M509.1 110a89.2 89.2 0 00-18.1-1.8c-12.5 0-28.7 3.3-28.7 18.5 0 12 9.3 16.7 19.8 16.7 10.3 0 19-5.1 27-11.8V110zm1.7 48.1l-.7-10.7a38 38 0 01-31.2 13.2c-19.8 0-38-10-38-32.8 0-26.8 24.1-35.2 47.3-35.2 5.5 0 12.2.6 20.9 2.3v-3.2c0-15.6-7.2-24.7-24.3-24.7a73.3 73.3 0 00-33.5 9.5l-6-17.5c11.5-5.4 28-10 43-10 30.5 0 42.5 16.8 42.5 44.4V158h-20zm69.9-89.3c6.3-11.1 15.8-19.1 27-19.1 4.6 0 8.2.4 12.2 1.4l-4.4 22a20 20 0 00-10.1-2.4C595 70.7 587 77 581 87.2v71.6h-21.7V52.3H580l.7 16.6zm136 80.7a52.6 52.6 0 01-34 11.1 53.3 53.3 0 01-54.5-55.8 55 55 0 0155.4-55.9c12.2 0 23 3.6 32 10.1l-10.5 17.1a36 36 0 00-21.5-7.6c-18.5 0-33.3 16.2-33.3 36.3 0 21.7 15.6 36.2 33.3 36.2a39 39 0 0022.2-7.6l11 16zm45.5-81.6a41 41 0 0134.1-19c14.2 0 24 5 30.4 13.5 7.4 10.1 9.5 24.2 9.5 40.3V158h-21.7v-53.5c0-9.7-.4-20.5-5-27.9-3.2-5-9-8.2-17.6-8.2-11.4 0-22.7 7.8-29.7 19V158h-21.7V0h21.7v67.9zM36.9 211.3H22.6v108h6c40.3 0 67.5-13.1 67.5-52.7 0-36-21.9-55.3-59.2-55.3M0 191.5h40.5c37.7 0 79.7 19.8 79.7 73.2 0 54.6-41.6 74.4-81.6 74.4H0V191.5zM188 248c-16.5 0-26.6 11.6-30.4 26.5h56.9c-.8-14.5-11.6-26.5-26.6-26.5m.7 75.2c14.1 0 24.4-5.2 31-16.8l15.1 9.9a50.7 50.7 0 01-47.2 25.3c-33.5 0-53.1-24.3-53.1-55.7 0-31.8 23.2-56 53.1-56a48 48 0 0149.5 49.5c0 3.8-.4 8.6-1 11.8h-79.7c1.5 17.5 13.3 32 32.3 32m121.3-67.4a34.3 34.3 0 00-21-8.3c-8.7 0-14.6 5-14.6 12.7 0 7.8 9.7 11.6 19.6 15.6 13.9 5.5 31.2 13 31.2 32 0 23.8-19 33.8-39.2 33.8a49 49 0 01-38.4-17.1l14.3-12.5c7.4 7.6 14.8 11.6 23.9 11.6 9.2 0 17.7-4.6 17.7-14.5 0-8.2-9.7-12-20.2-16.3-14-5.6-29.8-12-29.8-31 0-21.7 17.1-32 35.4-32 12.7 0 25 4.2 33.8 12.2l-12.7 13.8zm60.4-57.5a13.2 13.2 0 11-26.3 0 13.2 13.2 0 0126.3 0m-24 34H368V339h-21.7V232.3zM478 264.8a37 37 0 00-29.5-15.4c-23.2 0-34.2 17.7-34.2 35.2 0 19 12.9 34.8 33.8 34.8 11 0 24.4-6.3 30-19v-35.6zM444.6 339c-30.2 0-52.3-23.6-52.3-54.8 0-28.7 21-54.4 52.7-54.4 12.2 0 25.3 5.3 33.7 14.5l.5-12h20.6v101c0 11.2-1.9 20.4-5.9 28-9.5 18-28 24.9-47.8 24.9a85.6 85.6 0 01-47.9-14.3l8.4-18.4a72 72 0 0038.8 13.1c17.5 0 32.7-8.7 32.7-30.1v-13.7a41.7 41.7 0 01-33.5 16.2m102.8-106.7l.6 16.9a41 41 0 0134.6-19.4c14.1 0 24 5 30.3 13.5 7.4 10.1 9.5 24.2 9.5 40.2V339h-21.7v-53.6c0-9.6-.4-20.4-5-27.8-3.2-5-9-8.2-17.6-8.2-11.3 0-22.7 7.8-29.7 19V339h-21.7V232.3h20.7zm392.4-91c-16.3 0-30-12-30-27.3 0-11.5 6.5-20.8 16.4-25.7l4 3.6 22 19.6 16.6 15a34.2 34.2 0 01-29 14.7m56.7-16.2l21.6-23.7-14.6-12.7L982 112l-17-15.2-22.2-19.6c-14.1-12.7-22.5-21-22.5-31.7s8.8-18 20-18c10.1 0 17.5 4.8 19.8 14h20.6c.2-2.2-.6-5.7-.6-5.7C975.4 18.3 960 8 941.2 8 920.4 8 899 22.8 899 44.7c0 12 5.7 21.5 13.7 30.4a44.7 44.7 0 00-24.5 39.4c0 24.6 23.2 46.1 49.8 46.1 17.9 0 34.5-6.5 45.5-21.3l17.5 15.7h29.2l-33.5-30z"/>
</svg>
