<?xml version="1.0" encoding="UTF-8"?>
<svg viewBox="0 0 115 80" version="1.1" xmlns="http://www.w3.org/2000/svg" xmlns:xlink="http://www.w3.org/1999/xlink">
    <title>salesforce</title>
    <g stroke="none" stroke-width="1" fill="none" fill-rule="evenodd">
        <g id="salesforce">
            <g id="g3003" transform="translate(57.500000, 40.000000) scale(-1, 1) rotate(-180.000000) translate(-57.500000, -40.000000) " fill="#00A1E0" fill-rule="nonzero">
                <path d="M47.931238,71.2178499 C51.6347423,75.0534978 56.7908579,77.4322824 62.4933385,77.4322824 C70.0737444,77.4322824 76.6873787,73.2307927 80.2093066,66.9935968 C83.2699323,68.3529022 86.6577227,69.1089753 90.222182,69.1089753 C103.894395,69.1089753 114.978734,57.9955148 114.978734,44.2870166 C114.978734,30.5768925 103.894395,19.463432 90.222182,19.463432 C88.5536421,19.463432 86.9227261,19.6292803 85.3457923,19.9463432 C82.244271,14.4473347 76.3340408,10.7320081 69.5502809,10.7320081 C66.7104914,10.7320081 64.0244692,11.3840195 61.6328953,12.5433314 C58.4888426,5.19235051 51.1636252,0.0380462475 42.6262625,0.0380462475 C33.735562,0.0380462475 26.1584277,5.62973469 23.2499336,13.4717566 C21.9788987,13.2034726 20.6620609,13.0636398 19.3108707,13.0636398 C8.72545705,13.0636398 0.143927157,21.6812462 0.143927157,32.3134215 C0.143927157,39.4383935 3.99956306,45.6593298 9.72821683,48.9876771 C8.54878811,51.6851505 7.8928229,54.6622897 7.8928229,57.7922694 C7.8928229,70.0195148 17.8795251,79.9313882 30.1972758,79.9313882 C37.4292514,79.9313882 43.8564017,76.513613 47.931238,71.2178499" id="path3005"></path>
            </g>
            <g id="g3007" transform="translate(21.000000, 37.500000) scale(-1, 1) rotate(-180.000000) translate(-21.000000, -37.500000) translate(17.000000, 32.000000)" fill="#FFFFFF" fill-rule="nonzero">
                <path d="M0.16,1.47761194 C0.0896,1.28880597 0.1856,1.24940299 0.208,1.21656716 C0.4192,1.05895522 0.6336,0.945671642 0.8496,0.819253731 C1.9952,0.195373134 3.0768,0.0131343284 4.208,0.0131343284 C6.512,0.0131343284 7.9424,1.27074627 7.9424,3.29507463 L7.9424,3.33447761 C7.9424,5.2061194 6.328,5.8858209 4.8128,6.37671642 L4.616,6.44238806 C3.4736,6.82328358 2.488,7.15164179 2.488,7.92328358 L2.488,7.96432836 C2.488,8.62432836 3.064,9.11029851 3.9568,9.11029851 C4.9488,9.11029851 6.1264,8.77208955 6.8848,8.3419403 C6.8848,8.3419403 7.1072,8.1941791 7.1888,8.4158209 C7.2336,8.53402985 7.6176,9.59462687 7.6576,9.70955224 C7.7008,9.83432836 7.624,9.92626866 7.5456,9.97552239 C6.68,10.5156716 5.4832,10.8850746 4.2448,10.8850746 L4.0144,10.8834328 C1.9056,10.8834328 0.4336,9.57656716 0.4336,7.70328358 L0.4336,7.6638806 C0.4336,5.68880597 2.0576,5.04850746 3.5792,4.6019403 L3.824,4.52477612 C4.9328,4.17507463 5.888,3.87462687 5.888,3.07343284 L5.888,3.03402985 C5.888,2.30179104 5.2672,1.75671642 4.2656,1.75671642 C3.8768,1.75671642 2.6368,1.76492537 1.2976,2.63343284 C1.136,2.73029851 1.0416,2.80089552 0.9168,2.8780597 C0.8512,2.92074627 0.6864,2.99462687 0.6144,2.77134328 L0.16,1.47761194 Z" id="path3009"></path>
            </g>
            <g id="g3011" transform="translate(55.000000, 37.500000) scale(-1, 1) rotate(-180.000000) translate(-55.000000, -37.500000) translate(51.000000, 32.000000)" fill="#FFFFFF" fill-rule="nonzero">
                <path d="M0.16,1.47761194 C0.0896,1.28880597 0.1856,1.24940299 0.208,1.21656716 C0.4192,1.05895522 0.6336,0.945671642 0.8496,0.819253731 C1.9952,0.195373134 3.0768,0.0131343284 4.208,0.0131343284 C6.512,0.0131343284 7.9424,1.27074627 7.9424,3.29507463 L7.9424,3.33447761 C7.9424,5.2061194 6.328,5.8858209 4.8128,6.37671642 L4.616,6.44238806 C3.4736,6.82328358 2.488,7.15164179 2.488,7.92328358 L2.488,7.96432836 C2.488,8.62432836 3.064,9.11029851 3.9568,9.11029851 C4.9488,9.11029851 6.1264,8.77208955 6.8848,8.3419403 C6.8848,8.3419403 7.1072,8.1941791 7.1888,8.4158209 C7.2336,8.53402985 7.6176,9.59462687 7.6576,9.70955224 C7.7008,9.83432836 7.624,9.92626866 7.5456,9.97552239 C6.68,10.5156716 5.4832,10.8850746 4.2448,10.8850746 L4.0144,10.8834328 C1.9056,10.8834328 0.4336,9.57656716 0.4336,7.70328358 L0.4336,7.6638806 C0.4336,5.68880597 2.0576,5.04850746 3.5792,4.6019403 L3.824,4.52477612 C4.9328,4.17507463 5.8896,3.87462687 5.8896,3.07343284 L5.8896,3.03402985 C5.8896,2.30179104 5.2672,1.75671642 4.2656,1.75671642 C3.8768,1.75671642 2.6368,1.76492537 1.2976,2.63343284 C1.136,2.73029851 1.04,2.79761194 0.9184,2.8780597 C0.8768,2.90597015 0.6816,2.98313433 0.6144,2.77134328 L0.16,1.47761194 Z" id="path3013"></path>
            </g>
            <g id="g3015" transform="translate(72.000000, 37.500000) scale(-1, 1) rotate(-180.000000) translate(-72.000000, -37.500000) translate(67.000000, 32.000000)" fill="#FFFFFF" fill-rule="nonzero">
                <path d="M7.62711864,5.5 C7.62711864,4.33833333 7.40677966,3.42333333 6.97288136,2.77666667 C6.5440678,2.13666667 5.89491525,1.825 4.98983051,1.825 C4.08305085,1.825 3.43728814,2.135 3.01525424,2.77666667 C2.58813559,3.42166667 2.37118644,4.33833333 2.37118644,5.5 C2.37118644,6.66 2.58813559,7.57333333 3.01525424,8.21333333 C3.43728814,8.84666667 4.08305085,9.155 4.98983051,9.155 C5.89491525,9.155 6.5440678,8.84666667 6.97457627,8.21333333 C7.40677966,7.57333333 7.62711864,6.66 7.62711864,5.5 M9.66440678,7.65333333 C9.46440678,8.31833333 9.15254237,8.905 8.73728814,9.39333333 C8.3220339,9.88333333 7.79661017,10.2766667 7.17288136,10.5633333 C6.55084746,10.8483333 5.81525424,10.9933333 4.98983051,10.9933333 C4.16271186,10.9933333 3.42711864,10.8483333 2.80508475,10.5633333 C2.18135593,10.2766667 1.6559322,9.88333333 1.23898305,9.39333333 C0.825423729,8.90333333 0.513559322,8.31666667 0.311864407,7.65333333 C0.113559322,6.99166667 0.013559322,6.26833333 0.013559322,5.5 C0.013559322,4.73166667 0.113559322,4.00666667 0.311864407,3.34666667 C0.513559322,2.68333333 0.823728814,2.09666667 1.24067797,1.60666667 C1.6559322,1.11666667 2.18305085,0.725 2.80508475,0.446666667 C3.42881356,0.168333333 4.16271186,0.0266666667 4.98983051,0.0266666667 C5.81525424,0.0266666667 6.54915254,0.168333333 7.17288136,0.446666667 C7.79491525,0.725 8.3220339,1.11666667 8.73728814,1.60666667 C9.15254237,2.095 9.46440678,2.68166667 9.66440678,3.34666667 C9.86440678,4.00833333 9.96440678,4.73333333 9.96440678,5.5 C9.96440678,6.26666667 9.86440678,6.99166667 9.66440678,7.65333333" id="path3017"></path>
            </g>
            <g id="g3019" transform="translate(89.000000, 37.500000) scale(-1, 1) rotate(-180.000000) translate(-89.000000, -37.500000) translate(85.000000, 32.000000)" fill="#FFFFFF">
                <path d="M7.37254902,2.13432836 C7.30980392,2.32641791 7.13254902,2.2541791 7.13254902,2.2541791 C6.85803922,2.1441791 6.56627451,2.04238806 6.25568627,1.99149254 C5.94039216,1.94059701 5.59372549,1.91432836 5.22196078,1.91432836 C4.30901961,1.91432836 3.58431373,2.19835821 3.06509804,2.75985075 C2.54431373,3.32134328 2.25254902,4.22925373 2.25568627,5.45731343 C2.25882353,6.57537313 2.51607843,7.41597015 2.97882353,8.05626866 C3.43843137,8.69328358 4.13803922,9.02 5.07137255,9.02 C5.84941176,9.02 6.44235294,8.92641791 7.06352941,8.72119403 C7.06352941,8.72119403 7.21254902,8.6538806 7.28313725,8.85746269 C7.44784314,9.33686567 7.57019608,9.68 7.74588235,10.2070149 C7.79607843,10.3564179 7.67372549,10.4204478 7.62980392,10.4385075 C7.38509804,10.5386567 6.80784314,10.701194 6.37176471,10.7701493 C5.96392157,10.8358209 5.48705882,10.8702985 4.95686275,10.8702985 C4.16470588,10.8702985 3.45882353,10.7291045 2.85490196,10.4467164 C2.25254902,10.1659701 1.74117647,9.77850746 1.33647059,9.2958209 C0.931764706,8.81313433 0.624313725,8.23522388 0.418823529,7.58179104 C0.214901961,6.93 0.111372549,6.2141791 0.111372549,5.45731343 C0.111372549,3.82044776 0.533333333,2.49716418 1.36627451,1.52850746 C2.20078431,0.556567164 3.45411765,0.0623880597 5.08862745,0.0623880597 C6.05490196,0.0623880597 7.04627451,0.26761194 7.75843137,0.561492537 C7.75843137,0.561492537 7.89490196,0.630447761 7.83529412,0.796268657 L7.37254902,2.13432836 Z" id="path3021"></path>
            </g>
            <g id="g3023" transform="translate(98.500000, 37.500000) scale(-1, 1) rotate(-180.000000) translate(-98.500000, -37.500000) translate(94.000000, 32.000000)" fill="#FFFFFF">
                <path d="M2.32758621,6.56716418 C2.41603448,7.20253731 2.58206897,7.73119403 2.83810345,8.14328358 C3.22448276,8.76880597 3.81413793,9.1119403 4.64275862,9.1119403 C5.47137931,9.1119403 6.01913793,8.76716418 6.41172414,8.14328358 C6.67241379,7.73119403 6.78568966,7.17955224 6.83068966,6.56716418 L2.32758621,6.56716418 Z M8.60741379,7.96432836 C8.44913793,8.59641791 8.05655172,9.23507463 7.79896552,9.52731343 C7.39241379,9.99029851 6.99517241,10.3137313 6.60103448,10.4943284 C6.08586207,10.7274627 5.46827586,10.881791 4.79172414,10.881791 C4.00344828,10.881791 3.28810345,10.7422388 2.70775862,10.4532836 C2.12586207,10.1643284 1.63706897,9.77029851 1.2537931,9.27940299 C0.870517241,8.79014925 0.581896552,8.20731343 0.398793103,7.54567164 C0.214137931,6.88731343 0.121034483,6.16985075 0.121034483,5.41298507 C0.121034483,4.64298507 0.217241379,3.92552239 0.408103448,3.28029851 C0.600517241,2.63014925 0.907758621,2.05716418 1.32362069,1.58268657 C1.73793103,1.10492537 2.27172414,0.730597015 2.91103448,0.469552239 C3.54568966,0.210149254 4.31689655,0.0755223881 5.20293103,0.0771641791 C7.0262069,0.0837313433 7.98672414,0.513880597 8.38241379,0.745373134 C8.45224138,0.78641791 8.51896552,0.858656716 8.43517241,1.06552239 L8.02241379,2.28865672 C7.96034483,2.47089552 7.785,2.40358209 7.785,2.40358209 C7.33344828,2.22626866 6.69103448,1.90776119 5.19362069,1.91104478 C4.21448276,1.91268657 3.48827586,2.2180597 3.03362069,2.6958209 C2.56655172,3.18507463 2.33844828,3.9041791 2.29810345,4.91880597 L8.61206897,4.91223881 C8.61206897,4.91223881 8.77810345,4.91552239 8.79517241,5.08626866 C8.80137931,5.15850746 9.01241379,6.45880597 8.60741379,7.96432836 L8.60741379,7.96432836 Z" id="path3025"></path>
            </g>
            <g id="g3027" transform="translate(45.500000, 37.500000) scale(-1, 1) rotate(-180.000000) translate(-45.500000, -37.500000) translate(41.000000, 32.000000)" fill="#FFFFFF">
                <path d="M2.32758621,6.56716418 C2.41758621,7.20253731 2.58206897,7.73119403 2.83810345,8.14328358 C3.22448276,8.76880597 3.81413793,9.1119403 4.64275862,9.1119403 C5.47137931,9.1119403 6.01913793,8.76716418 6.41327586,8.14328358 C6.67241379,7.73119403 6.78568966,7.17955224 6.83068966,6.56716418 L2.32758621,6.56716418 Z M8.60586207,7.96432836 C8.44758621,8.59641791 8.05655172,9.23507463 7.79896552,9.52731343 C7.39241379,9.99029851 6.99517241,10.3137313 6.60103448,10.4943284 C6.08586207,10.7274627 5.46827586,10.881791 4.79172414,10.881791 C4.005,10.881791 3.28810345,10.7422388 2.70775862,10.4532836 C2.12586207,10.1643284 1.63706897,9.77029851 1.2537931,9.27940299 C0.870517241,8.79014925 0.581896552,8.20731343 0.398793103,7.54567164 C0.215689655,6.88731343 0.121034483,6.16985075 0.121034483,5.41298507 C0.121034483,4.64298507 0.217241379,3.92552239 0.408103448,3.28029851 C0.600517241,2.63014925 0.907758621,2.05716418 1.32362069,1.58268657 C1.73793103,1.10492537 2.27172414,0.730597015 2.91103448,0.469552239 C3.54568966,0.210149254 4.31689655,0.0755223881 5.20293103,0.0771641791 C7.0262069,0.0837313433 7.98672414,0.513880597 8.38241379,0.745373134 C8.45224138,0.78641791 8.51896552,0.858656716 8.43517241,1.06552239 L8.02396552,2.28865672 C7.96034483,2.47089552 7.785,2.40358209 7.785,2.40358209 C7.33344828,2.22626866 6.69258621,1.90776119 5.19206897,1.91104478 C4.21448276,1.91268657 3.48827586,2.2180597 3.03362069,2.6958209 C2.56655172,3.18507463 2.33844828,3.9041791 2.29810345,4.91880597 L8.61206897,4.91223881 C8.61206897,4.91223881 8.77810345,4.91552239 8.79517241,5.08626866 C8.80137931,5.15850746 9.01241379,6.45880597 8.60586207,7.96432836 L8.60586207,7.96432836 Z" id="path3029"></path>
            </g>
            <g id="g3031" transform="translate(30.500000, 37.500000) scale(-1, 1) rotate(-180.000000) translate(-30.500000, -37.500000) translate(26.000000, 32.000000)" fill="#FFFFFF" fill-rule="nonzero">
                <path d="M2.88679245,2.16666667 C2.61679245,2.37833333 2.57943396,2.43166667 2.48773585,2.56833333 C2.35188679,2.77666667 2.28226415,3.07333333 2.28226415,3.45 C2.28226415,4.04666667 2.48264151,4.475 2.89867925,4.76333333 C2.89358491,4.76166667 3.49301887,5.27166667 4.90245283,5.25333333 C5.89245283,5.24 6.77716981,5.09666667 6.77716981,5.09666667 L6.77716981,2.01333333 L6.77886792,2.01333333 C6.77886792,2.01333333 5.9009434,1.82833333 4.91264151,1.77 C3.50660377,1.68666667 2.88169811,2.16833333 2.88679245,2.16666667 M5.63603774,6.93166667 C5.35584906,6.95166667 4.99245283,6.96333333 4.55773585,6.96333333 C3.96509434,6.96333333 3.39283019,6.89 2.85622642,6.74833333 C2.31622642,6.60666667 1.83056604,6.385 1.41283019,6.09166667 C0.993396226,5.79666667 0.655471698,5.42 0.410943396,4.97333333 C0.166415094,4.52666667 0.0424528302,4 0.0424528302,3.41 C0.0424528302,2.81 0.147735849,2.28833333 0.358301887,1.86166667 C0.568867925,1.43333333 0.872830189,1.07666667 1.26,0.801666667 C1.64377358,0.526666667 2.11754717,0.325 2.66773585,0.203333333 C3.20943396,0.0816666667 3.82415094,0.02 4.49660377,0.02 C5.20471698,0.02 5.91113208,0.0766666667 6.5954717,0.191666667 C7.27301887,0.305 8.10509434,0.47 8.33603774,0.521666667 C8.56528302,0.575 8.82,0.643333333 8.82,0.643333333 C8.99150943,0.685 8.97792453,0.865 8.97792453,0.865 L8.9745283,7.06666667 C8.9745283,8.42666667 8.60433962,9.435 7.87584906,10.06 C7.15075472,10.6833333 6.08264151,10.9983333 4.70207547,10.9983333 C4.18415094,10.9983333 3.35037736,10.9283333 2.85113208,10.83 C2.85113208,10.83 1.34150943,10.5433333 0.72,10.0666667 C0.72,10.0666667 0.584150943,9.98333333 0.658867925,9.79666667 L1.14792453,8.50666667 C1.2090566,8.34 1.37377358,8.39666667 1.37377358,8.39666667 C1.37377358,8.39666667 1.42641509,8.41666667 1.48754717,8.45166667 C2.81716981,9.16166667 4.49830189,9.14 4.49830189,9.14 C5.2454717,9.14 5.81943396,8.99333333 6.20660377,8.70166667 C6.58358491,8.41833333 6.7754717,7.99 6.7754717,7.08666667 L6.7754717,6.8 C6.18113208,6.88333333 5.63603774,6.93166667 5.63603774,6.93166667" id="path3033"></path>
            </g>
            <g id="g3035" transform="translate(82.000000, 37.500000) scale(-1, 1) rotate(-180.000000) translate(-82.000000, -37.500000) translate(79.000000, 32.000000)" fill="#FFFFFF">
                <path d="M5.84615385,10.4923077 C5.89384615,10.648 5.79384615,10.7224615 5.75230769,10.7393846 C5.64615385,10.7850769 5.11384615,10.9086154 4.70307692,10.9373846 C3.91692308,10.9898462 3.48,10.8443077 3.08923077,10.6513846 C2.70153846,10.4584615 2.27076923,10.1470769 2.03076923,9.79338462 L2.03076923,10.6310769 C2.03076923,10.7478462 1.95538462,10.8409231 1.85076923,10.8409231 L0.246153846,10.8409231 C0.141538462,10.8409231 0.0661538462,10.7478462 0.0661538462,10.6310769 L0.0661538462,0.360461538 C0.0661538462,0.245384615 0.152307692,0.150615385 0.256923077,0.150615385 L1.90153846,0.150615385 C2.00615385,0.150615385 2.09076923,0.245384615 2.09076923,0.360461538 L2.09076923,5.49153846 C2.09076923,6.18030769 2.16,6.86738462 2.29846154,7.29892308 C2.43384615,7.72538462 2.61846154,8.06723077 2.84615385,8.31261538 C3.07538462,8.55630769 3.33538462,8.72723077 3.62,8.82369231 C3.91076923,8.92184615 4.23230769,8.954 4.46,8.954 C4.78769231,8.954 5.14769231,8.86092308 5.14769231,8.86092308 C5.26769231,8.84569231 5.33538462,8.92692308 5.37538462,9.04707692 C5.48307692,9.36184615 5.78769231,10.3044615 5.84615385,10.4923077" id="path3037"></path>
            </g>
            <g id="g3039" transform="translate(63.000000, 38.000000) scale(-1, 1) rotate(-180.000000) translate(-63.000000, -38.000000) translate(57.000000, 28.000000)" fill="#FFFFFF">
                <path d="M11.8333333,19.6694215 C11.6166667,19.7355372 11.42,19.7801653 11.1633333,19.8280992 C10.9033333,19.8743802 10.5933333,19.8975207 10.2416667,19.8975207 C9.015,19.8975207 8.04833333,19.553719 7.37,18.8760331 C6.695,18.2016529 6.23666667,17.1752066 6.00666667,15.8247934 L5.92333333,15.3702479 L4.38333333,15.3702479 C4.38333333,15.3702479 4.19666667,15.3768595 4.15666667,15.1752066 L3.905,13.7752066 C3.88666667,13.6429752 3.945,13.5586777 4.125,13.5586777 L5.62333333,13.5586777 L4.10333333,5.14214876 C3.985,4.46446281 3.84833333,3.90743802 3.69666667,3.48429752 C3.54833333,3.0677686 3.40333333,2.7553719 3.22333333,2.52727273 C3.05,2.30909091 2.88666667,2.14710744 2.60333333,2.05289256 C2.37,1.97520661 2.1,1.93884298 1.805,1.93884298 C1.64166667,1.93884298 1.42333333,1.96528926 1.26166667,1.99834711 C1.10166667,2.02975207 1.01666667,2.06446281 0.895,2.11570248 C0.895,2.11570248 0.72,2.18181818 0.65,2.00826446 C0.595,1.86446281 0.195,0.775206612 0.146666667,0.641322314 C0.1,0.507438017 0.166666667,0.403305785 0.251666667,0.371900826 C0.451666667,0.302479339 0.6,0.256198347 0.871666667,0.191735537 C1.24833333,0.104132231 1.56666667,0.0991735537 1.865,0.0991735537 C2.48833333,0.0991735537 3.05833333,0.18677686 3.53,0.355371901 C4.00333333,0.525619835 4.41666667,0.821487603 4.78333333,1.2214876 C5.17833333,1.65454545 5.42666667,2.10743802 5.66333333,2.72727273 C5.89833333,3.33884298 6.1,4.09917355 6.26,4.98512397 L7.78833333,13.5586777 L10.0216667,13.5586777 C10.0216667,13.5586777 10.21,13.5520661 10.2483333,13.7553719 L10.5016667,15.153719 C10.5183333,15.2876033 10.4616667,15.3702479 10.28,15.3702479 L8.11166667,15.3702479 C8.12333333,15.4181818 8.22166667,16.1752066 8.47,16.8876033 C8.57666667,17.1900826 8.77666667,17.4363636 8.945,17.6049587 C9.11166667,17.7702479 9.30333333,17.8876033 9.51333333,17.9553719 C9.72833333,18.0247934 9.97333333,18.0578512 10.2416667,18.0578512 C10.445,18.0578512 10.6466667,18.0347107 10.7983333,18.0033058 C11.0083333,17.9586777 11.09,17.9355372 11.145,17.9190083 C11.3666667,17.8528926 11.3966667,17.9173554 11.44,18.0231405 L11.9583333,19.4347107 C12.0116667,19.5867769 11.88,19.6512397 11.8333333,19.6694215" id="path3041"></path>
            </g>
            <g id="g3043" transform="translate(38.000000, 35.500000) scale(-1, 1) rotate(-180.000000) translate(-38.000000, -35.500000) translate(37.000000, 28.000000)" fill="#FFFFFF">
                <path d="M2,0.32967033 C2,0.217582418 1.93,0.126923077 1.83285714,0.126923077 L0.291428571,0.126923077 C0.194285714,0.126923077 0.125714286,0.217582418 0.125714286,0.32967033 L0.125714286,14.643956 C0.125714286,14.756044 0.194285714,14.8467033 0.291428571,14.8467033 L1.83285714,14.8467033 C1.93,14.8467033 2,14.756044 2,14.643956 L2,0.32967033 Z" id="path3045"></path>
            </g>
        </g>
    </g>
</svg>