<svg xmlns="http://www.w3.org/2000/svg" viewBox="0 0 115 80"><g fill="none" fill-rule="evenodd"><path fill="#00A1E0" fill-rule="nonzero" d="M47.931 8.782c3.704-3.835 8.86-6.214 14.562-6.214 7.58 0 14.194 4.201 17.716 10.438a24.607 24.607 0 0110.013-2.115c13.672 0 24.757 11.113 24.757 24.822 0 13.71-11.085 24.824-24.757 24.824-1.668 0-3.3-.166-4.876-.483a18.11 18.11 0 01-15.796 9.214c-2.84 0-5.526-.652-7.917-1.811a20.653 20.653 0 01-19.007 12.505A20.65 20.65 0 0123.25 66.528a19.051 19.051 0 01-3.94.408C8.726 66.936.145 58.32.145 47.686a19.258 19.258 0 019.584-16.674 21.922 21.922 0 01-1.835-8.804C7.893 9.98 17.88.068 30.197.068c7.232 0 13.66 3.418 17.734 8.714"/><path fill="#FFF" fill-rule="nonzero" d="M17.16 41.522c-.07.19.026.229.048.261.211.158.426.271.642.398 1.145.624 2.227.806 3.358.806 2.304 0 3.734-1.258 3.734-3.282v-.04c0-1.871-1.614-2.55-3.13-3.042l-.196-.065c-1.142-.381-2.128-.71-2.128-1.481v-.041c0-.66.576-1.146 1.469-1.146.992 0 2.17.338 2.928.768 0 0 .222.148.304-.074.045-.118.429-1.179.469-1.294.043-.124-.034-.216-.112-.266-.866-.54-2.063-.91-3.301-.91l-.23.003c-2.11 0-3.581 1.306-3.581 3.18v.04c0 1.974 1.624 2.614 3.145 3.061l.245.077c1.109.35 2.064.65 2.064 1.452v.039c0 .732-.62 1.277-1.622 1.277a5.341 5.341 0 01-2.968-.876c-.162-.097-.256-.168-.381-.245-.066-.043-.23-.117-.303.107l-.454 1.293zm34 0c-.07.19.026.229.048.261.211.158.426.271.642.398 1.145.624 2.227.806 3.358.806 2.304 0 3.734-1.258 3.734-3.282v-.04c0-1.871-1.614-2.55-3.13-3.042l-.196-.065c-1.142-.381-2.128-.71-2.128-1.481v-.041c0-.66.576-1.146 1.469-1.146.992 0 2.17.338 2.928.768 0 0 .222.148.304-.074.045-.118.429-1.179.469-1.294.043-.124-.034-.216-.112-.266-.866-.54-2.063-.91-3.301-.91l-.23.003c-2.11 0-3.581 1.306-3.581 3.18v.04c0 1.974 1.624 2.614 3.145 3.061l.245.077c1.109.35 2.066.65 2.066 1.452v.039c0 .732-.623 1.277-1.624 1.277a5.341 5.341 0 01-2.968-.876c-.162-.097-.258-.165-.38-.245-.041-.028-.236-.105-.304.107l-.454 1.293zM74.627 37.5c0 1.162-.22 2.077-.654 2.723-.429.64-1.078.952-1.983.952-.907 0-1.553-.31-1.975-.952-.427-.645-.644-1.561-.644-2.723 0-1.16.217-2.073.644-2.713.422-.634 1.068-.942 1.975-.942.905 0 1.554.308 1.985.942.432.64.652 1.553.652 2.713m2.037-2.153a4.795 4.795 0 00-.927-1.74 4.474 4.474 0 00-1.564-1.17c-.622-.285-1.358-.43-2.183-.43-.827 0-1.563.145-2.185.43-.624.286-1.15.68-1.566 1.17a4.874 4.874 0 00-.927 1.74 7.498 7.498 0 00-.298 2.153c0 .768.1 1.493.298 2.153.202.664.512 1.25.929 1.74.415.49.942.882 1.564 1.16.624.279 1.358.42 2.185.42.825 0 1.56-.141 2.183-.42a4.366 4.366 0 001.564-1.16 4.795 4.795 0 00.927-1.74c.2-.661.3-1.386.3-2.153 0-.767-.1-1.492-.3-2.153"/><path fill="#FFF" d="M92.373 40.866c-.063-.192-.24-.12-.24-.12a4.21 4.21 0 01-.877.263c-.316.05-.662.077-1.034.077-.913 0-1.638-.284-2.157-.846-.52-.561-.812-1.47-.81-2.697.004-1.118.261-1.959.724-2.6.46-.636 1.159-.963 2.092-.963.778 0 1.371.094 1.993.299 0 0 .149.067.22-.136.164-.48.286-.823.462-1.35.05-.15-.072-.213-.116-.232a7.087 7.087 0 00-1.258-.331 9.024 9.024 0 00-1.415-.1c-.792 0-1.498.14-2.102.423a4.368 4.368 0 00-1.519 1.151 4.963 4.963 0 00-.917 1.714 7.118 7.118 0 00-.308 2.125c0 1.637.422 2.96 1.255 3.928.835.972 2.088 1.467 3.723 1.467.966 0 1.957-.206 2.67-.5 0 0 .136-.068.076-.234l-.462-1.338zm3.955-4.433c.088-.636.254-1.164.51-1.576.386-.626.976-.969 1.805-.969.828 0 1.376.345 1.769.969.26.412.374.963.419 1.576h-4.503zm6.28-1.397a4.22 4.22 0 00-.809-1.563c-.407-.463-.804-.787-1.198-.967a4.4 4.4 0 00-1.81-.388c-.788 0-1.503.14-2.083.429a4.182 4.182 0 00-1.454 1.174 4.915 4.915 0 00-.855 1.733 7.905 7.905 0 00-.278 2.133c0 .77.096 1.487.287 2.133.193.65.5 1.223.916 1.697.414.478.948.852 1.587 1.113.635.26 1.406.394 2.292.393 1.823-.007 2.784-.437 3.18-.668.07-.041.136-.114.052-.32l-.413-1.224c-.062-.182-.237-.115-.237-.115-.452.178-1.094.496-2.591.493-.98-.002-1.706-.307-2.16-.785-.467-.49-.696-1.208-.736-2.223l6.314.007s.166-.004.183-.174c.006-.073.217-1.373-.188-2.878zm-59.28 1.397c.09-.636.254-1.164.51-1.576.386-.626.976-.969 1.805-.969.828 0 1.376.345 1.77.969.26.412.373.963.418 1.576h-4.503zm6.278-1.397a4.22 4.22 0 00-.807-1.563c-.407-.463-.804-.787-1.198-.967a4.4 4.4 0 00-1.81-.388c-.786 0-1.503.14-2.083.429a4.182 4.182 0 00-1.454 1.174 4.915 4.915 0 00-.855 1.733 7.967 7.967 0 00-.278 2.133c0 .77.096 1.487.287 2.133.193.65.5 1.223.916 1.697.414.478.948.852 1.587 1.113.635.26 1.406.394 2.292.393 1.823-.007 2.784-.437 3.18-.668.07-.041.136-.114.052-.32l-.411-1.224c-.064-.182-.239-.115-.239-.115-.452.178-1.092.496-2.593.493-.978-.002-1.704-.307-2.158-.785-.467-.49-.696-1.208-.736-2.223l6.314.007s.166-.004.183-.174c.006-.073.217-1.373-.19-2.878z"/><path fill="#FFF" fill-rule="nonzero" d="M28.887 40.833c-.27-.211-.308-.265-.4-.401-.135-.209-.205-.505-.205-.882 0-.597.2-1.025.617-1.313-.005.001.594-.509 2.003-.49.99.013 1.875.156 1.875.156v3.084h.002s-.878.185-1.866.243c-1.406.083-2.031-.398-2.026-.397m2.749-4.765a15.64 15.64 0 00-1.078-.031 6.67 6.67 0 00-1.702.215 4.475 4.475 0 00-1.443.656 3.29 3.29 0 00-1.002 1.119c-.245.446-.369.973-.369 1.563 0 .6.106 1.122.316 1.548.21.429.515.785.902 1.06.384.275.858.477 1.408.599a8.403 8.403 0 001.829.183c.708 0 1.414-.057 2.098-.172a43.27 43.27 0 001.741-.33c.23-.053.484-.121.484-.121.172-.042.158-.222.158-.222l-.003-6.202c0-1.36-.37-2.368-1.1-2.993-.724-.623-1.792-.938-3.173-.938-.518 0-1.352.07-1.85.168 0 0-1.51.287-2.132.763 0 0-.136.084-.061.27l.489 1.29c.061.167.226.11.226.11s.052-.02.114-.055c1.33-.71 3.01-.688 3.01-.688.747 0 1.321.147 1.709.438.377.284.568.712.568 1.615v.287a25.492 25.492 0 00-1.139-.132"/><path fill="#FFF" d="M84.846 32.508c.048-.156-.052-.23-.094-.247-.106-.046-.638-.17-1.049-.198-.786-.053-1.223.093-1.614.286-.387.193-.818.504-1.058.858v-.838c0-.117-.076-.21-.18-.21h-1.605c-.104 0-.18.093-.18.21v10.27c0 .116.086.21.19.21h1.646c.104 0 .189-.094.189-.21v-5.13c0-.69.069-1.376.207-1.808.136-.426.32-.768.548-1.014.23-.243.49-.414.774-.51.29-.099.612-.131.84-.131.328 0 .688.093.688.093.12.015.187-.066.227-.186.108-.315.413-1.257.471-1.445M68.833 28.33a5.869 5.869 0 00-.67-.158c-.26-.046-.57-.07-.921-.07-1.227 0-2.194.344-2.872 1.022-.675.674-1.133 1.7-1.363 3.051l-.084.455h-1.54s-.186-.007-.226.195l-.252 1.4c-.018.132.04.216.22.216h1.498l-1.52 8.417c-.118.678-.255 1.235-.406 1.658-.149.416-.294.729-.474.957-.173.218-.336.38-.62.474a2.542 2.542 0 01-.798.114 3.02 3.02 0 01-.543-.06 1.616 1.616 0 01-.367-.117s-.175-.066-.245.108a226.95 226.95 0 00-.503 1.367c-.047.134.02.238.105.27.2.069.348.115.62.18.376.087.695.092.993.092.623 0 1.193-.088 1.665-.256.473-.17.887-.466 1.253-.866.395-.434.644-.886.88-1.506.235-.612.437-1.372.597-2.258l1.528-8.574h2.234s.188.007.226-.196l.254-1.399c.016-.134-.04-.216-.222-.216h-2.168c.011-.048.11-.805.358-1.518.107-.302.307-.548.475-.717a1.42 1.42 0 01.568-.35c.215-.07.46-.103.729-.103.203 0 .405.023.556.055.21.044.292.067.347.084.222.066.252.002.295-.104l.518-1.412c.054-.152-.078-.216-.125-.234M39 42.67c0 .112-.07.203-.167.203H37.29c-.097 0-.165-.09-.165-.203V28.356c0-.112.068-.203.165-.203h1.542c.097 0 .167.091.167.203V42.67z"/></g></svg>