<svg viewBox="0 0 115 80" xmlns="http://www.w3.org/2000/svg">
  <g fill="none" fill-rule="evenodd">
    <path d="M48 8.8A20.2 20.2 0 0180.1 13a24.6 24.6 0 0110-2.1A24.8 24.8 0 1185.3 60a18.1 18.1 0 01-15.7 9.2c-2.9 0-5.6-.7-8-1.8a20.7 20.7 0 01-19 12.5 20.6 20.6 0 01-19.4-13.5 19 19 0 01-3.9.4A19.2 19.2 0 01.1 47.7 19.3 19.3 0 019.7 31 22 22 0 018 22.2a22.3 22.3 0 0140-13.4" fill="#00A1E0" fill-rule="nonzero"/>
    <path d="M17.2 41.5v.3l.6.4c1.2.6 2.3.8 3.4.8 2.3 0 3.7-1.3 3.7-3.3 0-2-1.6-2.6-3-3l-.3-.1c-1.1-.4-2.1-.8-2.1-1.5s.6-1.2 1.5-1.2c1 0 2.1.3 2.9.8 0 0 .2.1.3-.1a171.7 171.7 0 00.3-1.6c-.8-.5-2-.9-3.3-.9H21c-2 0-3.6 1.3-3.6 3.2 0 2 1.7 2.7 3.2 3.1h.2c1.1.4 2 .7 2 1.5s-.5 1.3-1.5 1.3a5.3 5.3 0 01-3-.8l-.4-.3-.3.1-.4 1.3zm34 0v.3l.6.4c1.2.6 2.3.8 3.4.8 2.3 0 3.7-1.3 3.7-3.3 0-2-1.6-2.6-3-3l-.3-.1c-1.1-.4-2.1-.8-2.1-1.5s.6-1.2 1.5-1.2c1 0 2.1.3 2.9.8 0 0 .2.1.3-.1a171.7 171.7 0 00.3-1.6c-.8-.5-2-.9-3.3-.9H55c-2 0-3.6 1.3-3.6 3.2 0 2 1.7 2.7 3.2 3.1h.2c1.1.4 2 .7 2 1.5s-.5 1.3-1.5 1.3a5.3 5.3 0 01-3-.8l-.4-.3-.3.1-.4 1.3zm23.4-4c0 1.2-.2 2-.6 2.7-.5.7-1.1 1-2 1-1 0-1.6-.3-2-1a5 5 0 01-.6-2.7c0-1.2.2-2 .6-2.7.4-.6 1-1 2-1 .9 0 1.5.4 2 1 .4.6.6 1.5.6 2.7m2-2.2a4.8 4.8 0 00-.9-1.7 4.5 4.5 0 00-1.5-1.2c-.6-.2-1.4-.4-2.2-.4-.8 0-1.6.2-2.2.4-.6.3-1.1.7-1.6 1.2a4.9 4.9 0 00-.9 1.7 7.5 7.5 0 00-.3 2.2c0 .8.1 1.5.3 2.2.2.6.5 1.2 1 1.7.4.5.9.9 1.5 1.2.6.2 1.4.4 2.2.4.8 0 1.6-.2 2.2-.4a4.4 4.4 0 001.5-1.2 4.8 4.8 0 001-1.7 7.4 7.4 0 000-4.4" fill="#FFF" fill-rule="nonzero"/>
    <path d="M92.4 40.9c0-.2-.3-.2-.3-.2a4.2 4.2 0 01-.8.3h-1c-1 0-1.7-.2-2.2-.8-.6-.5-.8-1.4-.8-2.7 0-1 .2-2 .7-2.6.4-.6 1.1-1 2-1a6 6 0 012 .4s.2 0 .3-.2l.4-1.3c.1-.2 0-.2 0-.2a7 7 0 00-1.3-.4 9 9 0 00-1.4 0 5 5 0 00-2.1.4 4.4 4.4 0 00-1.6 1.1 5 5 0 00-.9 1.7 7.1 7.1 0 00-.3 2.1c0 1.7.4 3 1.3 4 .8 1 2 1.4 3.7 1.4 1 0 2-.2 2.7-.5v-.2l-.4-1.3zm4-4.5c0-.6.2-1.1.4-1.5.4-.7 1-1 1.8-1a2 2 0 011.8 1c.3.4.4 1 .4 1.5h-4.5zm6.2-1.4a4.2 4.2 0 00-.8-1.5c-.4-.5-.8-.8-1.2-1a4.4 4.4 0 00-1.8-.4c-.8 0-1.5.2-2 .4a4.2 4.2 0 00-1.5 1.2 5 5 0 00-.9 1.8 8 8 0 00-.3 2c0 .9.1 1.6.3 2.2.2.7.5 1.2 1 1.7.3.5.9.9 1.5 1.1a6 6 0 002.3.4c1.8 0 2.8-.4 3.2-.6 0 0 .1-.2 0-.4l-.4-1.2c0-.2-.2-.1-.2-.1-.5.2-1.1.5-2.6.5-1 0-1.7-.3-2.2-.8-.4-.5-.7-1.2-.7-2.2h6.3s.2 0 .2-.2c0 0 .2-1.4-.2-2.9zm-59.3 1.4l.5-1.5c.4-.7 1-1 1.8-1a2 2 0 011.8 1c.3.4.4 1 .4 1.5h-4.5zm6.3-1.4a4.2 4.2 0 00-.8-1.5c-.4-.5-.8-.8-1.2-1a4.4 4.4 0 00-1.8-.4c-.8 0-1.5.2-2 .4a4.2 4.2 0 00-1.5 1.2 5 5 0 00-.9 1.8 8 8 0 00-.3 2c0 .9.1 1.6.3 2.2.2.7.5 1.2 1 1.7.3.5.9.9 1.5 1.1a6 6 0 002.3.4c1.8 0 2.8-.4 3.2-.6 0 0 .1-.2 0-.4l-.4-1.2c0-.2-.2-.1-.2-.1-.5.2-1.1.5-2.6.5-1 0-1.7-.3-2.2-.8-.4-.5-.7-1.2-.7-2.2h6.3s.2 0 .2-.2c0 0 .2-1.4-.2-2.9z" fill="#FFF"/>
    <path d="M28.9 40.8l-.4-.4-.2-.9c0-.5.2-1 .6-1.3 0 0 .6-.5 2-.5 1 0 1.9.2 1.9.2v3l-1.9.3c-1.4.1-2-.4-2-.4m2.7-4.7a15.6 15.6 0 00-1 0 6.7 6.7 0 00-1.7.2 4.5 4.5 0 00-1.5.6 3.3 3.3 0 00-1 1.1c-.2.5-.4 1-.4 1.6 0 .6.1 1.1.4 1.5.2.5.5.8.9 1.1.3.3.8.5 1.4.6a8.4 8.4 0 001.8.2c.7 0 1.4 0 2.1-.2a43.3 43.3 0 001.7-.3l.5-.1c.2 0 .2-.3.2-.3V36c0-1.3-.4-2.3-1.1-3-.7-.6-1.8-.9-3.2-.9-.5 0-1.3 0-1.8.2 0 0-1.6.3-2.2.7v.3l.4 1.3c.1.2.3.1.3.1 1.4-.8 3.1-.7 3.1-.7.7 0 1.3.1 1.7.4.4.3.6.7.6 1.6v.3a25.5 25.5 0 00-1.2-.1" fill="#FFF" fill-rule="nonzero"/>
    <path d="M84.8 32.5v-.2a5 5 0 00-1.1-.2c-.8 0-1.2 0-1.6.2-.4.2-.8.6-1 1v-1l-.2-.1h-1.7l-.1.2v10.2c0 .2 0 .2.2.2h1.6c.1 0 .2 0 .2-.2v-5c0-.8 0-1.5.2-1.9l.5-1 .8-.5a2.7 2.7 0 011.5 0c.2 0 .2-.1.3-.2 0-.4.4-1.3.4-1.5m-16-4.2a5.9 5.9 0 00-.6-.1l-1-.1c-1.2 0-2.2.3-2.8 1-.7.7-1.2 1.7-1.4 3v.5h-1.6s-.2 0-.2.2l-.3 1.4c0 .2 0 .2.2.2h1.5L61.1 43l-.4 1.6-.5 1c-.2.2-.3.4-.6.4a2.5 2.5 0 01-.8.2 3 3 0 01-.5-.1 1.6 1.6 0 01-.4-.1s-.2 0-.3 0a227 227 0 00-.5 1.5s0 .2.2.2l.6.2 1 .1a5 5 0 001.6-.3c.5-.1 1-.4 1.3-.8l.9-1.5.6-2.3 1.5-8.6H67s.2 0 .2-.2l.3-1.4s0-.2-.2-.2H65s.1-.8.4-1.5c0-.3.3-.5.4-.7a1.4 1.4 0 01.6-.4h.7a2.8 2.8 0 011 0c.2.1.2 0 .2 0l.6-1.4c0-.2-.1-.3-.2-.3M39 42.7s0 .2-.2.2h-1.5l-.2-.2V28.4c0-.2 0-.2.2-.2h1.5c.1 0 .2 0 .2.2v14.3z" fill="#FFF"/>
  </g>
</svg>
