<svg xmlns="http://www.w3.org/2000/svg" id="Graphics" viewBox="0 0 500 200"><defs><style>.cls-2,.cls-4{stroke-width:0}.cls-2{fill:#0c175a}.cls-4{fill:#f14b53}</style></defs><path d="M116.7 119.9c-2-2.2-3-5.5-3-9.8V91.8H109V83h4.7V70.1l10.6-1.1v14.1h10.8v8.8h-10.8v16.8c0 1.7.3 3 .8 3.8.5.8 1.4 1.2 2.7 1.2s3.2-.5 5-1.4l2.7 8.5c-1.5.8-3 1.4-4.5 1.9-1.5.4-3.5.6-5.9.6-3.5 0-6.3-1.1-8.3-3.3ZM175.5 106.3h-27.7c.6 2.3 1.8 4.2 3.6 5.5 1.8 1.3 3.9 2 6.5 2.1 3.8 0 7-1.5 9.4-4.5l6.9 6.4c-1.8 2.3-4.1 4.1-7 5.4-2.9 1.4-6.2 2-10 2s-7.3-.8-10.4-2.5c-3.1-1.7-5.5-4.1-7.3-7.2-1.8-3.1-2.7-6.7-2.7-10.8s.5-5.7 1.5-8.2c1-2.5 2.4-4.7 4.1-6.5s3.8-3.2 6.2-4.2c2.4-1 5-1.5 7.8-1.5s7.2.9 10.2 2.6c3 1.7 5.2 4.1 6.8 7.2s2.4 6.5 2.4 10.3 0 3.1-.3 3.8Zm-24.4-12.8c-1.6 1.2-2.7 2.9-3.3 5.1h17.4c-.6-2.2-1.6-3.9-3-5.1-1.4-1.2-3.3-1.8-5.5-1.8s-4.1.6-5.6 1.8ZM189.9 120.7c-3.1-1.7-5.5-4.1-7.3-7.2s-2.6-6.7-2.6-10.6.9-7.6 2.6-10.7c1.8-3.1 4.2-5.5 7.4-7.2 3.2-1.7 6.8-2.6 10.8-2.6s6.4.7 9.4 2 5.5 3.2 7.4 5.6l-7.2 6.2c-2.4-2.8-5.5-4.2-9.2-4.2s-3 .3-4.3.8-2.4 1.3-3.3 2.2c-.9.9-1.6 2.1-2.1 3.4-.5 1.3-.8 2.8-.8 4.4 0 3.2 1 5.9 2.9 7.9 2 2 4.5 3 7.7 3s3.7-.4 5.3-1.1c1.6-.8 2.9-1.7 3.9-2.9l7.3 6.4c-1.8 2.1-4.2 3.8-7.3 5.1-3 1.3-6.4 2-10.2 2s-7.4-.9-10.4-2.5ZM252.7 83.3c1.7.6 3.2 1.5 4.6 2.8s2.3 3 3 5.1c.7 2.1 1.1 4.7 1.1 7.7v23.8h-10.6v-21.1c0-3.5-.6-6-1.9-7.4-1.3-1.4-3.2-2.2-5.8-2.2s-5.2.9-6.8 2.7-2.5 4.4-2.5 7.9v20h-10.6V63h10.6v24.9h.2c1.6-1.8 3.5-3.1 5.7-4.1 2.2-.9 4.6-1.4 7.1-1.4s4.2.3 5.9.9ZM263.9 139c-1.2-.2-2.5-.6-3.8-1.1l1.8-8.8c1.2.7 2.3 1 3.5 1s2.3-.5 3-1.4 1-2.3 1-4.1V83.1H280V125c0 4.6-1 8.2-3.1 10.6-2.1 2.5-4.9 3.7-8.5 3.7s-3.2-.1-4.4-.3Zm7.4-62.6c-1-.6-1.8-1.4-2.4-2.4-.6-1-.9-2.1-.9-3.3 0-1.8.6-3.3 1.9-4.5 1.3-1.3 2.8-1.9 4.6-1.9s3.3.6 4.6 1.9 1.9 2.8 1.9 4.5-.6 3.3-1.9 4.6c-1.3 1.3-2.8 1.9-4.6 1.9s-2.3-.3-3.3-.9ZM300.2 122.3c-2.2-.7-4.1-1.6-5.8-2.8-1.7-1.2-3.2-2.7-4.4-4.3-1.2-1.7-2.2-3.6-2.8-5.6-.6-2.1-1-4.3-1-6.6s.5-5.7 1.5-8.2c1-2.5 2.4-4.7 4.3-6.5 1.8-1.8 4-3.2 6.7-4.3 2.6-1 5.5-1.5 8.6-1.5s5.9.5 8.5 1.5c2.6 1 4.8 2.4 6.7 4.2 1.8 1.8 3.3 3.9 4.3 6.5 1 2.5 1.6 5.3 1.6 8.3s-.9 7.5-2.7 10.6c-1.8 3.1-4.3 5.5-7.5 7.2-3.2 1.7-6.8 2.5-10.9 2.5s-4.8-.3-7-1Zm14.3-11.6c2-2.1 3-4.7 3-7.8s-1-5.8-2.9-7.9c-2-2-4.4-3.1-7.4-3.1s-5.5 1-7.5 3.1c-1.9 2.1-2.9 4.7-2.9 7.8s1 5.7 2.9 7.8c1.9 2.1 4.4 3.1 7.4 3.1s5.3-1 7.3-3.1ZM364.8 83.9c2.3 1 4.3 2.4 5.9 4.2 1.6 1.8 2.9 4 3.9 6.5.9 2.6 1.4 5.3 1.4 8.3s-.5 5.8-1.4 8.3c-.9 2.5-2.3 4.7-3.9 6.4-1.7 1.8-3.7 3.1-6 4.1-2.3 1-4.9 1.5-7.6 1.5-5.2 0-9.2-1.8-12.1-5.5h-.2v4.8h-10.1V62.9h10.6v24.6h.2c3-3.4 7-5.1 11.9-5.1s5.1.5 7.4 1.5Zm-2.3 26.8c1.9-2 2.8-4.6 2.8-7.8s-1-6-2.9-8-4.3-3-7.2-3-5.5 1-7.5 3.1-2.9 4.7-2.9 7.9 1 5.8 3 7.8 4.5 3 7.4 3 5.4-1 7.3-3ZM379.4 117.5l5.1-7.3c3.3 3.1 6.9 4.6 11 4.6s2.7-.3 3.6-.9c.9-.6 1.3-1.4 1.3-2.4s-.3-1.1-.8-1.6-1.3-.9-2.2-1.3c-.9-.4-2.3-.9-4.2-1.5-1.2-.4-2.2-.8-3.2-1.2-.9-.4-1.9-.9-2.9-1.4-1-.5-1.8-1.1-2.5-1.8s-1.3-1.4-1.9-2.2c-.6-.8-1-1.8-1.3-2.8s-.4-2.2-.4-3.4c0-2.3.6-4.4 1.9-6.2 1.3-1.8 3-3.2 5.1-4.2 2.1-1 4.6-1.5 7.3-1.5s5.3.4 7.6 1.2c2.3.8 4.6 2.1 6.8 3.8l-5.1 7.7c-1.5-1.4-3-2.4-4.7-3.1-1.6-.7-3.2-1-4.8-1s-1.9.3-2.7.8c-.8.5-1.2 1.2-1.2 2.2s.5 1.5 1.4 2.1c.9.6 2.4 1.3 4.5 2.1 4.4 1.6 7.3 2.9 8.8 3.8 2.6 1.6 4.1 3.7 4.6 6.3.2.8.2 1.7.2 2.6 0 3.7-1.3 6.6-3.9 8.9-2.6 2.3-6.4 3.4-11.4 3.4s-11.6-1.9-16-5.8Z" class="cls-2"/><path d="M417.2 121.4c-1.3-1.3-1.9-2.8-1.9-4.6s.6-3.3 1.9-4.6c1.3-1.3 2.8-1.9 4.7-1.9s3.3.6 4.6 1.9c1.3 1.3 1.9 2.8 1.9 4.6s-.6 3.3-1.9 4.5c-1.3 1.3-2.8 1.9-4.6 1.9s-3.4-.6-4.7-1.9Z" class="cls-4"/><path d="M457 96c1.6.7 3 1.7 4.1 2.9 1.1 1.2 2 2.8 2.7 4.5.7 1.8 1 3.7 1 5.7s-.3 4-1 5.8c-.7 1.8-1.6 3.3-2.7 4.5-1.2 1.2-2.6 2.2-4.2 2.8-1.6.7-3.4 1-5.3 1-3.6 0-6.4-1.3-8.4-3.8h-.1v3.3h-7V81.3h7.4v17h.1c2.1-2.4 4.8-3.6 8.3-3.6s3.5.4 5.1 1.1Zm-1.6 18.6c1.3-1.4 2-3.2 2-5.4s-.7-4.2-2-5.6c-1.3-1.4-3-2.1-5-2.1s-3.8.7-5.2 2.2c-1.4 1.5-2 3.3-2 5.5s.7 4 2.1 5.4c1.4 1.4 3.1 2.1 5.1 2.1s3.8-.7 5.1-2.1ZM494.8 111.5h-19.2c.4 1.6 1.3 2.9 2.5 3.8s2.7 1.4 4.5 1.4c2.7 0 4.8-1 6.6-3.1l4.8 4.4c-1.2 1.6-2.9 2.8-4.9 3.8-2 .9-4.3 1.4-7 1.4s-5.1-.6-7.2-1.7-3.8-2.8-5.1-5c-1.2-2.2-1.9-4.7-1.9-7.5s.3-4 1-5.7c.7-1.8 1.6-3.3 2.8-4.5s2.6-2.2 4.3-2.9c1.7-.7 3.5-1 5.4-1s5 .6 7.1 1.8c2 1.2 3.6 2.9 4.7 5s1.7 4.5 1.7 7.2 0 2.2-.2 2.6Zm-16.9-8.9c-1.1.8-1.8 2-2.3 3.6h12.1c-.4-1.5-1.1-2.7-2.1-3.5-1-.9-2.3-1.3-3.8-1.3s-2.8.4-3.9 1.2Z" class="cls-2"/><path d="M77.5 60.2H5v14.1h26v35.1h14.1V74.3h32.4V60.2z" style="fill:#22bffe;stroke-width:0"/><path d="M63.5 82.5V100c0 15-8.6 25.7-23.4 25.7s-16.4-2.3-21.1-9.4H5c4.7 14 16.4 23.4 35.1 23.4s36.4-13.2 37.4-37.4V82.5h-14Z" class="cls-4"/><path d="M0 0h500v200H0z" style="stroke-width:0;fill:none"/></svg>