<svg xmlns="http://www.w3.org/2000/svg" viewBox="0 0 140 150">
  <path fill="#6F7B81" d="M139.7 109.4c-.8-6.2-6-10.5-12.8-10.4-10 .1-18.5 5.3-24.2 8.8-2.2 1.4-4 2.4-5.7 3.1a47.3 47.3 0 00-13.2-36.5 61 61 0 007.5-58.7 7 7 0 00-4.3-3.5c-.8-.2-2.3-.6-5.2.2-4.3-9.2-5.8-10.2-7-10.9a9 9 0 00-8-1C63 2 60 5.6 57 11.8a45.9 45.9 0 00-1.2 2.6c-5.5.4-14.3 2.5-21.7 10.5-1 1-2.8 1.8-4.7 2.5-3.8 1.3-5.6 4.5-7.7 10.2-3 8 .1 15.9 3.1 21A49.3 49.3 0 0012.3 75c-3.6 8.5-4 16.8-3.8 21.4A29 29 0 000 112.6a30.2 30.2 0 004.3 18.5l1.5 1.8a10.2 10.2 0 005.5 11c5.8 3 13.8 4.4 20 1.3 2.3 2.3 6.4 4.6 13.8 4.6h.4c2 0 25.9-1.3 32.9-3a16 16 0 006.6-3.2c4.5-1.4 16.9-5.7 28.6-13.2a45.6 45.6 0 0117.2-8c5.9-1.5 9.6-6.9 8.8-13zm-29.6 15.4c-13.6 8.8-28.5 12.9-28.5 12.9s-1.2 1.8-4.8 2.7c-6.1 1.5-29.2 2.7-31.3 2.8-5.7 0-9.2-1.5-10.1-3.8-3-7 4.2-10.1 4.2-10.1s-1.6-1-2.5-1.9c-.8-.8-1.7-2.5-2-1.9-1 2.7-1.7 9.3-4.6 12.2-4 4.1-11.7 2.8-16.2.4-5-2.7.4-8.9.4-8.9s-2.7 1.6-4.9-1.6c-1.9-3-3.7-8.1-3.2-14.4C7 106 15 99 15 99s-1.4-10.6 3.2-21.5a51 51 0 0115.4-17.9s-9.4-10.4-6-19.8c2.4-6.2 3.3-6.2 4-6.4 2.7-1 5.2-2.1 7.1-4.2C48.2 19.1 60.3 21 60.3 21S66 3.7 71.3 7c1.6 1 7.4 14.1 7.4 14.1s6.2-3.6 7-2.3a55.4 55.4 0 012.5 30c-2.8 14-9.9 21.6-12.7 26.3-.6 1.1 7.6 4.6 12.8 19 4.7 13.1.5 24.2 1.2 25.4.2.3 5.7.8 16.7-6a41.3 41.3 0 0120.8-7.9c7.7-.1 8 9 2.3 10.3a51 51 0 00-19.2 8.9z"/>
</svg>
