<svg xmlns="http://www.w3.org/2000/svg" viewBox="0 0 141 156"><defs><mask id="a"><path fill="#fff" d="M-200-200h400v400h-400z"/><circle cx="67.664" cy="73.78" r="14.623"/><circle cx="115.301" cy="73.78" r="14.623"/><circle cx="19.847" cy="73.885" r="14.623"/></mask></defs><g fill="none" fill-rule="evenodd" stroke="#6F7B81" transform="translate(3 3)"><g mask="url(#a)"><path stroke-width="5" d="M116.211 74.322c-.193.117-6.553-.95-14.523-1.49-6.51-.44-14.092-.424-20.266-.006-5.007.34-11.585-2.177-12.37.814-2.943 11.196-9.273 20.948-17.326 28.545-6.059 5.716-12.992 10.05-20.491 12.72-8.929-4.586-13.145-14.787-9.34-23.731 3.017-7.094 6.528-14.907.046-16.695-4.719-1.301-7.31 3.22-9.124 8.052C9.342 91.79 2.74 101.37.857 112.717c-1.986 11.98-.006 24.695 10.354 31.876 24.13 16.724 50.322-10.367 77.938-17.177 10.008-2.468 20.995-2.07 29.812-7.177 6.622-3.836 10.988-10.192 12.227-17.328 1.992-11.477-3.979-22.88-14.977-28.589z"/><path stroke-width="6" d="M91.201 28.99l19.4 39.575L133.85 0H48.496L71.69 68.443z"/></g><circle cx="67.664" cy="73.78" r="14.623" stroke-width="10"/><circle cx="115.301" cy="73.78" r="14.623" stroke-width="10"/><circle cx="19.847" cy="73.885" r="14.623" stroke-width="10"/></g></svg>