<?xml version="1.0" encoding="UTF-8"?>
<svg width="156px" height="139px" viewBox="0 0 156 139" version="1.1" xmlns="http://www.w3.org/2000/svg" xmlns:xlink="http://www.w3.org/1999/xlink">
    <!-- Generator: Sketch 47.1 (45422) - http://www.bohemiancoding.com/sketch -->
    <title>Layer_2</title>
    <desc>Created with Sketch.</desc>
    <defs></defs>
    <g id="Page-1" stroke="none" stroke-width="1" fill="none" fill-rule="evenodd">
        <g id="prettier-homepage" transform="translate(-130.000000, -2734.000000)">
            <g id="Layer_2" transform="translate(133.000000, 2737.000000)">
                <circle id="Oval" fill="#6F7B81" fill-rule="nonzero" cx="74.7330961" cy="66.1921708" r="13.8790036"></circle>
                <path d="M124.397455,45.1186069 C140.251989,50.5709539 150,58.8359865 150,66.3197639 C150,74.1186624 139.668781,82.8985878 122.643371,88.5337106 C109.771254,92.7941142 92.833422,95.0177936 75,95.0177936 C56.7161334,95.0177936 39.4023265,92.9303602 26.3882433,88.4866236 C9.91954288,82.8634815 0,73.9695999 0,66.3197639 C0,58.896726 9.30732872,50.6957764 24.939011,45.2515094 C38.1469388,40.6517446 56.0300073,37.9003559 75,37.9003559 C93.7864679,37.9003559 111.238616,40.5932341 124.397455,45.1186069 Z" id="Shape" stroke="#6F7B81" stroke-width="6"></path>
                <path d="M50.3435236,52.1855979 C59.7086853,35.8785362 70.7390305,22.0789632 81.2146856,12.9243373 C93.8364598,1.89440484 105.84788,-2.42550764 112.323811,1.32454643 C119.072494,5.23250633 121.520032,18.6002836 117.908841,36.2024527 C115.17853,49.5107009 108.659182,65.3275559 99.7691112,80.8076382 C90.6544368,96.6787121 80.2171897,110.661344 69.884034,119.731288 C56.8083212,131.208946 44.167343,135.362289 37.5475216,131.52895 C31.1241935,127.80908 28.6674702,115.620705 31.7490201,99.3237048 C34.3526959,85.5537567 40.886795,68.6522424 50.3435236,52.1855979 L50.3435236,52.1855979 Z" id="Shape" stroke="#6F7B81" stroke-width="6"></path>
                <path d="M31.8775421,34.118324 C28.6540541,17.6840161 30.9331695,5.11852117 37.4242646,1.37004268 C44.1884514,-2.53637497 56.9860672,1.99511407 70.4130786,13.8881837 C80.5649435,22.8798524 90.9893417,36.4055171 99.9346325,51.8194879 C109.105824,67.6225964 115.979751,83.6326692 118.653425,97.1070803 C122.036915,114.158103 119.298178,127.186273 112.662998,131.018039 C106.224678,134.736155 94.4431985,130.799654 81.8804193,120.015501 C71.2658621,110.903776 59.9096569,96.8251853 50.3941684,80.429039 C40.9711066,64.1916675 34.5528919,47.7584738 31.8775421,34.118324 Z" id="Shape" stroke="#6F7B81" stroke-width="6"></path>
            </g>
        </g>
    </g>
</svg>