<svg xmlns="http://www.w3.org/2000/svg" viewBox="0 0 219 42"><path fill="#6F7B81" fill-rule="evenodd" d="M17.298 6.682c-2.602 0-3.357 1.153-3.357 3.687v4.205h6.944l-.694 6.8h-6.25V42h-8.33V21.374H0v-6.8h5.61v-4.09C5.61 3.628 8.388 0 16.14 0c1.68 0 3.645.114 4.86.287v6.395m8.272 22.278c0 4.01 1.495 6.66 5.342 6.66 3.39 0 5.114-2.426 5.114-6.263v-2.711c0-3.84-1.723-6.267-5.114-6.267-3.847 0-5.342 2.655-5.342 6.663v1.919zM21 27.156C21 19.646 24.619 14 32.202 14c4.136 0 6.662 2.09 7.869 4.685v-4.12H48v26.87h-7.93v-4.061C38.923 39.969 36.339 42 32.203 42 24.619 42 21 36.357 21 28.848v-1.693zM64.095 14c3.207 0 6.246.677 7.905 1.806l-1.833 5.758c-1.26-.62-3.321-1.241-5.5-1.241-4.47 0-6.417 2.539-6.417 6.888v1.578c0 4.349 1.947 6.888 6.418 6.888 2.178 0 4.239-.621 5.499-1.242L72 40.193C70.341 41.323 67.302 42 64.095 42 54.413 42 50 36.862 50 28.62v-1.24C50 19.138 54.413 14 64.095 14m18.282 11.494h10.121v-.675c0-2.93-1.221-5.24-4.886-5.24-3.783 0-5.235 2.31-5.235 5.915M74 28.987v-2.366C74 19.016 78.477 14 87.612 14 96.22 14 100 19.071 100 26.509v4.28H82.377c.173 3.665 1.86 5.296 6.515 5.296 3.14 0 6.457-.62 8.9-1.63l1.51 5.575C97.094 41.157 92.556 42 88.542 42 77.956 42 74 36.876 74 28.987m47.797-2.125c0-3.815-1.482-6.658-5.41-6.658-3.362 0-5.184 2.39-5.184 6.258v2.846c0 3.87 1.822 6.26 5.184 6.26 3.928 0 5.41-2.845 5.41-6.66v-2.046zM130 28.739C130 36.308 126.355 42 118.835 42c-4.1 0-6.95-2.05-8.089-4.667v4.097H103V.74l8.203-.74v18.097c1.196-2.39 3.814-4.323 7.632-4.323 7.52 0 11.165 5.688 11.165 13.257v1.708zm21.798-1.981c0-3.556-1.483-6.379-5.298-6.379-3.818 0-5.297 2.823-5.297 6.38v2.482c0 3.556 1.48 6.38 5.297 6.38 3.815 0 5.298-2.824 5.298-6.38v-2.483zM133 28.677v-1.354C133 19.59 137.441 14 146.5 14c9.056 0 13.5 5.59 13.5 13.323v1.354C160 36.413 155.556 42 146.5 42c-9.059 0-13.5-5.587-13.5-13.323zm48.798-1.919c0-3.556-1.483-6.379-5.298-6.379-3.818 0-5.298 2.823-5.298 6.38v2.482c0 3.556 1.48 6.38 5.298 6.38 3.815 0 5.298-2.824 5.298-6.38v-2.483zM163 28.677v-1.354C163 19.59 167.441 14 176.5 14c9.056 0 13.5 5.59 13.5 13.323v1.354C190 36.413 185.556 42 176.5 42c-9.059 0-13.5-5.587-13.5-13.323zm38.414-1.042l8.297-13.095h8.94l-8.707 13.558L219 42h-8.937l-8.649-13.44V42H193V.753L201.414 0"/></svg>