<svg xmlns="http://www.w3.org/2000/svg" viewBox="0 0 151 58"><path fill="#6f7b81" d="M103.16 4.871l-.06-.881-.94.121.06.882zm3.068 7.996l.023.206.75-.039c-.023-.128.068-.334.227-.591l-.068-.373c-.318.013-.636.283-.932.797zM92.523 23.395c-.022-.3-.956-1.467-2.8-3.523-.034-.378.6-.945 1.9-1.69l3.712-3.234c.834-1.055 1.323-2.767 1.468-5.145l-.045-.545c-.144-1.645-1.334-2.967-3.59-3.979-1.334-.9-3.735-1.4-7.203-1.49-2.868.245-6.613 1.268-11.226 3.08a46.09 46.09 0 01-4.335 2.733l.022.278c.1-.01.256-.066.434-.189.189-.022.3.067.31.245l.279-.145.133-.01.011.122c.011.144-.99.933-3.012 2.345l.156.289-.134.01-.333-.122c.01.1-.134.167-.412.19l.012.122.322.4c-.1.01-.256-.034-.467-.111-.467.044-.922.289-1.378.755l.189-.822c.678-2.923 1.145-5.513 1.39-7.758l-.034-.144c-.467-.3-.923-.723-1.345-1.256.011-.345.011-.545 0-.59l-.033-.121-.134.033c-1.467 2.2-4.29 5.957-8.48 11.27-3.19 3.778-4.836 5.879-4.936 6.301-1.3 1.345-1.923 2.156-1.856 2.434-.345.223-.49.445-.434.69-.1.022-.166-.012-.189-.112-.555.9-1.378 1.478-2.478 1.734l-1.156.267c-.156.033-.234.144-.223.333l.034.145.433-.1.034.122-.979.378-1.734.4-.911.055c-.133.134.722-.01.389.067l-1.134.267c-.689.155-1.067.1-1.133-.178l-.134.033c.022.123.033.211.011.29l-.066-.279-.912.212c-.067-.423-1.3-1.956-3.69-4.602-.045-.51.8-1.255 2.523-2.222l4.868-4.28c1.09-1.4 1.734-3.645 1.946-6.734l-.067-.723c-.189-2.178-1.767-3.934-4.735-5.29-1.756-1.19-4.913-1.823-9.47-1.923-3.78.323-8.715 1.667-14.784 4.012-1.667 1.212-3.568 2.412-5.702 3.601l.034.378c.144-.01.333-.089.567-.222.244-.022.377.089.4.311l.378-.211.189-.011.01.178c.012.177-1.31 1.211-3.99 3.1l.212.334-.19.011-.41-.145c.01.112-.179.19-.568.223l.023.2.444.489c-.144.011-.344-.033-.6-.122-.867.077-1.712.7-2.545 1.878l.21.333c.723-.667 1.146-1 1.268-1.011l.044.544c-.122.012-.31.09-.566.223l.455.689a15.06 15.06 0 012.901-2.434c.523.133.8.3.812.478l.4-.034c2.868-2.122 5.702-3.656 8.514-4.6l.034.377c-.523.778-.879 1.178-1.068 1.2.023.267.112.5.278.7.045.479-1.233 3.702-3.823 9.659C8.948 35.654 4.013 45.9 0 52.525c.011.133.089.311.233.533.99-.233 1.612-.478 1.879-.711l.211-.022.033.378.367-.034.378-.21c.011.11.134.166.39.144l.033.377c.033.367-.178.923-.623 1.69-.4.455-.834 1.411-1.29 2.867l.012.178.367-.033c1.6-1.79 2.812-3.546 3.645-5.257 4.669-1.367 8.226-2.712 10.693-4.035 2.479-.21 4.369-.867 5.658-1.945l-.022-.2-.934.278-.211.022-.022-.2c1.822-.277 3.079-.678 3.779-1.233 3.546-2.734 6.224-4.668 8.036-5.813 3.724-2.734 6.147-5.401 7.247-7.99.2-.045.4-.09.623-.145.522-.023.811-.034.889-.056-.022-.1.022-.156.122-.178.834-.089.434.056.967-.066l1.4-.323c-.088.023-.122.067-.1.156l.212-.133c-.045 0-.078-.012-.111-.023l.233-.055-.111.066c.156.023.322.012.511-.033l.1.411-6.369 10.125-1.411 1.767-.69 2.312.134-.033.689-.29-.222.9.066.268.19.233c-.09.022-.123.078-.1.178l.033.144.289-.066c.422-.367.6-.7.533-1 .456.077.756.11.912.066l.033.145c-.278.066-.422.289-.445.666l.034.145.155-.033c2.312-2.523 7.981-11.159 12.527-17.016-.144-.634 2.223-1.512 7.114-2.645l.156-.033c.177.766-.2 2.622-1.134 5.568-.6 1.778-.89 2.756-.845 2.912-.778 2.367-1.145 3.645-1.1 3.845l-1.734 5.68a51.846 51.846 0 00-2.58 9.19c.101-.022.257-.01.479.045l.244-.211c.023.1.09.133.19.11l-.1-.41.755-.023c.222-.055.411-.333.567-.844-.033-.767.122-1.178.467-1.267.467-1.823.756-2.734.856-2.768.433-1.811.756-2.845.967-3.1.656-2.357 1.134-3.568 1.445-3.646l.066.29-.477 1.233c-.834 3.7-1.679 6.624-2.535 8.769l.245 1.067.155-.034c2.068-4.445 5.047-13.248 8.926-26.406.111-1.156.667-2.057 1.656-2.69l-.222-.233-.034-.123c.445-.1.756-.278.934-.522-.022-.1-.411-.245-1.167-.445l1.934-8.29c.422-.379.667-.579.745-.579l.033.423c-.1.01-.256.066-.433.189l.366.522a11.898 11.898 0 012.179-1.867c.4.111.6.244.622.378l.29-.022c2.2-1.612 4.357-2.768 6.48-3.468l.022.278c-.39.589-.656.889-.8.9.022.2.077.378.177.534.034.366-.922 2.811-2.878 7.346-4.469 10.503-8.215 18.271-11.26 23.317.011.1.078.233.2.411.745-.178 1.223-.367 1.412-.544l.133-.011.022.277.311-.022.278-.144c.011.077.111.11.3.1l.023.3c.022.267-.134.689-.478 1.267-.323.344-.656 1.067-1.012 2.167l.011.145.29-.023c1.21-1.356 2.133-2.69 2.767-4 3.546-1.045 6.247-2.057 8.114-3.057 1.9-.167 3.335-.656 4.313-1.478l-.011-.145-.723.211-.155.012-.012-.145c1.379-.2 2.346-.511 2.868-.922 2.69-2.068 4.724-3.546 6.102-4.413 4.291-3.123 6.292-6.123 6.047-9.002zm-.384.189l.173 1.122c-.231.278-.481.423-.712.434l-.288-1.912c.538.111.807.223.827.356zm-84.45-8.471l-.243.027-.043-.84.985-.163.015.434c-.157.027-.4.19-.715.542zm-3.81 36.89c-.444-.2-.845-.278-1.19-.245l-.044-.545c-.022-.21.1-.355.367-.41.245-.023.39.155.411.51.645-.789 1-1.189 1.068-1.2l.41.167c-.133 1.111-.477 1.678-1.022 1.722zm40.026-41.867c-.189.022-.567-.567-1.111-1.734l-.034-.344c.356-.034.723.544 1.112 1.733zm-.533-4.146l-.156.367-5.435-2.267c3.623.122 5.49.756 5.59 1.9zM20.618 26.191l-.958.163-.042-.84.959-.163zm-.64-12.332l.257-.011.061.545c-.242.01-.56.277-.955.789l-.045-.378c.47-.411.712-.723.682-.945zm-1.243 3.801l.26.988-.739.015-.26-.988zm-1.25 1.358l.532-.035c-.048.63-.29.968-.725.991l-.275.012c.34-.42.5-.747.468-.968zm-.587 1.893l.293-.028.015.226-.477.735-.508.042-.015-.226c.508-.042.738-.282.692-.749zm-.192 1.695l-.294.99-.5.013-.206-.979zm-6.668 17.727c-.302 1.244-.631 1.878-.974 1.9l-.014-.178c-.082-.61.247-1.189.988-1.722zm-.71 2.478l.031.309c.064.424-.254.675-.952.694l-.032-.309c-.064-.366.254-.597.952-.694zm-.935 5.213l.617-.123.024.44c-.155.025-.356.196-.606.49l-.392.073c-.023-.416.107-.734.357-.88zm16.427-5.146c-3.245 1.6-5.157 2.69-5.724 3.256-3.512 1.223-5.258 1.979-5.224 2.279-3.124 1.233-5.18 2.145-6.17 2.711-.233.023-.566-.066-1.01-.266-.056-.634.233-1.145.844-1.556a3.282 3.282 0 011.567.244c.578-.3 1.59-.633 3.024-.989l-.034-.378-1.156.1c.145-.2 1.256-.722 3.346-1.567l.578-.055.011.177c-.99.09-1.534.378-1.656.9.022.234.156.334.4.312.745-.467 1.112-.745 1.1-.823 1.412-.266 5.314-2.311 11.705-6.123l.033.344c.011.167-.533.634-1.634 1.434zM15.017 46.1a3.785 3.785 0 002.4-1.112c.267-.022.412.078.423.312-.456.044-1.334.422-2.612 1.156l-.19.01zm15.817-12.148l-4.902 3.88c-3.646 2.389-5.602 3.589-5.88 3.611-5.802 3.19-9.415 4.846-10.815 4.968l-.211.022c.177-.655 2.756-5.935 7.758-15.87 2.2-.19 5.669-1.212 10.393-3.08l1.156-.1c2.39-.21 4.179.257 5.357 1.368l.067.722c-.89 2.557-1.867 4.046-2.923 4.48zm-9.582-5.183l.986-.274.014.73-.986.273-.014-.73zm11.082-2.076l.578-.065c.534.298.812.557.834.79l.01.208c-.51.051-.988-.26-1.422-.933zm1.567-8.934c-.51.611-1.911 1.656-4.201 3.123-.756.067-3.568 1.156-8.437 3.29a1.54 1.54 0 00-.778-.133l-.033-.345c-.056-.7.256-1.578.945-2.645.378-2 .789-3.145 1.245-3.423l4.057-9.125c-.045-.567.822-1 2.6-1.3l.579-.056.044.523c1.745-.267 2.835-.423 3.257-.456 3.223-.278 4.902.378 5.035 1.945l.367-.033-.078-.923.4-.033c.945.522 1.456 1.156 1.523 1.9.045.512-.233 1.145-.822 1.9-.245.023-.39-.155-.412-.51l-.4.033-.089 1.111c-1.634 2.445-2.823 3.701-3.557 3.768-.667.922-1.078 1.378-1.245 1.39zm2.49 6.505c-.333-.251-.6-.364-.8-.351l-.045-.615.367-.037.812.539c.033.288-.078.438-.334.464zm2.579 2.942c.582.198.927.41 1 .608l-.29.06.017.016a.758.758 0 00-.182.03l-.436.289zm.278 2.281l-.067-.567.934-.436.066.567zm1.09.783c.477-.147.71-.21 1.6-.585l.033.271-1.69.731c.023-.146.045-.292.056-.417zm1.644.597c-.711.088-.556-.03-1.69.31l-.033-.192 1.412-.605.678-.206.067.353c-.3.089-.078.089-.434.34zm1.602.106c-.212.129-.38-.096-.48-.643l.55-.289c.24-.129.395.096.45.643l-.52.29zm3.977-4.32l-.043-.466.913-.537.087.86zm4.336 26.471c.078-.408.098-.703.059-.907l.274-.068c.334-.091.53.045.608.408l.059.295zm3.046-26.012l-.312-.056c-.5.203-.922.349-1.267.427l-.289.068c-.167.045-.3-.023-.367-.202l2.034-.473.667-.315.223.26c-.323.067-.556.168-.69.291zm1.567-.226l-.034-.2c.1-.031.234-.139.378-.34l1.445-.462.034.2c-.767.262-1.379.525-1.823.802zm.222-3.203c-.1.022-.233.111-.4.244-.022-.1-.222-.1-.6-.01-.067-.279 1-.668 3.212-1.179l.311-.066.067.266c-1.556.456-2.423.712-2.59.745zm3.89-4.201c-.155 1.767-.778 2.767-1.878 3.023l-.033-.145-.979.378-.433.1a1.091 1.091 0 01-.6-.01l-.09-.39c-.032-.144 1.38-2.1 4.247-5.857l.333.056c.123.51-.066 1.456-.567 2.845zm6.99-5.243l-.227.033-.038-.836.981-.167.02.435c-.17.067-.416.234-.737.535zm-2.944 27.815c-.333-.155-.633-.222-.889-.2l-.033-.422c-.011-.144.078-.245.267-.3.189-.022.3.111.322.4.478-.611.745-.922.8-.922l.3.122c-.11.844-.366 1.289-.767 1.322zM95.18 10.27c-.164.011-.48-.433-.974-1.333l-.026-.278c.317-.022.646.411.975 1.3zm-.522-3.178l-.133.289-4.113-1.723c2.746.089 4.168.567 4.246 1.434zm-17.04 15.534l-.963.172-.037-.864.963-.138zm-.584-9.555l.28-.011.06.422c-.26.011-.58.211-.96.6l-.04-.277c.46-.323.68-.567.66-.734zm-.883 2.89l.222.983-.777.02-.223-.983zM75.086 17l.553-.03c-.064.629-.298.958-.702.988l-.298.015c.319-.42.468-.748.447-.973zm-.352 1.422l.24-.018.02.237-.46.73-.52.036-.02-.237c.54-.037.78-.292.74-.748zm-.085 1.282l-.346.988-.461.015-.193-.972 1-.03zm-5.072 13.481c-.307.934-.632 1.412-.976 1.434l-.018-.122c-.054-.467.271-.911.994-1.312zm-.582 1.879l.04.275c.078.452-.237.703-.946.728l-.04-.326c-.039-.326.277-.552.946-.677zm-.823 3.979l.615-.1.015.434c-.138.033-.353.2-.6.502l-.399.066c-.015-.468.108-.769.369-.902zm12.38-3.924c-2.445 1.212-3.901 2.034-4.357 2.456-2.668.934-3.99 1.512-3.968 1.745-2.368.945-3.924 1.623-4.658 2.056-.177.012-.433-.055-.766-.21-.045-.479.177-.868.644-1.157a2.52 2.52 0 011.19.178c.444-.222 1.211-.467 2.3-.744l-.022-.278-.911.066c.11-.155.967-.555 2.556-1.2l.445-.033.01.122c-.755.067-1.177.289-1.266.69.01.177.122.266.311.244.556-.367.823-.578.823-.645 1.067-.189 4.023-1.745 8.88-4.657l.023.278c.011.122-.4.478-1.234 1.09zm-7.447 2.445a2.984 2.984 0 001.845-.833c.189-.022.3.066.311.244-.333.034-.989.311-1.978.845l-.156.011zm12.027-9.235l-3.702 2.978c-2.768 1.812-4.268 2.723-4.502 2.745-4.401 2.423-7.135 3.679-8.214 3.768l-.155.011c.133-.5 2.1-4.512 5.902-12.048 1.656-.144 4.28-.933 7.88-2.356l.9-.077c1.813-.156 3.169.2 4.058 1.055l.044.545c-.678 1.912-1.411 3.034-2.211 3.379zm-7.27-3.867l.981-.279.02.724-.982.279zm8.414-1.639l.445-.051c.411.31.622.584.634.808l.01.189c-.388.052-.755-.258-1.089-.946zm1.167-6.786c-.389.466-1.444 1.267-3.167 2.378-.578.055-2.712.878-6.403 2.478a1.458 1.458 0 00-.589-.077l-.022-.278c-.045-.534.189-1.2.7-2.012.29-1.534.612-2.39.945-2.59l3.101-6.935c-.033-.41.623-.744 1.956-1l.445-.033.033.422c1.312-.211 2.135-.333 2.468-.367 2.445-.21 3.724.278 3.824 1.478l.289-.022-.056-.667.289-.022c.711.39 1.09.856 1.134 1.412.033.4-.167.889-.59 1.456-.188.022-.3-.112-.322-.4l-.289.022-.089.833c-1.233 1.879-2.134 2.845-2.7 2.89-.5.678-.812 1.022-.957 1.034zm1.304 4.836l-.036-.625.316-.033.683.56c.012.262-.086.41-.293.443-.292-.246-.511-.361-.67-.345zM37.39 47.657l-.499.136-.422.431c.077.363.269.5.595.409s.46-.318.384-.681zm-1.468-1.823l.121.303c.686-.093.969-.327.807-.7l-.12-.303c-.647.093-.93.326-.808.7zm7.905-18.346l.834-.213-.167-.79-.833.212.166.79zm100.76 7.832c-3.38.793-3.802.653-4.513.712l.022.291.312-.023.166-.012-.044-.035.367-.151c3.345-.385 3.734-.245 3.701-.642zm-18.196 2.412l.2 1.003h.4l-.2-1.003zm-1.746-7.324l-.457-.1c-.373.656-.559 1.045-.542 1.156l.017.122c.356-.011.677-.411.982-1.178zm20.631 4.857l.044.76.956.243-.043-.76zm-22.997 2.976l-.756-.136-.134.442.012.221 4.501-.578-.022-.425zm-1.497-9.849l-.025-.318-.347.024-.621.392.347.587c.472-.049.696-.27.646-.685zm26.628 4.828l.211-.022c.123-.012.178-.112.167-.29l-.122-.266c-.767.067-1.123.1-1.745.444l-.011-.144-.923.089c-.022-.278-.1-.423-.222-.411l-.478.044c-.556.045-.823.022-1.1.233-.012-.1-.045-.144-.1-.144l-.534.044-.311.178c-.012-.1-.045-.144-.1-.144l-.19.166-.01-.144-.745-.056-.178.012.022.277.378.1.356-.022a.65.65 0 00.411.09l.311-.157.011.123c-1.745.433-1.734.355-2.934.555-.133-.088-.234-.133-.3-.122l-.022.022c-.134-.01-.212-.1-.223-.244l.623-.078c.044 0 .078.045.422.111.5-.244.523-.344.79-.367l-.023-.277c-1.712.333-1.023.11-3.168.3l-.1.01-.022-.277c2.757-.333 1.834-.144 2.779-.411.01.1.044.144.1.144a.648.648 0 01.378-.189l.189-.01c.967-.079 1.289.11 3.2-.423l.012.122.311-.155.29-.023c-.023-.278.4-.322.544-.333l-.022-.3c-3.357.678-4.235.489-5.169.756l-.011-.123c-.878.156-.912.09-1.134.1-.067.011-.167.067-.278.178-.01-.1-.044-.144-.11-.144-.034 0-.045.01-.056.01l-2.846.468c-.011-.078-.044-.123-.111-.112-1.478.312-1.078.367-3.057.545a.928.928 0 00-.367.156c-.01-.078-.055-.123-.155-.112l-1.212.1-.811.2c-.011-.077-.056-.122-.156-.11-.456.122-.856.2-1.178.222h-.022c-.2.022.1-.056-.056-.123l-.244.145c-.356.033-.167-.022-1.39-.011-2.145.267-1.912.3-2.145.311l-.8-.056c.01.078-.034.134-.123.134-.911-.122-1.378-.267-1.389-.434.122-.867.333-1.311.634-1.333l.155-.011-.133.289.155-.012c.29-.155.423-.3.412-.433l-.023-.3-.289.022-.022-.278a1 1 0 01.09-.555l.655-1.056.022.278.311-.023-.022-.277-.178-.256c.234-.2.412-.311.556-.322l-.011-.145-.422.033-.034-.422c.845-1.756 1.245-2.778 1.223-3.067l.3.122c.189-.011.278-.122.267-.322l-.29.022-.01-.122a1.06 1.06 0 01.11-.59c.457-.477.668-.955.623-1.455.09-.012.134.033.145.133.389-.222.689-.811.911-1.79.69-1.244 1.668-3.734 2.946-7.457 2.445-6.58 2.345-7.28 2.69-8.836l-.29.023c.023.2-.022.389-.11.567-.2-.078-.356-.123-.467-.112l-.011-.122c-.045-.567.189-1.245.722-2.045l.133-.011.245.956.289-.022c-.011-.067.067-.445.222-1.145-.01-.145-.122-.234-.344-.245l-.278.178c-.022-.2-.011-.722.022-1.556l-.144.011c-.245-.244-.367-.444-.378-.61l-1.59.155c-.01-.111-.067-.278-.178-.49-.01-.144.345-.288 1.079-.433l.322.122.3-.177c.011.1.067.144.178.133l.3-.178c.011.1.067.145.178.134l.144-.012-.022-.322c-.222.022-.811.022-1.745-.011l-.3.2-.011-.178c-7.459.611-11.693.956-12.705 1.056-.133.011-.656 0-1.578-.022.01.122-.1.189-.323.211l-.322-.144-1.09.277c-.255.023-.688.011-1.289-.055a1.108 1.108 0 01-.611.233c-.133.011 1.59-.089 3.19-.2-.167.134-.422.211-.778.245-.245.022-.456-.011-.634-.111-.244.11-1.033.288-2.356.555l-.322-.122-5.202.8c-.2-.1-.434-.133-.7-.111-.278.022-.745.122-1.39.3l-2.512 1.045.189.311c.122-.011.3-.078.511-.2l.89.078-.112.833c-.822.367-1.3.912-1.434 1.6-1.233.545-1.845.934-1.845 1.168l.011.144.19-.01.333-.179.389.467.055.645c.023.2-2.056 4.567-6.213 13.103-3.601 8.224-5.49 12.726-5.669 13.537-1.233.344-1.945.845-2.156 1.511.022.212.389.356 1.1.412l.034.322-.323.533.056.645c.033.333.934.59 2.7.767-.01-.111.045-.178.168-.19.033.401-.078 1.179-.334 2.335l.19-.011c.733-1 1.077-1.69 1.044-2.067l.156-.012c.177-.01.366.19.589.623-.223.089-1 1.856-2.334 5.312l.188.312.19-.012c1.633-4.134 2.656-6.423 3.078-6.857 2.146-.189 5.858-.567 11.127-1.134l.333-.2c.011.112.078.167.2.156l.345-.033.333-.2c.011.11.078.166.2.155l3.99-.344c1.057-.09 1.557-.412 1.512-.956-.01-.145.612-.311 1.868-.49.122-.01.3.023.544.1-.01-.1.623-.2 1.89-.31.033-.667.245-1.023.622-1.056l-.033-.322a5.522 5.522 0 00-1.223.277c-.833-.044-1.367-.11-1.59-.189-.221.123-.388.19-.51.2l-2.78.09-.333.177c-.01-.1-.077-.144-.2-.133l-.155.011-.356.178c-.011-.1-.3-.178-.878-.256l-.356.211-.689.056-.011-.178c3.579-.389 5.346-.878 5.302-1.456.233-.022.356.09.378.322l1.045-.266-.034-.323-8.57.234c.012.11-.044.178-.166.189l-1.045-.09c-.267.023-.49.1-.667.234l-.389-.144c-1.078.089-1.879.222-2.412.389a15.193 15.193 0 00-2.445.033l-1.923.167-.89-.1c-.044-.567 1.056-3.357 3.324-8.358.656-1.69 1.256-2.745 1.834-3.145.122-.011.3.033.545.133l1.367-.467.7.111c1.178-.1 2.545-.433 4.113-1.01.389-.034.678-.012.889.077l1.045-.245 3.112-.266c1.323-.111 2.757-.4 4.313-.878l-.034-.323c-.578.056-.878-.044-.9-.277-.033-.434-.456-.612-1.267-.545l-.034-.322.856-.245 2.246-.189-.034-.322c-.089.011-.544 0-1.39-.033l-.032-.345.867-.078c.233-.022.333-.133.31-.355-1.166.033-1.755-.023-1.767-.178-8.136.4-12.215.478-12.237.222-.123.011-.29.089-.512.222l-.21-.333c2.155-4.58 3.423-6.89 3.79-6.924.01.178-.078.467-.279.856l.012.144.344-.033c.856-2.045 1.579-3.101 2.179-3.146 2.556-.222-.356-.389 5.113-1.244.222.1.378.144.489.133 2.145-.433 5.135-.889 8.97-1.356l-.022-.322-2.046.189-.022-.322c.245-.023.445-.1.611-.234l.012.178c.11-.011.266-.089.466-.222.356-.034.623 0 .812.1.711-.19 1.29-.3 1.712-.345l1.278-.122c.311-.2.456-.378.444-.545l-.01-.144c-.323.033-.69.01-1.123-.067-.011-.178.078-.3.289-.356l2.378-.222 1.09-.278c.01.123.066.167.155.167.111-.011.267-.089.467-.222.056.01.122.01.178.022a8.83 8.83 0 00-.478 1.3l-.311.023a1.36 1.36 0 00-.178-.567l-.156.01c-2.89 8.047-4.179 11.793-6.847 17.972-.489 1.578-.9 2.456-1.256 2.645.011.178.123.267.312.245.066.778-.112 1.545-.545 2.3-1.234 3.557-2.056 5.502-2.479 5.858l.278 1.678c.011.178-.078.278-.267.3l-.289.022c-.044-.467-.21-.689-.511-.656l-.156.011a6.616 6.616 0 00-.855 2.057l.289-.023c.389-.255.566-.555.533-.9l.578-.055.334.122c-.267.422-.39.756-.367 1.011l.155.267-.378.889.012.144c.333-.033.7.078 1.089.312.267-.023.556-.145.878-.356.333-.033 1.578-.044 3.724-.044l1.078-.367c1.311-.011 1.522.022 2.656-.078l.467-.044.245-.167.01.144c1.19-.1 1.268-.022 2.202.09l.01.144-.655.055.022.278a.942.942 0 00.523-.2c.166-.011.266.078.277.278a3.915 3.915 0 00-.9.2l-.289-.1c-.456.122-.356.156-.667.178l-.456-.09c.012.079-.033.134-.11.134.01.178.11.267.277.256l.467-.045 2.434-.21.923-.2c.01.077.044.121.122.11l.445-.166.833-.067c.645-.056.634-.1 2.034-.322-.01-.09.023-.123.09-.134l.01.123c2.279-.39 2.424-.412 2.79-.534l.034.067c.567-.134.244-.1.4-.211.011.1.044.144.1.144l.4-.033-.022-.3-.812-.011-.01-.023c-.034.011-.056.011-.09.023h-.11v.022c-.545.11-.557.033-.912.066l-2.034.112-.011-.145 1.133-.156.412-.033.233-.167.011.145c1.6-.133 2.168.267 9.57-1.312.4-.033.367-.366.623-1.055a.692.692 0 01-.39-.09c-.61.234-.933.123-2.111.312-.1.011-.178-.078-.211-.256l-.011-.122 1.133.033c.211-.022.623-.055 1.234-.4 0 .1-.222.156-.089.145zm-54.731.878l-.523.044c-.022-.21.256-1.011.834-2.378l.345-.034c.01.323-.2 1.112-.656 2.368zm.655-2.031l-.031-.29c-.032-.357.28-.602.964-.713l.031.29c.031.423-.28.668-.964.713zm7.046 4.865l.012.652-.987.35-.013-.651zm-1.165-.09c.01.31-.256.657-.834 1.004l-1.067-.135-.345.058-.033-.56 2.279-.366zm7.113-31.909l-.61.082-.012-.327c-.013-.328.104-.553.363-.655l.22-.02.415.265c.013.39-.104.614-.376.655zm8.174-1.957l.348-.03.047.88-.998.122c-.023-.486.162-.82.603-.972zm-2.316 1.072l-.79-.146-.01-.237c1.033-.146 1.378-.328 2.012-.62.01.2.122.274.322.237l.022.53-.311.054a.726.726 0 01-.634-.183c-.189.201-.389.329-.611.365zm.99 3.223l-.012-.543 1.278-.46.012.544-1.279.46zm1.373-1.078l-.018-.764.983-.239.017.764-.982.24zm.138-2.435l-.167.023.145-.723 1.422-.28.012.374c-.367.07-.845.28-1.412.606zm.723 3.177l-.023-.849.651-.146c.221-.059.338.205.35.79zm3.767-5.757l-.8.884-.144.044c-.378.133-.867.089-1.445-.132 1.033-.265 2.023-.575 2.39-.796zm-.855 3.557l.01.592-1.1.41-.01-.592zm1.8 1.215c-.01-.228-.222-.379-.656-.455l-1.1.53-.845.057c-.189-.227-.289-.378-.3-.492l.978.095 2.201-.606 1.123.076.01.303a4.16 4.16 0 00-1.41.492zm11.327-3.283c.133.011.222.011.255.011a4.263 4.263 0 011.323-.889c-.4 1.756-1.023 3.057-1.878 3.901l-.623-.378c.523-1.322.834-2.2.923-2.645zm-1.61 3.286l.264-.018c-.358.645-.679.985-.943 1.003l-.057-.68c.17 0 .415-.108.736-.305zm-1.536 2.938c.3-1.2.59-1.878.856-2.056l.011.145c-.156 1.111-.4 1.7-.722 1.744l.055.7c-.267.379-.389.668-.378.89l-.155.01-.09-.966c.179-.022.323-.178.423-.467zm.01 1.6c.021.167-.196.556-.63 1.156l-.304.012-.065-.423c.412-.489.76-.733.998-.744zm-9.435 26.227l-.034-.29.897-.052.103 1c-.483.027-.828-.183-.966-.658zm12.793.783c-.011-.282-.056-.407-.156-.376l-.722.188-.011-.407h.066l1.712-.408.011.408c-.5.063-.8.282-.9.595zm-.51-1.003c.6.301.3.602 0 .803-.3-.1-.7-.401 0-.803zm-.257-1.6l-.956.146-.011-.271.867-.146.756-.355c.011.167.055.23.155.209.9-.292.812-.375 1.245-.438.145-.02.234.146.245.48zm3.352.047c-.537-.209-.57-.376-.951-.25l-.011-.46.861-.293.011.46c-.09.042.235.125.09.543zm.073-.055l-.024-.736.977-.267.023.735zm1.026-.26l-.016-.392c.11-.035.266-.213.469-.569.328-.071.5.427.531.996zm1.326-.018l-.02-.767.981-.236.02.767zm.782-.403c-.018-.442.089-.708.32-.767l.304.649c-.018-.207.035-.324.142-.354l.232.708zm-7.504 3.832l-.2-.965-.8.039.2.964zm19.016-5.637c.17-.097.256-.193-.148-.251-.192.193.212.25-.213.27l.021.173c.043-.038.149-.096.234-.154l-.234.174v.019l-.447.52.894-.289h.106l-.042-.482-.17.02zm.478.527l-.131.038.033.965.967-.193c-.016-.617-.656-.81-.869-.81zm-1.054-.31l.1-.101v-.1s-.1.1-.1.2z"/></svg>