<svg xmlns="http://www.w3.org/2000/svg" viewBox="0 0 156 139"><g fill="none" fill-rule="evenodd" transform="translate(3 3)"><circle cx="74.733" cy="66.192" r="13.879" fill="#6f7b81" fill-rule="nonzero"/><g stroke="#6f7b81" stroke-width="6"><path d="M124.397 45.119C140.252 50.57 150 58.836 150 66.319c0 7.8-10.331 16.58-27.357 22.215-12.872 4.26-29.81 6.484-47.643 6.484-18.284 0-35.598-2.088-48.612-6.531C9.92 82.863 0 73.97 0 66.32c0-7.423 9.307-15.624 24.939-21.068C38.147 40.652 56.03 37.9 75 37.9c18.786 0 36.239 2.693 49.397 7.219z"/><path d="M50.344 52.186c9.365-16.307 20.395-30.107 30.87-39.262 12.622-11.03 24.634-15.35 31.11-11.6 6.748 3.909 9.196 17.276 5.585 34.878-2.73 13.309-9.25 29.126-18.14 44.606-9.115 15.87-19.552 29.853-29.885 38.923-13.076 11.478-25.717 15.631-32.336 11.798-6.424-3.72-8.88-15.908-5.799-32.205 2.604-13.77 9.138-30.672 18.595-47.138z"/><path d="M31.878 34.118c-3.224-16.434-.945-29 5.546-32.748 6.764-3.906 19.562.625 32.99 12.518 10.15 8.992 20.575 22.518 29.52 37.931 9.172 15.804 16.046 31.814 18.72 45.288 3.383 17.051.644 30.08-5.991 33.911-6.438 3.718-18.22-.218-30.783-11.002-10.614-9.112-21.97-23.19-31.486-39.587-9.423-16.237-15.841-32.67-18.516-46.31z"/></g></g></svg>