<svg xmlns="http://www.w3.org/2000/svg" viewBox="0 0 141 156">
  <g fill="none" fill-rule="evenodd" transform="translate(3 3)">
    <path stroke="#6F7B81" stroke-width="5" d="M116.2 74.3c-.2.1-6.5-1-14.5-1.5-6.5-.4-14.1-.4-20.3 0-5 .4-11.6-2.2-12.3.8A60.8 60.8 0 0131.2 115 18.6 18.6 0 0122 91.2c3-7.1 6.5-15 0-16.7-4.7-1.3-7.3 3.2-9 8-3.6 9.3-10.2 18.9-12 30.2-2 12 0 24.7 10.3 31.9 24.1 16.7 50.3-10.4 78-17.2 10-2.5 21-2 29.8-7.2a25 25 0 0012.2-17.3c2-11.5-4-22.9-15-28.6z"/>
    <path fill="#182025" fill-rule="nonzero" d="M91.2 29l19.4 39.6L133.9 0H48.4l23.2 68.4z"/>
    <path stroke="#6F7B81" stroke-width="6" d="M91.2 29l19.4 39.6L133.9 0H48.4l23.2 68.4z"/>
    <circle cx="67.7" cy="73.8" r="14.6" fill="#182025" fill-rule="nonzero" stroke="#82D7DA"/>
    <circle cx="67.7" cy="73.8" r="14.6" stroke="#6F7B81" stroke-width="10"/>
    <circle cx="115.3" cy="73.8" r="14.6" fill="#182025" fill-rule="nonzero"/>
    <circle cx="115.3" cy="73.8" r="14.6" stroke="#6F7B81" stroke-width="10"/>
    <circle cx="19.8" cy="73.9" r="14.6" fill="#182025" fill-rule="nonzero"/>
    <circle cx="19.8" cy="73.9" r="14.6" stroke="#6F7B81" stroke-width="10"/>
  </g>
</svg>
