<?xml version="1.0" encoding="UTF-8"?>
<svg width="133px" height="150px" viewBox="0 0 133 150" version="1.1" xmlns="http://www.w3.org/2000/svg" xmlns:xlink="http://www.w3.org/1999/xlink">
    <!-- Generator: Sketch 47.1 (45422) - http://www.bohemiancoding.com/sketch -->
    <title>icon</title>
    <desc>Created with Sketch.</desc>
    <defs></defs>
    <g id="Page-1" stroke="none" stroke-width="1" fill="none" fill-rule="evenodd">
        <g id="prettier-homepage" transform="translate(-619.000000, -2728.000000)" fill-rule="nonzero" fill="#6F7B81">
            <g id="icon" transform="translate(619.000000, 2728.000000)">
                <path d="M66.5,0 L133,37.4957177 L133,112.504282 L66.5,150 L0,112.504282 L0,37.4957177 L66.5,0 Z M121.126227,109.91778 L101.365245,98.5440219 L68.6994832,116.461117 L68.6994832,139.4827 L121.126227,109.91778 Z M124.717571,106.68037 L124.717571,44.8612539 L105.540827,55.9095581 L105.540827,95.6491949 L124.717571,106.68037 L124.717571,106.68037 Z M11.6675711,109.91778 L64.0943152,139.4827 L64.0943152,116.461117 L31.4113695,98.5440219 L11.6675711,109.91778 Z M8.07622739,106.68037 L27.2529716,95.6491949 L27.2529716,55.9095581 L8.07622739,44.8612539 L8.07622739,106.68037 Z M10.327261,40.8530319 L29.3665375,51.8328195 L29.6414729,51.6786571 L64.0943152,32.7852004 L64.0943152,10.5344296 L10.327261,40.8530319 Z M122.466537,40.8530319 L68.6994832,10.5344296 L68.6994832,32.7852004 L103.152326,51.6615279 L103.427261,51.8156903 L122.466537,40.8530319 Z M64.0943152,111.219596 L64.0943152,77.0983213 L31.8581395,58.5474478 L31.8581395,93.542309 L64.0943152,111.219596 Z M68.6994832,111.219596 L100.935659,93.5594382 L100.935659,58.5474478 L68.6994832,77.0983213 L68.6994832,111.219596 Z M34.0404393,54.5049675 L66.3968992,73.1243577 L98.7533592,54.5049675 L66.3968992,36.7762933 L34.0404393,54.5049675 Z" id="Combined-Shape"></path>
            </g>
        </g>
    </g>
</svg>