<?xml version="1.0" encoding="UTF-8"?>
<svg width="165px" height="53px" viewBox="0 0 165 53" version="1.1" xmlns="http://www.w3.org/2000/svg" xmlns:xlink="http://www.w3.org/1999/xlink">
    <!-- Generator: Sketch 47.1 (45422) - http://www.bohemiancoding.com/sketch -->
    <title>d</title>
    <desc>Created with Sketch.</desc>
    <defs></defs>
    <g id="Page-1" stroke="none" stroke-width="1" fill="none" fill-rule="evenodd">
        <g id="prettier-homepage" transform="translate(-348.000000, -3061.000000)" fill-rule="nonzero" fill="#6F7B81">
            <g id="d" transform="translate(348.000000, 3061.000000)">
                <g id="Group" transform="translate(82.500000, 26.500000) scale(-1, 1) rotate(-180.000000) translate(-82.500000, -26.500000) ">
                    <path d="M34.2904067,52.601634 C33.2408759,52.2552288 32.4666319,51.7356209 31.5203337,50.679085 C30.5740355,49.6398693 30.0750782,48.6699346 29.782586,47.3362745 C29.6621481,46.7127451 29.5933264,43.3006536 29.5933264,36.9441176 L29.5933264,27.4526144 L28.9051095,26.7771242 L28.2168926,26.101634 L28.2168926,13.0594771 L28.2168926,0.0173202614 L31.451512,0.0173202614 L34.6861314,0.0173202614 L35.3571429,0.710130719 C35.9765381,1.35098039 36.096976,1.40294118 36.9400417,1.40294118 L37.8519291,1.40294118 L37.8519291,2.39019608 L37.8519291,3.37745098 L37.1637122,2.70196078 L36.4754953,2.02647059 L36.4754953,10.270915 L36.4754953,18.4980392 L39.4520334,20.074183 L42.411366,21.6503268 L42.4629823,14.8954248 C42.4801877,11.1888889 42.5490094,8.15784314 42.6178311,8.15784314 C42.6866528,8.15784314 42.9963504,8.4003268 43.306048,8.7120915 L43.8738269,9.26633987 L43.8738269,5.33464052 L43.8738269,1.40294118 L48.0031283,1.40294118 L52.1324296,1.40294118 L52.1324296,9.57810458 L52.1324296,17.753268 L51.4442127,17.0777778 L50.7559958,16.4022876 L50.7559958,31.072549 C50.7559958,45.4310458 50.7559958,45.777451 50.394682,46.8166667 L50.0505735,47.8732026 L50.6699687,48.5140523 C51.1517205,49.0163399 51.2721585,49.2588235 51.1861314,49.5359477 C50.9796663,50.1941176 49.3279458,51.7183007 48.2612096,52.2552288 L47.2288843,52.7575163 L41.1209593,52.7921569 C36.4410845,52.8267974 34.8409802,52.7748366 34.2904067,52.601634 Z" id="Shape"></path>
                    <path d="M90.8962461,52.601634 C88.7799791,51.9261438 86.9045881,49.7264706 86.3884254,47.3362745 C86.2679875,46.7473856 86.1991658,43.924183 86.1991658,39.3689542 L86.1991658,32.3022876 L85.5109489,31.6267974 L84.822732,30.9513072 L84.822732,18.6366013 C84.822732,5.23071895 84.822732,5.26535948 85.8034411,3.44673203 C86.37122,2.39019608 87.592805,1.22973856 88.7971846,0.588888889 L89.7262774,0.103921569 L95.2320125,0.0519607843 L100.737748,0 L101.425965,0.710130719 L102.096976,1.40294118 L105.417623,1.40294118 L108.738269,1.40294118 L108.738269,4.81503268 L108.738269,8.22712418 L108.050052,7.55163399 L107.361835,6.87614379 L107.327424,20.4205882 L107.275808,33.9477124 L101.563608,30.9859477 L95.8342023,28.0068627 L95.8342023,23.451634 C95.8342023,20.9401961 95.8686131,18.8964052 95.9202294,18.8964052 C95.9718457,18.8964052 96.7116788,19.2428105 97.5547445,19.675817 C98.3978102,20.1088235 99.1376434,20.4552288 99.1892596,20.4552288 C99.2408759,20.4552288 99.2752868,17.6147059 99.2752868,14.1333333 L99.2752868,7.81143791 L96.1783107,7.81143791 L93.0813347,7.81143791 L93.0813347,23.4169935 L93.0813347,39.0398693 L93.7695516,39.7846405 L94.4577685,40.546732 L94.4577685,42.798366 L94.4577685,45.05 L96.6428571,45.05 L98.8279458,45.05 L98.1569343,44.3571895 L97.4859228,43.6643791 L98.3806048,43.6643791 L99.2752868,43.6643791 L99.2752868,39.0745098 C99.2752868,36.5457516 99.326903,34.4846405 99.3785193,34.4846405 C99.4301356,34.4846405 101.25391,35.4372549 103.421794,36.5803922 L107.379041,38.6761438 L107.327424,42.5212418 L107.275808,46.3490196 L106.725235,47.5094771 C106.398332,48.2022876 105.813347,49.0509804 105.297185,49.5705882 L104.402503,50.4712418 L105.039103,51.1120915 L105.675704,51.7702614 L105.262774,52.0473856 C104.127216,52.7921569 103.628259,52.8441176 97.4859228,52.8267974 C93.1673618,52.8267974 91.4296142,52.7575163 90.8962461,52.601634 Z" id="Shape"></path>
                    <path d="M152.354015,52.1686275 L151.683003,51.4584967 L144.749218,51.4584967 L137.815433,51.4584967 L137.815433,44.4091503 L137.815433,37.3598039 L138.50365,38.0352941 L139.191867,38.7107843 L139.191867,33.5147059 L139.191867,28.3186275 L138.50365,27.6431373 L137.815433,26.9676471 L137.815433,13.4924837 L137.815433,0.0173202614 L138.383212,0.0173202614 C138.813347,0.0173202614 139.105839,0.173202614 139.622002,0.710130719 L140.293014,1.40294118 L143.871741,1.40294118 L147.450469,1.40294118 L147.450469,4.95359477 C147.450469,6.91078431 147.398853,8.50424837 147.330031,8.50424837 C147.26121,8.50424837 146.951512,8.26176471 146.641814,7.95 L146.074035,7.39575163 L146.074035,12.851634 L146.074035,18.2901961 L146.917101,18.7405229 L147.760167,19.1908497 L149.274244,15.7094771 C150.100104,13.7869281 150.805527,12.1934641 150.839937,12.1588235 C150.874348,12.1068627 151.201251,12.3839869 151.579771,12.7477124 L152.250782,13.4058824 L152.749739,12.2973856 C153.025026,11.6911765 153.885297,9.71666667 154.676747,7.93267974 L156.104797,4.67647059 L155.485401,4.03562092 C155.141293,3.67189542 154.848801,3.30816993 154.848801,3.22156863 C154.848801,3.11764706 155.141293,2.37287582 155.485401,1.54150327 L156.139208,0.0173202614 L160.578206,0.0173202614 C163.004171,0.0173202614 165,0.0692810458 165,0.155882353 C165,0.225163399 164.088113,2.32091503 162.986966,4.83235294 L160.973931,9.3875817 L161.610532,10.0284314 C161.95464,10.3921569 162.247132,10.7558824 162.247132,10.8424837 C162.247132,10.9464052 161.386861,12.9901961 160.320125,15.3977124 L158.393118,19.7624183 L157.687696,19.0696078 L156.999479,18.3767974 L156.001564,20.6630719 C155.450991,21.9101307 155.03806,22.9493464 155.055266,22.9666667 C155.089677,23.0013072 156.294056,23.6075163 157.739312,24.3349673 L160.354536,25.6513072 L160.354536,35.3333333 C160.354536,40.7892157 160.285714,45.379085 160.182482,45.8813725 C160.096455,46.3663399 159.855579,47.1111111 159.649114,47.5614379 L159.270594,48.3581699 L159.907195,49.0163399 C160.251303,49.3627451 160.52659,49.7437908 160.52659,49.8303922 C160.52659,50.1767974 158.46194,51.9954248 157.653285,52.3764706 C157.016684,52.6535948 156.414494,52.7575163 154.934828,52.8094771 L153.042231,52.8787582 L152.354015,52.1686275 Z" id="Shape"></path>
                    <path d="M18.3925965,52.0473856 L17.7732013,51.4411765 L8.89520334,51.4584967 L0,51.475817 L0,42.4173203 L0,33.3761438 L0.688216893,34.051634 L1.37643379,34.7271242 L1.37643379,18.0650327 L1.37643379,1.40294118 L2.52919708,1.40294118 L3.68196038,1.40294118 L3.01094891,0.710130719 L2.32273201,0 L9.97914494,0.0519607843 L17.6355579,0.103921569 L18.7022941,0.692810458 C20.6293014,1.73202614 21.9541189,3.56797386 22.367049,5.73300654 C22.4702815,6.25261438 22.5391032,9.59542484 22.5391032,13.4058824 L22.5391032,20.1607843 L23.2273201,20.9055556 L23.915537,21.6676471 L23.915537,33.9303922 C23.915537,41.4647059 23.8467153,46.574183 23.7434828,47.1284314 C23.3477581,49.2761438 22.0057351,51.1294118 20.1475495,52.1339869 C19.596976,52.4284314 19.1152242,52.670915 19.0636079,52.670915 C19.0291971,52.670915 18.7367049,52.3937908 18.3925965,52.0473856 Z M15.6569343,29.2366013 L15.6569343,13.4232026 L14.9687174,12.7477124 L14.2805005,12.0722222 L14.2805005,9.94183007 L14.2805005,7.81143791 L12.2674661,7.81143791 L10.2544317,7.81143791 L10.9254432,8.50424837 L11.5964546,9.19705882 L10.5297185,9.19705882 L9.46298227,9.19705882 L9.46298227,26.1189542 L9.46298227,43.0408497 L8.77476538,42.3653595 L8.08654849,41.6898693 L8.08654849,42.6771242 L8.08654849,43.6643791 L9.17049009,43.6643791 C10.2028154,43.6643791 10.2888425,43.6990196 10.9254432,44.3571895 L11.5964546,45.05 L13.6266945,45.05 L15.6569343,45.05 L15.6569343,29.2366013 Z" id="Shape"></path>
                    <path d="M56.6058394,36.7882353 L56.6058394,22.1179739 L57.2940563,22.7934641 L57.9822732,23.4689542 L57.9822732,13.6830065 L57.9822732,3.89705882 L57.2940563,3.22156863 C56.6230448,2.54607843 56.6058394,2.52875817 56.6058394,1.28169935 L56.6058394,0.0173202614 L60.6491137,0.0173202614 L64.6923879,0.0173202614 L64.6923879,5.26535948 L64.6923879,10.5133987 L65.3806048,11.1888889 L66.0688217,11.8643791 L66.0688217,21.8235294 L66.0688217,31.7826797 L65.5010428,31.2284314 C65.1913452,30.9166667 64.8816475,30.674183 64.8128259,30.674183 C64.7440042,30.674183 64.6923879,33.6013072 64.6923879,37.169281 L64.6923879,43.6643791 L67.7893639,43.6643791 L70.8863399,43.6643791 L70.8863399,40.2003268 C70.8863399,38.295098 70.9379562,36.7362745 71.0067779,36.7362745 C71.0755996,36.7362745 71.3852972,36.9787582 71.6949948,37.2905229 L72.2627737,37.8447712 L72.2627737,28.0588235 L72.2627737,18.2728758 L71.5745568,17.5973856 L70.8863399,16.9218954 L70.8863399,8.46960784 L70.8863399,0.0173202614 L75.0156413,0.0173202614 L79.1449426,0.0173202614 L79.1449426,12.5052288 L79.1449426,25.0104575 L79.8331595,25.7552288 L80.5213764,26.5173203 L80.5213764,36.4245098 L80.5213764,46.3316993 L79.8331595,45.6562092 C79.1105318,44.9460784 79.0933264,44.9633987 78.9040667,46.0892157 C78.6115746,47.8558824 76.9770594,49.9862745 75.2393118,50.8696078 C74.310219,51.3199346 74.0693431,51.3718954 71.8842544,51.4238562 C69.9572471,51.475817 69.3206465,51.4411765 68.5464025,51.1813725 C67.3420229,50.8003268 66.0344108,49.8303922 65.2773723,48.7565359 L64.6923879,47.9251634 L64.6923879,49.6918301 L64.6923879,51.4584967 L60.6491137,51.4584967 L56.6058394,51.4584967 L56.6058394,36.7882353 Z" id="Shape"></path>
                    <path d="M117.478624,51.0428105 C115.740876,50.3326797 114.639729,49.224183 113.762252,47.3362745 L113.297706,46.3490196 L113.24609,29.4617647 L113.211679,12.5918301 L113.899896,13.2673203 L114.588113,13.9428105 L114.588113,8.74673203 L114.588113,3.55065359 L113.899896,2.8751634 C113.24609,2.23431373 113.211679,2.14771242 113.211679,1.10849673 L113.211679,0.0173202614 L123.01877,0.0173202614 L132.82586,0.0173202614 L132.82586,3.91437908 L132.82586,7.81143791 L127.062044,7.81143791 L121.298227,7.81143791 L121.298227,8.98921569 C121.298227,10.1323529 121.315433,10.1843137 121.986444,10.8424837 L122.674661,11.5179739 L122.709072,16.8006536 L122.760688,22.1006536 L128.438478,25.045098 L134.116267,27.9895425 L134.167883,30.8127451 C134.185089,32.3542484 134.150678,33.6186275 134.081856,33.6186275 C134.013034,33.6186275 133.703337,33.3761438 133.393639,33.0643791 L132.82586,32.5101307 L132.82586,34.1035948 C132.82586,35.1947712 132.757039,35.6970588 132.636601,35.6970588 C132.516163,35.6970588 129.952555,34.4153595 126.941606,32.8392157 C123.913452,31.2630719 121.418665,29.9813725 121.367049,29.9813725 C121.332638,29.9813725 121.298227,33.0643791 121.298227,36.8228758 L121.298227,43.6643791 L127.062044,43.6643791 L132.82586,43.6643791 L132.82586,47.5614379 L132.82586,51.4584967 L125.651199,51.4584967 C118.510949,51.4584967 118.459333,51.4411765 117.478624,51.0428105 Z" id="Shape"></path>
                </g>
            </g>
        </g>
    </g>
</svg>