<svg xmlns="http://www.w3.org/2000/svg" viewBox="0 0 219 42">
  <path fill="#6F7B81" fill-rule="evenodd" d="M17.3 6.7c-2.6 0-3.4 1.1-3.4 3.7v4.2h7l-.7 6.8h-6.3V42H5.6V21.4H0v-6.8h5.6v-4.1C5.6 3.6 8.4 0 16.1 0c1.7 0 3.7.1 4.9.3v6.4M29.3 29c0 4 1.5 6.6 5.3 6.6 3.4 0 5.1-2.4 5.1-6.2v-2.8c0-3.8-1.7-6.2-5-6.2-4 0-5.4 2.6-5.4 6.6v2zM21 27.2C21 19.6 24.6 14 32.2 14c4.1 0 6.7 2 7.9 4.7v-4.1H48v26.8h-8v-4C39 40 36.4 42 32.3 42 24.6 42 21 36.4 21 28.8v-1.6zM64 14c3.3 0 6.3.7 8 1.8l-1.8 5.8c-1.3-.7-3.4-1.3-5.5-1.3-4.5 0-6.5 2.6-6.5 7v1.5c0 4.3 2 6.9 6.5 6.9 2.1 0 4.2-.6 5.5-1.3l1.8 5.8a15.2 15.2 0 01-8 1.8c-9.6 0-14-5.1-14-13.4v-1.2C50 19 54.4 14 64 14m18.4 11.5h10.1v-.7c0-3-1.2-5.2-4.9-5.2-3.8 0-5.2 2.3-5.2 5.9M74 29v-2.4C74 19 78.5 14 87.6 14c8.6 0 12.4 5 12.4 12.5v4.3H82.4c.1 3.7 1.8 5.3 6.5 5.3 3.1 0 6.4-.6 8.9-1.6l1.5 5.5c-2.2 1.2-6.7 2-10.8 2C78 42 74 36.9 74 29m47.8-2.1c0-3.9-1.5-6.7-5.4-6.7-3.4 0-5.2 2.4-5.2 6.3v2.8c0 3.9 1.8 6.3 5.2 6.3 4 0 5.4-2.9 5.4-6.7v-2zm8.2 1.8c0 7.6-3.6 13.3-11.2 13.3-4 0-7-2-8-4.7v4.1H103V.7l8.2-.7v18.1a8.2 8.2 0 017.6-4.3c7.6 0 11.2 5.7 11.2 13.2v1.7zm21.8-2c0-3.5-1.5-6.3-5.3-6.3s-5.3 2.8-5.3 6.4v2.4c0 3.6 1.5 6.4 5.3 6.4s5.3-2.8 5.3-6.4v-2.4zm-18.8 2v-1.4c0-7.7 4.4-13.3 13.5-13.3 9 0 13.5 5.6 13.5 13.3v1.4c0 7.7-4.4 13.3-13.5 13.3-9 0-13.5-5.6-13.5-13.3zm48.8-2c0-3.5-1.5-6.3-5.3-6.3s-5.3 2.8-5.3 6.4v2.4c0 3.6 1.5 6.4 5.3 6.4s5.3-2.8 5.3-6.4v-2.4zm-18.8 2v-1.4c0-7.7 4.4-13.3 13.5-13.3 9 0 13.5 5.6 13.5 13.3v1.4c0 7.7-4.4 13.3-13.5 13.3-9 0-13.5-5.6-13.5-13.3zm38.4-1l8.3-13.2h9l-8.8 13.6L219 42h-9l-8.6-13.4V42H193V.8l8.4-.8"/>
</svg>
