<?xml version="1.0" encoding="UTF-8"?>
<svg width="151px" height="58px" viewBox="0 0 151 58" version="1.1" xmlns="http://www.w3.org/2000/svg" xmlns:xlink="http://www.w3.org/1999/xlink">
    <!-- Generator: Sketch 47.1 (45422) - http://www.bohemiancoding.com/sketch -->
    <title>babel</title>
    <desc>Created with Sketch.</desc>
    <defs></defs>
    <g id="Page-1" stroke="none" stroke-width="1" fill="none" fill-rule="evenodd">
        <g id="prettier-homepage" transform="translate(-133.000000, -2983.000000)" fill-rule="nonzero" fill="#6F7B81">
            <g id="babel" transform="translate(133.000000, 2983.000000)">
                <path d="M103.160059,4.87127796 L103.100059,3.98992695 L102.160059,4.11149261 L102.220059,4.99284362 L103.160059,4.87127796 Z M106.228233,12.866997 L106.25096,13.0727235 L107.00096,13.0341498 C106.978233,12.9055708 107.069142,12.6998443 107.228233,12.4426861 L107.160051,12.0698069 C106.841869,12.0826648 106.523687,12.3526808 106.228233,12.866997 L106.228233,12.866997 Z M92.5231567,23.3949756 C92.5009263,23.0948975 91.5672471,21.9279272 89.7221193,19.8718367 C89.6887736,19.4939606 90.3223416,18.9271465 91.6228233,18.1825083 L95.3353094,14.9483336 C96.1689515,13.8925033 96.6580215,12.1809469 96.8025195,9.80255033 L96.7580585,9.2579642 C96.6135606,7.61309181 95.4242312,6.2905255 93.1678399,5.27915126 C91.8340126,4.37891704 89.4331234,3.87878692 85.9651723,3.7898749 C83.0974435,4.03438296 79.3516117,5.0568712 74.7387921,6.86845363 C73.4716562,7.77980185 72.0266765,8.69115007 70.4038533,9.60249828 L70.4260837,9.88034835 C70.5261208,9.86923435 70.681734,9.81366433 70.8595776,9.6914103 C71.0485365,9.6691823 71.1596888,9.75809432 71.170804,9.93591836 L71.4486847,9.79143633 L71.5820674,9.78032233 L71.5931827,9.90257635 C71.6042979,10.0470584 70.6039274,10.8361526 68.5809559,12.2476309 L68.7365691,12.536595 L68.6031864,12.547709 L68.2697295,12.425455 C68.2808448,12.525481 68.1363468,12.592165 67.8584661,12.614393 L67.8695813,12.736647 L68.1919229,13.1367511 C68.0918859,13.1478651 67.9362727,13.1034091 67.7250834,13.0256111 C67.2582438,13.0700671 66.8025195,13.3145752 66.3467951,13.7813633 L66.535754,12.9589271 C67.2137829,10.0359444 67.6806225,7.44638177 67.9251575,5.20135324 L67.8918118,5.0568712 C67.4249722,4.75679313 66.9692479,4.33446103 66.5468692,3.8009889 C66.5579844,3.45645482 66.5579844,3.25640277 66.5468692,3.21194676 L66.5135235,3.08969273 L66.3801408,3.12303474 C64.9129307,5.32360727 62.0896628,9.08014016 57.8992219,14.3926334 C54.7091515,18.1713943 53.0640978,20.2719408 52.9640608,20.6942729 C51.6635791,22.0390672 51.0411263,22.8503894 51.1078177,23.1282395 C50.7632456,23.3505196 50.6187477,23.5727996 50.6743238,23.8173077 C50.5742868,23.8395357 50.5075954,23.8061937 50.4853649,23.7061676 C49.9296036,24.6064019 49.1070767,25.18433 48.0066691,25.439952 L46.8506854,25.7066881 C46.6950722,25.7400301 46.6172657,25.8511701 46.6283809,26.0401082 L46.6617266,26.1845902 L47.0952205,26.0845642 L47.1285661,26.2068182 L46.1504261,26.5846943 L44.4164505,26.9847984 L43.5050019,27.0403684 C43.3716191,27.1737365 44.2274917,27.0292544 43.8940348,27.1070524 L42.7602816,27.3737885 C42.0711375,27.5293845 41.6932197,27.4738145 41.6265283,27.1959645 L41.4931456,27.2293065 C41.5153761,27.3515605 41.5264913,27.4404725 41.5042608,27.5182705 L41.4375695,27.2404205 L40.5261208,27.4515865 C40.4594294,27.0292544 39.2256391,25.4955221 36.8358651,22.8503894 C36.7914042,22.3391453 37.6361615,21.5945071 39.3590219,20.6275889 L44.2274917,16.3486979 C45.316784,14.9483336 45.9614672,12.703305 46.1726565,9.61361229 L46.1059652,8.89120211 C45.9170063,6.7128576 44.3386439,4.95684518 41.3708781,3.60093686 C39.6146721,2.41173857 36.4579474,1.77824042 31.900704,1.6782144 C28.1215265,2.00052048 23.1863653,3.3453148 17.1174509,5.69036935 C15.4501667,6.90179564 13.5494628,8.10210793 11.415339,9.29130621 L11.4486847,9.6691823 C11.5931827,9.6580683 11.7821415,9.58027028 12.0155613,9.44690225 C12.2600963,9.42467424 12.3934791,9.53581427 12.4157095,9.75809432 L12.7936273,9.54692827 L12.9825861,9.53581427 L12.9937014,9.71363831 C13.0048166,9.89146235 11.6821045,10.9250646 9.00333457,12.814445 L9.2145239,13.1478651 L9.02556502,13.1589791 L8.61430159,13.0144971 C8.62541682,13.1256371 8.43645795,13.2034351 8.04742497,13.2367771 L8.06965543,13.4368292 L8.51426454,13.9258453 C8.36976658,13.9369593 8.16969248,13.8925033 7.91404224,13.8035913 C7.04705446,13.8813893 6.20229715,14.5037734 5.36865506,15.6818577 L5.57984439,16.0152778 C6.3023342,15.3484376 6.72471286,15.0150176 6.84698036,15.0039036 L6.89144127,15.5484897 C6.76917377,15.5596037 6.58021489,15.6374017 6.32456465,15.7707697 L6.780289,16.4598379 C7.658392,15.5151477 8.62541682,14.7038255 9.68136347,14.0258713 C10.2037792,14.1592394 10.4816599,14.3259494 10.4927751,14.5037734 L10.8929233,14.4704314 C13.7606521,12.3476569 16.5950352,10.8139246 19.4071878,9.86923435 L19.4405335,10.2471104 C18.9181178,11.0250906 18.5624305,11.4251947 18.3734717,11.4474227 C18.3957021,11.7141588 18.4846239,11.9475528 18.6513524,12.1476049 C18.6958133,12.625507 17.4175621,15.8485678 14.827714,21.8056732 C8.94775843,35.6537205 4.01259726,45.9008309 0,52.5247765 C0.0111152279,52.6581445 0.0889218229,52.8359686 0.233419785,53.0582486 C1.22267506,52.8248546 1.84512783,52.5803465 2.11189329,52.3469524 L2.32308262,52.3247244 L2.35642831,52.7026005 L2.72323083,52.6692585 L3.10114857,52.4580925 C3.1122638,52.5692325 3.23453131,52.6248025 3.49018155,52.6025745 L3.52352723,52.9804506 C3.55687292,53.3472127 3.34568359,53.9029128 2.90107447,54.669779 C2.50092627,55.1254531 2.06743238,56.0812573 1.61170804,57.5371917 L1.62282327,57.7150157 L1.98962579,57.6816737 C3.5902186,55.8923193 4.80177844,54.1363069 5.63542053,52.4247505 C10.3038162,51.0577281 13.8606891,49.7129338 16.3282697,48.3903675 C18.8069655,48.1792015 20.6965543,47.5234753 21.9859207,46.445417 L21.9636903,46.245365 L21.0300111,46.5232151 L20.8188218,46.5454431 L20.7965913,46.345391 C22.6194887,46.067541 23.8755094,45.6674369 24.5757688,45.1117367 C28.1215265,42.3776921 30.8002964,40.4438556 32.6120785,39.2991133 C36.3356799,36.5650687 38.7587996,33.8977081 39.8592071,31.3081454 C40.0592812,31.2636894 40.2593553,31.2192334 40.4816599,31.1636634 C41.0040756,31.1414354 41.2930715,31.1303214 41.3708781,31.1080934 C41.3486476,31.0080674 41.3931086,30.9524974 41.4931456,30.9302694 C42.3267877,30.8413573 41.9266395,30.9858394 42.4601704,30.8635853 L43.8606891,30.5412793 C43.7717673,30.5635073 43.7384216,30.6079633 43.7606521,30.6968753 L43.9718414,30.5635073 C43.9273805,30.5635073 43.8940348,30.5523933 43.8606891,30.5412793 L44.0941089,30.4857092 L43.9829567,30.5523933 C44.1385698,30.5746213 44.3052983,30.5635073 44.4942571,30.5190513 L44.5942942,30.9302694 L38.2252686,41.0551258 L36.8136347,42.8222522 L36.1244906,45.1339647 L36.2578733,45.1006227 L36.9470174,44.8116587 L36.7247129,45.7118929 L36.7914042,45.9786289 L36.9803631,46.212023 C36.8914413,46.234251 36.8580956,46.289821 36.880326,46.389847 L36.9136717,46.5343291 L37.2026677,46.467645 C37.6250463,46.100883 37.80289,45.7674629 37.7361986,45.4673848 C38.1919229,45.5451828 38.4920341,45.5785248 38.6476473,45.5340688 L38.680993,45.6785509 C38.4031123,45.7452349 38.2586143,45.9675149 38.2363838,46.345391 L38.2697295,46.4898731 L38.4253427,46.456531 C40.7373101,43.9336524 46.4060763,35.2980724 50.9522045,29.440993 C50.8077066,28.8074948 53.1752501,27.9294886 58.0659504,26.7958604 L58.2215635,26.7625184 C58.3994072,27.5293845 58.0214894,29.385423 57.0878103,32.3306337 C56.487588,34.1088741 56.1985921,35.0869063 56.243053,35.2425024 C55.464987,37.6097849 55.0981845,38.8878952 55.1426454,39.0879473 L53.4086699,44.7672026 C52.2860319,47.6790713 51.4301593,50.7354221 50.829937,53.9584828 C50.9299741,53.9362548 51.0855873,53.9473688 51.3078918,54.0029388 L51.5524268,53.7917728 C51.5746573,53.8917988 51.6413486,53.9251408 51.7413857,53.9029128 L51.6413486,53.4916947 L52.3971841,53.4694667 C52.6194887,53.4138967 52.8084476,53.1360466 52.9640608,52.6248025 C52.9307151,51.8579363 53.0863283,51.4467182 53.4309003,51.3578062 C53.8977399,49.5351098 54.1867358,48.6237616 54.2867729,48.5904196 C54.7202668,46.7788371 55.0426084,45.7452349 55.2537977,45.4896128 C55.9095961,43.1334443 56.3875509,41.922018 56.6987773,41.8442199 L56.7654687,42.133184 L56.2875139,43.3668383 C55.4538718,47.0678012 54.6091145,49.9907839 53.7532419,52.1357864 L53.997777,53.2027307 L54.1533901,53.1693886 C56.2208225,48.7237876 59.1997036,39.9214975 63.0789181,26.7625184 C63.1900704,25.6066621 63.7458318,24.7064279 64.7350871,24.0729297 L64.5127825,23.8395357 L64.4794368,23.7172816 C64.9240459,23.6172556 65.2352723,23.4394316 65.413116,23.1949235 C65.3908855,23.0948975 65.0018525,22.9504155 64.246017,22.7503634 L66.1800667,14.4593174 C66.6024454,14.0814413 66.8469804,13.8813893 66.924787,13.8813893 L66.9581326,14.3037214 C66.8580956,14.3148354 66.7024824,14.3704054 66.5246388,14.4926594 L66.8914413,15.0150176 C67.5583549,14.2926074 68.2808448,13.6702233 69.0700259,13.1478651 C69.4701741,13.2590052 69.6702482,13.3923732 69.6924787,13.5257412 L69.9814746,13.5035132 C72.1822897,11.8919828 74.3386439,10.7361266 76.4616525,10.0359444 L76.4838829,10.3137945 C76.0948499,10.9028366 75.8280845,11.2029147 75.6835865,11.2140287 C75.705817,11.4140807 75.7613931,11.5919048 75.8614302,11.7475008 C75.8947758,12.1142629 74.9388662,14.5593435 72.9825861,19.0938565 C68.5142645,29.596589 64.7684328,37.3652769 61.7228603,42.4110341 C61.7339755,42.5110601 61.8006669,42.6444281 61.9229344,42.8222522 C62.6676547,42.6444281 63.1456095,42.4554901 63.3345684,42.2776661 L63.4679511,42.266552 L63.4901815,42.5444021 L63.8014079,42.5221741 L64.0792886,42.3776921 C64.0904039,42.4554901 64.1904409,42.4888321 64.3793998,42.4777181 L64.4016302,42.7777962 C64.4238607,43.0445322 64.2682475,43.4668643 63.9236754,44.0447925 C63.6013338,44.3893266 63.267877,45.1117367 62.9121897,46.212023 L62.9233049,46.356505 L63.2123009,46.334277 C64.4238607,44.9783687 65.3464246,43.6446884 65.9799926,42.3332361 C69.5257503,41.2885198 72.2267506,40.2771456 74.0941089,39.2768853 C75.9948129,39.1101753 77.4286773,38.6211592 78.4068173,37.798723 L78.3957021,37.654241 L77.6732123,37.865407 L77.5175991,37.876521 L77.5064839,37.732039 C78.8847721,37.5319869 79.851797,37.2207949 80.3742127,36.8095768 C83.0640978,34.7423723 85.0981845,33.2642099 86.4764728,32.3973177 C90.7669507,29.274283 92.7676917,26.2735022 92.5231567,23.3949756 L92.5231567,23.3949756 Z M92.13852,23.5839136 L92.3115969,24.7064279 C92.0808277,24.9842779 91.8308277,25.12876 91.6000584,25.139874 L91.3115969,23.2282655 C91.8500584,23.3394055 92.1192892,23.4505456 92.13852,23.5839136 L92.13852,23.5839136 Z M7.68845604,15.1128222 L7.4455989,15.139928 L7.40274176,14.2996465 L8.38845604,14.1370114 L8.40274176,14.5707051 C8.2455989,14.5978109 8.00274176,14.760446 7.68845604,15.1128222 Z M3.87921452,52.0024184 C3.43460541,51.8023663 3.03445721,51.7245683 2.68988514,51.7579103 L2.64542423,51.2133242 C2.62319378,51.0021581 2.74546128,50.8576761 3.01222675,50.8021061 C3.25676176,50.7798781 3.40125973,50.9577021 3.42349018,51.3133502 C4.0681734,50.524256 4.42386069,50.1241519 4.49055206,50.1130379 L4.90181549,50.279748 C4.76843275,51.3911482 4.42386069,51.9579624 3.87921452,52.0024184 Z M43.9051501,10.1359704 C43.7161912,10.1581984 43.3382734,9.56915628 42.7936273,8.402186 L42.7602816,8.05765192 C43.1159689,8.02430991 43.4827714,8.60223805 43.8718044,9.79143633 L43.9051501,10.1359704 Z M43.3716191,5.99044742 L43.2160059,6.35720951 L37.7806595,4.08995297 C41.4042238,4.212207 43.2715821,4.84570515 43.3716191,5.99044742 Z M20.6183772,26.1913216 L19.6600438,26.3539567 L19.6183772,25.5136752 L20.5767105,25.35104 L20.6183772,26.1913216 Z M19.9778538,13.8591613 L20.2354295,13.8480473 L20.2960356,14.3926334 C20.0536113,14.4037474 19.7354295,14.6704835 19.3414901,15.1817276 L19.2960356,14.8038515 C19.7657325,14.3926334 20.0081568,14.0814413 19.9778538,13.8591613 L19.9778538,13.8591613 Z M18.7346843,17.6601502 L18.9955539,18.6478712 L18.2564235,18.6630669 L17.9955539,17.6753459 L18.7346843,17.6601502 Z M17.4851558,19.017702 L18.0174139,18.9827165 C17.9690268,19.6124549 17.7270913,19.9506477 17.2916074,19.9739714 L17.0174139,19.9856332 C17.3561235,19.5658076 17.5174139,19.2392766 17.4851558,19.017702 Z M16.8983099,20.9114621 L17.1906176,20.883211 L17.2060022,21.1092204 L16.7290791,21.8437509 L16.2213868,21.8861276 L16.2060022,21.6601182 C16.7136945,21.6177415 16.9444638,21.3776065 16.8983099,20.9114621 L16.8983099,20.9114621 Z M16.705817,22.6058814 L16.4116993,23.5967147 L15.9116993,23.608798 L15.705817,22.630048 L16.705817,22.6058814 Z M10.0377918,40.3327156 C9.73600851,41.5774839 9.4067904,42.210982 9.06385487,42.23321 L9.05013745,42.055386 C8.96783293,41.4441159 9.29705103,40.8661877 10.0377918,40.3327156 Z M9.32730523,42.8111382 L9.35905127,43.1197279 C9.42254333,43.5440388 9.10508301,43.794768 8.40667031,43.8140548 L8.37492428,43.5054651 C8.31143222,43.1390148 8.62889254,42.9075725 9.32730523,42.8111382 Z M8.39264395,48.0236583 L9.00998541,47.9013514 L9.03372931,48.3416563 C8.87939394,48.3661176 8.67757078,48.5373473 8.4282598,48.8308839 L8.03648542,48.9042681 C8.01274152,48.4884246 8.14333298,48.1704266 8.39264395,48.0236583 L8.39264395,48.0236583 Z M24.8203038,42.8778222 C21.5746573,44.4782386 19.6628381,45.5674108 19.0959615,46.134225 C15.5835495,47.3567653 13.8384587,48.1125174 13.8718044,48.4125955 C10.7484253,49.6462498 8.69210819,50.557598 7.70285291,51.1244122 C7.46943312,51.1466402 7.13597629,51.0577281 6.69136717,50.8576761 C6.63579103,50.2241779 6.92478696,49.7129338 7.53612449,49.3017157 C8.08077066,49.2572597 8.60318637,49.3350577 9.10337162,49.5462238 C9.68136347,49.2461457 10.6928492,48.9127256 12.1267136,48.5570775 L12.0933679,48.1792015 L10.9373842,48.2792275 C11.0818822,48.0791754 12.193405,47.5568173 14.2830678,46.7121531 L14.8610597,46.6565831 L14.8721749,46.8344071 C13.8829196,46.9233192 13.3382734,47.2122832 13.2160059,47.7346414 C13.2382364,47.9680354 13.3716191,48.0680614 13.6161541,48.0458334 C14.3608744,47.5790453 14.7276769,47.3011952 14.7165617,47.2233972 C16.1281956,46.9566612 20.0296406,44.9116847 26.4208966,41.0995818 L26.4542423,41.4441159 C26.4653575,41.6108259 25.9207114,42.077614 24.8203038,42.8778222 L24.8203038,42.8778222 Z M15.0166728,46.100883 C15.950352,46.0230849 16.7506484,45.6452089 17.4175621,44.9894827 C17.6843275,44.9672547 17.8288255,45.0672807 17.8399407,45.3006748 C17.3842164,45.3451308 16.5061134,45.7230069 15.2278622,46.456531 L15.0389033,46.467645 L15.0166728,46.100883 L15.0166728,46.100883 Z M30.8336421,33.9532781 L25.9318266,37.832065 C22.2860319,40.2215756 20.3297518,41.4218878 20.0518711,41.4441159 C14.2497221,44.6338346 10.6372731,46.289821 9.23675435,46.412075 L9.02556502,46.434303 C9.20340867,45.7785769 11.7821415,40.4994256 16.7839941,30.5635073 C18.9848092,30.3745692 22.4527603,29.352081 27.1767321,27.4849285 L28.3327158,27.3849025 C30.7224898,27.1737365 32.5120415,27.6405246 33.6902557,28.7519248 L33.756947,29.474335 C32.8677288,32.0305556 31.8895887,33.519832 30.8336421,33.9532781 L30.8336421,33.9532781 Z M21.2523157,28.7698255 L22.2384268,28.4963028 L22.2523157,29.2256967 L21.2662046,29.4992194 L21.2523157,28.7698255 Z M32.3341979,26.6939143 L32.9121897,26.6291503 C33.4457206,26.9270647 33.7236013,27.1861207 33.7458318,27.419271 L33.756947,27.6265158 C33.2456465,27.678327 32.7676917,27.3674598 32.3341979,26.6939143 L32.3341979,26.6939143 Z M33.901445,17.7601762 C33.3901445,18.3714464 31.9896258,19.4161626 29.6998888,20.883211 C28.9440534,20.949895 26.1319007,22.0390672 21.2634309,24.1729557 C21.0188959,24.0618157 20.7632456,24.0173597 20.4853649,24.0395877 L20.4520193,23.6950536 C20.3964431,22.9948715 20.7076695,22.1168653 21.3968136,21.049921 C21.7747314,19.0494005 22.1859948,17.9046583 22.6417192,17.6268082 L26.6987773,8.50221202 C26.6543164,7.93539789 27.5213042,7.50195178 29.2997406,7.20187371 L29.8777325,7.1463037 L29.9221934,7.66866182 C31.6672842,7.40192576 32.7565765,7.24632972 33.1789552,7.21298772 C36.4023712,6.93513765 38.0807707,7.5908638 38.2141534,9.15793818 L38.5809559,9.12459617 L38.5031493,8.20213395 L38.9032975,8.16879194 C39.8480919,8.69115007 40.3593924,9.32464822 40.4260837,10.0692864 C40.4705446,10.5805305 40.1926639,11.2140287 39.6035569,11.9697808 C39.3590219,11.9920089 39.2145239,11.8141848 39.1922934,11.4585367 L38.7921452,11.4918787 L38.7032234,12.603279 C37.0692849,15.0483596 35.8799555,16.3042419 35.1463505,16.3709259 C34.4794368,17.2933881 34.0681734,17.7490622 33.901445,17.7601762 Z M36.391256,24.2645242 C36.0577992,24.013795 35.7910337,23.9009669 35.5909596,23.9135034 L35.5464987,23.2992169 L35.9133012,23.2616075 L36.7247129,23.8006752 C36.7580585,24.0890138 36.6469063,24.2394513 36.391256,24.2645242 L36.391256,24.2645242 Z M38.9699889,27.2070785 C39.5518071,27.4046227 39.8972616,27.6173626 39.9699889,27.8149068 L39.6790798,27.8756896 L39.6972616,27.8908853 C39.6427162,27.8908853 39.5699889,27.906081 39.5154434,27.9212767 L39.0790798,28.2099951 L38.9699889,27.2070785 L38.9699889,27.2070785 Z M39.2478449,29.4881054 L39.1811782,28.9212395 L40.1145115,28.4851888 L40.1811782,29.0520547 L39.2478449,29.4881054 Z M40.3371619,30.2705358 C40.8151167,30.1242771 41.0485365,30.0615948 41.9377547,29.6855011 L41.9711004,29.9571243 L40.2815858,30.6884177 C40.3038162,30.542159 40.3260467,30.3959004 40.3371619,30.2705358 Z M41.9822156,30.8677096 C41.2708411,30.9562022 41.4264542,30.838212 40.292701,31.1774338 L40.2593553,30.9856998 L41.6709893,30.381 L42.3490182,30.1745172 L42.4157095,30.5284878 C42.1155984,30.6169804 42.3379029,30.6169804 41.9822156,30.8677096 L41.9822156,30.8677096 Z M43.5837269,30.9743763 C43.3724593,31.1029802 43.2034452,30.8779235 43.1048536,30.3313572 L43.6541494,30.0419986 C43.893586,29.9133948 44.0485156,30.1384515 44.1048536,30.6850177 L43.5837269,30.9743763 Z M47.5610774,26.6540348 L47.5175991,26.1883949 L48.4306426,25.6511181 L48.5175991,26.510761 L47.5610774,26.6540348 L47.5610774,26.6540348 Z M51.8969989,53.1253663 C51.9754303,52.7169387 51.9950381,52.4219632 51.9558224,52.2177494 L52.2303322,52.1496781 C52.5636656,52.0589164 52.759744,52.1950589 52.8381754,52.5581057 L52.8969989,52.8530812 L51.8969989,53.1253663 L51.8969989,53.1253663 Z M54.9425713,27.1133959 L54.6313449,27.0571786 C54.1311597,27.2595609 53.708781,27.4057258 53.364209,27.4844301 L53.075213,27.5518908 C52.9084846,27.5968647 52.7751019,27.5294039 52.7084105,27.3495085 L54.7424972,26.8772832 L55.4094109,26.5624663 L55.6317155,26.8210659 C55.3093738,26.8885267 55.0759541,26.9897178 54.9425713,27.1133959 L54.9425713,27.1133959 Z M56.5098185,26.8874288 L56.4764728,26.6868455 C56.5765098,26.6559865 56.7098926,26.5479801 56.8543905,26.3473968 L58.2993701,25.8845122 L58.3327158,26.0850955 C57.5657651,26.3473968 56.9544276,26.6096981 56.5098185,26.8874288 Z M56.732123,23.6839396 C56.632086,23.7061676 56.4987032,23.7950797 56.3319748,23.9284477 C56.3097443,23.8284217 56.1096702,23.8284217 55.7317525,23.9173337 C55.6650611,23.6394836 56.732123,23.2504935 58.9440534,22.7392494 L59.2552797,22.6725654 L59.3219711,22.9393015 C57.7658392,23.3949756 56.8988514,23.6505976 56.732123,23.6839396 L56.732123,23.6839396 Z M60.6224528,19.4828466 C60.4668396,21.2499731 59.8443868,22.2502333 58.7439793,22.5058554 L58.7106336,22.3613733 L57.7324935,22.7392494 L57.2989996,22.8392754 C57.0766951,22.8948454 56.876621,22.8837314 56.6987773,22.8281614 L56.6098555,22.4391713 C56.5765098,22.2946893 57.9881438,20.3386248 60.8558725,16.5820919 L61.1893294,16.637662 C61.3115969,17.1489061 61.122638,18.0935963 60.6224528,19.4828466 L60.6224528,19.4828466 Z M67.6113166,14.2396053 L67.3849015,14.2730358 L67.3471656,13.4372719 L68.3282977,13.2701192 L68.3471656,13.7047164 C68.1773543,13.7715775 67.9320713,13.9387303 67.6113166,14.2396053 Z M64.6683957,42.055386 C64.3349389,41.89979 64.0348277,41.8331059 63.7791775,41.855334 L63.7458318,41.4330019 C63.7347166,41.2885198 63.8236384,41.1884938 64.0125973,41.1329238 C64.2015561,41.1106958 64.3127084,41.2440638 64.3349389,41.5330279 C64.8128937,40.9217577 65.0796591,40.6105657 65.1352353,40.6105657 L65.4353464,40.7328197 C65.3241941,41.5774839 65.0685439,42.022044 64.6683957,42.055386 L64.6683957,42.055386 Z M95.1793257,10.2693384 C95.0147687,10.2804524 94.698313,9.83589234 94.2046421,8.93565812 L94.1793257,8.65780806 C94.4957814,8.63558005 94.8248953,9.06902616 95.1540092,9.95814637 L95.1793257,10.2693384 Z M94.6572805,7.09073369 L94.5238977,7.37969775 L90.4112634,5.65702735 C93.1567247,5.74593937 94.5794739,6.22384148 94.6572805,7.09073369 Z M77.6172657,22.6245592 L76.6543027,22.7974758 L76.6172657,21.9328925 L77.5802286,21.7945592 L77.6172657,22.6245592 Z M77.0327306,13.0700671 L77.3127306,13.0589531 L77.3727306,13.4812852 C77.1127306,13.4923992 76.7927306,13.6924513 76.4127306,14.0814413 L76.3727306,13.8035913 C76.8327306,13.4812852 77.0527306,13.2367771 77.0327306,13.0700671 L77.0327306,13.0700671 Z M76.1501379,15.9597078 L76.3723601,16.9425661 L75.5945824,16.9626245 L75.3723601,15.9797661 L76.1501379,15.9597078 Z M75.0855636,17.0010198 L75.6387551,16.971082 C75.5749253,17.5997761 75.3408828,17.929092 74.9366274,17.9590298 L74.6387551,17.9739987 C74.957904,17.5548693 75.1068402,17.2255534 75.0855636,17.0010198 L75.0855636,17.0010198 Z M74.7340719,18.4230232 L74.9740719,18.4047884 L74.9940719,18.6418414 L74.5340719,19.3712353 L74.0140719,19.407705 L73.9940719,19.170652 C74.5340719,19.1341823 74.7740719,18.8788944 74.7340719,18.4230232 L74.7340719,18.4230232 Z M74.6494998,19.7051267 L74.303346,20.6926139 L73.8418075,20.7080434 L73.6494998,19.7359857 L74.6494998,19.7051267 Z M69.5773872,33.1864119 C69.2700901,34.1199881 68.9447168,34.5978902 68.6012672,34.6201182 L68.5831909,34.4978642 C68.528962,34.0310761 68.8543353,33.586516 69.5773872,33.1864119 L69.5773872,33.1864119 Z M68.995284,35.0646783 L69.0346799,35.3404804 C69.1134718,35.7917929 68.7983043,36.0425221 68.0891776,36.067595 L68.0497817,35.7416471 C68.0103858,35.4156992 68.3255532,35.1900429 68.995284,35.0646783 Z M68.1720021,39.0437569 L68.7865988,38.9434653 L68.8019637,39.3780625 C68.6636794,39.411493 68.4485706,39.5786458 68.2027319,39.8795208 L67.8032441,39.9463819 C67.7878792,39.4783541 67.9107985,39.1774791 68.1720021,39.0437569 Z M80.5520563,35.1202484 C78.1067062,36.3316746 76.6506113,37.1541108 76.194887,37.5764429 C73.5272323,38.5100192 72.2045202,39.0879473 72.2267506,39.3213413 C69.8592071,40.2660316 68.3030752,40.9439857 67.5694702,41.3774318 C67.3916265,41.3885458 67.1359763,41.3218618 66.8025195,41.1662658 C66.7580585,40.6883637 66.9803631,40.2993736 67.4472027,40.0104095 C67.8695813,39.9770675 68.2697295,40.0326375 68.636532,40.1882336 C69.0811412,39.9659535 69.8480919,39.7214454 70.9373842,39.4435954 L70.9151538,39.1657453 L70.0037051,39.2324293 C70.1148574,39.0768333 70.9707299,38.6767292 72.5602075,38.032117 L73.0048166,37.998775 L73.0159318,38.1210291 C72.2600963,38.1877131 71.8377177,38.4099931 71.7487959,38.8100972 C71.7599111,38.9879213 71.8710634,39.0768333 72.0600222,39.0546053 C72.6157836,38.6878432 72.8825491,38.4766771 72.8825491,38.4099931 C73.949611,38.2210551 76.9062616,36.6650947 81.7636162,33.753226 L81.7858466,34.0310761 C81.7969618,34.1533301 81.3856984,34.5089782 80.5520563,35.1202484 L80.5520563,35.1202484 Z M73.1048536,37.5653289 C73.8273435,37.4986449 74.438681,37.2207949 74.9499815,36.7317787 C75.1389403,36.7095507 75.2500926,36.7984627 75.2612079,36.9762868 C74.927751,37.0096288 74.2719526,37.2874789 73.2826973,37.820951 L73.1270841,37.832065 L73.1048536,37.5653289 L73.1048536,37.5653289 Z M85.1315302,28.3295927 L81.4301593,31.3081454 C78.6624676,33.1197279 77.1619118,34.0310761 76.928492,34.0533041 C72.5268618,36.4761567 69.7925157,37.732039 68.7143386,37.820951 L68.5587255,37.832065 C68.6921082,37.3319349 70.6595035,33.3197799 74.4609114,25.7844861 C76.1170804,25.6400041 78.7402742,24.8509099 82.341608,23.4283176 L83.2419415,23.3505196 C85.0537236,23.1949235 86.4097814,23.5505716 87.2989996,24.4063498 L87.3434605,24.9509359 C86.6654316,26.8625444 85.9318266,27.9850587 85.1315302,28.3295927 L85.1315302,28.3295927 Z M77.8621712,24.4626577 L78.8433032,24.1840698 L78.8621712,24.9083985 L77.8810391,25.1869864 L77.8621712,24.4626577 Z M86.2763987,22.8241808 L86.7210078,22.7725914 C87.1322712,23.0821279 87.3434605,23.3572715 87.3545758,23.5808257 L87.365691,23.7699869 C86.976658,23.8215763 86.6098555,23.5120398 86.2763987,22.8241808 L86.2763987,22.8241808 Z M87.4434976,16.0375058 C87.0544646,16.5042939 85.998518,17.3045021 84.2756577,18.4159024 C83.6976658,18.4714724 81.5635421,19.2939086 77.8732864,20.894325 C77.6954428,20.827641 77.4953687,20.8054129 77.2841793,20.8165269 L77.2619489,20.5386769 C77.217488,20.0052048 77.4509077,19.3383646 77.9622082,18.5270424 C78.2512041,16.99331 78.5735458,16.1375318 78.9070026,15.9374798 L82.0081512,9.00234214 C81.9748055,8.59112404 82.6306039,8.25770396 83.9644313,8.0020819 L84.4090404,7.96873989 L84.4423861,8.391072 C85.753983,8.17990594 86.5765098,8.05765192 86.9099667,8.02430991 C89.3553168,7.81314386 90.633568,8.30215997 90.733605,9.50247226 L91.022601,9.48024425 L90.9670248,8.8134041 L91.2560207,8.79117609 C91.9673953,9.18016618 92.3453131,9.64695429 92.389774,10.2026544 C92.4231197,10.6027585 92.2230456,11.0917746 91.8006669,11.6585888 C91.611708,11.6808168 91.5005558,11.5474487 91.4783253,11.2584847 L91.1893294,11.2807127 L91.1004076,12.1142629 C89.8666173,13.9925293 88.9662838,14.9594476 88.3994072,15.0039036 C87.8992219,15.6818577 87.5879956,16.0263918 87.4434976,16.0375058 L87.4434976,16.0375058 Z M88.7471818,20.8740211 L88.7106336,20.2492533 L89.0273848,20.2163708 L89.7096183,20.7753735 C89.7218011,21.0384336 89.6243392,21.186405 89.4172326,21.2192875 C89.1248468,20.9726686 88.9055574,20.8575798 88.7471818,20.8740211 L88.7471818,20.8740211 Z M37.3904209,47.6568433 L36.8913518,47.7929859 L36.4690626,48.2241039 C36.5458425,48.5871506 36.7377921,48.7232932 37.0641065,48.6325315 C37.3904209,48.5417698 37.5247857,48.3148656 37.4480058,47.9518188 L37.3904209,47.6568433 Z M35.9220278,45.833674 L36.0431156,46.1368814 C36.7292799,46.0435868 37.0118181,45.8103504 36.8503677,45.4371721 L36.7292799,45.1339647 C36.0834782,45.2272593 35.80094,45.4604957 35.9220278,45.833674 Z M43.8272817,27.487585 L44.660615,27.2748451 L44.4939484,26.4846683 L43.660615,26.6974082 L43.8272817,27.487585 Z M144.586884,35.3203004 C141.207855,36.1133043 140.785476,35.9733624 140.074102,36.0316715 L140.096332,36.3232171 L140.407558,36.2998934 L140.574287,36.2882316 L140.529826,36.2532461 L140.896628,36.1016425 C144.242312,35.7168023 144.631345,35.8567442 144.597999,35.4602423 L144.586884,35.3203004 Z M126.391256,37.732039 L126.591256,38.7349556 L126.991256,38.7349556 L126.791256,37.732039 L126.391256,37.732039 Z M124.645099,30.4079112 L124.187957,30.3078852 C123.815471,30.9636114 123.629227,31.3526015 123.646159,31.4637415 L123.66309,31.5859955 C124.018645,31.5748815 124.340338,31.1747774 124.645099,30.4079112 L124.645099,30.4079112 Z M145.276028,35.2647304 L145.319506,36.0245157 L146.276028,36.2676471 L146.23255,35.5078617 L145.276028,35.2647304 Z M122.278622,38.2413414 L121.522786,38.1053527 L121.389403,38.547316 L121.400519,38.7682976 L125.902186,38.1903457 L125.879956,37.765381 L122.278622,38.2413414 L122.278622,38.2413414 Z M120.78202,28.3919686 L120.75719,28.0739707 L120.409567,28.0984321 L119.788811,28.4898142 L120.136434,29.0768873 C120.608208,29.0279646 120.83168,28.8078121 120.78202,28.3919686 Z M147.410152,33.2197539 L147.621341,33.1975259 C147.743609,33.1864119 147.799185,33.0863859 147.78807,32.9085618 L147.665802,32.6418258 C146.898851,32.7085098 146.543164,32.7418518 145.920711,33.0863859 L145.909596,32.9419038 L144.987032,33.0308159 C144.964802,32.7529658 144.886995,32.6084838 144.764728,32.6195978 L144.286773,32.6640538 C143.731011,32.7085098 143.464246,32.6862818 143.186365,32.8974478 C143.17525,32.7974218 143.141904,32.7529658 143.086328,32.7529658 L142.552797,32.7974218 L142.241571,32.9752458 C142.230456,32.8752198 142.19711,32.8307638 142.141534,32.8307638 L141.952575,32.9974738 L141.94146,32.8529918 L141.19674,32.7974218 L141.018896,32.8085358 L141.041126,33.0863859 L141.419044,33.1864119 L141.774731,33.1641839 C141.896999,33.2419819 142.030382,33.2642099 142.185995,33.2530959 L142.497221,33.0974999 L142.508336,33.2197539 C140.763246,33.6532 140.774361,33.575402 139.573916,33.775454 C139.440534,33.686542 139.340496,33.642086 139.273805,33.6532 L139.251575,33.675428 C139.118192,33.664314 139.040385,33.575402 139.02927,33.4309199 L139.651723,33.3531219 C139.696184,33.3531219 139.729529,33.3975779 140.074102,33.464262 C140.574287,33.2197539 140.596517,33.1197279 140.863283,33.0974999 L140.841052,32.8196498 C139.129307,33.1530699 139.818451,32.9307898 137.673212,33.1197279 L137.573175,33.1308419 L137.550945,32.8529918 C140.307521,32.5195717 139.384957,32.7085098 140.329752,32.4417737 C140.340867,32.5417997 140.374213,32.5862557 140.429789,32.5862557 C140.540941,32.4751157 140.663209,32.4195457 140.807707,32.3973177 L140.996665,32.3862037 C141.96369,32.3084057 142.286032,32.4973437 144.197851,31.9638716 L144.208966,32.0861256 L144.520193,31.9305296 L144.809189,31.9083016 C144.786958,31.6304515 145.209337,31.5859955 145.353835,31.5748815 L145.331604,31.2748034 C141.974805,31.9527576 141.096702,31.7638196 140.163023,32.0305556 L140.151908,31.9083016 C139.273805,32.0638976 139.240459,31.9972136 139.018155,32.0083276 C138.951464,32.0194416 138.851426,32.0750116 138.740274,32.1861517 C138.729159,32.0861256 138.695813,32.0416696 138.629122,32.0416696 C138.595776,32.0416696 138.584661,32.0527836 138.573546,32.0527836 L135.728047,32.5195717 C135.716932,32.4417737 135.683587,32.3973177 135.616895,32.4084317 C134.13857,32.7196238 134.538718,32.7751938 132.560207,32.9530178 C132.471286,32.9641318 132.349018,33.0085878 132.193405,33.1086139 C132.18229,33.0308159 132.137829,32.9863598 132.037792,32.9974738 L130.826232,33.0974999 L130.01482,33.2975519 C130.003705,33.2197539 129.959244,33.1752979 129.859207,33.1864119 C129.403483,33.3086659 129.003335,33.3864639 128.680993,33.4086919 L128.658763,33.4086919 C128.458688,33.4309199 128.7588,33.3531219 128.603186,33.2864379 L128.358651,33.4309199 C128.002964,33.464262 128.191923,33.4086919 126.969248,33.4198059 C124.824009,33.686542 125.057429,33.719884 124.824009,33.730998 L124.023712,33.675428 C124.034828,33.753226 123.990367,33.808796 123.901445,33.808796 C122.989996,33.686542 122.523157,33.54206 122.512041,33.3753499 C122.634309,32.5084577 122.845498,32.0638976 123.145609,32.0416696 L123.301223,32.0305556 L123.16784,32.3195197 L123.323453,32.3084057 C123.612449,32.1528096 123.745832,32.0083276 123.734717,31.8749596 L123.712486,31.5748815 L123.42349,31.5971095 L123.40126,31.3192594 C123.379029,31.1080934 123.412375,30.9191554 123.490182,30.7635593 L124.14598,29.7077291 L124.16821,29.9855791 L124.479437,29.9633511 L124.457206,29.6855011 L124.279363,29.429879 C124.512783,29.229827 124.690626,29.1186869 124.835124,29.1075729 L124.824009,28.9630909 L124.40163,28.9964329 L124.368285,28.5741008 C125.213042,26.8180884 125.61319,25.7956001 125.59096,25.5066361 L125.891071,25.6288901 C126.08003,25.6177761 126.168951,25.5066361 126.157836,25.306584 L125.86884,25.328812 L125.857725,25.206558 C125.835495,24.9953919 125.879956,24.7953399 125.968877,24.6175159 C126.424602,24.1396137 126.635791,23.6617116 126.59133,23.1615815 C126.680252,23.1504675 126.724713,23.1949235 126.735828,23.2949495 C127.124861,23.0726695 127.424972,22.4836273 127.647277,21.5055951 C128.336421,20.2608268 129.314561,17.7712902 130.592812,14.0480993 C133.038162,7.46860978 132.938125,6.76842761 133.282697,5.21246724 L132.993701,5.23469524 C133.015932,5.43474729 132.971471,5.62368534 132.882549,5.80150938 C132.682475,5.72371136 132.526862,5.67925535 132.41571,5.69036935 L132.404594,5.56811532 C132.360133,5.00130119 132.593553,4.32334703 133.127084,3.52313884 L133.260467,3.51202484 L133.505002,4.46782906 L133.793998,4.44560106 C133.782883,4.37891704 133.860689,4.00104095 134.016302,3.30085878 C134.005187,3.15637675 133.894035,3.06746473 133.67173,3.05635073 L133.39385,3.23417477 C133.371619,3.03412272 133.382734,2.5117646 133.41608,1.6782144 L133.271582,1.6893284 C133.027047,1.44482034 132.90478,1.2447683 132.893664,1.07805826 L131.304187,1.23365429 C131.293072,1.12251427 131.237495,0.955804227 131.126343,0.744638177 C131.115228,0.600156143 131.470915,0.455674108 132.20452,0.311192074 L132.526862,0.433446103 L132.826973,0.255622061 C132.838088,0.355648085 132.893664,0.400104095 133.004817,0.388990092 L133.304928,0.21116605 C133.316043,0.311192074 133.371619,0.355648085 133.482771,0.344534082 L133.627269,0.333420079 L133.605039,0.0111140026 C133.382734,0.0333420079 132.793627,0.0333420079 131.859948,0 L131.559837,0.200052048 L131.548722,0.0222280053 C124.090404,0.633498151 119.855502,0.978032233 118.844016,1.07805826 C118.710634,1.08917226 118.188218,1.07805826 117.265654,1.05583025 C117.276769,1.17808428 117.165617,1.2447683 116.943312,1.2669963 L116.620971,1.12251427 L115.531678,1.40036433 C115.276028,1.42259234 114.842534,1.41147834 114.242312,1.34479432 C114.075584,1.47816235 113.875509,1.55596037 113.630974,1.57818838 C113.497592,1.58930238 115.220452,1.48927635 116.821045,1.37813633 C116.654316,1.51150436 116.398666,1.58930238 116.042979,1.62264439 C115.798444,1.64487239 115.587255,1.61153038 115.409411,1.51150436 C115.164876,1.62264439 114.375695,1.80046843 113.052983,2.06720449 L112.730641,1.94495046 L107.528714,2.74515865 C107.32864,2.64513263 107.09522,2.61179062 106.828455,2.63401863 C106.550574,2.65624663 106.083735,2.75627266 105.439052,2.9340967 L102.92701,3.97881295 L103.115969,4.29000502 C103.238236,4.27889102 103.41608,4.212207 103.627269,4.08995297 L104.516488,4.16775099 L104.405335,5.00130119 C103.582808,5.36806328 103.104854,5.91264941 102.971471,6.60171757 C101.737681,7.1463037 101.126343,7.53529379 101.126343,7.76868785 L101.137458,7.91316988 L101.326417,7.90205588 L101.659874,7.72423184 L102.048907,8.19101995 L102.104483,8.8356321 C102.126714,9.03568415 100.048166,13.4034872 95.8910708,21.9390412 C92.2897369,30.1634032 90.4001482,34.6645742 90.2223046,35.4758964 C88.9885143,35.8204305 88.2771397,36.3205606 88.0659504,36.9874008 C88.0881808,37.1985668 88.4549833,37.3430489 89.1663579,37.3986189 L89.1997036,37.720925 L88.877362,38.2543971 L88.9329381,38.8990092 C88.9662838,39.2324293 89.8666173,39.4880514 91.6339385,39.6658754 C91.6228233,39.5547354 91.6783994,39.4880514 91.8006669,39.4769374 C91.8340126,39.8770415 91.7228603,40.6550217 91.4672101,41.8108779 L91.656169,41.7997639 C92.389774,40.7995037 92.7343461,40.1104355 92.7010004,39.7325594 L92.8566136,39.7214454 C93.0344572,39.7103314 93.2234161,39.9103835 93.4457206,40.3438296 C93.2234161,40.4327416 92.4453501,42.199868 91.1115228,45.6563229 L91.3004817,45.9675149 L91.4894405,45.9564009 C93.123379,41.8219919 94.14598,39.5325074 94.5683587,39.0990613 C96.7135976,38.9101233 100.426084,38.5322472 105.694702,37.965433 L106.028159,37.765381 C106.039274,37.876521 106.105965,37.932091 106.228233,37.920977 L106.572805,37.887635 L106.906262,37.687583 C106.917377,37.798723 106.984068,37.854293 107.106336,37.843179 L111.096702,37.4986449 C112.152649,37.4097329 112.652834,37.0874268 112.608373,36.5428407 C112.597258,36.3983587 113.219711,36.2316486 114.475732,36.0538246 C114.597999,36.0427106 114.775843,36.0760526 115.020378,36.1538506 C115.009263,36.0538246 115.642831,35.9537985 116.909967,35.8426585 C116.943312,35.1758184 117.154502,34.8201703 117.532419,34.7868283 L117.499074,34.4645222 C117.143386,34.4978642 116.743238,34.5867762 116.276399,34.7423723 C115.442757,34.6979163 114.909226,34.6312322 114.686921,34.5534342 C114.464617,34.6756882 114.297888,34.7423723 114.175621,34.7534863 L111.396814,34.8423983 L111.063357,35.0202223 C111.052242,34.9201963 110.98555,34.8757403 110.863283,34.8868543 L110.70767,34.8979683 L110.351982,35.0757923 C110.340867,34.9757663 110.051871,34.8979683 109.473879,34.8201703 L109.118192,35.0313363 L108.429048,35.0869063 L108.417933,34.9090823 C111.997036,34.5200922 113.764357,34.0310761 113.719896,33.453148 C113.953316,33.4309199 114.075584,33.54206 114.097814,33.775454 L115.142645,33.508718 L115.1093,33.1864119 L106.539459,33.4198059 C106.550574,33.530946 106.494998,33.59763 106.372731,33.608744 L105.327899,33.519832 C105.061134,33.54206 104.838829,33.619858 104.660986,33.753226 L104.271953,33.608744 C103.193775,33.697656 102.393479,33.831024 101.859948,33.9977341 C101.126343,33.9421641 100.314931,33.9532781 99.414598,34.0310761 L97.4916636,34.1977861 L96.6024454,34.0977601 C96.5579844,33.530946 97.658392,30.7413313 99.9258985,25.7400301 C100.581697,24.0507017 101.181919,22.9948715 101.759911,22.5947674 C101.882179,22.5836534 102.060022,22.6281094 102.304557,22.7281354 L103.67173,22.2613473 L104.37199,22.3724873 C105.550204,22.2724613 106.917377,21.9390412 108.484624,21.3611131 C108.873657,21.3277711 109.162653,21.3499991 109.373842,21.4389111 L110.418674,21.194403 L113.530937,20.927667 C114.853649,20.8165269 116.287514,20.5275629 117.843646,20.0496608 L117.8103,19.7273547 C117.232308,19.7829247 116.932197,19.6828987 116.909967,19.4495046 C116.876621,19.0160585 116.454242,18.8382345 115.642831,18.9049185 L115.609485,18.5826124 L116.465358,18.3381044 L118.710634,18.1491663 L118.677288,17.8268602 C118.588366,17.8379742 118.132642,17.8268602 117.287884,17.7935182 L117.254539,17.4489841 L118.121526,17.3711861 C118.354946,17.3489581 118.454983,17.2378181 118.432753,17.015538 C117.265654,17.0488801 116.676547,16.99331 116.665432,16.837714 C108.529085,17.2378181 104.449796,17.3156161 104.427566,17.0599941 C104.305298,17.0711081 104.13857,17.1489061 103.916265,17.2822741 L103.705076,16.948854 C105.86143,12.3698849 107.128566,10.0581724 107.495369,10.0248304 C107.506484,10.2026544 107.417562,10.4916185 107.217488,10.8806086 L107.228603,11.0250906 L107.573175,10.9917486 C108.429048,8.94677213 109.151538,7.89094188 109.75176,7.84648587 C112.308262,7.62420581 109.396073,7.45749577 114.864765,6.60171757 C115.087069,6.70174359 115.242682,6.7461996 115.353835,6.7350856 C117.499074,6.3016395 120.48907,5.84596539 124.323824,5.37917728 L124.301593,5.0568712 L122.256391,5.24580925 L122.234161,4.92350317 C122.478696,4.90127517 122.67877,4.82347715 122.845498,4.69010912 L122.856614,4.86793316 C122.967766,4.85681915 123.123379,4.77902114 123.323453,4.6456531 C123.67914,4.6123111 123.945906,4.6456531 124.134865,4.74567913 C124.846239,4.55674108 125.424231,4.44560106 125.84661,4.40114505 L127.124861,4.27889102 C127.436087,4.07883897 127.580585,3.90101493 127.56947,3.73430489 L127.558355,3.58982285 C127.236013,3.62316486 126.869211,3.60093686 126.435717,3.52313884 C126.424602,3.3453148 126.513524,3.22306077 126.724713,3.16749075 L129.103372,2.9452107 L130.192664,2.66736063 C130.203779,2.78961466 130.259355,2.83407067 130.348277,2.83407067 C130.459429,2.82295667 130.615043,2.74515865 130.815117,2.61179062 C130.870693,2.62290462 130.937384,2.62290462 130.99296,2.63401863 C130.848462,2.9340967 130.681734,3.3675428 130.515006,3.93435694 L130.203779,3.95658494 C130.181549,3.74541889 130.125973,3.55648085 130.025936,3.38977081 L129.870322,3.40088481 C126.980363,11.4474227 125.690997,15.1928416 123.023342,21.3722271 C122.534272,22.9504155 122.123009,23.8284217 121.767321,24.0173597 C121.778436,24.1951838 121.889589,24.2840958 122.078548,24.2618678 C122.145239,25.039848 121.967395,25.8067141 121.533901,26.5624663 C120.300111,30.1189472 119.477584,32.0638976 119.055206,32.4195457 L119.333086,34.0977601 C119.344202,34.2755841 119.25528,34.3756102 119.066321,34.3978382 L118.777325,34.4200662 C118.732864,33.9532781 118.566136,33.730998 118.266024,33.76434 L118.110411,33.775454 C117.732494,34.3644962 117.443498,35.0424503 117.254539,35.8315445 L117.543535,35.8093165 C117.932568,35.5536945 118.110411,35.2536164 118.077066,34.9090823 L118.655057,34.8535123 L118.988514,34.9757663 C118.721749,35.3980984 118.599481,35.7315185 118.621712,35.9871406 L118.777325,36.2538766 L118.399407,37.1429968 L118.410522,37.2874789 C118.743979,37.2541369 119.110782,37.3652769 119.499815,37.5986709 C119.76658,37.5764429 120.055576,37.4541889 120.377918,37.2430229 C120.711375,37.2096808 121.95628,37.1985668 124.101519,37.1985668 L125.179696,36.8318048 C126.491293,36.8206908 126.702482,36.8540328 127.836236,36.7540067 L128.303075,36.7095507 L128.54761,36.5428407 L128.558725,36.6873227 C129.748055,36.5872967 129.825861,36.6650947 130.759541,36.7762347 L130.770656,36.9207168 L130.114857,36.9762868 L130.137088,37.2541369 C130.337162,37.2319089 130.515006,37.1763388 130.659504,37.0540848 C130.826232,37.0429708 130.926269,37.1318828 130.937384,37.3319349 C130.670619,37.3541629 130.370508,37.4208469 130.037051,37.5319869 L129.748055,37.4319609 C129.29233,37.5542149 129.392368,37.5875569 129.081141,37.6097849 L128.625417,37.5208729 C128.636532,37.5986709 128.592071,37.654241 128.514265,37.654241 C128.52538,37.832065 128.625417,37.920977 128.792145,37.909863 L129.258985,37.865407 L131.69322,37.654241 L132.615784,37.4541889 C132.626899,37.5319869 132.660245,37.5764429 132.738051,37.5653289 L133.18266,37.3986189 L134.016302,37.3319349 C134.660986,37.2763649 134.64987,37.2319089 136.050389,37.0096288 C136.039274,36.9207168 136.072619,36.8873748 136.139311,36.8762608 L136.150426,36.9985148 C138.429048,36.6095247 138.573546,36.5872967 138.940348,36.4650427 L138.973694,36.5317267 C139.540571,36.3983587 139.218229,36.4317007 139.373842,36.3205606 C139.384957,36.4205867 139.418303,36.4650427 139.473879,36.4650427 L139.874027,36.4317007 L139.851797,36.1316226 L139.040385,36.1205086 L139.02927,36.0982806 C138.995924,36.1093946 138.973694,36.1093946 138.940348,36.1205086 L138.829196,36.1205086 L138.829196,36.1427366 C138.28455,36.2538766 138.273435,36.1760786 137.917747,36.2094206 L135.883661,36.3205606 L135.872545,36.1760786 L137.006299,36.0204826 L137.417562,35.9871406 L137.650982,35.8204305 L137.662097,35.9649126 C139.26269,35.8315445 139.829567,36.2316486 147.232308,34.6534602 C147.632456,34.6201182 147.599111,34.2866982 147.854761,33.59763 C147.721378,33.608744 147.587996,33.575402 147.465728,33.508718 C146.854391,33.742112 146.532049,33.630972 145.353835,33.81991 C145.253798,33.831024 145.175991,33.742112 145.142645,33.564288 L145.13153,33.442034 L146.265283,33.475376 C146.476473,33.453148 146.887736,33.4198059 147.499074,33.0752719 C147.499074,33.1752979 147.276769,33.2308679 147.410152,33.2197539 L147.410152,33.2197539 Z M92.6787699,34.0977601 L92.1563542,34.1422161 C92.1341237,33.9310501 92.4120044,33.1308419 92.9899963,31.7638196 L93.3345684,31.7304775 C93.3456836,32.0527836 93.1344943,32.8418778 92.6787699,34.0977601 Z M93.3337022,32.0665541 L93.3025846,31.7768226 C93.271467,31.42023 93.5826428,31.1750726 94.2672295,31.0636374 L94.2983471,31.3533689 C94.3294647,31.7768226 94.0182889,32.02198 93.3337022,32.0665541 Z M100.379709,36.9318308 L100.392368,37.5837266 L99.4050258,37.9347474 L99.3923675,37.2828516 L100.379709,36.9318308 Z M99.2145239,36.8429188 C99.2256391,37.1515085 98.9588737,37.498672 98.3808818,37.8458354 L97.3138199,37.7108274 L96.9692479,37.768688 L96.9359022,37.2093691 L99.2145239,36.8429188 L99.2145239,36.8429188 Z M106.328123,4.93320087 L105.718917,5.01507162 L105.705955,4.68758863 C105.692993,4.36010563 105.80965,4.13496108 106.068886,4.03262264 L106.289237,4.01215495 L106.704016,4.27823489 C106.716978,4.66712094 106.600321,4.8922655 106.328123,4.93320087 L106.328123,4.93320087 Z M114.50223,2.97560211 L114.850395,2.9452107 L114.896817,3.82656171 L113.898744,3.94812737 C113.875533,3.46186474 114.061221,3.12755919 114.50223,2.97560211 L114.50223,2.97560211 Z M112.185995,4.04815339 L111.396814,3.9022746 L111.385698,3.66522157 C112.419415,3.51934278 112.763987,3.3369943 113.397555,3.04523672 C113.40867,3.24582006 113.519822,3.31875945 113.719896,3.28228975 L113.742127,3.81110036 L113.4309,3.86580491 C113.186365,3.9022746 112.975176,3.84757006 112.797332,3.68345642 C112.608373,3.88403975 112.408299,4.01168369 112.185995,4.04815339 L112.185995,4.04815339 Z M113.17525,7.27121416 L113.164135,6.72796763 L114.442386,6.26829749 L114.453501,6.81154402 L113.17525,7.27121416 Z M114.548852,6.1931559 L114.531308,5.42902892 L115.513764,5.19023923 L115.531308,5.95436622 L114.548852,6.1931559 Z M114.686921,3.75809368 L114.520193,3.78141733 L114.664691,3.05838438 L116.08744,2.77850066 L116.098555,3.15167896 C115.731753,3.22164989 115.253798,3.43156268 114.686921,3.75809368 L114.686921,3.75809368 Z M115.410436,6.93476299 L115.38718,6.08614119 L116.038343,5.93982709 C116.259273,5.88130145 116.375553,6.14466683 116.38718,6.72992324 L115.410436,6.93476299 L115.410436,6.93476299 Z M119.177473,1.17808428 L118.377177,2.06219815 L118.232679,2.10640384 C117.854761,2.23902092 117.365691,2.19481523 116.787699,1.97378676 C117.821415,1.7085526 118.810671,1.39911275 119.177473,1.17808428 Z M118.321601,4.73456513 L118.332716,5.3271977 L117.232308,5.73748179 L117.221193,5.14484922 L118.321601,4.73456513 Z M120.122268,5.94955518 C120.111152,5.72247971 119.899963,5.57109606 119.466469,5.49540424 L118.366062,6.02524701 L117.521304,6.08201587 C117.332345,5.8549404 117.232308,5.70355675 117.221193,5.59001902 L118.199333,5.6846338 L120.400148,5.07909921 L121.522786,5.15479103 L121.533901,5.45755833 C120.97814,5.55217311 120.5113,5.72247971 120.122268,5.94955518 L120.122268,5.94955518 Z M131.448685,2.66736063 C131.582067,2.67847464 131.670989,2.67847464 131.704335,2.67847464 C132.093368,2.30059855 132.526862,2.00052048 133.027047,1.78935443 C132.626899,3.54536684 132.004446,4.84570515 131.148574,5.69036935 L130.526121,5.31249326 C131.048536,3.98992695 131.359763,3.11192074 131.448685,2.66736063 L131.448685,2.66736063 Z M129.839221,5.95278664 L130.103372,5.93487741 C129.744881,6.57960955 129.424126,6.91988485 129.159975,6.93779408 L129.103372,6.25724348 C129.273183,6.25724348 129.518466,6.14978813 129.839221,5.95278664 L129.839221,5.95278664 Z M128.303075,8.89120211 C128.603186,7.69088983 128.892182,7.01293567 129.158948,6.83511163 L129.170063,6.97959366 C129.01445,8.09099392 128.769915,8.68003606 128.447573,8.72449207 L128.503149,9.42467424 C128.236384,9.80255033 128.114116,10.0915144 128.125232,10.3137945 L127.969618,10.3249085 L127.880697,9.35799023 C128.05854,9.33576222 128.203038,9.18016618 128.303075,8.89120211 L128.303075,8.89120211 Z M128.312338,10.4916185 C128.334045,10.6583285 128.116976,11.0473186 127.682837,11.6474748 L127.378941,11.6585888 L127.31382,11.2362567 C127.726251,10.7472406 128.073562,10.5027325 128.312338,10.4916185 L128.312338,10.4916185 Z M118.878499,36.7184845 L118.844016,36.4288005 L119.740568,36.3761306 L119.844016,37.3768572 C119.361258,37.4031921 119.01643,37.1925129 118.878499,36.7184845 Z M131.670989,37.5013013 C131.659874,37.219231 131.615413,37.0938664 131.515376,37.1252076 L130.792886,37.3132545 L130.781771,36.9058196 L130.848462,36.9058196 L132.560207,36.4983847 L132.571323,36.9058196 C132.071137,36.9685019 131.771026,37.1878899 131.670989,37.5013013 Z M131.160857,36.4983847 C131.760857,36.7992597 131.460857,37.1001347 131.160857,37.300718 C130.860857,37.2004263 130.460857,36.8995513 131.160857,36.4983847 Z M130.904039,34.898174 L129.948129,35.0441787 L129.937014,34.7730271 L130.804001,34.6270225 L131.559837,34.2724397 C131.570952,34.4393022 131.615413,34.5018756 131.71545,34.4810178 C132.615784,34.1890084 132.526862,34.1055772 132.960356,34.0430038 C133.104854,34.0221459 133.193775,34.1890084 133.204891,34.5227334 L130.904039,34.898174 L130.904039,34.898174 Z M134.255743,34.9450807 C133.718851,34.7361398 133.685296,34.568987 133.304998,34.6943516 L133.293813,34.2346814 L134.155076,33.9421641 L134.166261,34.4018342 C134.076779,34.4436224 134.401151,34.5271988 134.255743,34.9450807 Z M134.328554,34.8895107 L134.305298,34.1540385 L135.282042,33.8865941 L135.305298,34.6220663 L134.328554,34.8895107 Z M135.354639,34.6295315 L135.339014,34.2381989 C135.448389,34.2026232 135.604639,34.0247447 135.807764,33.6689878 C136.135889,33.5978364 136.307764,34.0958961 136.339014,34.6651072 L135.354639,34.6295315 L135.354639,34.6295315 Z M136.680957,34.6116607 L136.661727,33.8447244 L137.642496,33.608744 L137.661727,34.3756803 L136.680957,34.6116607 Z M137.462742,34.2089702 C137.444919,33.766507 137.551857,33.501029 137.783556,33.442034 L138.086548,34.09098 C138.068725,33.8844972 138.122194,33.766507 138.229132,33.7370094 L138.460832,34.4449506 L137.462742,34.2089702 L137.462742,34.2089702 Z M129.958874,38.0406558 L129.758874,37.0763128 L128.958874,37.1148865 L129.158874,38.0792295 L129.958874,38.0406558 Z M148.975452,32.4035388 C149.145665,32.3071045 149.230771,32.2106702 148.826516,32.1528096 C148.635026,32.3456782 149.039282,32.4035388 148.61375,32.4228257 L148.635026,32.5964074 C148.67758,32.5578337 148.783963,32.4999731 148.869069,32.4421125 L148.635026,32.6156943 L148.635026,32.6349811 L148.188218,33.1557263 L149.081835,32.8664234 L149.188218,32.8664234 L149.145665,32.384252 L148.975452,32.4035388 L148.975452,32.4035388 Z M149.453119,32.9307898 L149.321971,32.9693635 L149.354758,33.9337065 L150.321971,33.7408379 C150.305578,33.1236584 149.666233,32.9307898 149.453119,32.9307898 L149.453119,32.9307898 Z M148.399407,32.620129 L148.499407,32.5198374 L148.499407,32.4195457 C148.499407,32.4195457 148.399407,32.5198374 148.399407,32.620129 L148.399407,32.620129 Z" id="Shape"></path>
            </g>
        </g>
    </g>
</svg>