<?xml version="1.0" encoding="UTF-8"?>
<svg width="114px" height="151px" viewBox="0 0 114 151" version="1.1" xmlns="http://www.w3.org/2000/svg" xmlns:xlink="http://www.w3.org/1999/xlink">
    <!-- Generator: Sketch 47.1 (45422) - http://www.bohemiancoding.com/sketch -->
    <title>storybook-avatar</title>
    <desc>Created with Sketch.</desc>
    <defs></defs>
    <g id="Page-1" stroke="none" stroke-width="1" fill="none" fill-rule="evenodd">
        <g id="prettier-homepage" transform="translate(-846.000000, -2936.000000)" fill-rule="nonzero" fill="#6F7B81">
            <g id="storybook-avatar" transform="translate(846.000000, 2936.000000)">
                <path d="M88.0092293,1.92692739 L86.9568634,20.769112 L94.6265829,14.7679133 L101.018034,20.769112 L101.018034,0.962468787 L114,0 L114,151 L14.4898049,145.947896 L8,7.85872438 L88.0092293,1.92692739 Z M70.5298907,57.8614403 L91.7019462,57.3324819 C92.22796,36.7031031 81.5761805,26.5206588 63.034194,26.5206588 C44.4922075,26.5206588 34.1034349,37.0998219 34.1034349,52.9685748 C34.1034349,80.6066528 69.6093665,81.1356113 69.6093665,96.2109266 C69.6093665,100.442594 67.6368148,102.955147 63.2972009,102.955147 C57.6425525,102.955147 55.4069939,99.2524375 55.6700008,88.9377481 L33.4459177,88.9377481 C31.7363728,114.459992 46.5962627,120.278535 63.5602078,120.278535 C79.9981391,120.278535 92.8854772,112.608638 92.8854772,95.9464473 C92.8854772,66.3247752 56.8535318,67.1182129 56.8535318,52.4396164 C56.8535318,46.4888341 61.0616422,45.6953964 63.5602078,45.6953964 C66.1902768,45.6953964 70.924401,46.7533133 70.5298907,57.8614403 Z" id="Combined-Shape"></path>
                <polygon id="path0_fill" points="11 146 4.71428117 8 0 8 4.71428117 146"></polygon>
            </g>
        </g>
    </g>
</svg>