<svg xmlns="http://www.w3.org/2000/svg" viewBox="0 0 165 53">
  <path fill="#6F7B81" d="M34.3.4a6 6 0 00-2.8 2c-1 1-1.4 2-1.7 3.3-.1.6-.2 4-.2 10.4v9.4l-.7.7-.7.7v26h6.5l.7-.6c.6-.7.7-.7 1.5-.7h1v-2l-.7.7-.7.7V34.5l3-1.6 3-1.5V38l.1 6.7.7-.5.6-.6v7.9H52V35.2l-.7.7-.6.7V21.9c0-14.3 0-14.7-.4-15.7l-.3-1 .6-.7c.5-.5.6-.8.5-1a8 8 0 00-3-2.8l-1-.5h-6c-4.8 0-6.4 0-7 .2zm56.6 0c-2.1.7-4 2.9-4.5 5.3-.1.6-.2 3.4-.2 8v7l-.7.7-.7.6v12.4c0 13.4 0 13.3 1 15.2.6 1 1.8 2.2 3 2.8l1 .5h5.4l5.5.1.7-.7.7-.7h6.6v-6.8l-.6.6-.7.7V32.6l-.1-13.5-5.7 3-5.8 2.9v4.5l.1 4.6 1.7-.8a19 19 0 011.6-.8v12.7h-6.1V14l.7-.8.7-.7V8h4.3l-.6.6-.7.7h1.8v9.2l4.1-2 4-2.2v-3.8l-.1-3.8-.6-1.2a6 6 0 00-1.4-2l-.9-1 .6-.6.7-.7-.4-.2c-1.2-.8-1.7-.8-7.8-.8-4.3 0-6 0-6.6.2zm61.5.4l-.7.7h-13.9v14.1l.7-.6.7-.7v10.4l-.7.7-.7.6v27h.6c.4 0 .7-.2 1.2-.7l.7-.7h7.1v-7.1l-.8.6-.5.5V34.7l.8-.4.9-.5 1.5 3.5 1.5 3.5.8-.5.7-.7.4 1.1 2 4.4 1.4 3.2-.6.7c-.4.3-.7.7-.7.8l.7 1.7.6 1.5h4.5c2.4 0 4.4 0 4.4-.2l-2-4.6-2-4.6.6-.6.6-.8c0-.1-.8-2.2-1.9-4.6l-2-4.4-.6.7-.7.7-1-2.3-1-2.3 2.7-1.3 2.7-1.4v-9.6c0-5.5-.1-10-.2-10.6a8.3 8.3 0 00-.6-1.7l-.3-.8.6-.6.6-.8c0-.4-2-2.2-2.8-2.6-.7-.3-1.3-.4-2.8-.4H153l-.6.6zM18.4 1l-.6.6H0v18l.7-.7.7-.6v33.3h2.3l-.7.7-.7.7H10l7.6-.1 1.1-.6a7 7 0 003.7-5l.1-7.7v-6.8l.7-.7.7-.8V19.1c0-7.6 0-12.7-.2-13.2a7 7 0 00-3.6-5l-1-.6-.7.7zm-2.7 22.8v15.8l-.7.7-.7.6v4.3h-4l.6-.7.7-.7H9.5V10l-.7.6-.7.7v-2h1c1.1 0 1.2 0 1.8-.7l.7-.6h4v15.8zm41-7.6V31l.6-.7.7-.7v19.6l-.7.7c-.7.7-.7.7-.7 2V53h8V42.5l.8-.7.7-.7V21.2l-.6.6-.7.5-.1-6.5V9.3h6.2v3.5l.1 3.5.7-.6.6-.5v19.5l-.7.7-.7.7V53H79V28l.7-.8.7-.7V6.7l-.7.6c-.7.8-.7.7-.9-.4-.3-1.8-2-3.9-3.7-4.8-.9-.4-1.1-.5-3.3-.5a9 9 0 00-3.4.2 6.9 6.9 0 00-3.2 2.4l-.6.9V1.5h-8v14.7zM117.4 2a6.6 6.6 0 00-3.7 3.7l-.5 1v33.8l.6-.8.7-.6v10.4l-.7.6c-.7.7-.7.8-.7 1.8v1h19.6v-7.7h-11.5V44c0-1.1 0-1.2.7-1.8l.7-.7V30.9l5.7-3L134 25v-5.6l-.7.5-.6.6v-1.6c0-1.1 0-1.6-.2-1.6l-5.7 2.9a247 247 0 01-5.5 2.8l-.1-6.8V9.3h11.5V1.5h-7.1c-7.2 0-7.2 0-8.2.5z"/>
</svg>
