<svg xmlns="http://www.w3.org/2000/svg" viewBox="0 0 165 53"><path fill="#6F7B81" d="M34.29.398c-1.05.347-1.823.866-2.77 1.923-.946 1.04-1.445 2.01-1.737 3.343-.12.623-.19 4.035-.19 10.392v9.491l-.688.676-.688.675v26.085h6.469l.671-.693c.62-.641.74-.693 1.583-.693h.912v-1.974l-.688.675-.689.676V34.502l2.977-1.576 2.96-1.576.051 6.755c.017 3.706.086 6.737.155 6.737s.378-.242.688-.554l.568-.554v7.863h8.258v-16.35l-.688.675-.688.676v-14.67c0-14.359 0-14.705-.361-15.745l-.344-1.056.619-.641c.482-.502.602-.745.516-1.022-.206-.658-1.858-2.182-2.925-2.72L47.23.243 41.12.208c-4.68-.035-6.28.017-6.83.19zm56.606 0c-2.116.676-3.991 2.876-4.508 5.266-.12.589-.189 3.412-.189 7.967v7.067l-.688.675-.688.676v12.314c0 13.406 0 13.372.98 15.19.568 1.057 1.79 2.217 2.994 2.858l.93.485 5.505.052 5.506.052.688-.71.671-.693h6.641v-6.824l-.688.675-.688.676-.035-13.545-.051-13.527-5.712 2.962-5.73 2.98v4.554c0 2.512.035 4.556.086 4.556.052 0 .792-.347 1.635-.78.843-.433 1.583-.78 1.634-.78.052 0 .086 2.841.086 6.323v6.322h-6.194V13.96l.689-.745.688-.762V7.95h4.37l-.671.693-.671.693h1.789v4.59c0 2.528.052 4.59.104 4.59.051 0 1.875-.953 4.043-2.096l3.957-2.096-.052-3.845-.051-3.828-.55-1.16c-.328-.693-.913-1.542-1.429-2.062l-.894-.9.636-.641.637-.658-.413-.277c-1.136-.745-1.635-.797-7.777-.78-4.319 0-6.056.07-6.59.225zm61.458.433l-.671.71h-13.868v14.1l.689-.676.688-.676v10.392l-.688.676-.689.675v26.951h.568c.43 0 .723-.156 1.239-.693l.671-.693h7.157v-3.55c0-1.958-.051-3.551-.12-3.551s-.378.242-.688.554l-.568.554V34.71l.843-.45.843-.45 1.514 3.48c.826 1.923 1.532 3.517 1.566 3.551.034.052.361-.225.74-.589l.67-.658.5 1.109c.275.606 1.135 2.58 1.927 4.364l1.428 3.257-.62.64c-.344.364-.636.728-.636.814 0 .104.292.85.636 1.68l.654 1.525h4.44c2.425 0 4.421-.052 4.421-.139 0-.07-.912-2.165-2.013-4.676l-2.013-4.556.637-.64c.344-.364.636-.728.636-.814 0-.104-.86-2.148-1.927-4.556l-1.927-4.364-.705.692-.689.693-.997-2.286c-.551-1.247-.964-2.286-.947-2.304.035-.034 1.24-.64 2.684-1.368l2.616-1.316v-9.682c0-5.456-.07-10.046-.173-10.548a8.291 8.291 0 00-.533-1.68l-.378-.797.636-.658c.344-.347.62-.728.62-.814 0-.347-2.065-2.165-2.874-2.546-.636-.278-1.239-.382-2.718-.433l-1.893-.07-.688.71zM18.393.953l-.62.606-8.878-.017L0 1.524v18.099l.688-.675.688-.675v33.324h2.306l-.671.693-.688.71 7.656-.052 7.657-.052 1.066-.589c1.927-1.039 3.252-2.875 3.665-5.04.103-.52.172-3.862.172-7.673V32.84l.688-.745.689-.762V19.07c0-7.535-.07-12.644-.173-13.198-.395-2.148-1.737-4.001-3.595-5.006-.551-.294-1.033-.537-1.084-.537-.035 0-.327.277-.671.624zm-2.736 22.81v15.814l-.688.675-.688.676v4.26h-4.027l.671-.692.671-.693H9.463V9.959l-.688.676-.688.675V9.336H9.17c1.033 0 1.119-.035 1.755-.693l.671-.693h4.06v15.813zm40.949-7.551v14.67l.688-.675.688-.676v19.572l-.688.675c-.671.676-.688.693-.688 1.94v1.265h8.086V42.487l.689-.676.688-.675V21.217l-.568.555c-.31.311-.62.554-.688.554-.069 0-.12-2.927-.12-6.495V9.336h6.193V12.8c0 1.905.052 3.464.12 3.464.07 0 .38-.243.689-.555l.568-.554v19.572l-.688.676-.689.675v16.905h8.259V27.99l.688-.745.688-.762V6.668l-.688.676c-.722.71-.74.693-.929-.433-.292-1.767-1.927-3.897-3.665-4.78-.929-.45-1.17-.503-3.355-.555-1.927-.052-2.563-.017-3.338.243-1.204.38-2.512 1.35-3.269 2.424l-.585.832V1.542h-8.086v14.67zm60.873-14.255c-1.738.71-2.84 1.819-3.717 3.707l-.464.987-.052 16.887-.034 16.87.688-.675.688-.676V49.45l-.688.676c-.654.64-.688.727-.688 1.767v1.09h19.614V45.19h-11.528v-1.18c0-1.143.017-1.195.688-1.853l.689-.676.034-5.283.052-5.3 5.677-2.944 5.678-2.945.052-2.823c.017-1.541-.017-2.806-.086-2.806-.069 0-.379.243-.688.555l-.568.554v-1.594c0-1.09-.069-1.593-.19-1.593-.12 0-2.683 1.282-5.694 2.858-3.029 1.576-5.523 2.858-5.575 2.858-.034 0-.069-3.083-.069-6.842v-6.84h11.528V1.542h-7.175c-7.14 0-7.192.017-8.172.415z"/></svg>