<?xml version="1.0" encoding="UTF-8"?>
<svg width="141px" height="156px" viewBox="0 0 141 156" version="1.1" xmlns="http://www.w3.org/2000/svg" xmlns:xlink="http://www.w3.org/1999/xlink">
    <!-- Generator: Sketch 47.1 (45422) - http://www.bohemiancoding.com/sketch -->
    <title>jest</title>
    <desc>Created with Sketch.</desc>
    <defs></defs>
    <g id="Page-1" stroke="none" stroke-width="1" fill="none" fill-rule="evenodd">
        <g id="prettier-homepage" transform="translate(-833.000000, -2725.000000)">
            <g id="jest" transform="translate(836.000000, 2728.000000)">
                <g id="Layer_1">
                    <path d="M116.211071,74.3221429 C116.018214,74.4392857 109.657857,73.3721429 101.687857,72.8325 C95.1789286,72.3914286 87.5964286,72.4082143 81.4221429,72.8264286 C76.4153571,73.1653571 69.8371429,70.6485714 69.0510714,73.6396429 C66.1089286,84.8364286 59.7785714,94.5878571 51.7257143,102.185357 C45.6675,107.900714 38.7339286,112.234643 31.2346429,114.905 C22.3064286,110.318571 18.09,100.117857 21.8946429,91.1739286 C24.9121429,84.08 28.4232143,76.2667857 21.9410714,74.4792857 C17.2221429,73.1778571 14.6310714,77.6982143 12.8171429,82.5310714 C9.34214286,91.7892857 2.73892857,101.369643 0.857142857,112.717143 C-1.12928571,124.696429 0.850714286,137.4125 11.2114286,144.593214 C35.3407143,161.316786 61.5328571,134.226071 89.1489286,127.416071 C99.1575,124.947857 110.143571,125.345714 118.961429,120.238571 C125.583214,116.403214 129.948571,110.0475 131.1875,102.911429 C133.180357,91.4339286 127.209286,80.0307143 116.211071,74.3221429 Z" id="Shape" stroke="#6F7B81" stroke-width="5" fill-rule="nonzero"></path>
                    <polygon id="Shape" fill="#182025" fill-rule="nonzero" points="91.2014286 28.9892857 110.601786 68.565 133.849286 0 48.4960714 0 71.69 68.4432143"></polygon>
                    <polygon id="Shape" stroke="#6F7B81" stroke-width="6" points="91.2014286 28.9892857 110.601786 68.565 133.848929 0 48.4960714 0 71.69 68.4432143"></polygon>
                    <circle id="Oval" stroke="#82D7DA" fill="#182025" fill-rule="nonzero" cx="67.6642857" cy="73.7796429" r="14.6232143"></circle>
                    <circle id="Oval" stroke="#6F7B81" stroke-width="10" cx="67.6642857" cy="73.7796429" r="14.6232143"></circle>
                    <circle id="Oval" fill="#182025" fill-rule="nonzero" cx="115.301429" cy="73.7796429" r="14.6232143"></circle>
                    <circle id="Oval" stroke="#6F7B81" stroke-width="10" cx="115.301429" cy="73.7796429" r="14.6232143"></circle>
                    <circle id="Oval" fill="#182025" fill-rule="nonzero" cx="19.8467857" cy="73.8846429" r="14.6232143"></circle>
                    <circle id="Oval" stroke="#6F7B81" stroke-width="10" cx="19.8467857" cy="73.8846429" r="14.6232143"></circle>
                </g>
            </g>
        </g>
    </g>
</svg>