<svg viewBox="0 0 156 139" xmlns="http://www.w3.org/2000/svg"><g fill="none" fill-rule="evenodd" transform="translate(3 3)"><circle cx="74.7" cy="66.2" fill="#6f7b81" fill-rule="nonzero" r="13.9"/><g stroke="#6f7b81" stroke-width="6"><path d="M124.4 45.1c15.9 5.5 25.6 13.7 25.6 21.2 0 7.8-10.3 16.6-27.4 22.2A157.8 157.8 0 0175 95c-18.3 0-35.6-2-48.6-6.5C9.9 82.9 0 74 0 66.3c0-7.4 9.3-15.6 25-21 13.1-4.6 31-7.4 50-7.4a158 158 0 0149.4 7.2z"/><path d="M50.3 52.2a157.2 157.2 0 0131-39.3c12.5-11 24.5-15.3 31-11.6 6.8 4 9.2 17.3 5.6 34.9a158.3 158.3 0 01-18.1 44.6 157.3 157.3 0 01-30 39c-13 11.4-25.6 15.6-32.3 11.7-6.4-3.7-8.8-15.9-5.8-32.2a159 159 0 0118.6-47.1z"/><path d="M31.9 34.1c-3.2-16.4-1-29 5.5-32.7 6.8-4 19.6.6 33 12.5 10.2 9 20.6 22.5 29.5 38a158 158 0 0118.8 45.2c3.3 17 .6 30-6 34-6.5 3.6-18.3-.3-30.8-11-10.6-9.2-22-23.3-31.5-39.7a156.5 156.5 0 01-18.5-46.3z"/></g></g></svg>