<svg viewBox="0 0 151 58" xmlns="http://www.w3.org/2000/svg">
  <path d="M103.2 4.9l-.1-1-1 .2.1.9zm3 8v.2h.8c0-.2 0-.4.2-.7v-.3c-.4 0-.7.3-1 .8zM92.5 23.4c0-.3-1-1.5-2.8-3.5 0-.4.6-1 2-1.7l3.6-3.3c.9-1 1.4-2.7 1.5-5.1v-.5c-.2-1.7-1.4-3-3.6-4-1.4-1-3.8-1.4-7.2-1.5-2.9.2-6.6 1.3-11.3 3a46 46 0 01-4.3 2.8v.3c.1 0 .3 0 .5-.2.1 0 .3 0 .3.2l.2-.1h.2v.1c0 .1-1 1-3 2.3l.1.3h-.4l-.4.1v.1l.3.4h-.5c-.4 0-.9.2-1.4.7l.2-.8c.7-3 1.2-5.6 1.4-7.8v-.1c-.5-.3-1-.8-1.4-1.3v-.7h-.1c-1.5 2.2-4.3 6-8.5 11.3a48.3 48.3 0 00-5 6.3C51.8 22 51 22.8 51.2 23c-.3.3-.5.5-.4.7h-.2a4 4 0 01-2.5 1.6l-1.1.3c-.2 0-.3.2-.3.3v.2l.5-.1v.1l-1 .4-1.7.4h-.9c-.1.2.7 0 .4.1l-1.1.3c-.7.1-1.1 0-1.2-.2h-.1v.3-.3l-1 .3c0-.5-1.3-2-3.7-4.7 0-.5.8-1.2 2.6-2.2l4.8-4.3a12 12 0 002-6.7V9c-.3-2.2-1.9-4-4.8-5.3a20 20 0 00-9.5-2 57 57 0 00-14.8 4 56.3 56.3 0 01-5.7 3.7v.4l.6-.3c.3 0 .4.1.4.4l.4-.3h.2v.2c0 .2-1.3 1.2-4 3.1l.2.3h-.7l-.6.1v.2l.5.5-.6-.1c-.9 0-1.7.7-2.5 1.9l.2.3 1.2-1v.5l-.5.3.5.7A15 15 0 019.7 14c.5.2.8.3.8.5h.4a31 31 0 018.5-4.6v.3c-.5.8-.8 1.2-1 1.2 0 .3 0 .5.3.7a82 82 0 01-3.9 9.7A237 237 0 010 52.5l.2.6a5 5 0 002-.8h.1v.4h.4l.4-.2.4.1v.4c0 .3-.2.9-.6 1.7-.4.4-.8 1.4-1.3 2.8v.2H2c1.6-1.8 2.8-3.6 3.6-5.3a53 53 0 0010.7-4 10 10 0 005.7-2v-.2l-1 .3h-.2v-.2c1.8-.2 3-.6 3.8-1.2a106 106 0 018-5.8 21 21 0 007.3-8l.6-.1h.9v-.3h1l1.5-.4c-.1 0-.2.1-.1.2l.2-.1h-.1l.2-.1H44h.5v.4l-6.3 10.2-1.4 1.7-.7 2.3h.2l.6-.3-.2 1v.2l.3.2-.1.2v.1h.3c.4-.4.6-.7.5-1h1v.2c-.3 0-.4.3-.5.6v.2h.2c2.3-2.6 8-11.2 12.6-17-.2-.7 2.2-1.6 7-2.7h.2c.2.7-.2 2.6-1.1 5.5a15 15 0 00-.9 3c-.7 2.3-1.1 3.6-1 3.8l-1.8 5.7a51.8 51.8 0 00-2.6 9.2h.5l.3-.2.1.1v-.4h.7c.2 0 .4-.4.6-.9 0-.7 0-1.2.4-1.2.5-1.9.8-2.8.9-2.8.4-1.8.7-2.9 1-3.1.6-2.4 1-3.6 1.4-3.7v.3l-.4 1.3c-.8 3.7-1.7 6.6-2.5 8.7l.2 1.1h.2c2-4.5 5-13.3 8.9-26.4 0-1.2.6-2 1.6-2.7l-.2-.3 1-.6c-.1-.1-.5-.3-1.3-.5l2-8.2.7-.6v.4a1 1 0 00-.4.2l.4.5a11.9 11.9 0 012.2-1.9l.6.4h.3a23 23 0 016.5-3.5v.3l-.8 1c0 .1 0 .3.2.4a199.9 199.9 0 01-14.1 30.7l.1.4c.8-.2 1.2-.3 1.4-.5h.2v.2h.3l.3-.1h.3v.4c0 .2-.1.7-.5 1.2-.3.4-.6 1.1-1 2.2v.2h.3c1.2-1.4 2.1-2.8 2.8-4 3.5-1.1 6.2-2.1 8-3.1 2-.2 3.4-.7 4.4-1.5v-.1l-.7.2h-.2v-.2c1.4-.2 2.4-.5 2.9-.9l6-4.4c4.4-3.1 6.4-6.1 6.1-9zm-.4.2l.2 1.1c-.2.3-.5.4-.7.4l-.3-1.9c.6.1.8.3.8.4zM7.7 15h-.3v-.8l1-.2v.5c-.2 0-.4.2-.7.5zM3.9 52c-.5-.2-.9-.3-1.2-.2v-.6c0-.2 0-.3.3-.4.3 0 .4.2.4.5a8 8 0 011-1.2l.5.2c-.1 1-.5 1.7-1 1.7zm40-41.9c-.2 0-.6-.5-1.1-1.7v-.3c.3 0 .7.5 1 1.7zM43.4 6l-.2.4L37.8 4c3.6.1 5.5.7 5.6 1.9zM20.6 26.2l-1 .2v-.9l1-.1zM20 13.9h.2l.1.5c-.2 0-.6.3-1 .8v-.4c.5-.4.7-.7.7-1zm-1.3 3.8l.3 1h-.7l-.3-1zM17.5 19h.5c0 .6-.3 1-.7 1H17c.4-.4.5-.8.5-1zm-.6 2l.3-.1v.2l-.5.7h-.5v-.1c.5 0 .7-.3.7-.8zm-.2 1.6l-.3 1H16l-.2-1zM10 40.3c-.3 1.3-.6 2-1 2V42c0-.7.3-1.2 1-1.8zm-.7 2.5v.3c.1.4-.2.7-.9.7v-.3c0-.4.2-.6 1-.7zm-1 5.2H9v.4l-.6.5-.4.1c0-.4.1-.7.4-.9zm16.6-5a30.5 30.5 0 00-5.7 3.2c-3.5 1.3-5.3 2-5.2 2.3a57.4 57.4 0 00-6.2 2.7c-.2 0-.6 0-1-.2 0-.7.2-1.2.8-1.6a3.3 3.3 0 011.6.2l3-1v-.3H11l3.4-1.5h.6v.1c-1 .1-1.6.4-1.7 1 0 .2.2.3.4.2.8-.4 1.1-.7 1.1-.8 1.4-.2 5.3-2.3 11.7-6.1v.3c0 .2-.5.7-1.6 1.5zM15 46a3.8 3.8 0 002.4-1.1c.3 0 .4 0 .4.3-.4 0-1.3.4-2.6 1.2H15zm15.8-12L26 37.8a50 50 0 01-5.8 3.6 44.4 44.4 0 01-10.9 5H9c.2-.6 2.8-5.9 7.8-15.8 2.2-.2 5.7-1.2 10.4-3.1l1.1-.1c2.4-.2 4.2.2 5.4 1.4v.7c-.8 2.5-1.8 4-2.9 4.5zm-9.5-5.2l1-.3v.7l-1 .3v-.7zm11-2.1h.6c.5.2.8.5.8.7v.2c-.5 0-1-.2-1.4-1zm1.6-9c-.5.7-2 1.7-4.2 3.2a40 40 0 00-8.4 3.3 1.5 1.5 0 00-.8-.2v-.3c-.1-.7.2-1.6.9-2.7.4-2 .8-3.1 1.2-3.4l4.1-9.1c0-.6.8-1 2.6-1.3h.6v.5l3.3-.5c3.2-.3 4.9.4 5 2h.4l-.1-1h.4c1 .5 1.5 1.1 1.5 1.9 0 .5-.2 1.1-.8 1.9-.2 0-.4-.2-.4-.5h-.4l-.1 1.1c-1.6 2.4-2.8 3.7-3.6 3.8-.6.9-1 1.3-1.2 1.4zm2.5 6.6c-.3-.3-.6-.4-.8-.4v-.6h.3l.8.5c0 .3 0 .4-.3.5zm2.6 3c.6.1.9.3 1 .5h-.3a.8.8 0 00-.2.1l-.4.3zm.2 2.2v-.6l1-.4v.6zm1.1.8l1.6-.6v.3l-1.6.7v-.4zm1.7.6c-.7 0-.6 0-1.7.3V31l1.4-.6.6-.2.1.3c-.3.1 0 .1-.4.4zm1.6 0c-.2.2-.4 0-.5-.6l.6-.3c.2 0 .3.1.4.7l-.5.3zm4-4.2v-.5l.8-.5.1.8zM51.9 53v-.9h.3c.4-.1.6 0 .6.4l.1.3zm3-26h-.3l-1.2.4H53c-.2.1-.3 0-.4-.2l2-.4.7-.3.2.2c-.3 0-.5.2-.7.3zm1.6-.2v-.2l.4-.4 1.4-.4v.2c-.7.2-1.3.5-1.8.8zm.2-3.2l-.4.2h-.6c0-.3 1-.7 3.2-1.2h.4v.2l-2.6.8zm4-4.2c-.2 1.7-.9 2.7-2 3v-.1l-1 .3-.4.1a1 1 0 01-.6 0v-.4c-.1-.1 1.3-2 4.2-5.8h.3c.1.5 0 1.5-.6 2.9zm7-5.3h-.3v-.8l1-.1v.4c-.2 0-.5.2-.8.5zm-3 27.9c-.4-.2-.7-.3-1-.2v-.5l.3-.3c.2 0 .3.1.3.4l.8-.9.3.1c0 .9-.3 1.3-.7 1.4zm30.5-31.8c-.2 0-.5-.5-1-1.4v-.2c.3 0 .6.4 1 1.3zM94.7 7l-.2.3-4-1.7c2.7 0 4 .5 4.2 1.4zm-17 15.5l-1 .2v-.9l.9-.1zM77 13h.3v.4c-.2 0-.5.2-.9.6v-.3c.4-.3.7-.6.6-.7zm-.8 2.9l.2 1h-.8l-.2-1zM75 17h.5c0 .6-.3 1-.7 1h-.3c.4-.4.5-.8.5-1zm-.4 1.4h.3v.2l-.5.8H74v-.2c.5 0 .8-.3.7-.8zm0 1.3l-.4 1h-.5l-.2-1h1zm-5.1 13.5c-.3 1-.7 1.4-1 1.4v-.1c0-.5.3-1 1-1.3zM69 35v.2c.1.5-.2.7-1 .8v-.4c0-.3.3-.5 1-.6zm-.8 4l.6-.2v.5c-.1 0-.4.2-.6.5h-.4c0-.4.1-.7.4-.9zm12.4-4a26 26 0 00-4.4 2.5c-2.7 1-4 1.5-4 1.7l-4.6 2-.8-.1c0-.5.2-.9.6-1.2a2.5 2.5 0 011.2.2l2.3-.8v-.2H70l2.6-1.2h.4v.1c-.7 0-1.2.3-1.3.7 0 .2.2.3.4.3l.8-.7c1-.2 4-1.7 8.9-4.6v.2c0 .2-.4.5-1.2 1.1zM73 37.6a3 3 0 001.9-.9c.1 0 .3.1.3.3a7 7 0 00-2 .8H73zm12-9.3l-3.7 3a35.8 35.8 0 01-4.5 2.8 33 33 0 01-8.2 3.7h-.1c0-.5 2-4.5 5.9-12 1.6-.2 4.2-1 7.8-2.4h1c1.8-.2 3.1.1 4 1v.5c-.6 2-1.4 3-2.2 3.4zm-7-3.8l1-.3v.7l-1 .3zm8.4-1.7h.4c.4.3.6.6.7.8v.2c-.4 0-.8-.3-1.1-1zm1.1-6.8a17 17 0 01-3.1 2.4c-.6 0-2.7.9-6.4 2.5a1.5 1.5 0 00-.6 0v-.4c0-.5.2-1.2.7-2 .3-1.5.6-2.4 1-2.6L82 9c0-.4.6-.7 2-1h.4v.4L87 8c2.5-.2 3.7.3 3.8 1.5h.3v-.7h.3c.7.4 1 .8 1 1.4.1.4 0 .9-.5 1.5-.2 0-.3-.2-.3-.4h-.3l-.1.8C89.9 14 89 15 88.4 15c-.5.7-.8 1-1 1zm1.3 4.9v-.7h.3l.7.6c0 .2 0 .4-.3.4l-.7-.3zM37.4 47.7h-.5l-.4.5c0 .4.2.5.6.4s.4-.3.3-.6zm-1.5-1.9l.1.3c.7 0 1-.3.8-.7v-.3c-.7.1-1 .4-.9.7zm8-18.3l.8-.2-.2-.8-.8.2.1.8zm100.7 7.8c-3.4.8-3.8.7-4.5.7v.3h.5l.3-.2c3.3-.4 3.7-.2 3.7-.6zm-18.2 2.4l.2 1h.4l-.2-1zm-1.8-7.3h-.4l-.6 1v.2c.4 0 .7-.4 1-1.2zm20.7 4.9v.7l1 .3v-.8zm-23 3l-.8-.2-.1.4v.3l4.5-.6v-.4zm-1.5-10v-.2h-.4l-.6.4.3.6c.5 0 .7-.3.7-.7zm26.6 5l.2-.1c.1 0 .2-.1.2-.3l-.1-.3c-.8.1-1.2.1-1.8.5v-.2l-1 .1-.1-.4h-.5c-.6.1-.8 0-1.1.3l-.1-.1h-.5l-.4.2v-.2l-.2.2v-.1l-.8-.1h-.2v.3h.8a.7.7 0 00.4.2l.3-.2v.1c-1.7.5-1.7.4-3 .6l-.2-.1c-.2 0-.3-.1-.3-.3h1.1c.5-.2.5-.3.8-.3v-.3c-1.8.4-1 .1-3.2.3h-.1V33c2.7-.4 1.8-.2 2.7-.5l.1.2a.6.6 0 01.4-.2h.2c1 0 1.3.1 3.2-.4h.6c0-.4.4-.4.6-.4v-.3c-3.4.7-4.3.5-5.2.7H139l-.3.2V32h-.1l-2.9.5s0-.1 0 0c-1.6.2-1.2.3-3.1.5a1 1 0 00-.4.1l-.2-.1-1.2.1-.8.2-.1-.1-1.2.2c-.2 0 0 0-.1-.1l-.2.1H127l-2.2.3h-.8l-.1.1c-1-.1-1.4-.3-1.4-.4.1-.9.3-1.3.6-1.4h.2l-.1.3h.1c.3-.1.4-.3.4-.4v-.3h-.3v-.3a1 1 0 010-.5l.7-1v.2h.4v-.3l-.2-.3.5-.3V29h-.4v-.4a12 12 0 001.2-3h.3c.2 0 .3 0 .3-.3h-.3a1 1 0 010-.7c.5-.5.7-1 .7-1.4h.1a55.7 55.7 0 003.9-9.2c2.4-6.5 2.3-7.2 2.7-8.8h-.3l-.1.6-.5-.1v-.1c0-.6.2-1.3.7-2h.2l.2.9h.3l.2-1.2c0-.1-.1-.2-.3-.2l-.3.1V1.7h-.1l-.4-.6-1.6.1-.2-.5 1.1-.4.3.1.3-.1s0 .1.2 0h.6V0H132l-.3.2V0l-12.8 1h-1.5c0 .2-.1.2-.4.3l-.3-.2-1 .3h-1.4a1.1 1.1 0 01-.6.2 213.1 213.1 0 001.8 0l-2.3.5-.4-.2-5.2.8h-.7l-1.4.2-2.5 1 .2.4c.1 0 .3 0 .5-.2h1l-.2.9c-.8.4-1.3 1-1.4 1.6-1.3.5-1.9 1-1.9 1.2v.1h.2l.4-.2.3.5.1.6a252.6 252.6 0 00-11.9 26.7c-1.2.3-2 .8-2.1 1.5 0 .2.4.3 1 .4l.1.3-.3.6v.6c0 .3 1 .6 2.7.8 0-.1 0-.2.2-.2 0 .4 0 1.2-.3 2.3h.2c.7-1 1-1.7 1-2h.2c.1 0 .3.1.5.5-.2.1-1 1.9-2.3 5.4l.2.3h.2c1.6-4.2 2.6-6.5 3-6.9l11.2-1.1.3-.2.2.1h.4l.3-.2c0 .1 0 .2.2.1l4-.3c1 0 1.6-.4 1.5-1 0-.1.6-.3 1.9-.4h.5l2-.3c0-.6.2-1 .5-1v-.3a5.5 5.5 0 00-1.2.2l-1.6-.1-.5.2h-2.8l-.3.2-.2-.1h-.2l-.3.2c0-.1-.3-.2-1-.3l-.3.2h-.7c3.6-.5 5.4-1 5.3-1.5.3 0 .4 0 .4.3l1-.3v-.3l-8.6.2-.1.2h-1c-.3 0-.6 0-.7.2l-.4-.2c-1.1.1-2 .2-2.4.4a15.2 15.2 0 00-2.5 0l-2 .2-.8-.1a44 44 0 015.2-11.5l.5.1 1.4-.4h.7c1.2 0 2.5-.4 4-1l1 .1 1-.2 3.1-.3c1.4 0 2.8-.4 4.3-.9v-.3c-.6 0-.9 0-.9-.3 0-.4-.4-.6-1.3-.5v-.3l.9-.3 2.2-.2v-.3h-1.4v-.4h.8c.3 0 .4-.2.3-.4-1.1 0-1.7 0-1.7-.2a74 74 0 01-12.3.3s-.3 0-.5.2l-.2-.4c2.2-4.5 3.4-6.8 3.8-6.9 0 .2 0 .5-.3.9v.1h.4c.8-2 1.6-3.1 2.2-3.2 2.5-.2-.4-.3 5-1.2l.6.1c2.1-.4 5-.9 9-1.3l-.1-.3-2 .1V5c.2 0 .4 0 .5-.2V5c.2 0 .3-.1.5-.3l.8.1 1.7-.3 1.3-.1c.3-.2.5-.4.5-.6v-.1a4 4 0 01-1.2 0c0-.3.1-.4.3-.4l2.4-.3 1-.2.2.1c.2 0 .3 0 .5-.2h.2a8.8 8.8 0 00-.5 1.3h-.3a1.4 1.4 0 00-.2-.5h-.1c-3 8-4.2 11.8-6.9 18-.5 1.6-.9 2.4-1.2 2.6 0 .2 0 .3.3.3 0 .7-.1 1.5-.6 2.3a23 23 0 01-2.4 5.8l.2 1.7c0 .2 0 .3-.2.3h-.3c0-.4-.2-.7-.5-.6h-.2a6.6 6.6 0 00-.8 2h.2c.4-.2.6-.5.6-.9h.8l-.4 1 .2.4-.4.8v.2c.3 0 .7 0 1.1.3.3 0 .6-.1.9-.4h3.7l1-.4h3.2l.2-.3v.2h2.3v.2h-.7v.4a1 1 0 00.6-.2c.1 0 .2 0 .2.2a4 4 0 00-.9.2h-.3l-.6.1h-.5c0 .2 0 .3.2.3h.5l2.4-.2 1-.2.5-.1h.8l2-.4.1-.1v.1l2.8-.5c.6-.1.3 0 .5-.2v.2h.5V36h-1.1c-.5.2-.5 0-.9.1l-2 .1v-.1l1.1-.2h.4l.3-.2v.2c1.6-.2 2.1.2 9.5-1.3.4 0 .4-.4.7-1.1a.7.7 0 01-.4 0l-2.1.2c-.1 0-.2 0-.3-.2v-.2h1.2c.2 0 .6 0 1.2-.3 0 0-.2.1 0 .1zm-54.7.8h-.5c0-.2.2-1 .8-2.3h.3l-.6 2.3zm.6-2v-.3c0-.4.3-.6 1-.7v.3c0 .4-.3.6-1 .7zm7 4.8v.7l-.9.3v-.6zm-1 0c0 .3-.3.6-1 1l-1-.2H97v-.5l2.2-.4zm7-32l-.6.1v-.3c0-.3.1-.6.4-.7h.2l.4.3c0 .4-.1.6-.4.6zm8.2-2h.4v1h-1c0-.4.2-.8.6-1zM112.2 4l-.8-.1v-.2c1-.2 1.4-.4 2-.7 0 .2.1.3.3.3v.5h-.3a.7.7 0 01-.6-.1 1 1 0 01-.6.3zm1 3.3v-.6l1.2-.4v.5l-1.2.5zm1.3-1.1v-.8l1-.2V6l-1 .2zm.2-2.4h-.2l.2-.7 1.4-.3v.4a5 5 0 00-1.4.6zm.7 3.1v-.8l.6-.2c.3 0 .4.2.4.8zm3.8-5.7l-.8.9h-.2c-.3.1-.8 0-1.4-.1l2.4-.8zm-.9 3.5v.6l-1 .4v-.6zm1.8 1.2c0-.2-.2-.3-.6-.4l-1.1.5h-.9c-.2-.1-.3-.3-.3-.4h1l2.2-.5h1.1v.4a4.2 4.2 0 00-1.4.4zm11.3-3.2h.3a4.3 4.3 0 011.3-1c-.4 1.8-1 3.1-1.9 4l-.6-.4 1-2.6zM129.8 6h.3c-.4.6-.7 1-1 1v-.7l.7-.3zm-1.5 2.9c.3-1.2.6-1.9.9-2-.2 1.2-.4 1.8-.8 1.8l.1.7c-.3.4-.4.7-.4 1h-.1l-.1-1c.2 0 .3-.2.4-.5zm0 1.6l-.6 1.1h-.3v-.4c.3-.5.7-.7 1-.7zM119 36.7v-.3h.8l.1 1a1 1 0 01-1-.7zm12.8.8c0-.3 0-.4-.2-.4l-.7.2V37l1.8-.4v.4c-.5 0-.8.3-1 .6zm-.5-1c.6.3.3.6 0 .8-.3-.1-.7-.4 0-.8zm-.3-1.6l-1 .1v-.2l.9-.2.8-.3.1.2 1.3-.5c.1 0 .2.2.2.5zm3.4 0c-.6-.2-.6-.3-1-.2v-.5l.9-.3v.5c-.1 0 .2.1 0 .5zm0 0v-.7l1-.3v.7zm1-.3v-.4l.5-.5c.3-.1.5.4.5 1zm1.4 0v-.8l1-.2v.8zm.8-.4c0-.4 0-.7.3-.8l.3.7.1-.4.3.7zM130 38l-.2-1-.8.1.2 1zm19-5.6c.1 0 .2-.2-.2-.2-.2.1.2.2-.2.2v.2l.3-.2-.3.2-.4.6.9-.3v-.5h-.1zm.5.5h-.2v1l1-.2c0-.6-.6-.8-.8-.8zm-1.1-.3h.1v-.2l-.1.2z" fill="#6f7b81"/>
</svg>
