<svg width="191" height="25" viewBox="0 0 191 25" fill="none" xmlns="http://www.w3.org/2000/svg" class="h-4 w-auto text-black min-w-[9rem]"><path d="M190.046 12.0629L184.858 12.2015C184.804 11.8318 184.657 11.5044 184.418 11.2194C184.18 10.9266 183.868 10.6994 183.483 10.5376C183.105 10.3681 182.666 10.2834 182.165 10.2834C181.51 10.2834 180.952 10.4143 180.49 10.6763C180.035 10.9382 179.812 11.2925 179.82 11.7393C179.812 12.086 179.951 12.3864 180.236 12.6406C180.528 12.8948 181.048 13.099 181.795 13.2531L185.216 13.9001C186.988 14.2391 188.305 14.8014 189.168 15.5872C190.038 16.3729 190.477 17.4129 190.485 18.7071C190.477 19.9242 190.115 20.9834 189.399 21.8847C188.69 22.786 187.719 23.4871 186.487 23.9878C185.254 24.4808 183.845 24.7273 182.258 24.7273C179.723 24.7273 177.724 24.2073 176.261 23.1674C174.805 22.1197 173.973 20.7177 173.765 18.9613L179.346 18.8226C179.469 19.4697 179.789 19.9627 180.305 20.3017C180.821 20.6406 181.48 20.8101 182.281 20.8101C183.005 20.8101 183.594 20.6753 184.049 20.4057C184.503 20.1361 184.734 19.7779 184.742 19.3311C184.734 18.9305 184.557 18.6108 184.211 18.372C183.864 18.1255 183.321 17.9329 182.581 17.7942L179.484 17.2049C177.705 16.8814 176.38 16.2844 175.509 15.4139C174.639 14.5357 174.208 13.4187 174.215 12.0629C174.208 10.8766 174.523 9.86355 175.163 9.02388C175.802 8.1765 176.711 7.52941 177.89 7.08261C179.068 6.63581 180.459 6.41241 182.061 6.41241C184.465 6.41241 186.36 6.91699 187.746 7.92614C189.133 8.92758 189.899 10.3065 190.046 12.0629Z" fill="currentColor"></path><path d="M154.713 24.3922V0.727295H160.363V9.68253H160.479C160.71 9.14329 161.037 8.62331 161.461 8.12259C161.892 7.62186 162.439 7.21358 163.102 6.89774C163.772 6.5742 164.573 6.41243 165.505 6.41243C166.738 6.41243 167.89 6.73597 168.96 7.38306C170.039 8.03014 170.909 9.02774 171.572 10.3758C172.234 11.7239 172.566 13.4418 172.566 15.5294C172.566 17.54 172.246 19.2232 171.607 20.579C170.975 21.9348 170.12 22.9517 169.041 23.6296C167.97 24.3075 166.78 24.6464 165.471 24.6464C164.577 24.6464 163.803 24.5001 163.148 24.2073C162.493 23.9146 161.943 23.5294 161.496 23.0518C161.057 22.5742 160.718 22.0619 160.479 21.515H160.306V24.3922H154.713ZM160.248 15.5179C160.248 16.4731 160.375 17.3051 160.629 18.0138C160.891 18.7225 161.265 19.2733 161.75 19.6662C162.243 20.0513 162.832 20.2439 163.518 20.2439C164.211 20.2439 164.801 20.0513 165.286 19.6662C165.771 19.2733 166.137 18.7225 166.384 18.0138C166.638 17.3051 166.765 16.4731 166.765 15.5179C166.765 14.5627 166.638 13.7345 166.384 13.0335C166.137 12.3325 165.771 11.7894 165.286 11.4042C164.808 11.0191 164.219 10.8265 163.518 10.8265C162.825 10.8265 162.235 11.0152 161.75 11.3927C161.265 11.7702 160.891 12.3094 160.629 13.0104C160.375 13.7114 160.248 14.5472 160.248 15.5179Z" fill="currentColor"></path><path d="M141.626 24.6926C140.494 24.6926 139.489 24.5039 138.61 24.1264C137.74 23.7413 137.051 23.1635 136.542 22.3932C136.041 21.6151 135.791 20.6406 135.791 19.4697C135.791 18.4837 135.964 17.6517 136.311 16.9738C136.658 16.2959 137.135 15.7451 137.744 15.3214C138.352 14.8977 139.053 14.578 139.847 14.3624C140.64 14.139 141.488 13.9887 142.389 13.9117C143.398 13.8193 144.211 13.723 144.827 13.6228C145.443 13.515 145.89 13.3648 146.168 13.1722C146.453 12.9719 146.595 12.6907 146.595 12.3286V12.2709C146.595 11.6777 146.391 11.2194 145.983 10.8958C145.574 10.5723 145.024 10.4105 144.33 10.4105C143.583 10.4105 142.982 10.5723 142.528 10.8958C142.073 11.2194 141.784 11.6662 141.661 12.2362L136.45 12.0513C136.604 10.9728 137 10.0099 137.64 9.16254C138.287 8.30746 139.173 7.63726 140.298 7.15194C141.43 6.65892 142.79 6.41241 144.376 6.41241C145.509 6.41241 146.553 6.54722 147.508 6.81684C148.463 7.07876 149.295 7.46393 150.004 7.97236C150.713 8.47308 151.259 9.08936 151.645 9.82118C152.038 10.553 152.234 11.3888 152.234 12.3286V24.3922H146.919V21.9194H146.78C146.464 22.5203 146.06 23.0287 145.567 23.4447C145.081 23.8607 144.507 24.1727 143.845 24.3807C143.19 24.5887 142.451 24.6926 141.626 24.6926ZM143.371 20.995C143.98 20.995 144.527 20.8717 145.012 20.6252C145.505 20.3787 145.898 20.0398 146.191 19.6084C146.483 19.1693 146.63 18.6609 146.63 18.0831V16.3961C146.468 16.4808 146.272 16.5578 146.04 16.6272C145.817 16.6965 145.571 16.762 145.301 16.8236C145.031 16.8852 144.754 16.9391 144.469 16.9854C144.184 17.0316 143.91 17.074 143.649 17.1125C143.117 17.1972 142.662 17.3282 142.285 17.5053C141.915 17.6825 141.63 17.9136 141.43 18.1987C141.237 18.476 141.141 18.8072 141.141 19.1924C141.141 19.7779 141.349 20.2247 141.765 20.5328C142.189 20.8409 142.724 20.995 143.371 20.995Z" fill="currentColor"></path><path d="M119.073 24.3922V0.727295H124.793V19.7471H134.638V24.3922H119.073Z" fill="currentColor"></path><path d="M105.077 14.2699V24.3922H99.4265V6.64352H104.8V9.90207H104.996C105.389 8.81588 106.059 7.96465 107.007 7.34838C107.954 6.7244 109.083 6.41241 110.392 6.41241C111.64 6.41241 112.723 6.69359 113.639 7.25594C114.564 7.81059 115.28 8.58863 115.789 9.59008C116.305 10.5838 116.559 11.747 116.551 13.0797V24.3922H110.901V14.189C110.908 13.203 110.658 12.4326 110.15 11.878C109.649 11.3233 108.952 11.046 108.058 11.046C107.465 11.046 106.941 11.177 106.487 11.4389C106.04 11.6931 105.693 12.059 105.447 12.5366C105.208 13.0143 105.085 13.592 105.077 14.2699Z" fill="currentColor"></path><path d="M89.0931 24.7273C87.2366 24.7273 85.6343 24.3614 84.2862 23.6296C82.9458 22.89 81.9135 21.8385 81.1894 20.475C80.473 19.1038 80.1147 17.4745 80.1147 15.5872C80.1147 13.7538 80.4768 12.1515 81.2009 10.7803C81.925 9.40134 82.9458 8.33057 84.263 7.56793C85.5803 6.79759 87.1326 6.41241 88.9198 6.41241C90.1831 6.41241 91.3386 6.60885 92.3863 7.00173C93.434 7.3946 94.3391 7.97621 95.1018 8.74655C95.8644 9.5169 96.4576 10.4683 96.8813 11.6007C97.3049 12.7254 97.5168 14.0157 97.5168 15.4716V16.8814H82.0907V13.5997H92.2592C92.2515 12.9988 92.109 12.4635 91.8317 11.9935C91.5543 11.5236 91.173 11.1577 90.6877 10.8958C90.2101 10.6262 89.6593 10.4914 89.0353 10.4914C88.4036 10.4914 87.8374 10.6339 87.3367 10.9189C86.836 11.1962 86.4393 11.5776 86.1465 12.0629C85.8538 12.5405 85.6997 13.0836 85.6843 13.6922V17.0316C85.6843 17.7557 85.8268 18.3912 86.1119 18.9382C86.3969 19.4774 86.8013 19.8973 87.3251 20.1977C87.849 20.4981 88.473 20.6483 89.1971 20.6483C89.6978 20.6483 90.1523 20.579 90.5606 20.4404C90.9689 20.3017 91.3194 20.0976 91.6121 19.8279C91.9048 19.5583 92.1244 19.2271 92.2708 18.8342L97.459 18.9844C97.2433 20.1476 96.7696 21.1606 96.0377 22.0234C95.3136 22.8785 94.3622 23.5448 93.1836 24.0225C92.005 24.4924 90.6415 24.7273 89.0931 24.7273Z" fill="currentColor"></path><path d="M80.1782 6.64349L74.0887 24.3922H67.6178L61.5398 6.64349H67.4907L70.7608 18.8688H70.9457L74.2273 6.64349H80.1782Z" fill="currentColor"></path><path d="M53.1043 24.7273C51.2478 24.7273 49.6455 24.3614 48.2974 23.6296C46.957 22.89 45.9247 21.8385 45.2006 20.475C44.4842 19.1038 44.126 17.4745 44.126 15.5872C44.126 13.7538 44.488 12.1515 45.2122 10.7803C45.9363 9.40134 46.957 8.33057 48.2743 7.56793C49.5916 6.79759 51.1438 6.41241 52.931 6.41241C54.1944 6.41241 55.3499 6.60885 56.3975 7.00173C57.4452 7.3946 58.3504 7.97621 59.113 8.74655C59.8756 9.5169 60.4688 10.4683 60.8925 11.6007C61.3162 12.7254 61.528 14.0157 61.528 15.4716V16.8814H46.1019V13.5997H56.2704C56.2627 12.9988 56.1202 12.4635 55.8429 11.9935C55.5656 11.5236 55.1842 11.1577 54.6989 10.8958C54.2213 10.6262 53.6705 10.4914 53.0465 10.4914C52.4149 10.4914 51.8487 10.6339 51.3479 10.9189C50.8472 11.1962 50.4505 11.5776 50.1578 12.0629C49.865 12.5405 49.711 13.0836 49.6956 13.6922V17.0316C49.6956 17.7557 49.8381 18.3912 50.1231 18.9382C50.4081 19.4774 50.8126 19.8973 51.3364 20.1977C51.8602 20.4981 52.4842 20.6483 53.2083 20.6483C53.709 20.6483 54.1635 20.579 54.5718 20.4404C54.9801 20.3017 55.3306 20.0976 55.6233 19.8279C55.9161 19.5583 56.1356 19.2271 56.282 18.8342L61.4702 18.9844C61.2545 20.1476 60.7808 21.1606 60.049 22.0234C59.3248 22.8785 58.3735 23.5448 57.1948 24.0225C56.0162 24.4924 54.6527 24.7273 53.1043 24.7273Z" fill="currentColor"></path><path d="M42.1873 0.727295V24.3922H36.5369V0.727295H42.1873Z" fill="currentColor"></path><path d="M17.4302 24.3922V0.727295H33.9309V5.37246H23.15V10.2256H33.0874V14.8823H23.15V19.7471H33.9309V24.3922H17.4302Z" fill="currentColor"></path><path d="M14.8155 0.727295V24.3922H9.0957V0.727295H14.8155Z" fill="currentColor"></path><path d="M6.48127 0.727295V24.3922H0.761475V0.727295H6.48127Z" fill="currentColor"></path></svg>