<?xml version="1.0" encoding="UTF-8"?>
<svg width="140px" height="150px" viewBox="0 0 140 150" version="1.1" xmlns="http://www.w3.org/2000/svg" xmlns:xlink="http://www.w3.org/1999/xlink">
    <!-- Generator: Sketch 47.1 (45422) - http://www.bohemiancoding.com/sketch -->
    <title>yarn-kitten-outline</title>
    <desc>Created with Sketch.</desc>
    <defs></defs>
    <g id="Page-1" stroke="none" stroke-width="1" fill="none" fill-rule="evenodd">
        <g id="prettier-homepage" transform="translate(-367.000000, -2728.000000)" fill-rule="nonzero" fill="#6F7B81">
            <g id="yarn-kitten-outline" transform="translate(367.000000, 2728.000000)">
                <path d="M139.736677,109.442815 C138.946708,103.196481 133.680251,98.8856305 126.92163,98.973607 C116.827586,99.1055718 108.357367,104.340176 102.739812,107.815249 C100.545455,109.178886 98.6583072,110.190616 97.0344828,110.938416 C97.3855799,105.835777 97.0783699,99.1495601 94.4451411,91.8035191 C91.2413793,83.0058651 86.9404389,77.5953079 83.8683386,74.4721408 C87.4231975,69.2815249 92.2946708,61.7155425 94.5768025,50.0146628 C96.5517241,40.0293255 95.9373041,24.5014663 91.4169279,15.7917889 C90.4952978,14.0322581 88.9592476,12.7565982 87.0282132,12.228739 C86.2382445,12.0087977 84.7460815,11.568915 81.8056426,12.4046921 C77.5047022,3.2111437 75.968652,2.24340176 74.7836991,1.49560117 C72.3260188,-0.0879765396 69.4294671,-0.439882698 66.7084639,0.571847507 C63.0658307,1.8914956 59.9498433,5.41055718 57.0094044,11.6568915 C56.5705329,12.5806452 56.1755486,13.4604106 55.8244514,14.340176 C50.2507837,14.7360704 41.4733542,16.7595308 34.0564263,24.8093842 C33.1347962,25.8211144 31.3354232,26.568915 29.4482759,27.2727273 L29.492163,27.2727273 C25.630094,28.5923754 23.830721,31.7595308 21.7241379,37.4780059 C18.7398119,45.483871 21.8119122,53.3577713 24.8401254,58.4604106 C20.7147335,62.1554252 15.2288401,68.0498534 12.3322884,74.9560117 C8.73354232,83.4897361 8.33855799,91.8475073 8.47021944,96.3782991 C5.39811912,99.6334311 0.65830721,105.747801 0.131661442,112.609971 C-0.570532915,122.199413 2.89655172,128.709677 4.43260188,131.085044 C4.87147335,131.788856 5.35423197,132.360704 5.88087774,132.932551 C5.70532915,134.120235 5.66144201,135.395894 5.92476489,136.715543 C6.49529781,139.794721 8.42633229,142.302053 11.3667712,143.88563 C17.1598746,146.964809 25.2351097,148.284457 31.4670846,145.16129 C33.7053292,147.536657 37.7868339,149.824047 45.2037618,149.824047 L45.6426332,149.824047 C47.5297806,149.824047 71.492163,148.548387 78.4702194,146.832845 C81.5862069,146.085044 83.7366771,144.765396 85.1410658,143.577713 C89.6175549,142.170088 101.99373,137.947214 113.667712,130.381232 C121.918495,125.014663 124.77116,123.870968 130.915361,122.375367 C136.752351,120.923754 140.526646,115.513196 139.736677,109.442815 L139.736677,109.442815 Z M110.068966,124.794721 C96.4639498,133.592375 81.630094,137.683284 81.630094,137.683284 C81.630094,137.683284 80.4012539,139.530792 76.846395,140.366569 C70.7021944,141.86217 47.5736677,143.13783 45.4670846,143.181818 C39.8056426,143.225806 36.338558,141.730205 35.3730408,139.398827 C32.4326019,132.360704 39.5862069,129.281525 39.5862069,129.281525 C39.5862069,129.281525 38.0062696,128.313783 37.0846395,127.434018 C36.2507837,126.59824 35.3730408,124.926686 35.1097179,125.542522 C34.0125392,128.225806 33.4420063,134.780059 30.5015674,137.727273 C26.4639498,141.818182 18.8275862,140.454545 14.30721,138.079179 C9.34796238,135.439883 14.6583072,129.237537 14.6583072,129.237537 C14.6583072,129.237537 11.9811912,130.821114 9.830721,127.565982 C7.89968652,124.57478 6.10031348,119.472141 6.5830721,113.181818 C7.10971787,106.01173 15.0971787,99.0615836 15.0971787,99.0615836 C15.0971787,99.0615836 13.69279,88.4604106 18.3009404,77.5953079 C22.4702194,67.6979472 33.7053292,59.7360704 33.7053292,59.7360704 C33.7053292,59.7360704 24.2695925,49.2668622 27.7805643,39.8533724 C30.0626959,33.6950147 30.984326,33.7390029 31.7304075,33.4750733 C34.3636364,32.4633431 36.9090909,31.3636364 38.7962382,29.2961877 C48.2319749,19.0909091 60.2570533,21.026393 60.2570533,21.026393 C60.2570533,21.026393 65.9623824,3.65102639 71.2288401,7.03812317 C72.8526646,8.09384164 78.6896552,21.1143695 78.6896552,21.1143695 C78.6896552,21.1143695 84.9216301,17.4633431 85.6238245,18.8269795 C89.3981191,26.1730205 89.8369906,40.2052786 88.169279,48.7390029 C85.3605016,62.8152493 78.338558,70.3812317 75.5297806,75.1319648 C74.8714734,76.2316716 83.0783699,79.7067449 88.2570533,94.0909091 C93.0407524,107.243402 88.7836991,118.284457 89.5297806,119.516129 C89.7053292,119.824047 95.1912226,120.26393 106.206897,113.445748 C112.087774,109.794721 119.065831,105.703812 127.009404,105.615836 C134.689655,105.483871 135.084639,114.545455 129.335423,115.909091 C122.31348,117.580645 118.758621,119.120235 110.068966,124.794721 Z" id="Shape"></path>
            </g>
        </g>
    </g>
</svg>