<?xml version="1.0" encoding="UTF-8"?>
<svg width="210px" height="210px" viewBox="0 0 210 210" version="1.1" xmlns="http://www.w3.org/2000/svg" xmlns:xlink="http://www.w3.org/1999/xlink">
    <!-- Generator: sketchtool 46.2 (44496) - http://www.bohemiancoding.com/sketch -->
    <title>prettier-icon-dark</title>
    <desc>Created with sketchtool.</desc>
    <defs></defs>
    <g id="key" stroke="none" stroke-width="1" fill="none" fill-rule="evenodd">
        <g id="prettier-icon-dark">
            <g id="Icon-(Dark)">
                <g id="line-11" transform="translate(0.000000, 200.000000)">
                    <rect id="line-11-dash-3" fill="#4D616E" opacity="0.5" x="150" y="0" width="60" height="10" rx="5"></rect>
                    <rect id="line-11-dash-2" fill="#4D616E" opacity="0.5" x="70" y="0" width="70" height="10" rx="5"></rect>
                    <rect id="line-11-dash-1" fill="#EA5E5E" x="0" y="0" width="60" height="10" rx="5"></rect>
                </g>
                <g id="line-10" transform="translate(0.000000, 180.000000)">
                    <rect id="line-10-dash-5" fill="#4D616E" opacity="0.5" x="160" y="0" width="50" height="10" rx="5"></rect>
                    <rect id="line-10-dash-4" fill="#4D616E" opacity="0.5" x="130" y="0" width="20" height="10" rx="5"></rect>
                    <rect id="line-10-dash-3" fill="#4D616E" opacity="0.5" x="70" y="0" width="50" height="10" rx="5"></rect>
                    <rect id="line-10-dash-2" fill="#F7B93E" x="40" y="0" width="20" height="10" rx="5"></rect>
                    <rect id="line-10-dash-1" fill="#56B3B4" x="0" y="0" width="30" height="10" rx="5"></rect>
                </g>
                <g id="line-9" transform="translate(0.000000, 160.000000)">
                    <rect id="line-9-dash-3" fill="#4D616E" opacity="0.5" x="110" y="0" width="100" height="10" rx="5"></rect>
                    <rect id="line-9-dash-2" fill="#4D616E" opacity="0.5" x="70" y="0" width="30" height="10" rx="5"></rect>
                    <rect id="line-9-dash-1" fill="#BF85BF" x="0" y="0" width="60" height="10" rx="5"></rect>
                </g>
                <g id="line-8" transform="translate(0.000000, 140.000000)">
                    <rect id="line-8-dash-4" fill="#4D616E" opacity="0.5" x="180" y="0" width="30" height="10" rx="5"></rect>
                    <rect id="line-8-dash-3" fill="#4D616E" opacity="0.5" x="140" y="0" width="30" height="10" rx="5"></rect>
                    <rect id="line-8-dash-2" fill="#F7B93E" x="30" y="0" width="100" height="10" rx="5"></rect>
                    <rect id="line-8-dash-1" fill="#BF85BF" x="0" y="0" width="20" height="10" rx="5"></rect>
                </g>
                <g id="line-7" transform="translate(0.000000, 120.000000)">
                    <rect id="line-7-dash-4" fill="#4D616E" opacity="0.5" x="170" y="0" width="40" height="10" rx="5"></rect>
                    <rect id="line-7-dash-3" fill="#BF85BF" x="120" y="0" width="40" height="10" rx="5"></rect>
                    <rect id="line-7-dash-2" fill="#EA5E5E" x="60" y="0" width="50" height="10" rx="5"></rect>
                    <rect id="line-7-dash-1" fill="#56B3B4" x="0" y="0" width="50" height="10" rx="5"></rect>
                </g>
                <g id="line-6" transform="translate(0.000000, 100.000000)">
                    <rect id="line-6-dash-4" fill="#4D616E" opacity="0.5" x="180" y="0" width="30" height="10" rx="5"></rect>
                    <rect id="line-6-dash-3" fill="#56B3B4" x="80" y="0" width="90" height="10" rx="5"></rect>
                    <rect id="line-6-dash-2" fill="#F7B93E" x="30" y="0" width="40" height="10" rx="5"></rect>
                    <rect id="line-6-dash-1" fill="#EA5E5E" x="0" y="0" width="20" height="10" rx="5"></rect>
                </g>
                <g id="line-5" transform="translate(0.000000, 80.000000)">
                    <rect id="line-5-dash-4" fill="#4D616E" opacity="0.5" x="190" y="0" width="20" height="10" rx="5"></rect>
                    <rect id="line-5-dash-3" fill="#F7B93E" x="120" y="0" width="60" height="10" rx="5"></rect>
                    <rect id="line-5-dash-2" fill="#4D616E" opacity="0.5" x="70" y="0" width="40" height="10" rx="5"></rect>
                    <rect id="line-5-dash-1" fill="#BF85BF" x="0" y="0" width="60" height="10" rx="5"></rect>
                </g>
                <g id="line-4" transform="translate(0.000000, 60.000000)">
                    <rect id="line-4-dash-5" fill="#4D616E" opacity="0.5" x="190" y="0" width="20" height="10" rx="5"></rect>
                    <rect id="line-4-dash-4" fill="#EA5E5E" x="120" y="0" width="60" height="10" rx="5"></rect>
                    <rect id="line-4-dash-3" fill="#4D616E" opacity="0.5" x="70" y="0" width="40" height="10" rx="5"></rect>
                    <rect id="line-4-dash-2" fill="#56B3B4" x="40" y="0" width="20" height="10" rx="5"></rect>
                    <rect id="line-4-dash-1" fill="#F7B93E" x="0" y="0" width="30" height="10" rx="5"></rect>
                </g>
                <g id="line-3" transform="translate(0.000000, 40.000000)">
                    <rect id="line-3-dash-4" fill="#4D616E" opacity="0.5" x="180" y="0" width="30" height="10" rx="5"></rect>
                    <rect id="line-3-dash-3" fill="#56B3B4" x="150" y="0" width="20" height="10" rx="5"></rect>
                    <rect id="line-3-dash-2" fill="#BF85BF" x="90" y="0" width="50" height="10" rx="5"></rect>
                    <rect id="line-3-dash-1" fill="#56B3B4" x="0" y="0" width="80" height="10" rx="5"></rect>
                </g>
                <g id="line-2" transform="translate(0.000000, 20.000000)">
                    <rect id="line-2-dash-3" fill="#4D616E" opacity="0.5" x="170" y="0" width="40" height="10" rx="5"></rect>
                    <rect id="line-2-dash-2" fill="#F7B93E" x="50" y="0" width="110" height="10" rx="5"></rect>
                    <rect id="line-2-dash-1" fill="#EA5E5E" x="0" y="0" width="40" height="10" rx="5"></rect>
                </g>
                <g id="line-1">
                    <rect id="line-1-dash-2" fill="#4D616E" opacity="0.5" x="140" y="0" width="70" height="10" rx="5"></rect>
                    <rect id="line-1-dash-1" fill="#56B3B4" x="0" y="0" width="130" height="10" rx="5"></rect>
                </g>
            </g>
        </g>
    </g>
</svg>